%TF.GenerationSoftware,KiCad,Pcbnew,8.0.4*%
%TF.CreationDate,2024-10-15T15:40:35-05:00*%
%TF.ProjectId,verification_unit,76657269-6669-4636-9174-696f6e5f756e,rev?*%
%TF.SameCoordinates,Original*%
%TF.FileFunction,Other,Comment*%
%FSLAX46Y46*%
G04 Gerber Fmt 4.6, Leading zero omitted, Abs format (unit mm)*
G04 Created by KiCad (PCBNEW 8.0.4) date 2024-10-15 15:40:35*
%MOMM*%
%LPD*%
G01*
G04 APERTURE LIST*
%ADD10C,0.002000*%
G04 APERTURE END LIST*
D10*
X150762817Y-120875904D02*
X150756769Y-120881952D01*
X150756769Y-120881952D02*
X150738627Y-120887999D01*
X150738627Y-120887999D02*
X150726531Y-120887999D01*
X150726531Y-120887999D02*
X150708388Y-120881952D01*
X150708388Y-120881952D02*
X150696293Y-120869856D01*
X150696293Y-120869856D02*
X150690246Y-120857761D01*
X150690246Y-120857761D02*
X150684198Y-120833571D01*
X150684198Y-120833571D02*
X150684198Y-120815428D01*
X150684198Y-120815428D02*
X150690246Y-120791237D01*
X150690246Y-120791237D02*
X150696293Y-120779142D01*
X150696293Y-120779142D02*
X150708388Y-120767047D01*
X150708388Y-120767047D02*
X150726531Y-120760999D01*
X150726531Y-120760999D02*
X150738627Y-120760999D01*
X150738627Y-120760999D02*
X150756769Y-120767047D01*
X150756769Y-120767047D02*
X150762817Y-120773094D01*
X150835388Y-120887999D02*
X150823293Y-120881952D01*
X150823293Y-120881952D02*
X150817246Y-120875904D01*
X150817246Y-120875904D02*
X150811198Y-120863809D01*
X150811198Y-120863809D02*
X150811198Y-120827523D01*
X150811198Y-120827523D02*
X150817246Y-120815428D01*
X150817246Y-120815428D02*
X150823293Y-120809380D01*
X150823293Y-120809380D02*
X150835388Y-120803332D01*
X150835388Y-120803332D02*
X150853531Y-120803332D01*
X150853531Y-120803332D02*
X150865627Y-120809380D01*
X150865627Y-120809380D02*
X150871674Y-120815428D01*
X150871674Y-120815428D02*
X150877722Y-120827523D01*
X150877722Y-120827523D02*
X150877722Y-120863809D01*
X150877722Y-120863809D02*
X150871674Y-120875904D01*
X150871674Y-120875904D02*
X150865627Y-120881952D01*
X150865627Y-120881952D02*
X150853531Y-120887999D01*
X150853531Y-120887999D02*
X150835388Y-120887999D01*
X150932151Y-120803332D02*
X150932151Y-120930332D01*
X150932151Y-120809380D02*
X150944246Y-120803332D01*
X150944246Y-120803332D02*
X150968436Y-120803332D01*
X150968436Y-120803332D02*
X150980532Y-120809380D01*
X150980532Y-120809380D02*
X150986579Y-120815428D01*
X150986579Y-120815428D02*
X150992627Y-120827523D01*
X150992627Y-120827523D02*
X150992627Y-120863809D01*
X150992627Y-120863809D02*
X150986579Y-120875904D01*
X150986579Y-120875904D02*
X150980532Y-120881952D01*
X150980532Y-120881952D02*
X150968436Y-120887999D01*
X150968436Y-120887999D02*
X150944246Y-120887999D01*
X150944246Y-120887999D02*
X150932151Y-120881952D01*
X151034960Y-120803332D02*
X151065198Y-120887999D01*
X151095437Y-120803332D02*
X151065198Y-120887999D01*
X151065198Y-120887999D02*
X151053103Y-120918237D01*
X151053103Y-120918237D02*
X151047056Y-120924285D01*
X151047056Y-120924285D02*
X151034960Y-120930332D01*
X151143818Y-120887999D02*
X151143818Y-120803332D01*
X151143818Y-120827523D02*
X151149865Y-120815428D01*
X151149865Y-120815428D02*
X151155913Y-120809380D01*
X151155913Y-120809380D02*
X151168008Y-120803332D01*
X151168008Y-120803332D02*
X151180103Y-120803332D01*
X151222437Y-120887999D02*
X151222437Y-120803332D01*
X151222437Y-120760999D02*
X151216389Y-120767047D01*
X151216389Y-120767047D02*
X151222437Y-120773094D01*
X151222437Y-120773094D02*
X151228484Y-120767047D01*
X151228484Y-120767047D02*
X151222437Y-120760999D01*
X151222437Y-120760999D02*
X151222437Y-120773094D01*
X151337341Y-120803332D02*
X151337341Y-120906142D01*
X151337341Y-120906142D02*
X151331294Y-120918237D01*
X151331294Y-120918237D02*
X151325246Y-120924285D01*
X151325246Y-120924285D02*
X151313151Y-120930332D01*
X151313151Y-120930332D02*
X151295008Y-120930332D01*
X151295008Y-120930332D02*
X151282913Y-120924285D01*
X151337341Y-120881952D02*
X151325246Y-120887999D01*
X151325246Y-120887999D02*
X151301055Y-120887999D01*
X151301055Y-120887999D02*
X151288960Y-120881952D01*
X151288960Y-120881952D02*
X151282913Y-120875904D01*
X151282913Y-120875904D02*
X151276865Y-120863809D01*
X151276865Y-120863809D02*
X151276865Y-120827523D01*
X151276865Y-120827523D02*
X151282913Y-120815428D01*
X151282913Y-120815428D02*
X151288960Y-120809380D01*
X151288960Y-120809380D02*
X151301055Y-120803332D01*
X151301055Y-120803332D02*
X151325246Y-120803332D01*
X151325246Y-120803332D02*
X151337341Y-120809380D01*
X151397818Y-120887999D02*
X151397818Y-120760999D01*
X151452246Y-120887999D02*
X151452246Y-120821475D01*
X151452246Y-120821475D02*
X151446199Y-120809380D01*
X151446199Y-120809380D02*
X151434103Y-120803332D01*
X151434103Y-120803332D02*
X151415960Y-120803332D01*
X151415960Y-120803332D02*
X151403865Y-120809380D01*
X151403865Y-120809380D02*
X151397818Y-120815428D01*
X151494580Y-120803332D02*
X151542961Y-120803332D01*
X151512723Y-120760999D02*
X151512723Y-120869856D01*
X151512723Y-120869856D02*
X151518770Y-120881952D01*
X151518770Y-120881952D02*
X151530865Y-120887999D01*
X151530865Y-120887999D02*
X151542961Y-120887999D01*
X151676008Y-120773094D02*
X151682056Y-120767047D01*
X151682056Y-120767047D02*
X151694151Y-120760999D01*
X151694151Y-120760999D02*
X151724389Y-120760999D01*
X151724389Y-120760999D02*
X151736484Y-120767047D01*
X151736484Y-120767047D02*
X151742532Y-120773094D01*
X151742532Y-120773094D02*
X151748579Y-120785190D01*
X151748579Y-120785190D02*
X151748579Y-120797285D01*
X151748579Y-120797285D02*
X151742532Y-120815428D01*
X151742532Y-120815428D02*
X151669960Y-120887999D01*
X151669960Y-120887999D02*
X151748579Y-120887999D01*
X151827198Y-120760999D02*
X151839293Y-120760999D01*
X151839293Y-120760999D02*
X151851389Y-120767047D01*
X151851389Y-120767047D02*
X151857436Y-120773094D01*
X151857436Y-120773094D02*
X151863484Y-120785190D01*
X151863484Y-120785190D02*
X151869531Y-120809380D01*
X151869531Y-120809380D02*
X151869531Y-120839618D01*
X151869531Y-120839618D02*
X151863484Y-120863809D01*
X151863484Y-120863809D02*
X151857436Y-120875904D01*
X151857436Y-120875904D02*
X151851389Y-120881952D01*
X151851389Y-120881952D02*
X151839293Y-120887999D01*
X151839293Y-120887999D02*
X151827198Y-120887999D01*
X151827198Y-120887999D02*
X151815103Y-120881952D01*
X151815103Y-120881952D02*
X151809055Y-120875904D01*
X151809055Y-120875904D02*
X151803008Y-120863809D01*
X151803008Y-120863809D02*
X151796960Y-120839618D01*
X151796960Y-120839618D02*
X151796960Y-120809380D01*
X151796960Y-120809380D02*
X151803008Y-120785190D01*
X151803008Y-120785190D02*
X151809055Y-120773094D01*
X151809055Y-120773094D02*
X151815103Y-120767047D01*
X151815103Y-120767047D02*
X151827198Y-120760999D01*
X151990483Y-120887999D02*
X151917912Y-120887999D01*
X151954198Y-120887999D02*
X151954198Y-120760999D01*
X151954198Y-120760999D02*
X151942102Y-120779142D01*
X151942102Y-120779142D02*
X151930007Y-120791237D01*
X151930007Y-120791237D02*
X151917912Y-120797285D01*
X152099340Y-120760999D02*
X152075150Y-120760999D01*
X152075150Y-120760999D02*
X152063054Y-120767047D01*
X152063054Y-120767047D02*
X152057007Y-120773094D01*
X152057007Y-120773094D02*
X152044912Y-120791237D01*
X152044912Y-120791237D02*
X152038864Y-120815428D01*
X152038864Y-120815428D02*
X152038864Y-120863809D01*
X152038864Y-120863809D02*
X152044912Y-120875904D01*
X152044912Y-120875904D02*
X152050959Y-120881952D01*
X152050959Y-120881952D02*
X152063054Y-120887999D01*
X152063054Y-120887999D02*
X152087245Y-120887999D01*
X152087245Y-120887999D02*
X152099340Y-120881952D01*
X152099340Y-120881952D02*
X152105388Y-120875904D01*
X152105388Y-120875904D02*
X152111435Y-120863809D01*
X152111435Y-120863809D02*
X152111435Y-120833571D01*
X152111435Y-120833571D02*
X152105388Y-120821475D01*
X152105388Y-120821475D02*
X152099340Y-120815428D01*
X152099340Y-120815428D02*
X152087245Y-120809380D01*
X152087245Y-120809380D02*
X152063054Y-120809380D01*
X152063054Y-120809380D02*
X152050959Y-120815428D01*
X152050959Y-120815428D02*
X152044912Y-120821475D01*
X152044912Y-120821475D02*
X152038864Y-120833571D01*
X152256578Y-120851713D02*
X152317054Y-120851713D01*
X152244483Y-120887999D02*
X152286816Y-120760999D01*
X152286816Y-120760999D02*
X152329149Y-120887999D01*
X152425911Y-120881952D02*
X152413816Y-120887999D01*
X152413816Y-120887999D02*
X152389625Y-120887999D01*
X152389625Y-120887999D02*
X152377530Y-120881952D01*
X152377530Y-120881952D02*
X152371483Y-120875904D01*
X152371483Y-120875904D02*
X152365435Y-120863809D01*
X152365435Y-120863809D02*
X152365435Y-120827523D01*
X152365435Y-120827523D02*
X152371483Y-120815428D01*
X152371483Y-120815428D02*
X152377530Y-120809380D01*
X152377530Y-120809380D02*
X152389625Y-120803332D01*
X152389625Y-120803332D02*
X152413816Y-120803332D01*
X152413816Y-120803332D02*
X152425911Y-120809380D01*
X152534768Y-120881952D02*
X152522673Y-120887999D01*
X152522673Y-120887999D02*
X152498482Y-120887999D01*
X152498482Y-120887999D02*
X152486387Y-120881952D01*
X152486387Y-120881952D02*
X152480340Y-120875904D01*
X152480340Y-120875904D02*
X152474292Y-120863809D01*
X152474292Y-120863809D02*
X152474292Y-120827523D01*
X152474292Y-120827523D02*
X152480340Y-120815428D01*
X152480340Y-120815428D02*
X152486387Y-120809380D01*
X152486387Y-120809380D02*
X152498482Y-120803332D01*
X152498482Y-120803332D02*
X152522673Y-120803332D01*
X152522673Y-120803332D02*
X152534768Y-120809380D01*
X152637578Y-120881952D02*
X152625482Y-120887999D01*
X152625482Y-120887999D02*
X152601292Y-120887999D01*
X152601292Y-120887999D02*
X152589197Y-120881952D01*
X152589197Y-120881952D02*
X152583149Y-120869856D01*
X152583149Y-120869856D02*
X152583149Y-120821475D01*
X152583149Y-120821475D02*
X152589197Y-120809380D01*
X152589197Y-120809380D02*
X152601292Y-120803332D01*
X152601292Y-120803332D02*
X152625482Y-120803332D01*
X152625482Y-120803332D02*
X152637578Y-120809380D01*
X152637578Y-120809380D02*
X152643625Y-120821475D01*
X152643625Y-120821475D02*
X152643625Y-120833571D01*
X152643625Y-120833571D02*
X152583149Y-120845666D01*
X152716196Y-120887999D02*
X152704101Y-120881952D01*
X152704101Y-120881952D02*
X152698054Y-120869856D01*
X152698054Y-120869856D02*
X152698054Y-120760999D01*
X152812959Y-120881952D02*
X152800863Y-120887999D01*
X152800863Y-120887999D02*
X152776673Y-120887999D01*
X152776673Y-120887999D02*
X152764578Y-120881952D01*
X152764578Y-120881952D02*
X152758530Y-120869856D01*
X152758530Y-120869856D02*
X152758530Y-120821475D01*
X152758530Y-120821475D02*
X152764578Y-120809380D01*
X152764578Y-120809380D02*
X152776673Y-120803332D01*
X152776673Y-120803332D02*
X152800863Y-120803332D01*
X152800863Y-120803332D02*
X152812959Y-120809380D01*
X152812959Y-120809380D02*
X152819006Y-120821475D01*
X152819006Y-120821475D02*
X152819006Y-120833571D01*
X152819006Y-120833571D02*
X152758530Y-120845666D01*
X152873435Y-120887999D02*
X152873435Y-120803332D01*
X152873435Y-120827523D02*
X152879482Y-120815428D01*
X152879482Y-120815428D02*
X152885530Y-120809380D01*
X152885530Y-120809380D02*
X152897625Y-120803332D01*
X152897625Y-120803332D02*
X152909720Y-120803332D01*
X153006482Y-120887999D02*
X153006482Y-120821475D01*
X153006482Y-120821475D02*
X153000435Y-120809380D01*
X153000435Y-120809380D02*
X152988339Y-120803332D01*
X152988339Y-120803332D02*
X152964149Y-120803332D01*
X152964149Y-120803332D02*
X152952054Y-120809380D01*
X153006482Y-120881952D02*
X152994387Y-120887999D01*
X152994387Y-120887999D02*
X152964149Y-120887999D01*
X152964149Y-120887999D02*
X152952054Y-120881952D01*
X152952054Y-120881952D02*
X152946006Y-120869856D01*
X152946006Y-120869856D02*
X152946006Y-120857761D01*
X152946006Y-120857761D02*
X152952054Y-120845666D01*
X152952054Y-120845666D02*
X152964149Y-120839618D01*
X152964149Y-120839618D02*
X152994387Y-120839618D01*
X152994387Y-120839618D02*
X153006482Y-120833571D01*
X153048816Y-120803332D02*
X153097197Y-120803332D01*
X153066959Y-120760999D02*
X153066959Y-120869856D01*
X153066959Y-120869856D02*
X153073006Y-120881952D01*
X153073006Y-120881952D02*
X153085101Y-120887999D01*
X153085101Y-120887999D02*
X153097197Y-120887999D01*
X153187911Y-120881952D02*
X153175815Y-120887999D01*
X153175815Y-120887999D02*
X153151625Y-120887999D01*
X153151625Y-120887999D02*
X153139530Y-120881952D01*
X153139530Y-120881952D02*
X153133482Y-120869856D01*
X153133482Y-120869856D02*
X153133482Y-120821475D01*
X153133482Y-120821475D02*
X153139530Y-120809380D01*
X153139530Y-120809380D02*
X153151625Y-120803332D01*
X153151625Y-120803332D02*
X153175815Y-120803332D01*
X153175815Y-120803332D02*
X153187911Y-120809380D01*
X153187911Y-120809380D02*
X153193958Y-120821475D01*
X153193958Y-120821475D02*
X153193958Y-120833571D01*
X153193958Y-120833571D02*
X153133482Y-120845666D01*
X153302815Y-120887999D02*
X153302815Y-120760999D01*
X153302815Y-120881952D02*
X153290720Y-120887999D01*
X153290720Y-120887999D02*
X153266529Y-120887999D01*
X153266529Y-120887999D02*
X153254434Y-120881952D01*
X153254434Y-120881952D02*
X153248387Y-120875904D01*
X153248387Y-120875904D02*
X153242339Y-120863809D01*
X153242339Y-120863809D02*
X153242339Y-120827523D01*
X153242339Y-120827523D02*
X153248387Y-120815428D01*
X153248387Y-120815428D02*
X153254434Y-120809380D01*
X153254434Y-120809380D02*
X153266529Y-120803332D01*
X153266529Y-120803332D02*
X153290720Y-120803332D01*
X153290720Y-120803332D02*
X153302815Y-120809380D01*
X153460054Y-120887999D02*
X153460054Y-120760999D01*
X153460054Y-120760999D02*
X153490292Y-120760999D01*
X153490292Y-120760999D02*
X153508435Y-120767047D01*
X153508435Y-120767047D02*
X153520530Y-120779142D01*
X153520530Y-120779142D02*
X153526577Y-120791237D01*
X153526577Y-120791237D02*
X153532625Y-120815428D01*
X153532625Y-120815428D02*
X153532625Y-120833571D01*
X153532625Y-120833571D02*
X153526577Y-120857761D01*
X153526577Y-120857761D02*
X153520530Y-120869856D01*
X153520530Y-120869856D02*
X153508435Y-120881952D01*
X153508435Y-120881952D02*
X153490292Y-120887999D01*
X153490292Y-120887999D02*
X153460054Y-120887999D01*
X153635435Y-120881952D02*
X153623339Y-120887999D01*
X153623339Y-120887999D02*
X153599149Y-120887999D01*
X153599149Y-120887999D02*
X153587054Y-120881952D01*
X153587054Y-120881952D02*
X153581006Y-120869856D01*
X153581006Y-120869856D02*
X153581006Y-120821475D01*
X153581006Y-120821475D02*
X153587054Y-120809380D01*
X153587054Y-120809380D02*
X153599149Y-120803332D01*
X153599149Y-120803332D02*
X153623339Y-120803332D01*
X153623339Y-120803332D02*
X153635435Y-120809380D01*
X153635435Y-120809380D02*
X153641482Y-120821475D01*
X153641482Y-120821475D02*
X153641482Y-120833571D01*
X153641482Y-120833571D02*
X153581006Y-120845666D01*
X153689863Y-120881952D02*
X153701958Y-120887999D01*
X153701958Y-120887999D02*
X153726149Y-120887999D01*
X153726149Y-120887999D02*
X153738244Y-120881952D01*
X153738244Y-120881952D02*
X153744292Y-120869856D01*
X153744292Y-120869856D02*
X153744292Y-120863809D01*
X153744292Y-120863809D02*
X153738244Y-120851713D01*
X153738244Y-120851713D02*
X153726149Y-120845666D01*
X153726149Y-120845666D02*
X153708006Y-120845666D01*
X153708006Y-120845666D02*
X153695911Y-120839618D01*
X153695911Y-120839618D02*
X153689863Y-120827523D01*
X153689863Y-120827523D02*
X153689863Y-120821475D01*
X153689863Y-120821475D02*
X153695911Y-120809380D01*
X153695911Y-120809380D02*
X153708006Y-120803332D01*
X153708006Y-120803332D02*
X153726149Y-120803332D01*
X153726149Y-120803332D02*
X153738244Y-120809380D01*
X153798721Y-120887999D02*
X153798721Y-120803332D01*
X153798721Y-120760999D02*
X153792673Y-120767047D01*
X153792673Y-120767047D02*
X153798721Y-120773094D01*
X153798721Y-120773094D02*
X153804768Y-120767047D01*
X153804768Y-120767047D02*
X153798721Y-120760999D01*
X153798721Y-120760999D02*
X153798721Y-120773094D01*
X153913625Y-120803332D02*
X153913625Y-120906142D01*
X153913625Y-120906142D02*
X153907578Y-120918237D01*
X153907578Y-120918237D02*
X153901530Y-120924285D01*
X153901530Y-120924285D02*
X153889435Y-120930332D01*
X153889435Y-120930332D02*
X153871292Y-120930332D01*
X153871292Y-120930332D02*
X153859197Y-120924285D01*
X153913625Y-120881952D02*
X153901530Y-120887999D01*
X153901530Y-120887999D02*
X153877339Y-120887999D01*
X153877339Y-120887999D02*
X153865244Y-120881952D01*
X153865244Y-120881952D02*
X153859197Y-120875904D01*
X153859197Y-120875904D02*
X153853149Y-120863809D01*
X153853149Y-120863809D02*
X153853149Y-120827523D01*
X153853149Y-120827523D02*
X153859197Y-120815428D01*
X153859197Y-120815428D02*
X153865244Y-120809380D01*
X153865244Y-120809380D02*
X153877339Y-120803332D01*
X153877339Y-120803332D02*
X153901530Y-120803332D01*
X153901530Y-120803332D02*
X153913625Y-120809380D01*
X153974102Y-120803332D02*
X153974102Y-120887999D01*
X153974102Y-120815428D02*
X153980149Y-120809380D01*
X153980149Y-120809380D02*
X153992244Y-120803332D01*
X153992244Y-120803332D02*
X154010387Y-120803332D01*
X154010387Y-120803332D02*
X154022483Y-120809380D01*
X154022483Y-120809380D02*
X154028530Y-120821475D01*
X154028530Y-120821475D02*
X154028530Y-120887999D01*
X154082959Y-120881952D02*
X154095054Y-120887999D01*
X154095054Y-120887999D02*
X154119245Y-120887999D01*
X154119245Y-120887999D02*
X154131340Y-120881952D01*
X154131340Y-120881952D02*
X154137388Y-120869856D01*
X154137388Y-120869856D02*
X154137388Y-120863809D01*
X154137388Y-120863809D02*
X154131340Y-120851713D01*
X154131340Y-120851713D02*
X154119245Y-120845666D01*
X154119245Y-120845666D02*
X154101102Y-120845666D01*
X154101102Y-120845666D02*
X154089007Y-120839618D01*
X154089007Y-120839618D02*
X154082959Y-120827523D01*
X154082959Y-120827523D02*
X154082959Y-120821475D01*
X154082959Y-120821475D02*
X154089007Y-120809380D01*
X154089007Y-120809380D02*
X154101102Y-120803332D01*
X154101102Y-120803332D02*
X154119245Y-120803332D01*
X154119245Y-120803332D02*
X154131340Y-120809380D01*
X154191817Y-120875904D02*
X154197864Y-120881952D01*
X154197864Y-120881952D02*
X154191817Y-120887999D01*
X154191817Y-120887999D02*
X154185769Y-120881952D01*
X154185769Y-120881952D02*
X154191817Y-120875904D01*
X154191817Y-120875904D02*
X154191817Y-120887999D01*
X154343007Y-120851713D02*
X154403483Y-120851713D01*
X154330912Y-120887999D02*
X154373245Y-120760999D01*
X154373245Y-120760999D02*
X154415578Y-120887999D01*
X154476054Y-120887999D02*
X154463959Y-120881952D01*
X154463959Y-120881952D02*
X154457912Y-120869856D01*
X154457912Y-120869856D02*
X154457912Y-120760999D01*
X154542578Y-120887999D02*
X154530483Y-120881952D01*
X154530483Y-120881952D02*
X154524436Y-120869856D01*
X154524436Y-120869856D02*
X154524436Y-120760999D01*
X154687722Y-120887999D02*
X154687722Y-120803332D01*
X154687722Y-120827523D02*
X154693769Y-120815428D01*
X154693769Y-120815428D02*
X154699817Y-120809380D01*
X154699817Y-120809380D02*
X154711912Y-120803332D01*
X154711912Y-120803332D02*
X154724007Y-120803332D01*
X154766341Y-120887999D02*
X154766341Y-120803332D01*
X154766341Y-120760999D02*
X154760293Y-120767047D01*
X154760293Y-120767047D02*
X154766341Y-120773094D01*
X154766341Y-120773094D02*
X154772388Y-120767047D01*
X154772388Y-120767047D02*
X154766341Y-120760999D01*
X154766341Y-120760999D02*
X154766341Y-120773094D01*
X154881245Y-120803332D02*
X154881245Y-120906142D01*
X154881245Y-120906142D02*
X154875198Y-120918237D01*
X154875198Y-120918237D02*
X154869150Y-120924285D01*
X154869150Y-120924285D02*
X154857055Y-120930332D01*
X154857055Y-120930332D02*
X154838912Y-120930332D01*
X154838912Y-120930332D02*
X154826817Y-120924285D01*
X154881245Y-120881952D02*
X154869150Y-120887999D01*
X154869150Y-120887999D02*
X154844959Y-120887999D01*
X154844959Y-120887999D02*
X154832864Y-120881952D01*
X154832864Y-120881952D02*
X154826817Y-120875904D01*
X154826817Y-120875904D02*
X154820769Y-120863809D01*
X154820769Y-120863809D02*
X154820769Y-120827523D01*
X154820769Y-120827523D02*
X154826817Y-120815428D01*
X154826817Y-120815428D02*
X154832864Y-120809380D01*
X154832864Y-120809380D02*
X154844959Y-120803332D01*
X154844959Y-120803332D02*
X154869150Y-120803332D01*
X154869150Y-120803332D02*
X154881245Y-120809380D01*
X154941722Y-120887999D02*
X154941722Y-120760999D01*
X154996150Y-120887999D02*
X154996150Y-120821475D01*
X154996150Y-120821475D02*
X154990103Y-120809380D01*
X154990103Y-120809380D02*
X154978007Y-120803332D01*
X154978007Y-120803332D02*
X154959864Y-120803332D01*
X154959864Y-120803332D02*
X154947769Y-120809380D01*
X154947769Y-120809380D02*
X154941722Y-120815428D01*
X155038484Y-120803332D02*
X155086865Y-120803332D01*
X155056627Y-120760999D02*
X155056627Y-120869856D01*
X155056627Y-120869856D02*
X155062674Y-120881952D01*
X155062674Y-120881952D02*
X155074769Y-120887999D01*
X155074769Y-120887999D02*
X155086865Y-120887999D01*
X155123150Y-120881952D02*
X155135245Y-120887999D01*
X155135245Y-120887999D02*
X155159436Y-120887999D01*
X155159436Y-120887999D02*
X155171531Y-120881952D01*
X155171531Y-120881952D02*
X155177579Y-120869856D01*
X155177579Y-120869856D02*
X155177579Y-120863809D01*
X155177579Y-120863809D02*
X155171531Y-120851713D01*
X155171531Y-120851713D02*
X155159436Y-120845666D01*
X155159436Y-120845666D02*
X155141293Y-120845666D01*
X155141293Y-120845666D02*
X155129198Y-120839618D01*
X155129198Y-120839618D02*
X155123150Y-120827523D01*
X155123150Y-120827523D02*
X155123150Y-120821475D01*
X155123150Y-120821475D02*
X155129198Y-120809380D01*
X155129198Y-120809380D02*
X155141293Y-120803332D01*
X155141293Y-120803332D02*
X155159436Y-120803332D01*
X155159436Y-120803332D02*
X155171531Y-120809380D01*
X155328770Y-120887999D02*
X155328770Y-120803332D01*
X155328770Y-120827523D02*
X155334817Y-120815428D01*
X155334817Y-120815428D02*
X155340865Y-120809380D01*
X155340865Y-120809380D02*
X155352960Y-120803332D01*
X155352960Y-120803332D02*
X155365055Y-120803332D01*
X155455770Y-120881952D02*
X155443674Y-120887999D01*
X155443674Y-120887999D02*
X155419484Y-120887999D01*
X155419484Y-120887999D02*
X155407389Y-120881952D01*
X155407389Y-120881952D02*
X155401341Y-120869856D01*
X155401341Y-120869856D02*
X155401341Y-120821475D01*
X155401341Y-120821475D02*
X155407389Y-120809380D01*
X155407389Y-120809380D02*
X155419484Y-120803332D01*
X155419484Y-120803332D02*
X155443674Y-120803332D01*
X155443674Y-120803332D02*
X155455770Y-120809380D01*
X155455770Y-120809380D02*
X155461817Y-120821475D01*
X155461817Y-120821475D02*
X155461817Y-120833571D01*
X155461817Y-120833571D02*
X155401341Y-120845666D01*
X155510198Y-120881952D02*
X155522293Y-120887999D01*
X155522293Y-120887999D02*
X155546484Y-120887999D01*
X155546484Y-120887999D02*
X155558579Y-120881952D01*
X155558579Y-120881952D02*
X155564627Y-120869856D01*
X155564627Y-120869856D02*
X155564627Y-120863809D01*
X155564627Y-120863809D02*
X155558579Y-120851713D01*
X155558579Y-120851713D02*
X155546484Y-120845666D01*
X155546484Y-120845666D02*
X155528341Y-120845666D01*
X155528341Y-120845666D02*
X155516246Y-120839618D01*
X155516246Y-120839618D02*
X155510198Y-120827523D01*
X155510198Y-120827523D02*
X155510198Y-120821475D01*
X155510198Y-120821475D02*
X155516246Y-120809380D01*
X155516246Y-120809380D02*
X155528341Y-120803332D01*
X155528341Y-120803332D02*
X155546484Y-120803332D01*
X155546484Y-120803332D02*
X155558579Y-120809380D01*
X155667437Y-120881952D02*
X155655341Y-120887999D01*
X155655341Y-120887999D02*
X155631151Y-120887999D01*
X155631151Y-120887999D02*
X155619056Y-120881952D01*
X155619056Y-120881952D02*
X155613008Y-120869856D01*
X155613008Y-120869856D02*
X155613008Y-120821475D01*
X155613008Y-120821475D02*
X155619056Y-120809380D01*
X155619056Y-120809380D02*
X155631151Y-120803332D01*
X155631151Y-120803332D02*
X155655341Y-120803332D01*
X155655341Y-120803332D02*
X155667437Y-120809380D01*
X155667437Y-120809380D02*
X155673484Y-120821475D01*
X155673484Y-120821475D02*
X155673484Y-120833571D01*
X155673484Y-120833571D02*
X155613008Y-120845666D01*
X155727913Y-120887999D02*
X155727913Y-120803332D01*
X155727913Y-120827523D02*
X155733960Y-120815428D01*
X155733960Y-120815428D02*
X155740008Y-120809380D01*
X155740008Y-120809380D02*
X155752103Y-120803332D01*
X155752103Y-120803332D02*
X155764198Y-120803332D01*
X155794436Y-120803332D02*
X155824674Y-120887999D01*
X155824674Y-120887999D02*
X155854913Y-120803332D01*
X155951675Y-120881952D02*
X155939579Y-120887999D01*
X155939579Y-120887999D02*
X155915389Y-120887999D01*
X155915389Y-120887999D02*
X155903294Y-120881952D01*
X155903294Y-120881952D02*
X155897246Y-120869856D01*
X155897246Y-120869856D02*
X155897246Y-120821475D01*
X155897246Y-120821475D02*
X155903294Y-120809380D01*
X155903294Y-120809380D02*
X155915389Y-120803332D01*
X155915389Y-120803332D02*
X155939579Y-120803332D01*
X155939579Y-120803332D02*
X155951675Y-120809380D01*
X155951675Y-120809380D02*
X155957722Y-120821475D01*
X155957722Y-120821475D02*
X155957722Y-120833571D01*
X155957722Y-120833571D02*
X155897246Y-120845666D01*
X156066579Y-120887999D02*
X156066579Y-120760999D01*
X156066579Y-120881952D02*
X156054484Y-120887999D01*
X156054484Y-120887999D02*
X156030293Y-120887999D01*
X156030293Y-120887999D02*
X156018198Y-120881952D01*
X156018198Y-120881952D02*
X156012151Y-120875904D01*
X156012151Y-120875904D02*
X156006103Y-120863809D01*
X156006103Y-120863809D02*
X156006103Y-120827523D01*
X156006103Y-120827523D02*
X156012151Y-120815428D01*
X156012151Y-120815428D02*
X156018198Y-120809380D01*
X156018198Y-120809380D02*
X156030293Y-120803332D01*
X156030293Y-120803332D02*
X156054484Y-120803332D01*
X156054484Y-120803332D02*
X156066579Y-120809380D01*
X156127056Y-120875904D02*
X156133103Y-120881952D01*
X156133103Y-120881952D02*
X156127056Y-120887999D01*
X156127056Y-120887999D02*
X156121008Y-120881952D01*
X156121008Y-120881952D02*
X156127056Y-120875904D01*
X156127056Y-120875904D02*
X156127056Y-120887999D01*
M02*
