%TF.GenerationSoftware,KiCad,Pcbnew,8.0.4*%
%TF.CreationDate,2024-10-15T15:40:55-05:00*%
%TF.ProjectId,verification_unit,76657269-6669-4636-9174-696f6e5f756e,rev?*%
%TF.SameCoordinates,Original*%
%TF.FileFunction,Soldermask,Bot*%
%TF.FilePolarity,Negative*%
%FSLAX46Y46*%
G04 Gerber Fmt 4.6, Leading zero omitted, Abs format (unit mm)*
G04 Created by KiCad (PCBNEW 8.0.4) date 2024-10-15 15:40:55*
%MOMM*%
%LPD*%
G01*
G04 APERTURE LIST*
G04 Aperture macros list*
%AMRoundRect*
0 Rectangle with rounded corners*
0 $1 Rounding radius*
0 $2 $3 $4 $5 $6 $7 $8 $9 X,Y pos of 4 corners*
0 Add a 4 corners polygon primitive as box body*
4,1,4,$2,$3,$4,$5,$6,$7,$8,$9,$2,$3,0*
0 Add four circle primitives for the rounded corners*
1,1,$1+$1,$2,$3*
1,1,$1+$1,$4,$5*
1,1,$1+$1,$6,$7*
1,1,$1+$1,$8,$9*
0 Add four rect primitives between the rounded corners*
20,1,$1+$1,$2,$3,$4,$5,0*
20,1,$1+$1,$4,$5,$6,$7,0*
20,1,$1+$1,$6,$7,$8,$9,0*
20,1,$1+$1,$8,$9,$2,$3,0*%
G04 Aperture macros list end*
%ADD10R,1.700000X1.700000*%
%ADD11O,1.700000X1.700000*%
%ADD12C,0.508000*%
%ADD13R,1.600000X1.600000*%
%ADD14O,1.600000X1.600000*%
%ADD15R,1.879600X1.879600*%
%ADD16C,1.879600*%
%ADD17RoundRect,0.200100X-0.949900X-0.949900X0.949900X-0.949900X0.949900X0.949900X-0.949900X0.949900X0*%
%ADD18C,2.500000*%
G04 APERTURE END LIST*
D10*
%TO.C,J3*%
X154218651Y-109586351D03*
D11*
X156758651Y-109586351D03*
%TD*%
D10*
%TO.C,J1*%
X130058651Y-116061351D03*
D11*
X130058651Y-113521351D03*
X127518651Y-116061351D03*
X127518651Y-113521351D03*
X124978651Y-116061351D03*
X124978651Y-113521351D03*
X122438651Y-116061351D03*
X122438651Y-113521351D03*
%TD*%
D12*
%TO.C,U3*%
X125731250Y-99450001D03*
X126461250Y-99450001D03*
X127228650Y-99450001D03*
X125761250Y-98670001D03*
X126491250Y-98670001D03*
X127258650Y-98670001D03*
X125778650Y-97880001D03*
X126508650Y-97880001D03*
X127276050Y-97880001D03*
%TD*%
D13*
%TO.C,U2*%
X145898651Y-102221351D03*
D14*
X148438651Y-102221351D03*
X150978651Y-102221351D03*
X153518651Y-102221351D03*
X156058651Y-102221351D03*
X158598651Y-102221351D03*
X161138651Y-102221351D03*
X163678651Y-102221351D03*
X163678651Y-94601351D03*
X161138651Y-94601351D03*
X158598651Y-94601351D03*
X156058651Y-94601351D03*
X153518651Y-94601351D03*
X150978651Y-94601351D03*
X148438651Y-94601351D03*
X145898651Y-94601351D03*
%TD*%
D15*
%TO.C,U4*%
X158488651Y-119813351D03*
D16*
X155948651Y-119813351D03*
X153408651Y-119813351D03*
%TD*%
D17*
%TO.C,J2*%
X127368651Y-67776351D03*
D18*
X124828651Y-65236351D03*
X124828651Y-70316351D03*
X129908651Y-65236351D03*
X129908651Y-70316351D03*
%TD*%
D10*
%TO.C,J4*%
X164298651Y-120203351D03*
%TD*%
M02*
