M48
INCH
T1C0.0100
T2C0.0118
T3C0.0315
T4C0.0394
T5C0.0540
T6C0.0591
T7C0.0669
%
G90
G05
T1
X4.95Y-3.9154
X4.9512Y-3.8846
X4.9519Y-3.8535
X4.9788Y-3.9154
X4.98Y-3.8846
X4.9807Y-3.8535
X5.009Y-3.9154
X5.0102Y-3.8846
X5.0109Y-3.8535
T2
X4.6689Y-3.9441
X4.6906Y-3.7827
X4.7803Y-4.3114
X4.7988Y-2.572
X4.7988Y-2.7665
X4.8075Y-3.9358
X4.8075Y-4.1094
X4.8083Y-4.2091
X4.8465Y-3.7197
X4.8618Y-3.8268
X4.8783Y-4.015
X4.9031Y-4.0433
X4.9173Y-3.0614
X4.9177Y-3.3173
X4.9429Y-4.1299
X5.0394Y-4.0186
X5.0953Y-3.3177
X5.0957Y-3.0614
X5.1165Y-3.9093
X5.1378Y-3.5035
X5.1559Y-4.2094
X5.1945Y-4.3343
X5.2091Y-3.9224
X5.2311Y-2.5681
X5.2314Y-2.7684
X5.2677Y-4.5299
X5.2799Y-3.6476
X5.3137Y-4.002
X5.3228Y-3.8193
X5.3795Y-3.8193
X5.3858Y-4.1606
X5.4406Y-3.6484
X5.4492Y-3.7768
X5.4539Y-4.4697
X5.4661Y-4.0051
X5.4902Y-4.0913
X5.589Y-3.9783
X5.65Y-4.2335
X5.6512Y-4.3413
X5.8457Y-4.1465
T3
X5.744Y-3.7245
X5.744Y-4.0245
X5.844Y-3.7245
X5.844Y-4.0245
X5.944Y-3.7245
X5.944Y-4.0245
X6.044Y-3.7245
X6.044Y-4.0245
X6.144Y-3.7245
X6.144Y-4.0245
X6.244Y-3.7245
X6.244Y-4.0245
X6.344Y-3.7245
X6.344Y-4.0245
X6.444Y-3.7245
X6.444Y-4.0245
T4
X4.8204Y-4.4693
X4.8204Y-4.5693
X4.9204Y-4.4693
X4.9204Y-4.5693
X5.0204Y-4.4693
X5.0204Y-4.5693
X5.1204Y-4.4693
X5.1204Y-4.5693
X6.0716Y-4.3144
X6.1716Y-4.3144
X6.4685Y-4.7324
T5
X6.0397Y-4.7171
X6.1397Y-4.7171
X6.2397Y-4.7171
T6
X5.0145Y-2.6684
T7
X4.9145Y-2.5684
X4.9145Y-2.7684
X5.1145Y-2.5684
X5.1145Y-2.7684
M30
