%TF.GenerationSoftware,KiCad,Pcbnew,8.0.4*%
%TF.CreationDate,2024-10-15T15:40:55-05:00*%
%TF.ProjectId,verification_unit,76657269-6669-4636-9174-696f6e5f756e,rev?*%
%TF.SameCoordinates,Original*%
%TF.FileFunction,Legend,Top*%
%TF.FilePolarity,Positive*%
%FSLAX46Y46*%
G04 Gerber Fmt 4.6, Leading zero omitted, Abs format (unit mm)*
G04 Created by KiCad (PCBNEW 8.0.4) date 2024-10-15 15:40:55*
%MOMM*%
%LPD*%
G01*
G04 APERTURE LIST*
G04 Aperture macros list*
%AMRoundRect*
0 Rectangle with rounded corners*
0 $1 Rounding radius*
0 $2 $3 $4 $5 $6 $7 $8 $9 X,Y pos of 4 corners*
0 Add a 4 corners polygon primitive as box body*
4,1,4,$2,$3,$4,$5,$6,$7,$8,$9,$2,$3,0*
0 Add four circle primitives for the rounded corners*
1,1,$1+$1,$2,$3*
1,1,$1+$1,$4,$5*
1,1,$1+$1,$6,$7*
1,1,$1+$1,$8,$9*
0 Add four rect primitives between the rounded corners*
20,1,$1+$1,$2,$3,$4,$5,0*
20,1,$1+$1,$4,$5,$6,$7,0*
20,1,$1+$1,$6,$7,$8,$9,0*
20,1,$1+$1,$8,$9,$2,$3,0*%
G04 Aperture macros list end*
%ADD10C,0.254000*%
%ADD11C,0.125000*%
%ADD12C,0.150000*%
%ADD13C,0.200000*%
%ADD14C,0.120000*%
%ADD15C,0.152400*%
%ADD16C,0.000000*%
%ADD17R,1.400000X1.200000*%
%ADD18RoundRect,0.243750X0.456250X-0.243750X0.456250X0.243750X-0.456250X0.243750X-0.456250X-0.243750X0*%
%ADD19RoundRect,0.250000X0.475000X-0.250000X0.475000X0.250000X-0.475000X0.250000X-0.475000X-0.250000X0*%
%ADD20R,1.700000X1.700000*%
%ADD21O,1.700000X1.700000*%
%ADD22RoundRect,0.100000X0.637500X0.100000X-0.637500X0.100000X-0.637500X-0.100000X0.637500X-0.100000X0*%
%ADD23R,0.304800X0.952500*%
%ADD24R,0.952500X0.304800*%
%ADD25C,0.508000*%
%ADD26RoundRect,0.250000X-0.250000X-0.475000X0.250000X-0.475000X0.250000X0.475000X-0.250000X0.475000X0*%
%ADD27R,1.600000X1.600000*%
%ADD28O,1.600000X1.600000*%
%ADD29RoundRect,0.250000X0.250000X0.475000X-0.250000X0.475000X-0.250000X-0.475000X0.250000X-0.475000X0*%
%ADD30RoundRect,0.250000X0.262500X0.450000X-0.262500X0.450000X-0.262500X-0.450000X0.262500X-0.450000X0*%
%ADD31R,1.879600X1.879600*%
%ADD32C,1.879600*%
%ADD33RoundRect,0.200100X-0.949900X-0.949900X0.949900X-0.949900X0.949900X0.949900X-0.949900X0.949900X0*%
%ADD34C,2.500000*%
%ADD35RoundRect,0.250000X-0.475000X0.250000X-0.475000X-0.250000X0.475000X-0.250000X0.475000X0.250000X0*%
%ADD36RoundRect,0.218750X0.381250X-0.218750X0.381250X0.218750X-0.381250X0.218750X-0.381250X-0.218750X0*%
%ADD37RoundRect,0.250000X0.450000X-0.262500X0.450000X0.262500X-0.450000X0.262500X-0.450000X-0.262500X0*%
%ADD38RoundRect,0.218750X0.218750X0.381250X-0.218750X0.381250X-0.218750X-0.381250X0.218750X-0.381250X0*%
%ADD39RoundRect,0.243750X0.243750X0.456250X-0.243750X0.456250X-0.243750X-0.456250X0.243750X-0.456250X0*%
G04 APERTURE END LIST*
D10*
X137133889Y-98730907D02*
X137133889Y-99335669D01*
X136710556Y-98065669D02*
X137133889Y-98730907D01*
X137133889Y-98730907D02*
X137557223Y-98065669D01*
X138645794Y-99335669D02*
X137920079Y-99335669D01*
X138282936Y-99335669D02*
X138282936Y-98065669D01*
X138282936Y-98065669D02*
X138161984Y-98247097D01*
X138161984Y-98247097D02*
X138041032Y-98368050D01*
X138041032Y-98368050D02*
X137920079Y-98428526D01*
D11*
X152093460Y-106303493D02*
X151593460Y-106303493D01*
X151593460Y-106303493D02*
X151593460Y-106184445D01*
X151593460Y-106184445D02*
X151617270Y-106113017D01*
X151617270Y-106113017D02*
X151664889Y-106065398D01*
X151664889Y-106065398D02*
X151712508Y-106041588D01*
X151712508Y-106041588D02*
X151807746Y-106017779D01*
X151807746Y-106017779D02*
X151879174Y-106017779D01*
X151879174Y-106017779D02*
X151974412Y-106041588D01*
X151974412Y-106041588D02*
X152022031Y-106065398D01*
X152022031Y-106065398D02*
X152069651Y-106113017D01*
X152069651Y-106113017D02*
X152093460Y-106184445D01*
X152093460Y-106184445D02*
X152093460Y-106303493D01*
X152093460Y-105541588D02*
X152093460Y-105827302D01*
X152093460Y-105684445D02*
X151593460Y-105684445D01*
X151593460Y-105684445D02*
X151664889Y-105732064D01*
X151664889Y-105732064D02*
X151712508Y-105779683D01*
X151712508Y-105779683D02*
X151736317Y-105827302D01*
X152093460Y-105065398D02*
X152093460Y-105351112D01*
X152093460Y-105208255D02*
X151593460Y-105208255D01*
X151593460Y-105208255D02*
X151664889Y-105255874D01*
X151664889Y-105255874D02*
X151712508Y-105303493D01*
X151712508Y-105303493D02*
X151736317Y-105351112D01*
X125725841Y-74727779D02*
X125749651Y-74751588D01*
X125749651Y-74751588D02*
X125773460Y-74823017D01*
X125773460Y-74823017D02*
X125773460Y-74870636D01*
X125773460Y-74870636D02*
X125749651Y-74942064D01*
X125749651Y-74942064D02*
X125702031Y-74989683D01*
X125702031Y-74989683D02*
X125654412Y-75013493D01*
X125654412Y-75013493D02*
X125559174Y-75037302D01*
X125559174Y-75037302D02*
X125487746Y-75037302D01*
X125487746Y-75037302D02*
X125392508Y-75013493D01*
X125392508Y-75013493D02*
X125344889Y-74989683D01*
X125344889Y-74989683D02*
X125297270Y-74942064D01*
X125297270Y-74942064D02*
X125273460Y-74870636D01*
X125273460Y-74870636D02*
X125273460Y-74823017D01*
X125273460Y-74823017D02*
X125297270Y-74751588D01*
X125297270Y-74751588D02*
X125321079Y-74727779D01*
X125773460Y-74251588D02*
X125773460Y-74537302D01*
X125773460Y-74394445D02*
X125273460Y-74394445D01*
X125273460Y-74394445D02*
X125344889Y-74442064D01*
X125344889Y-74442064D02*
X125392508Y-74489683D01*
X125392508Y-74489683D02*
X125416317Y-74537302D01*
X125321079Y-74061112D02*
X125297270Y-74037303D01*
X125297270Y-74037303D02*
X125273460Y-73989684D01*
X125273460Y-73989684D02*
X125273460Y-73870636D01*
X125273460Y-73870636D02*
X125297270Y-73823017D01*
X125297270Y-73823017D02*
X125321079Y-73799208D01*
X125321079Y-73799208D02*
X125368698Y-73775398D01*
X125368698Y-73775398D02*
X125416317Y-73775398D01*
X125416317Y-73775398D02*
X125487746Y-73799208D01*
X125487746Y-73799208D02*
X125773460Y-74084922D01*
X125773460Y-74084922D02*
X125773460Y-73775398D01*
X156424809Y-114007142D02*
X155924809Y-114007142D01*
X155924809Y-114007142D02*
X155924809Y-113888094D01*
X155924809Y-113888094D02*
X155948619Y-113816666D01*
X155948619Y-113816666D02*
X155996238Y-113769047D01*
X155996238Y-113769047D02*
X156043857Y-113745237D01*
X156043857Y-113745237D02*
X156139095Y-113721428D01*
X156139095Y-113721428D02*
X156210523Y-113721428D01*
X156210523Y-113721428D02*
X156305761Y-113745237D01*
X156305761Y-113745237D02*
X156353380Y-113769047D01*
X156353380Y-113769047D02*
X156401000Y-113816666D01*
X156401000Y-113816666D02*
X156424809Y-113888094D01*
X156424809Y-113888094D02*
X156424809Y-114007142D01*
X156424809Y-113245237D02*
X156424809Y-113530951D01*
X156424809Y-113388094D02*
X155924809Y-113388094D01*
X155924809Y-113388094D02*
X155996238Y-113435713D01*
X155996238Y-113435713D02*
X156043857Y-113483332D01*
X156043857Y-113483332D02*
X156067666Y-113530951D01*
X155924809Y-113078571D02*
X155924809Y-112769047D01*
X155924809Y-112769047D02*
X156115285Y-112935714D01*
X156115285Y-112935714D02*
X156115285Y-112864285D01*
X156115285Y-112864285D02*
X156139095Y-112816666D01*
X156139095Y-112816666D02*
X156162904Y-112792857D01*
X156162904Y-112792857D02*
X156210523Y-112769047D01*
X156210523Y-112769047D02*
X156329571Y-112769047D01*
X156329571Y-112769047D02*
X156377190Y-112792857D01*
X156377190Y-112792857D02*
X156401000Y-112816666D01*
X156401000Y-112816666D02*
X156424809Y-112864285D01*
X156424809Y-112864285D02*
X156424809Y-113007142D01*
X156424809Y-113007142D02*
X156401000Y-113054761D01*
X156401000Y-113054761D02*
X156377190Y-113078571D01*
X151524809Y-109753017D02*
X151881952Y-109753017D01*
X151881952Y-109753017D02*
X151953380Y-109776826D01*
X151953380Y-109776826D02*
X152001000Y-109824445D01*
X152001000Y-109824445D02*
X152024809Y-109895874D01*
X152024809Y-109895874D02*
X152024809Y-109943493D01*
X151524809Y-109562541D02*
X151524809Y-109253017D01*
X151524809Y-109253017D02*
X151715285Y-109419684D01*
X151715285Y-109419684D02*
X151715285Y-109348255D01*
X151715285Y-109348255D02*
X151739095Y-109300636D01*
X151739095Y-109300636D02*
X151762904Y-109276827D01*
X151762904Y-109276827D02*
X151810523Y-109253017D01*
X151810523Y-109253017D02*
X151929571Y-109253017D01*
X151929571Y-109253017D02*
X151977190Y-109276827D01*
X151977190Y-109276827D02*
X152001000Y-109300636D01*
X152001000Y-109300636D02*
X152024809Y-109348255D01*
X152024809Y-109348255D02*
X152024809Y-109491112D01*
X152024809Y-109491112D02*
X152001000Y-109538731D01*
X152001000Y-109538731D02*
X151977190Y-109562541D01*
X126190198Y-110501160D02*
X126190198Y-110905922D01*
X126190198Y-110905922D02*
X126214008Y-110953541D01*
X126214008Y-110953541D02*
X126237817Y-110977351D01*
X126237817Y-110977351D02*
X126285436Y-111001160D01*
X126285436Y-111001160D02*
X126380674Y-111001160D01*
X126380674Y-111001160D02*
X126428293Y-110977351D01*
X126428293Y-110977351D02*
X126452103Y-110953541D01*
X126452103Y-110953541D02*
X126475912Y-110905922D01*
X126475912Y-110905922D02*
X126475912Y-110501160D01*
X126975913Y-111001160D02*
X126690199Y-111001160D01*
X126833056Y-111001160D02*
X126833056Y-110501160D01*
X126833056Y-110501160D02*
X126785437Y-110572589D01*
X126785437Y-110572589D02*
X126737818Y-110620208D01*
X126737818Y-110620208D02*
X126690199Y-110644017D01*
X125933333Y-117724809D02*
X125933333Y-118081952D01*
X125933333Y-118081952D02*
X125909524Y-118153380D01*
X125909524Y-118153380D02*
X125861905Y-118201000D01*
X125861905Y-118201000D02*
X125790476Y-118224809D01*
X125790476Y-118224809D02*
X125742857Y-118224809D01*
X126433333Y-118224809D02*
X126147619Y-118224809D01*
X126290476Y-118224809D02*
X126290476Y-117724809D01*
X126290476Y-117724809D02*
X126242857Y-117796238D01*
X126242857Y-117796238D02*
X126195238Y-117843857D01*
X126195238Y-117843857D02*
X126147619Y-117867666D01*
D12*
X125943469Y-99431905D02*
X126752992Y-99431905D01*
X126752992Y-99431905D02*
X126848230Y-99384286D01*
X126848230Y-99384286D02*
X126895850Y-99336667D01*
X126895850Y-99336667D02*
X126943469Y-99241429D01*
X126943469Y-99241429D02*
X126943469Y-99050953D01*
X126943469Y-99050953D02*
X126895850Y-98955715D01*
X126895850Y-98955715D02*
X126848230Y-98908096D01*
X126848230Y-98908096D02*
X126752992Y-98860477D01*
X126752992Y-98860477D02*
X125943469Y-98860477D01*
X125943469Y-98479524D02*
X125943469Y-97860477D01*
X125943469Y-97860477D02*
X126324421Y-98193810D01*
X126324421Y-98193810D02*
X126324421Y-98050953D01*
X126324421Y-98050953D02*
X126372040Y-97955715D01*
X126372040Y-97955715D02*
X126419659Y-97908096D01*
X126419659Y-97908096D02*
X126514897Y-97860477D01*
X126514897Y-97860477D02*
X126752992Y-97860477D01*
X126752992Y-97860477D02*
X126848230Y-97908096D01*
X126848230Y-97908096D02*
X126895850Y-97955715D01*
X126895850Y-97955715D02*
X126943469Y-98050953D01*
X126943469Y-98050953D02*
X126943469Y-98336667D01*
X126943469Y-98336667D02*
X126895850Y-98431905D01*
X126895850Y-98431905D02*
X126848230Y-98479524D01*
X124312469Y-101679900D02*
X124550564Y-101679900D01*
X124455326Y-101917995D02*
X124550564Y-101679900D01*
X124550564Y-101679900D02*
X124455326Y-101441805D01*
X124741040Y-101822757D02*
X124550564Y-101679900D01*
X124550564Y-101679900D02*
X124741040Y-101537043D01*
X124312469Y-101679900D02*
X124550564Y-101679900D01*
X124455326Y-101917995D02*
X124550564Y-101679900D01*
X124550564Y-101679900D02*
X124455326Y-101441805D01*
X124741040Y-101822757D02*
X124550564Y-101679900D01*
X124550564Y-101679900D02*
X124741040Y-101537043D01*
D11*
X137116666Y-93277190D02*
X137092857Y-93301000D01*
X137092857Y-93301000D02*
X137021428Y-93324809D01*
X137021428Y-93324809D02*
X136973809Y-93324809D01*
X136973809Y-93324809D02*
X136902381Y-93301000D01*
X136902381Y-93301000D02*
X136854762Y-93253380D01*
X136854762Y-93253380D02*
X136830952Y-93205761D01*
X136830952Y-93205761D02*
X136807143Y-93110523D01*
X136807143Y-93110523D02*
X136807143Y-93039095D01*
X136807143Y-93039095D02*
X136830952Y-92943857D01*
X136830952Y-92943857D02*
X136854762Y-92896238D01*
X136854762Y-92896238D02*
X136902381Y-92848619D01*
X136902381Y-92848619D02*
X136973809Y-92824809D01*
X136973809Y-92824809D02*
X137021428Y-92824809D01*
X137021428Y-92824809D02*
X137092857Y-92848619D01*
X137092857Y-92848619D02*
X137116666Y-92872428D01*
X137545238Y-92991476D02*
X137545238Y-93324809D01*
X137426190Y-92801000D02*
X137307143Y-93158142D01*
X137307143Y-93158142D02*
X137616666Y-93158142D01*
X143624809Y-98780952D02*
X144029571Y-98780952D01*
X144029571Y-98780952D02*
X144077190Y-98757142D01*
X144077190Y-98757142D02*
X144101000Y-98733333D01*
X144101000Y-98733333D02*
X144124809Y-98685714D01*
X144124809Y-98685714D02*
X144124809Y-98590476D01*
X144124809Y-98590476D02*
X144101000Y-98542857D01*
X144101000Y-98542857D02*
X144077190Y-98519047D01*
X144077190Y-98519047D02*
X144029571Y-98495238D01*
X144029571Y-98495238D02*
X143624809Y-98495238D01*
X143672428Y-98280951D02*
X143648619Y-98257142D01*
X143648619Y-98257142D02*
X143624809Y-98209523D01*
X143624809Y-98209523D02*
X143624809Y-98090475D01*
X143624809Y-98090475D02*
X143648619Y-98042856D01*
X143648619Y-98042856D02*
X143672428Y-98019047D01*
X143672428Y-98019047D02*
X143720047Y-97995237D01*
X143720047Y-97995237D02*
X143767666Y-97995237D01*
X143767666Y-97995237D02*
X143839095Y-98019047D01*
X143839095Y-98019047D02*
X144124809Y-98304761D01*
X144124809Y-98304761D02*
X144124809Y-97995237D01*
X132616666Y-93177190D02*
X132592857Y-93201000D01*
X132592857Y-93201000D02*
X132521428Y-93224809D01*
X132521428Y-93224809D02*
X132473809Y-93224809D01*
X132473809Y-93224809D02*
X132402381Y-93201000D01*
X132402381Y-93201000D02*
X132354762Y-93153380D01*
X132354762Y-93153380D02*
X132330952Y-93105761D01*
X132330952Y-93105761D02*
X132307143Y-93010523D01*
X132307143Y-93010523D02*
X132307143Y-92939095D01*
X132307143Y-92939095D02*
X132330952Y-92843857D01*
X132330952Y-92843857D02*
X132354762Y-92796238D01*
X132354762Y-92796238D02*
X132402381Y-92748619D01*
X132402381Y-92748619D02*
X132473809Y-92724809D01*
X132473809Y-92724809D02*
X132521428Y-92724809D01*
X132521428Y-92724809D02*
X132592857Y-92748619D01*
X132592857Y-92748619D02*
X132616666Y-92772428D01*
X132902381Y-92939095D02*
X132854762Y-92915285D01*
X132854762Y-92915285D02*
X132830952Y-92891476D01*
X132830952Y-92891476D02*
X132807143Y-92843857D01*
X132807143Y-92843857D02*
X132807143Y-92820047D01*
X132807143Y-92820047D02*
X132830952Y-92772428D01*
X132830952Y-92772428D02*
X132854762Y-92748619D01*
X132854762Y-92748619D02*
X132902381Y-92724809D01*
X132902381Y-92724809D02*
X132997619Y-92724809D01*
X132997619Y-92724809D02*
X133045238Y-92748619D01*
X133045238Y-92748619D02*
X133069047Y-92772428D01*
X133069047Y-92772428D02*
X133092857Y-92820047D01*
X133092857Y-92820047D02*
X133092857Y-92843857D01*
X133092857Y-92843857D02*
X133069047Y-92891476D01*
X133069047Y-92891476D02*
X133045238Y-92915285D01*
X133045238Y-92915285D02*
X132997619Y-92939095D01*
X132997619Y-92939095D02*
X132902381Y-92939095D01*
X132902381Y-92939095D02*
X132854762Y-92962904D01*
X132854762Y-92962904D02*
X132830952Y-92986714D01*
X132830952Y-92986714D02*
X132807143Y-93034333D01*
X132807143Y-93034333D02*
X132807143Y-93129571D01*
X132807143Y-93129571D02*
X132830952Y-93177190D01*
X132830952Y-93177190D02*
X132854762Y-93201000D01*
X132854762Y-93201000D02*
X132902381Y-93224809D01*
X132902381Y-93224809D02*
X132997619Y-93224809D01*
X132997619Y-93224809D02*
X133045238Y-93201000D01*
X133045238Y-93201000D02*
X133069047Y-93177190D01*
X133069047Y-93177190D02*
X133092857Y-93129571D01*
X133092857Y-93129571D02*
X133092857Y-93034333D01*
X133092857Y-93034333D02*
X133069047Y-92986714D01*
X133069047Y-92986714D02*
X133045238Y-92962904D01*
X133045238Y-92962904D02*
X132997619Y-92939095D01*
X117616666Y-98124809D02*
X117450000Y-97886714D01*
X117330952Y-98124809D02*
X117330952Y-97624809D01*
X117330952Y-97624809D02*
X117521428Y-97624809D01*
X117521428Y-97624809D02*
X117569047Y-97648619D01*
X117569047Y-97648619D02*
X117592857Y-97672428D01*
X117592857Y-97672428D02*
X117616666Y-97720047D01*
X117616666Y-97720047D02*
X117616666Y-97791476D01*
X117616666Y-97791476D02*
X117592857Y-97839095D01*
X117592857Y-97839095D02*
X117569047Y-97862904D01*
X117569047Y-97862904D02*
X117521428Y-97886714D01*
X117521428Y-97886714D02*
X117330952Y-97886714D01*
X118092857Y-98124809D02*
X117807143Y-98124809D01*
X117950000Y-98124809D02*
X117950000Y-97624809D01*
X117950000Y-97624809D02*
X117902381Y-97696238D01*
X117902381Y-97696238D02*
X117854762Y-97743857D01*
X117854762Y-97743857D02*
X117807143Y-97767666D01*
X125478571Y-83077190D02*
X125454762Y-83101000D01*
X125454762Y-83101000D02*
X125383333Y-83124809D01*
X125383333Y-83124809D02*
X125335714Y-83124809D01*
X125335714Y-83124809D02*
X125264286Y-83101000D01*
X125264286Y-83101000D02*
X125216667Y-83053380D01*
X125216667Y-83053380D02*
X125192857Y-83005761D01*
X125192857Y-83005761D02*
X125169048Y-82910523D01*
X125169048Y-82910523D02*
X125169048Y-82839095D01*
X125169048Y-82839095D02*
X125192857Y-82743857D01*
X125192857Y-82743857D02*
X125216667Y-82696238D01*
X125216667Y-82696238D02*
X125264286Y-82648619D01*
X125264286Y-82648619D02*
X125335714Y-82624809D01*
X125335714Y-82624809D02*
X125383333Y-82624809D01*
X125383333Y-82624809D02*
X125454762Y-82648619D01*
X125454762Y-82648619D02*
X125478571Y-82672428D01*
X125954762Y-83124809D02*
X125669048Y-83124809D01*
X125811905Y-83124809D02*
X125811905Y-82624809D01*
X125811905Y-82624809D02*
X125764286Y-82696238D01*
X125764286Y-82696238D02*
X125716667Y-82743857D01*
X125716667Y-82743857D02*
X125669048Y-82767666D01*
X126264285Y-82624809D02*
X126311904Y-82624809D01*
X126311904Y-82624809D02*
X126359523Y-82648619D01*
X126359523Y-82648619D02*
X126383333Y-82672428D01*
X126383333Y-82672428D02*
X126407142Y-82720047D01*
X126407142Y-82720047D02*
X126430952Y-82815285D01*
X126430952Y-82815285D02*
X126430952Y-82934333D01*
X126430952Y-82934333D02*
X126407142Y-83029571D01*
X126407142Y-83029571D02*
X126383333Y-83077190D01*
X126383333Y-83077190D02*
X126359523Y-83101000D01*
X126359523Y-83101000D02*
X126311904Y-83124809D01*
X126311904Y-83124809D02*
X126264285Y-83124809D01*
X126264285Y-83124809D02*
X126216666Y-83101000D01*
X126216666Y-83101000D02*
X126192857Y-83077190D01*
X126192857Y-83077190D02*
X126169047Y-83029571D01*
X126169047Y-83029571D02*
X126145238Y-82934333D01*
X126145238Y-82934333D02*
X126145238Y-82815285D01*
X126145238Y-82815285D02*
X126169047Y-82720047D01*
X126169047Y-82720047D02*
X126192857Y-82672428D01*
X126192857Y-82672428D02*
X126216666Y-82648619D01*
X126216666Y-82648619D02*
X126264285Y-82624809D01*
X122216666Y-93977190D02*
X122192857Y-94001000D01*
X122192857Y-94001000D02*
X122121428Y-94024809D01*
X122121428Y-94024809D02*
X122073809Y-94024809D01*
X122073809Y-94024809D02*
X122002381Y-94001000D01*
X122002381Y-94001000D02*
X121954762Y-93953380D01*
X121954762Y-93953380D02*
X121930952Y-93905761D01*
X121930952Y-93905761D02*
X121907143Y-93810523D01*
X121907143Y-93810523D02*
X121907143Y-93739095D01*
X121907143Y-93739095D02*
X121930952Y-93643857D01*
X121930952Y-93643857D02*
X121954762Y-93596238D01*
X121954762Y-93596238D02*
X122002381Y-93548619D01*
X122002381Y-93548619D02*
X122073809Y-93524809D01*
X122073809Y-93524809D02*
X122121428Y-93524809D01*
X122121428Y-93524809D02*
X122192857Y-93548619D01*
X122192857Y-93548619D02*
X122216666Y-93572428D01*
X122383333Y-93524809D02*
X122716666Y-93524809D01*
X122716666Y-93524809D02*
X122502381Y-94024809D01*
X133277817Y-105796160D02*
X133111151Y-105558065D01*
X132992103Y-105796160D02*
X132992103Y-105296160D01*
X132992103Y-105296160D02*
X133182579Y-105296160D01*
X133182579Y-105296160D02*
X133230198Y-105319970D01*
X133230198Y-105319970D02*
X133254008Y-105343779D01*
X133254008Y-105343779D02*
X133277817Y-105391398D01*
X133277817Y-105391398D02*
X133277817Y-105462827D01*
X133277817Y-105462827D02*
X133254008Y-105510446D01*
X133254008Y-105510446D02*
X133230198Y-105534255D01*
X133230198Y-105534255D02*
X133182579Y-105558065D01*
X133182579Y-105558065D02*
X132992103Y-105558065D01*
X133468294Y-105343779D02*
X133492103Y-105319970D01*
X133492103Y-105319970D02*
X133539722Y-105296160D01*
X133539722Y-105296160D02*
X133658770Y-105296160D01*
X133658770Y-105296160D02*
X133706389Y-105319970D01*
X133706389Y-105319970D02*
X133730198Y-105343779D01*
X133730198Y-105343779D02*
X133754008Y-105391398D01*
X133754008Y-105391398D02*
X133754008Y-105439017D01*
X133754008Y-105439017D02*
X133730198Y-105510446D01*
X133730198Y-105510446D02*
X133444484Y-105796160D01*
X133444484Y-105796160D02*
X133754008Y-105796160D01*
X140985317Y-111877190D02*
X140961508Y-111901000D01*
X140961508Y-111901000D02*
X140890079Y-111924809D01*
X140890079Y-111924809D02*
X140842460Y-111924809D01*
X140842460Y-111924809D02*
X140771032Y-111901000D01*
X140771032Y-111901000D02*
X140723413Y-111853380D01*
X140723413Y-111853380D02*
X140699603Y-111805761D01*
X140699603Y-111805761D02*
X140675794Y-111710523D01*
X140675794Y-111710523D02*
X140675794Y-111639095D01*
X140675794Y-111639095D02*
X140699603Y-111543857D01*
X140699603Y-111543857D02*
X140723413Y-111496238D01*
X140723413Y-111496238D02*
X140771032Y-111448619D01*
X140771032Y-111448619D02*
X140842460Y-111424809D01*
X140842460Y-111424809D02*
X140890079Y-111424809D01*
X140890079Y-111424809D02*
X140961508Y-111448619D01*
X140961508Y-111448619D02*
X140985317Y-111472428D01*
X141175794Y-111472428D02*
X141199603Y-111448619D01*
X141199603Y-111448619D02*
X141247222Y-111424809D01*
X141247222Y-111424809D02*
X141366270Y-111424809D01*
X141366270Y-111424809D02*
X141413889Y-111448619D01*
X141413889Y-111448619D02*
X141437698Y-111472428D01*
X141437698Y-111472428D02*
X141461508Y-111520047D01*
X141461508Y-111520047D02*
X141461508Y-111567666D01*
X141461508Y-111567666D02*
X141437698Y-111639095D01*
X141437698Y-111639095D02*
X141151984Y-111924809D01*
X141151984Y-111924809D02*
X141461508Y-111924809D01*
D12*
X155186746Y-119776170D02*
X155186746Y-120585693D01*
X155186746Y-120585693D02*
X155234365Y-120680931D01*
X155234365Y-120680931D02*
X155281984Y-120728551D01*
X155281984Y-120728551D02*
X155377222Y-120776170D01*
X155377222Y-120776170D02*
X155567698Y-120776170D01*
X155567698Y-120776170D02*
X155662936Y-120728551D01*
X155662936Y-120728551D02*
X155710555Y-120680931D01*
X155710555Y-120680931D02*
X155758174Y-120585693D01*
X155758174Y-120585693D02*
X155758174Y-119776170D01*
X156662936Y-120109503D02*
X156662936Y-120776170D01*
X156424841Y-119728551D02*
X156186746Y-120442836D01*
X156186746Y-120442836D02*
X156805793Y-120442836D01*
D11*
X152402382Y-117424809D02*
X152164287Y-117424809D01*
X152164287Y-117424809D02*
X152164287Y-116924809D01*
X152569049Y-117424809D02*
X152569049Y-116924809D01*
X152569049Y-116924809D02*
X152735716Y-117281952D01*
X152735716Y-117281952D02*
X152902382Y-116924809D01*
X152902382Y-116924809D02*
X152902382Y-117424809D01*
X153092859Y-116924809D02*
X153402383Y-116924809D01*
X153402383Y-116924809D02*
X153235716Y-117115285D01*
X153235716Y-117115285D02*
X153307145Y-117115285D01*
X153307145Y-117115285D02*
X153354764Y-117139095D01*
X153354764Y-117139095D02*
X153378573Y-117162904D01*
X153378573Y-117162904D02*
X153402383Y-117210523D01*
X153402383Y-117210523D02*
X153402383Y-117329571D01*
X153402383Y-117329571D02*
X153378573Y-117377190D01*
X153378573Y-117377190D02*
X153354764Y-117401000D01*
X153354764Y-117401000D02*
X153307145Y-117424809D01*
X153307145Y-117424809D02*
X153164288Y-117424809D01*
X153164288Y-117424809D02*
X153116669Y-117401000D01*
X153116669Y-117401000D02*
X153092859Y-117377190D01*
X153640478Y-117424809D02*
X153735716Y-117424809D01*
X153735716Y-117424809D02*
X153783335Y-117401000D01*
X153783335Y-117401000D02*
X153807144Y-117377190D01*
X153807144Y-117377190D02*
X153854763Y-117305761D01*
X153854763Y-117305761D02*
X153878573Y-117210523D01*
X153878573Y-117210523D02*
X153878573Y-117020047D01*
X153878573Y-117020047D02*
X153854763Y-116972428D01*
X153854763Y-116972428D02*
X153830954Y-116948619D01*
X153830954Y-116948619D02*
X153783335Y-116924809D01*
X153783335Y-116924809D02*
X153688097Y-116924809D01*
X153688097Y-116924809D02*
X153640478Y-116948619D01*
X153640478Y-116948619D02*
X153616668Y-116972428D01*
X153616668Y-116972428D02*
X153592859Y-117020047D01*
X153592859Y-117020047D02*
X153592859Y-117139095D01*
X153592859Y-117139095D02*
X153616668Y-117186714D01*
X153616668Y-117186714D02*
X153640478Y-117210523D01*
X153640478Y-117210523D02*
X153688097Y-117234333D01*
X153688097Y-117234333D02*
X153783335Y-117234333D01*
X153783335Y-117234333D02*
X153830954Y-117210523D01*
X153830954Y-117210523D02*
X153854763Y-117186714D01*
X153854763Y-117186714D02*
X153878573Y-117139095D01*
X154307144Y-117091476D02*
X154307144Y-117424809D01*
X154188096Y-116901000D02*
X154069049Y-117258142D01*
X154069049Y-117258142D02*
X154378572Y-117258142D01*
X154664286Y-116924809D02*
X154711905Y-116924809D01*
X154711905Y-116924809D02*
X154759524Y-116948619D01*
X154759524Y-116948619D02*
X154783334Y-116972428D01*
X154783334Y-116972428D02*
X154807143Y-117020047D01*
X154807143Y-117020047D02*
X154830953Y-117115285D01*
X154830953Y-117115285D02*
X154830953Y-117234333D01*
X154830953Y-117234333D02*
X154807143Y-117329571D01*
X154807143Y-117329571D02*
X154783334Y-117377190D01*
X154783334Y-117377190D02*
X154759524Y-117401000D01*
X154759524Y-117401000D02*
X154711905Y-117424809D01*
X154711905Y-117424809D02*
X154664286Y-117424809D01*
X154664286Y-117424809D02*
X154616667Y-117401000D01*
X154616667Y-117401000D02*
X154592858Y-117377190D01*
X154592858Y-117377190D02*
X154569048Y-117329571D01*
X154569048Y-117329571D02*
X154545239Y-117234333D01*
X154545239Y-117234333D02*
X154545239Y-117115285D01*
X154545239Y-117115285D02*
X154569048Y-117020047D01*
X154569048Y-117020047D02*
X154592858Y-116972428D01*
X154592858Y-116972428D02*
X154616667Y-116948619D01*
X154616667Y-116948619D02*
X154664286Y-116924809D01*
X155045238Y-117424809D02*
X155045238Y-116924809D01*
X155211905Y-116924809D02*
X155497619Y-116924809D01*
X155354762Y-117424809D02*
X155354762Y-116924809D01*
X155664285Y-117234333D02*
X156045238Y-117234333D01*
X156235714Y-116924809D02*
X156545238Y-116924809D01*
X156545238Y-116924809D02*
X156378571Y-117115285D01*
X156378571Y-117115285D02*
X156450000Y-117115285D01*
X156450000Y-117115285D02*
X156497619Y-117139095D01*
X156497619Y-117139095D02*
X156521428Y-117162904D01*
X156521428Y-117162904D02*
X156545238Y-117210523D01*
X156545238Y-117210523D02*
X156545238Y-117329571D01*
X156545238Y-117329571D02*
X156521428Y-117377190D01*
X156521428Y-117377190D02*
X156497619Y-117401000D01*
X156497619Y-117401000D02*
X156450000Y-117424809D01*
X156450000Y-117424809D02*
X156307143Y-117424809D01*
X156307143Y-117424809D02*
X156259524Y-117401000D01*
X156259524Y-117401000D02*
X156235714Y-117377190D01*
X156759523Y-117377190D02*
X156783333Y-117401000D01*
X156783333Y-117401000D02*
X156759523Y-117424809D01*
X156759523Y-117424809D02*
X156735714Y-117401000D01*
X156735714Y-117401000D02*
X156759523Y-117377190D01*
X156759523Y-117377190D02*
X156759523Y-117424809D01*
X156949999Y-116924809D02*
X157259523Y-116924809D01*
X157259523Y-116924809D02*
X157092856Y-117115285D01*
X157092856Y-117115285D02*
X157164285Y-117115285D01*
X157164285Y-117115285D02*
X157211904Y-117139095D01*
X157211904Y-117139095D02*
X157235713Y-117162904D01*
X157235713Y-117162904D02*
X157259523Y-117210523D01*
X157259523Y-117210523D02*
X157259523Y-117329571D01*
X157259523Y-117329571D02*
X157235713Y-117377190D01*
X157235713Y-117377190D02*
X157211904Y-117401000D01*
X157211904Y-117401000D02*
X157164285Y-117424809D01*
X157164285Y-117424809D02*
X157021428Y-117424809D01*
X157021428Y-117424809D02*
X156973809Y-117401000D01*
X156973809Y-117401000D02*
X156949999Y-117377190D01*
X122324809Y-67966666D02*
X122681952Y-67966666D01*
X122681952Y-67966666D02*
X122753380Y-67990475D01*
X122753380Y-67990475D02*
X122801000Y-68038094D01*
X122801000Y-68038094D02*
X122824809Y-68109523D01*
X122824809Y-68109523D02*
X122824809Y-68157142D01*
X122372428Y-67752380D02*
X122348619Y-67728571D01*
X122348619Y-67728571D02*
X122324809Y-67680952D01*
X122324809Y-67680952D02*
X122324809Y-67561904D01*
X122324809Y-67561904D02*
X122348619Y-67514285D01*
X122348619Y-67514285D02*
X122372428Y-67490476D01*
X122372428Y-67490476D02*
X122420047Y-67466666D01*
X122420047Y-67466666D02*
X122467666Y-67466666D01*
X122467666Y-67466666D02*
X122539095Y-67490476D01*
X122539095Y-67490476D02*
X122824809Y-67776190D01*
X122824809Y-67776190D02*
X122824809Y-67466666D01*
X131816666Y-98077190D02*
X131792857Y-98101000D01*
X131792857Y-98101000D02*
X131721428Y-98124809D01*
X131721428Y-98124809D02*
X131673809Y-98124809D01*
X131673809Y-98124809D02*
X131602381Y-98101000D01*
X131602381Y-98101000D02*
X131554762Y-98053380D01*
X131554762Y-98053380D02*
X131530952Y-98005761D01*
X131530952Y-98005761D02*
X131507143Y-97910523D01*
X131507143Y-97910523D02*
X131507143Y-97839095D01*
X131507143Y-97839095D02*
X131530952Y-97743857D01*
X131530952Y-97743857D02*
X131554762Y-97696238D01*
X131554762Y-97696238D02*
X131602381Y-97648619D01*
X131602381Y-97648619D02*
X131673809Y-97624809D01*
X131673809Y-97624809D02*
X131721428Y-97624809D01*
X131721428Y-97624809D02*
X131792857Y-97648619D01*
X131792857Y-97648619D02*
X131816666Y-97672428D01*
X131983333Y-97624809D02*
X132292857Y-97624809D01*
X132292857Y-97624809D02*
X132126190Y-97815285D01*
X132126190Y-97815285D02*
X132197619Y-97815285D01*
X132197619Y-97815285D02*
X132245238Y-97839095D01*
X132245238Y-97839095D02*
X132269047Y-97862904D01*
X132269047Y-97862904D02*
X132292857Y-97910523D01*
X132292857Y-97910523D02*
X132292857Y-98029571D01*
X132292857Y-98029571D02*
X132269047Y-98077190D01*
X132269047Y-98077190D02*
X132245238Y-98101000D01*
X132245238Y-98101000D02*
X132197619Y-98124809D01*
X132197619Y-98124809D02*
X132054762Y-98124809D01*
X132054762Y-98124809D02*
X132007143Y-98101000D01*
X132007143Y-98101000D02*
X131983333Y-98077190D01*
X132624809Y-113869047D02*
X132124809Y-113869047D01*
X132124809Y-113869047D02*
X132124809Y-113749999D01*
X132124809Y-113749999D02*
X132148619Y-113678571D01*
X132148619Y-113678571D02*
X132196238Y-113630952D01*
X132196238Y-113630952D02*
X132243857Y-113607142D01*
X132243857Y-113607142D02*
X132339095Y-113583333D01*
X132339095Y-113583333D02*
X132410523Y-113583333D01*
X132410523Y-113583333D02*
X132505761Y-113607142D01*
X132505761Y-113607142D02*
X132553380Y-113630952D01*
X132553380Y-113630952D02*
X132601000Y-113678571D01*
X132601000Y-113678571D02*
X132624809Y-113749999D01*
X132624809Y-113749999D02*
X132624809Y-113869047D01*
X132172428Y-113392856D02*
X132148619Y-113369047D01*
X132148619Y-113369047D02*
X132124809Y-113321428D01*
X132124809Y-113321428D02*
X132124809Y-113202380D01*
X132124809Y-113202380D02*
X132148619Y-113154761D01*
X132148619Y-113154761D02*
X132172428Y-113130952D01*
X132172428Y-113130952D02*
X132220047Y-113107142D01*
X132220047Y-113107142D02*
X132267666Y-113107142D01*
X132267666Y-113107142D02*
X132339095Y-113130952D01*
X132339095Y-113130952D02*
X132624809Y-113416666D01*
X132624809Y-113416666D02*
X132624809Y-113107142D01*
X125903460Y-80959684D02*
X125903460Y-81197779D01*
X125903460Y-81197779D02*
X125403460Y-81197779D01*
X125570127Y-80578731D02*
X125903460Y-80578731D01*
X125379651Y-80697779D02*
X125736793Y-80816826D01*
X125736793Y-80816826D02*
X125736793Y-80507303D01*
X128878571Y-76977190D02*
X128854762Y-77001000D01*
X128854762Y-77001000D02*
X128783333Y-77024809D01*
X128783333Y-77024809D02*
X128735714Y-77024809D01*
X128735714Y-77024809D02*
X128664286Y-77001000D01*
X128664286Y-77001000D02*
X128616667Y-76953380D01*
X128616667Y-76953380D02*
X128592857Y-76905761D01*
X128592857Y-76905761D02*
X128569048Y-76810523D01*
X128569048Y-76810523D02*
X128569048Y-76739095D01*
X128569048Y-76739095D02*
X128592857Y-76643857D01*
X128592857Y-76643857D02*
X128616667Y-76596238D01*
X128616667Y-76596238D02*
X128664286Y-76548619D01*
X128664286Y-76548619D02*
X128735714Y-76524809D01*
X128735714Y-76524809D02*
X128783333Y-76524809D01*
X128783333Y-76524809D02*
X128854762Y-76548619D01*
X128854762Y-76548619D02*
X128878571Y-76572428D01*
X129354762Y-77024809D02*
X129069048Y-77024809D01*
X129211905Y-77024809D02*
X129211905Y-76524809D01*
X129211905Y-76524809D02*
X129164286Y-76596238D01*
X129164286Y-76596238D02*
X129116667Y-76643857D01*
X129116667Y-76643857D02*
X129069048Y-76667666D01*
X129830952Y-77024809D02*
X129545238Y-77024809D01*
X129688095Y-77024809D02*
X129688095Y-76524809D01*
X129688095Y-76524809D02*
X129640476Y-76596238D01*
X129640476Y-76596238D02*
X129592857Y-76643857D01*
X129592857Y-76643857D02*
X129545238Y-76667666D01*
X131616666Y-100477190D02*
X131592857Y-100501000D01*
X131592857Y-100501000D02*
X131521428Y-100524809D01*
X131521428Y-100524809D02*
X131473809Y-100524809D01*
X131473809Y-100524809D02*
X131402381Y-100501000D01*
X131402381Y-100501000D02*
X131354762Y-100453380D01*
X131354762Y-100453380D02*
X131330952Y-100405761D01*
X131330952Y-100405761D02*
X131307143Y-100310523D01*
X131307143Y-100310523D02*
X131307143Y-100239095D01*
X131307143Y-100239095D02*
X131330952Y-100143857D01*
X131330952Y-100143857D02*
X131354762Y-100096238D01*
X131354762Y-100096238D02*
X131402381Y-100048619D01*
X131402381Y-100048619D02*
X131473809Y-100024809D01*
X131473809Y-100024809D02*
X131521428Y-100024809D01*
X131521428Y-100024809D02*
X131592857Y-100048619D01*
X131592857Y-100048619D02*
X131616666Y-100072428D01*
X132069047Y-100024809D02*
X131830952Y-100024809D01*
X131830952Y-100024809D02*
X131807143Y-100262904D01*
X131807143Y-100262904D02*
X131830952Y-100239095D01*
X131830952Y-100239095D02*
X131878571Y-100215285D01*
X131878571Y-100215285D02*
X131997619Y-100215285D01*
X131997619Y-100215285D02*
X132045238Y-100239095D01*
X132045238Y-100239095D02*
X132069047Y-100262904D01*
X132069047Y-100262904D02*
X132092857Y-100310523D01*
X132092857Y-100310523D02*
X132092857Y-100429571D01*
X132092857Y-100429571D02*
X132069047Y-100477190D01*
X132069047Y-100477190D02*
X132045238Y-100501000D01*
X132045238Y-100501000D02*
X131997619Y-100524809D01*
X131997619Y-100524809D02*
X131878571Y-100524809D01*
X131878571Y-100524809D02*
X131830952Y-100501000D01*
X131830952Y-100501000D02*
X131807143Y-100477190D01*
X124883460Y-91319684D02*
X124883460Y-91557779D01*
X124883460Y-91557779D02*
X124383460Y-91557779D01*
X124431079Y-91176826D02*
X124407270Y-91153017D01*
X124407270Y-91153017D02*
X124383460Y-91105398D01*
X124383460Y-91105398D02*
X124383460Y-90986350D01*
X124383460Y-90986350D02*
X124407270Y-90938731D01*
X124407270Y-90938731D02*
X124431079Y-90914922D01*
X124431079Y-90914922D02*
X124478698Y-90891112D01*
X124478698Y-90891112D02*
X124526317Y-90891112D01*
X124526317Y-90891112D02*
X124597746Y-90914922D01*
X124597746Y-90914922D02*
X124883460Y-91200636D01*
X124883460Y-91200636D02*
X124883460Y-90891112D01*
X125943460Y-87339684D02*
X125943460Y-87577779D01*
X125943460Y-87577779D02*
X125443460Y-87577779D01*
X125443460Y-87220636D02*
X125443460Y-86911112D01*
X125443460Y-86911112D02*
X125633936Y-87077779D01*
X125633936Y-87077779D02*
X125633936Y-87006350D01*
X125633936Y-87006350D02*
X125657746Y-86958731D01*
X125657746Y-86958731D02*
X125681555Y-86934922D01*
X125681555Y-86934922D02*
X125729174Y-86911112D01*
X125729174Y-86911112D02*
X125848222Y-86911112D01*
X125848222Y-86911112D02*
X125895841Y-86934922D01*
X125895841Y-86934922D02*
X125919651Y-86958731D01*
X125919651Y-86958731D02*
X125943460Y-87006350D01*
X125943460Y-87006350D02*
X125943460Y-87149207D01*
X125943460Y-87149207D02*
X125919651Y-87196826D01*
X125919651Y-87196826D02*
X125895841Y-87220636D01*
X156133460Y-106233493D02*
X155633460Y-106233493D01*
X155633460Y-106233493D02*
X155633460Y-106114445D01*
X155633460Y-106114445D02*
X155657270Y-106043017D01*
X155657270Y-106043017D02*
X155704889Y-105995398D01*
X155704889Y-105995398D02*
X155752508Y-105971588D01*
X155752508Y-105971588D02*
X155847746Y-105947779D01*
X155847746Y-105947779D02*
X155919174Y-105947779D01*
X155919174Y-105947779D02*
X156014412Y-105971588D01*
X156014412Y-105971588D02*
X156062031Y-105995398D01*
X156062031Y-105995398D02*
X156109651Y-106043017D01*
X156109651Y-106043017D02*
X156133460Y-106114445D01*
X156133460Y-106114445D02*
X156133460Y-106233493D01*
X156133460Y-105471588D02*
X156133460Y-105757302D01*
X156133460Y-105614445D02*
X155633460Y-105614445D01*
X155633460Y-105614445D02*
X155704889Y-105662064D01*
X155704889Y-105662064D02*
X155752508Y-105709683D01*
X155752508Y-105709683D02*
X155776317Y-105757302D01*
X155800127Y-105043017D02*
X156133460Y-105043017D01*
X155609651Y-105162065D02*
X155966793Y-105281112D01*
X155966793Y-105281112D02*
X155966793Y-104971589D01*
X141816666Y-96777190D02*
X141792857Y-96801000D01*
X141792857Y-96801000D02*
X141721428Y-96824809D01*
X141721428Y-96824809D02*
X141673809Y-96824809D01*
X141673809Y-96824809D02*
X141602381Y-96801000D01*
X141602381Y-96801000D02*
X141554762Y-96753380D01*
X141554762Y-96753380D02*
X141530952Y-96705761D01*
X141530952Y-96705761D02*
X141507143Y-96610523D01*
X141507143Y-96610523D02*
X141507143Y-96539095D01*
X141507143Y-96539095D02*
X141530952Y-96443857D01*
X141530952Y-96443857D02*
X141554762Y-96396238D01*
X141554762Y-96396238D02*
X141602381Y-96348619D01*
X141602381Y-96348619D02*
X141673809Y-96324809D01*
X141673809Y-96324809D02*
X141721428Y-96324809D01*
X141721428Y-96324809D02*
X141792857Y-96348619D01*
X141792857Y-96348619D02*
X141816666Y-96372428D01*
X142245238Y-96324809D02*
X142150000Y-96324809D01*
X142150000Y-96324809D02*
X142102381Y-96348619D01*
X142102381Y-96348619D02*
X142078571Y-96372428D01*
X142078571Y-96372428D02*
X142030952Y-96443857D01*
X142030952Y-96443857D02*
X142007143Y-96539095D01*
X142007143Y-96539095D02*
X142007143Y-96729571D01*
X142007143Y-96729571D02*
X142030952Y-96777190D01*
X142030952Y-96777190D02*
X142054762Y-96801000D01*
X142054762Y-96801000D02*
X142102381Y-96824809D01*
X142102381Y-96824809D02*
X142197619Y-96824809D01*
X142197619Y-96824809D02*
X142245238Y-96801000D01*
X142245238Y-96801000D02*
X142269047Y-96777190D01*
X142269047Y-96777190D02*
X142292857Y-96729571D01*
X142292857Y-96729571D02*
X142292857Y-96610523D01*
X142292857Y-96610523D02*
X142269047Y-96562904D01*
X142269047Y-96562904D02*
X142245238Y-96539095D01*
X142245238Y-96539095D02*
X142197619Y-96515285D01*
X142197619Y-96515285D02*
X142102381Y-96515285D01*
X142102381Y-96515285D02*
X142054762Y-96539095D01*
X142054762Y-96539095D02*
X142030952Y-96562904D01*
X142030952Y-96562904D02*
X142007143Y-96610523D01*
X132824809Y-107383333D02*
X132586714Y-107549999D01*
X132824809Y-107669047D02*
X132324809Y-107669047D01*
X132324809Y-107669047D02*
X132324809Y-107478571D01*
X132324809Y-107478571D02*
X132348619Y-107430952D01*
X132348619Y-107430952D02*
X132372428Y-107407142D01*
X132372428Y-107407142D02*
X132420047Y-107383333D01*
X132420047Y-107383333D02*
X132491476Y-107383333D01*
X132491476Y-107383333D02*
X132539095Y-107407142D01*
X132539095Y-107407142D02*
X132562904Y-107430952D01*
X132562904Y-107430952D02*
X132586714Y-107478571D01*
X132586714Y-107478571D02*
X132586714Y-107669047D01*
X132324809Y-107216666D02*
X132324809Y-106907142D01*
X132324809Y-106907142D02*
X132515285Y-107073809D01*
X132515285Y-107073809D02*
X132515285Y-107002380D01*
X132515285Y-107002380D02*
X132539095Y-106954761D01*
X132539095Y-106954761D02*
X132562904Y-106930952D01*
X132562904Y-106930952D02*
X132610523Y-106907142D01*
X132610523Y-106907142D02*
X132729571Y-106907142D01*
X132729571Y-106907142D02*
X132777190Y-106930952D01*
X132777190Y-106930952D02*
X132801000Y-106954761D01*
X132801000Y-106954761D02*
X132824809Y-107002380D01*
X132824809Y-107002380D02*
X132824809Y-107145237D01*
X132824809Y-107145237D02*
X132801000Y-107192856D01*
X132801000Y-107192856D02*
X132777190Y-107216666D01*
X135624809Y-108183333D02*
X135386714Y-108349999D01*
X135624809Y-108469047D02*
X135124809Y-108469047D01*
X135124809Y-108469047D02*
X135124809Y-108278571D01*
X135124809Y-108278571D02*
X135148619Y-108230952D01*
X135148619Y-108230952D02*
X135172428Y-108207142D01*
X135172428Y-108207142D02*
X135220047Y-108183333D01*
X135220047Y-108183333D02*
X135291476Y-108183333D01*
X135291476Y-108183333D02*
X135339095Y-108207142D01*
X135339095Y-108207142D02*
X135362904Y-108230952D01*
X135362904Y-108230952D02*
X135386714Y-108278571D01*
X135386714Y-108278571D02*
X135386714Y-108469047D01*
X135124809Y-107754761D02*
X135124809Y-107849999D01*
X135124809Y-107849999D02*
X135148619Y-107897618D01*
X135148619Y-107897618D02*
X135172428Y-107921428D01*
X135172428Y-107921428D02*
X135243857Y-107969047D01*
X135243857Y-107969047D02*
X135339095Y-107992856D01*
X135339095Y-107992856D02*
X135529571Y-107992856D01*
X135529571Y-107992856D02*
X135577190Y-107969047D01*
X135577190Y-107969047D02*
X135601000Y-107945237D01*
X135601000Y-107945237D02*
X135624809Y-107897618D01*
X135624809Y-107897618D02*
X135624809Y-107802380D01*
X135624809Y-107802380D02*
X135601000Y-107754761D01*
X135601000Y-107754761D02*
X135577190Y-107730952D01*
X135577190Y-107730952D02*
X135529571Y-107707142D01*
X135529571Y-107707142D02*
X135410523Y-107707142D01*
X135410523Y-107707142D02*
X135362904Y-107730952D01*
X135362904Y-107730952D02*
X135339095Y-107754761D01*
X135339095Y-107754761D02*
X135315285Y-107802380D01*
X135315285Y-107802380D02*
X135315285Y-107897618D01*
X135315285Y-107897618D02*
X135339095Y-107945237D01*
X135339095Y-107945237D02*
X135362904Y-107969047D01*
X135362904Y-107969047D02*
X135410523Y-107992856D01*
X130445841Y-91289684D02*
X130469651Y-91313493D01*
X130469651Y-91313493D02*
X130493460Y-91384922D01*
X130493460Y-91384922D02*
X130493460Y-91432541D01*
X130493460Y-91432541D02*
X130469651Y-91503969D01*
X130469651Y-91503969D02*
X130422031Y-91551588D01*
X130422031Y-91551588D02*
X130374412Y-91575398D01*
X130374412Y-91575398D02*
X130279174Y-91599207D01*
X130279174Y-91599207D02*
X130207746Y-91599207D01*
X130207746Y-91599207D02*
X130112508Y-91575398D01*
X130112508Y-91575398D02*
X130064889Y-91551588D01*
X130064889Y-91551588D02*
X130017270Y-91503969D01*
X130017270Y-91503969D02*
X129993460Y-91432541D01*
X129993460Y-91432541D02*
X129993460Y-91384922D01*
X129993460Y-91384922D02*
X130017270Y-91313493D01*
X130017270Y-91313493D02*
X130041079Y-91289684D01*
X130493460Y-91051588D02*
X130493460Y-90956350D01*
X130493460Y-90956350D02*
X130469651Y-90908731D01*
X130469651Y-90908731D02*
X130445841Y-90884922D01*
X130445841Y-90884922D02*
X130374412Y-90837303D01*
X130374412Y-90837303D02*
X130279174Y-90813493D01*
X130279174Y-90813493D02*
X130088698Y-90813493D01*
X130088698Y-90813493D02*
X130041079Y-90837303D01*
X130041079Y-90837303D02*
X130017270Y-90861112D01*
X130017270Y-90861112D02*
X129993460Y-90908731D01*
X129993460Y-90908731D02*
X129993460Y-91003969D01*
X129993460Y-91003969D02*
X130017270Y-91051588D01*
X130017270Y-91051588D02*
X130041079Y-91075398D01*
X130041079Y-91075398D02*
X130088698Y-91099207D01*
X130088698Y-91099207D02*
X130207746Y-91099207D01*
X130207746Y-91099207D02*
X130255365Y-91075398D01*
X130255365Y-91075398D02*
X130279174Y-91051588D01*
X130279174Y-91051588D02*
X130302984Y-91003969D01*
X130302984Y-91003969D02*
X130302984Y-90908731D01*
X130302984Y-90908731D02*
X130279174Y-90861112D01*
X130279174Y-90861112D02*
X130255365Y-90837303D01*
X130255365Y-90837303D02*
X130207746Y-90813493D01*
X135624809Y-113969047D02*
X135124809Y-113969047D01*
X135124809Y-113969047D02*
X135124809Y-113849999D01*
X135124809Y-113849999D02*
X135148619Y-113778571D01*
X135148619Y-113778571D02*
X135196238Y-113730952D01*
X135196238Y-113730952D02*
X135243857Y-113707142D01*
X135243857Y-113707142D02*
X135339095Y-113683333D01*
X135339095Y-113683333D02*
X135410523Y-113683333D01*
X135410523Y-113683333D02*
X135505761Y-113707142D01*
X135505761Y-113707142D02*
X135553380Y-113730952D01*
X135553380Y-113730952D02*
X135601000Y-113778571D01*
X135601000Y-113778571D02*
X135624809Y-113849999D01*
X135624809Y-113849999D02*
X135624809Y-113969047D01*
X135124809Y-113516666D02*
X135124809Y-113207142D01*
X135124809Y-113207142D02*
X135315285Y-113373809D01*
X135315285Y-113373809D02*
X135315285Y-113302380D01*
X135315285Y-113302380D02*
X135339095Y-113254761D01*
X135339095Y-113254761D02*
X135362904Y-113230952D01*
X135362904Y-113230952D02*
X135410523Y-113207142D01*
X135410523Y-113207142D02*
X135529571Y-113207142D01*
X135529571Y-113207142D02*
X135577190Y-113230952D01*
X135577190Y-113230952D02*
X135601000Y-113254761D01*
X135601000Y-113254761D02*
X135624809Y-113302380D01*
X135624809Y-113302380D02*
X135624809Y-113445237D01*
X135624809Y-113445237D02*
X135601000Y-113492856D01*
X135601000Y-113492856D02*
X135577190Y-113516666D01*
X130216666Y-93324809D02*
X129978571Y-93324809D01*
X129978571Y-93324809D02*
X129978571Y-92824809D01*
X130645238Y-93324809D02*
X130359524Y-93324809D01*
X130502381Y-93324809D02*
X130502381Y-92824809D01*
X130502381Y-92824809D02*
X130454762Y-92896238D01*
X130454762Y-92896238D02*
X130407143Y-92943857D01*
X130407143Y-92943857D02*
X130359524Y-92967666D01*
X136530952Y-102524809D02*
X136530952Y-102024809D01*
X136530952Y-102024809D02*
X136650000Y-102024809D01*
X136650000Y-102024809D02*
X136721428Y-102048619D01*
X136721428Y-102048619D02*
X136769047Y-102096238D01*
X136769047Y-102096238D02*
X136792857Y-102143857D01*
X136792857Y-102143857D02*
X136816666Y-102239095D01*
X136816666Y-102239095D02*
X136816666Y-102310523D01*
X136816666Y-102310523D02*
X136792857Y-102405761D01*
X136792857Y-102405761D02*
X136769047Y-102453380D01*
X136769047Y-102453380D02*
X136721428Y-102501000D01*
X136721428Y-102501000D02*
X136650000Y-102524809D01*
X136650000Y-102524809D02*
X136530952Y-102524809D01*
X137292857Y-102524809D02*
X137007143Y-102524809D01*
X137150000Y-102524809D02*
X137150000Y-102024809D01*
X137150000Y-102024809D02*
X137102381Y-102096238D01*
X137102381Y-102096238D02*
X137054762Y-102143857D01*
X137054762Y-102143857D02*
X137007143Y-102167666D01*
X140835317Y-106018541D02*
X140811508Y-106042351D01*
X140811508Y-106042351D02*
X140740079Y-106066160D01*
X140740079Y-106066160D02*
X140692460Y-106066160D01*
X140692460Y-106066160D02*
X140621032Y-106042351D01*
X140621032Y-106042351D02*
X140573413Y-105994731D01*
X140573413Y-105994731D02*
X140549603Y-105947112D01*
X140549603Y-105947112D02*
X140525794Y-105851874D01*
X140525794Y-105851874D02*
X140525794Y-105780446D01*
X140525794Y-105780446D02*
X140549603Y-105685208D01*
X140549603Y-105685208D02*
X140573413Y-105637589D01*
X140573413Y-105637589D02*
X140621032Y-105589970D01*
X140621032Y-105589970D02*
X140692460Y-105566160D01*
X140692460Y-105566160D02*
X140740079Y-105566160D01*
X140740079Y-105566160D02*
X140811508Y-105589970D01*
X140811508Y-105589970D02*
X140835317Y-105613779D01*
X141311508Y-106066160D02*
X141025794Y-106066160D01*
X141168651Y-106066160D02*
X141168651Y-105566160D01*
X141168651Y-105566160D02*
X141121032Y-105637589D01*
X141121032Y-105637589D02*
X141073413Y-105685208D01*
X141073413Y-105685208D02*
X141025794Y-105709017D01*
X164133333Y-117724809D02*
X164133333Y-118081952D01*
X164133333Y-118081952D02*
X164109524Y-118153380D01*
X164109524Y-118153380D02*
X164061905Y-118201000D01*
X164061905Y-118201000D02*
X163990476Y-118224809D01*
X163990476Y-118224809D02*
X163942857Y-118224809D01*
X164585714Y-117891476D02*
X164585714Y-118224809D01*
X164466666Y-117701000D02*
X164347619Y-118058142D01*
X164347619Y-118058142D02*
X164657142Y-118058142D01*
X152043460Y-114003493D02*
X151543460Y-114003493D01*
X151543460Y-114003493D02*
X151543460Y-113884445D01*
X151543460Y-113884445D02*
X151567270Y-113813017D01*
X151567270Y-113813017D02*
X151614889Y-113765398D01*
X151614889Y-113765398D02*
X151662508Y-113741588D01*
X151662508Y-113741588D02*
X151757746Y-113717779D01*
X151757746Y-113717779D02*
X151829174Y-113717779D01*
X151829174Y-113717779D02*
X151924412Y-113741588D01*
X151924412Y-113741588D02*
X151972031Y-113765398D01*
X151972031Y-113765398D02*
X152019651Y-113813017D01*
X152019651Y-113813017D02*
X152043460Y-113884445D01*
X152043460Y-113884445D02*
X152043460Y-114003493D01*
X152043460Y-113241588D02*
X152043460Y-113527302D01*
X152043460Y-113384445D02*
X151543460Y-113384445D01*
X151543460Y-113384445D02*
X151614889Y-113432064D01*
X151614889Y-113432064D02*
X151662508Y-113479683D01*
X151662508Y-113479683D02*
X151686317Y-113527302D01*
X151591079Y-113051112D02*
X151567270Y-113027303D01*
X151567270Y-113027303D02*
X151543460Y-112979684D01*
X151543460Y-112979684D02*
X151543460Y-112860636D01*
X151543460Y-112860636D02*
X151567270Y-112813017D01*
X151567270Y-112813017D02*
X151591079Y-112789208D01*
X151591079Y-112789208D02*
X151638698Y-112765398D01*
X151638698Y-112765398D02*
X151686317Y-112765398D01*
X151686317Y-112765398D02*
X151757746Y-112789208D01*
X151757746Y-112789208D02*
X152043460Y-113074922D01*
X152043460Y-113074922D02*
X152043460Y-112765398D01*
D13*
%TO.C,Y1*%
X136538651Y-100661351D02*
X136538651Y-100661351D01*
X136738651Y-100661351D02*
X136738651Y-100661351D01*
X136538651Y-100661351D02*
G75*
G02*
X136738651Y-100661351I100000J0D01*
G01*
X136738651Y-100661351D02*
G75*
G02*
X136538651Y-100661351I-100000J0D01*
G01*
D14*
%TO.C,D11*%
X152558651Y-104696351D02*
X152558651Y-107381351D01*
X152558651Y-107381351D02*
X154478651Y-107381351D01*
X154478651Y-107381351D02*
X154478651Y-104696351D01*
%TO.C,C12*%
X126493651Y-74667603D02*
X126493651Y-74145099D01*
X127963651Y-74667603D02*
X127963651Y-74145099D01*
%TO.C,D13*%
X156748651Y-112446351D02*
X156748651Y-115131351D01*
X156748651Y-115131351D02*
X158668651Y-115131351D01*
X158668651Y-115131351D02*
X158668651Y-112446351D01*
%TO.C,J3*%
X152888651Y-108256351D02*
X154218651Y-108256351D01*
X152888651Y-109586351D02*
X152888651Y-108256351D01*
X155488651Y-108256351D02*
X158088651Y-108256351D01*
X155488651Y-110916351D02*
X155488651Y-108256351D01*
X155488651Y-110916351D02*
X158088651Y-110916351D01*
X158088651Y-110916351D02*
X158088651Y-108256351D01*
%TO.C,U1*%
X126571151Y-103191351D02*
X124371151Y-103191351D01*
X126571151Y-103191351D02*
X128771151Y-103191351D01*
X126571151Y-109961351D02*
X124371151Y-109961351D01*
X126571151Y-109961351D02*
X128771151Y-109961351D01*
X130761151Y-109741351D02*
X130431151Y-109501351D01*
X130761151Y-109261351D01*
X130761151Y-109741351D01*
G36*
X130761151Y-109741351D02*
G01*
X130431151Y-109501351D01*
X130761151Y-109261351D01*
X130761151Y-109741351D01*
G37*
%TO.C,J1*%
X121108651Y-112191351D02*
X121108651Y-117391351D01*
X128788651Y-114791351D02*
X128788651Y-117391351D01*
X128788651Y-117391351D02*
X121108651Y-117391351D01*
X131388651Y-112191351D02*
X121108651Y-112191351D01*
X131388651Y-112191351D02*
X131388651Y-114791351D01*
X131388651Y-114791351D02*
X128788651Y-114791351D01*
X131388651Y-116061351D02*
X131388651Y-117391351D01*
X131388651Y-117391351D02*
X130058651Y-117391351D01*
D15*
%TO.C,U3*%
X124418550Y-96599901D02*
X124418550Y-97184860D01*
X124418550Y-100155142D02*
X124418550Y-100740101D01*
X124418550Y-100740101D02*
X125003509Y-100740101D01*
X125003509Y-96599901D02*
X124418550Y-96599901D01*
X127973791Y-100740101D02*
X128558750Y-100740101D01*
X128558750Y-96599901D02*
X127973791Y-96599901D01*
X128558750Y-97184860D02*
X128558750Y-96599901D01*
X128558750Y-100740101D02*
X128558750Y-100155142D01*
D16*
G36*
X123859750Y-99860502D02*
G01*
X123605750Y-99860502D01*
X123605750Y-99479502D01*
X123859750Y-99479502D01*
X123859750Y-99860502D01*
G37*
G36*
X129371550Y-97860500D02*
G01*
X129117550Y-97860500D01*
X129117550Y-97479500D01*
X129371550Y-97479500D01*
X129371550Y-97860500D01*
G37*
D14*
%TO.C,C4*%
X136977399Y-93736351D02*
X137499903Y-93736351D01*
X136977399Y-95206351D02*
X137499903Y-95206351D01*
%TO.C,U2*%
X144568651Y-95761351D02*
X144568651Y-97411351D01*
X144568651Y-99411351D02*
X144568651Y-101061351D01*
X144568651Y-101061351D02*
X165008651Y-101061351D01*
X165008651Y-95761351D02*
X144568651Y-95761351D01*
X165008651Y-101061351D02*
X165008651Y-95761351D01*
X144568651Y-97411351D02*
G75*
G02*
X144568651Y-99411351I0J-1000000D01*
G01*
%TO.C,C8*%
X133389903Y-93691351D02*
X132867399Y-93691351D01*
X133389903Y-95161351D02*
X132867399Y-95161351D01*
%TO.C,R1*%
X120359903Y-97026351D02*
X119837399Y-97026351D01*
X120359903Y-98496351D02*
X119837399Y-98496351D01*
%TO.C,C10*%
X126967399Y-83531351D02*
X127489903Y-83531351D01*
X126967399Y-85001351D02*
X127489903Y-85001351D01*
%TO.C,C7*%
X125759903Y-93761351D02*
X125237399Y-93761351D01*
X125759903Y-95231351D02*
X125237399Y-95231351D01*
%TO.C,R2*%
X133588215Y-103186351D02*
X133134087Y-103186351D01*
X133588215Y-104656351D02*
X133134087Y-104656351D01*
%TO.C,C2*%
X140807399Y-109536351D02*
X141329903Y-109536351D01*
X140807399Y-111006351D02*
X141329903Y-111006351D01*
D15*
%TO.C,U4*%
X150678151Y-117971851D02*
X150678151Y-122670851D01*
X150678151Y-122670851D02*
X161219151Y-122670851D01*
X161219151Y-117971851D02*
X150678151Y-117971851D01*
X161219151Y-122670851D02*
X161219151Y-117971851D01*
D14*
%TO.C,J2*%
X123268651Y-63676351D02*
X123268651Y-71876351D01*
X123268651Y-63676351D02*
X131468651Y-63676351D01*
X123268651Y-68276351D02*
X123768651Y-67776351D01*
X123268651Y-71876351D02*
X131468651Y-71876351D01*
X123768651Y-67776351D02*
X123268651Y-67276351D01*
X131468651Y-63676351D02*
X131468651Y-71876351D01*
%TO.C,C3*%
X132793651Y-98420099D02*
X132793651Y-98942603D01*
X134263651Y-98420099D02*
X134263651Y-98942603D01*
%TO.C,D2*%
X132808651Y-111623851D02*
X132808651Y-114308851D01*
X132808651Y-114308851D02*
X134728651Y-114308851D01*
X134728651Y-114308851D02*
X134728651Y-111623851D01*
%TO.C,L4*%
X126668651Y-81275973D02*
X126668651Y-80476729D01*
X127788651Y-81275973D02*
X127788651Y-80476729D01*
%TO.C,C11*%
X126967399Y-77031351D02*
X127489903Y-77031351D01*
X126967399Y-78501351D02*
X127489903Y-78501351D01*
%TO.C,C5*%
X132717399Y-100916351D02*
X133239903Y-100916351D01*
X132717399Y-102386351D02*
X133239903Y-102386351D01*
%TO.C,L2*%
X125648651Y-91635973D02*
X125648651Y-90836729D01*
X126768651Y-91635973D02*
X126768651Y-90836729D01*
%TO.C,L3*%
X126708651Y-87655973D02*
X126708651Y-86856729D01*
X127828651Y-87655973D02*
X127828651Y-86856729D01*
%TO.C,D14*%
X156598651Y-104626351D02*
X156598651Y-107311351D01*
X156598651Y-107311351D02*
X158518651Y-107311351D01*
X158518651Y-107311351D02*
X158518651Y-104626351D01*
%TO.C,C6*%
X141213651Y-98480099D02*
X141213651Y-99002603D01*
X142683651Y-98480099D02*
X142683651Y-99002603D01*
%TO.C,R3*%
X133233651Y-108520915D02*
X133233651Y-108066787D01*
X134703651Y-108520915D02*
X134703651Y-108066787D01*
%TO.C,R6*%
X136043651Y-108520915D02*
X136043651Y-108066787D01*
X137513651Y-108520915D02*
X137513651Y-108066787D01*
%TO.C,C9*%
X127853651Y-90945099D02*
X127853651Y-91467603D01*
X129323651Y-90945099D02*
X129323651Y-91467603D01*
%TO.C,D3*%
X135848651Y-111623851D02*
X135848651Y-114308851D01*
X135848651Y-114308851D02*
X137768651Y-114308851D01*
X137768651Y-114308851D02*
X137768651Y-111623851D01*
%TO.C,L1*%
X129638273Y-93806351D02*
X128839029Y-93806351D01*
X129638273Y-94926351D02*
X128839029Y-94926351D01*
%TO.C,D1*%
X136038651Y-104871351D02*
X138723651Y-104871351D01*
X138723651Y-102951351D02*
X136038651Y-102951351D01*
X138723651Y-104871351D02*
X138723651Y-102951351D01*
%TO.C,C1*%
X140657399Y-106786351D02*
X141179903Y-106786351D01*
X140657399Y-108256351D02*
X141179903Y-108256351D01*
%TO.C,J4*%
X162968651Y-118873351D02*
X164298651Y-118873351D01*
X162968651Y-120203351D02*
X162968651Y-118873351D01*
X165508651Y-118873351D02*
X165628651Y-118873351D01*
X165508651Y-121533351D02*
X165628651Y-121533351D01*
X165628651Y-121533351D02*
X165628651Y-118873351D01*
%TO.C,D12*%
X152508651Y-112396351D02*
X152508651Y-115081351D01*
X152508651Y-115081351D02*
X154428651Y-115081351D01*
X154428651Y-115081351D02*
X154428651Y-112396351D01*
%TD*%
%LPC*%
D16*
%TO.C,U3*%
G36*
X127758650Y-97682601D02*
G01*
X125218650Y-97682601D01*
X125218650Y-97400001D01*
X127758650Y-97400001D01*
X127758650Y-97682601D01*
G37*
G36*
X127758650Y-98470001D02*
G01*
X125218650Y-98470001D01*
X125218650Y-98082601D01*
X127758650Y-98082601D01*
X127758650Y-98470001D01*
G37*
G36*
X127758650Y-99257401D02*
G01*
X125218650Y-99257401D01*
X125218650Y-98870001D01*
X127758650Y-98870001D01*
X127758650Y-99257401D01*
G37*
G36*
X125501250Y-99940001D02*
G01*
X125218650Y-99940001D01*
X125218650Y-97400001D01*
X125501250Y-97400001D01*
X125501250Y-99940001D01*
G37*
G36*
X127758650Y-99940001D02*
G01*
X125218650Y-99940001D01*
X125218650Y-99657401D01*
X127758650Y-99657401D01*
X127758650Y-99940001D01*
G37*
G36*
X126288650Y-99940001D02*
G01*
X125901250Y-99940001D01*
X125901250Y-97400001D01*
X126288650Y-97400001D01*
X126288650Y-99940001D01*
G37*
G36*
X127076050Y-99940001D02*
G01*
X126688650Y-99940001D01*
X126688650Y-97400001D01*
X127076050Y-97400001D01*
X127076050Y-99940001D01*
G37*
G36*
X127758650Y-99940001D02*
G01*
X127476050Y-99940001D01*
X127476050Y-97400001D01*
X127758650Y-97400001D01*
X127758650Y-99940001D01*
G37*
%TD*%
D17*
%TO.C,Y1*%
X136638651Y-99561351D03*
X138838651Y-99561351D03*
X138838651Y-97961351D03*
X136638651Y-97961351D03*
%TD*%
D18*
%TO.C,D11*%
X153518651Y-106633851D03*
X153518651Y-104758851D03*
%TD*%
D19*
%TO.C,C12*%
X127228651Y-75356351D03*
X127228651Y-73456351D03*
%TD*%
D18*
%TO.C,D13*%
X157708651Y-114383851D03*
X157708651Y-112508851D03*
%TD*%
D20*
%TO.C,J3*%
X154218651Y-109586351D03*
D21*
X156758651Y-109586351D03*
%TD*%
D22*
%TO.C,U1*%
X129433651Y-109501351D03*
X129433651Y-108851351D03*
X129433651Y-108201351D03*
X129433651Y-107551351D03*
X129433651Y-106901351D03*
X129433651Y-106251351D03*
X129433651Y-105601351D03*
X129433651Y-104951351D03*
X129433651Y-104301351D03*
X129433651Y-103651351D03*
X123708651Y-103651351D03*
X123708651Y-104301351D03*
X123708651Y-104951351D03*
X123708651Y-105601351D03*
X123708651Y-106251351D03*
X123708651Y-106901351D03*
X123708651Y-107551351D03*
X123708651Y-108201351D03*
X123708651Y-108851351D03*
X123708651Y-109501351D03*
%TD*%
D20*
%TO.C,J1*%
X130058651Y-116061351D03*
D21*
X130058651Y-113521351D03*
X127518651Y-116061351D03*
X127518651Y-113521351D03*
X124978651Y-116061351D03*
X124978651Y-113521351D03*
X122438651Y-116061351D03*
X122438651Y-113521351D03*
%TD*%
D23*
%TO.C,U3*%
X125488649Y-100568651D03*
X125988651Y-100568651D03*
X126488650Y-100568651D03*
X126988649Y-100568651D03*
X127488651Y-100568651D03*
D24*
X128387300Y-99670002D03*
X128387300Y-99170000D03*
X128387300Y-98670001D03*
X128387300Y-98170002D03*
X128387300Y-97670000D03*
D23*
X127488651Y-96771351D03*
X126988649Y-96771351D03*
X126488650Y-96771351D03*
X125988651Y-96771351D03*
X125488649Y-96771351D03*
D24*
X124590000Y-97670000D03*
X124590000Y-98170002D03*
X124590000Y-98670001D03*
X124590000Y-99170000D03*
X124590000Y-99670002D03*
D25*
X125731250Y-99450001D03*
X126461250Y-99450001D03*
X127228650Y-99450001D03*
X125761250Y-98670001D03*
X126491250Y-98670001D03*
X127258650Y-98670001D03*
X125778650Y-97880001D03*
X126508650Y-97880001D03*
X127276050Y-97880001D03*
%TD*%
D26*
%TO.C,C4*%
X136288651Y-94471351D03*
X138188651Y-94471351D03*
%TD*%
D27*
%TO.C,U2*%
X145898651Y-102221351D03*
D28*
X148438651Y-102221351D03*
X150978651Y-102221351D03*
X153518651Y-102221351D03*
X156058651Y-102221351D03*
X158598651Y-102221351D03*
X161138651Y-102221351D03*
X163678651Y-102221351D03*
X163678651Y-94601351D03*
X161138651Y-94601351D03*
X158598651Y-94601351D03*
X156058651Y-94601351D03*
X153518651Y-94601351D03*
X150978651Y-94601351D03*
X148438651Y-94601351D03*
X145898651Y-94601351D03*
%TD*%
D29*
%TO.C,C8*%
X134078651Y-94426351D03*
X132178651Y-94426351D03*
%TD*%
%TO.C,R1*%
X121048651Y-97761351D03*
X119148651Y-97761351D03*
%TD*%
D26*
%TO.C,C10*%
X126278651Y-84266351D03*
X128178651Y-84266351D03*
%TD*%
D29*
%TO.C,C7*%
X126448651Y-94496351D03*
X124548651Y-94496351D03*
%TD*%
D30*
%TO.C,R2*%
X134273651Y-103921351D03*
X132448651Y-103921351D03*
%TD*%
D26*
%TO.C,C2*%
X140118651Y-110271351D03*
X142018651Y-110271351D03*
%TD*%
D31*
%TO.C,U4*%
X158488651Y-119813351D03*
D32*
X155948651Y-119813351D03*
X153408651Y-119813351D03*
%TD*%
D33*
%TO.C,J2*%
X127368651Y-67776351D03*
D34*
X124828651Y-65236351D03*
X124828651Y-70316351D03*
X129908651Y-65236351D03*
X129908651Y-70316351D03*
%TD*%
D35*
%TO.C,C3*%
X133528651Y-97731351D03*
X133528651Y-99631351D03*
%TD*%
D18*
%TO.C,D2*%
X133768651Y-113561351D03*
X133768651Y-111686351D03*
%TD*%
D36*
%TO.C,L4*%
X127228651Y-81938851D03*
X127228651Y-79813851D03*
%TD*%
D26*
%TO.C,C11*%
X126278651Y-77766351D03*
X128178651Y-77766351D03*
%TD*%
%TO.C,C5*%
X132028651Y-101651351D03*
X133928651Y-101651351D03*
%TD*%
D36*
%TO.C,L2*%
X126208651Y-92298851D03*
X126208651Y-90173851D03*
%TD*%
%TO.C,L3*%
X127268651Y-88318851D03*
X127268651Y-86193851D03*
%TD*%
D18*
%TO.C,D14*%
X157558651Y-106563851D03*
X157558651Y-104688851D03*
%TD*%
D35*
%TO.C,C6*%
X141948651Y-97791351D03*
X141948651Y-99691351D03*
%TD*%
D37*
%TO.C,R3*%
X133968651Y-109206351D03*
X133968651Y-107381351D03*
%TD*%
%TO.C,R6*%
X136778651Y-109206351D03*
X136778651Y-107381351D03*
%TD*%
D35*
%TO.C,C9*%
X128588651Y-90256351D03*
X128588651Y-92156351D03*
%TD*%
D18*
%TO.C,D3*%
X136808651Y-113561351D03*
X136808651Y-111686351D03*
%TD*%
D38*
%TO.C,L1*%
X130301151Y-94366351D03*
X128176151Y-94366351D03*
%TD*%
D39*
%TO.C,D1*%
X137976151Y-103911351D03*
X136101151Y-103911351D03*
%TD*%
D26*
%TO.C,C1*%
X139968651Y-107521351D03*
X141868651Y-107521351D03*
%TD*%
D20*
%TO.C,J4*%
X164298651Y-120203351D03*
%TD*%
D18*
%TO.C,D12*%
X153468651Y-114333851D03*
X153468651Y-112458851D03*
%TD*%
%LPD*%
M02*
