%TF.GenerationSoftware,KiCad,Pcbnew,8.0.4*%
%TF.CreationDate,2024-10-15T15:40:55-05:00*%
%TF.ProjectId,verification_unit,76657269-6669-4636-9174-696f6e5f756e,rev?*%
%TF.SameCoordinates,Original*%
%TF.FileFunction,Copper,L2,Bot*%
%TF.FilePolarity,Positive*%
%FSLAX46Y46*%
G04 Gerber Fmt 4.6, Leading zero omitted, Abs format (unit mm)*
G04 Created by KiCad (PCBNEW 8.0.4) date 2024-10-15 15:40:55*
%MOMM*%
%LPD*%
G01*
G04 APERTURE LIST*
G04 Aperture macros list*
%AMRoundRect*
0 Rectangle with rounded corners*
0 $1 Rounding radius*
0 $2 $3 $4 $5 $6 $7 $8 $9 X,Y pos of 4 corners*
0 Add a 4 corners polygon primitive as box body*
4,1,4,$2,$3,$4,$5,$6,$7,$8,$9,$2,$3,0*
0 Add four circle primitives for the rounded corners*
1,1,$1+$1,$2,$3*
1,1,$1+$1,$4,$5*
1,1,$1+$1,$6,$7*
1,1,$1+$1,$8,$9*
0 Add four rect primitives between the rounded corners*
20,1,$1+$1,$2,$3,$4,$5,0*
20,1,$1+$1,$4,$5,$6,$7,0*
20,1,$1+$1,$6,$7,$8,$9,0*
20,1,$1+$1,$8,$9,$2,$3,0*%
G04 Aperture macros list end*
%TA.AperFunction,ComponentPad*%
%ADD10R,1.700000X1.700000*%
%TD*%
%TA.AperFunction,ComponentPad*%
%ADD11O,1.700000X1.700000*%
%TD*%
%TA.AperFunction,ComponentPad*%
%ADD12C,0.508000*%
%TD*%
%TA.AperFunction,ComponentPad*%
%ADD13R,1.600000X1.600000*%
%TD*%
%TA.AperFunction,ComponentPad*%
%ADD14O,1.600000X1.600000*%
%TD*%
%TA.AperFunction,ComponentPad*%
%ADD15R,1.879600X1.879600*%
%TD*%
%TA.AperFunction,ComponentPad*%
%ADD16C,1.879600*%
%TD*%
%TA.AperFunction,ComponentPad*%
%ADD17RoundRect,0.200100X-0.949900X-0.949900X0.949900X-0.949900X0.949900X0.949900X-0.949900X0.949900X0*%
%TD*%
%TA.AperFunction,ComponentPad*%
%ADD18C,2.500000*%
%TD*%
%TA.AperFunction,ViaPad*%
%ADD19C,0.600000*%
%TD*%
%TA.AperFunction,Conductor*%
%ADD20C,0.254000*%
%TD*%
%TA.AperFunction,Conductor*%
%ADD21C,0.200000*%
%TD*%
G04 APERTURE END LIST*
D10*
%TO.P,J3,1,Pin_1*%
%TO.N,Mplus*%
X154218651Y-109586351D03*
D11*
%TO.P,J3,2,Pin_2*%
%TO.N,Mneg*%
X156758651Y-109586351D03*
%TD*%
D10*
%TO.P,J1,1,Pin_1*%
%TO.N,VDD*%
X130058651Y-116061351D03*
D11*
%TO.P,J1,2,Pin_2*%
%TO.N,SWDIO*%
X130058651Y-113521351D03*
%TO.P,J1,3,Pin_3*%
%TO.N,SWCLK*%
X127518651Y-116061351D03*
%TO.P,J1,4,Pin_4*%
%TO.N,GND*%
X127518651Y-113521351D03*
%TO.P,J1,5,Pin_5*%
X124978651Y-116061351D03*
%TO.P,J1,6,Pin_6*%
%TO.N,USART_TX*%
X124978651Y-113521351D03*
%TO.P,J1,7,Pin_7*%
%TO.N,USART_RX*%
X122438651Y-116061351D03*
%TO.P,J1,8,Pin_8*%
%TO.N,VDD*%
X122438651Y-113521351D03*
%TD*%
D12*
%TO.P,U3,21,EPAD*%
%TO.N,GND*%
X125731250Y-99450001D03*
X126461250Y-99450001D03*
X127228650Y-99450001D03*
X125761250Y-98670001D03*
X126491250Y-98670001D03*
X127258650Y-98670001D03*
X125778650Y-97880001D03*
X126508650Y-97880001D03*
X127276050Y-97880001D03*
%TD*%
D13*
%TO.P,U2,1,EN1\u002C2*%
%TO.N,VDD_5V*%
X145898651Y-102221351D03*
D14*
%TO.P,U2,2,1A*%
%TO.N,MTR_CTRL_L*%
X148438651Y-102221351D03*
%TO.P,U2,3,1Y*%
%TO.N,Mplus*%
X150978651Y-102221351D03*
%TO.P,U2,4,GND*%
%TO.N,GND*%
X153518651Y-102221351D03*
%TO.P,U2,5,GND*%
X156058651Y-102221351D03*
%TO.P,U2,6,2Y*%
%TO.N,Mneg*%
X158598651Y-102221351D03*
%TO.P,U2,7,2A*%
%TO.N,MTR_CTRL_R*%
X161138651Y-102221351D03*
%TO.P,U2,8,VCC2*%
%TO.N,unconnected-(U2-VCC2-Pad8)*%
X163678651Y-102221351D03*
%TO.P,U2,9,EN3\u002C4*%
%TO.N,unconnected-(U2-EN3\u002C4-Pad9)*%
X163678651Y-94601351D03*
%TO.P,U2,10,3A*%
%TO.N,unconnected-(U2-3A-Pad10)*%
X161138651Y-94601351D03*
%TO.P,U2,11,3Y*%
%TO.N,unconnected-(U2-3Y-Pad11)*%
X158598651Y-94601351D03*
%TO.P,U2,12,GND*%
%TO.N,unconnected-(U2-GND-Pad12)*%
X156058651Y-94601351D03*
%TO.P,U2,13,GND*%
%TO.N,unconnected-(U2-GND-Pad13)*%
X153518651Y-94601351D03*
%TO.P,U2,14,4Y*%
%TO.N,unconnected-(U2-4Y-Pad14)*%
X150978651Y-94601351D03*
%TO.P,U2,15,4A*%
%TO.N,unconnected-(U2-4A-Pad15)*%
X148438651Y-94601351D03*
%TO.P,U2,16,VCC1*%
%TO.N,VDD_5V*%
X145898651Y-94601351D03*
%TD*%
D15*
%TO.P,U4,1,IN*%
%TO.N,VDD_5V*%
X158488651Y-119813351D03*
D16*
%TO.P,U4,2,GND*%
%TO.N,GND*%
X155948651Y-119813351D03*
%TO.P,U4,3,OUT*%
%TO.N,VDD*%
X153408651Y-119813351D03*
%TD*%
D17*
%TO.P,J2,1,In*%
%TO.N,Net-(J2-In)*%
X127368651Y-67776351D03*
D18*
%TO.P,J2,2,Ext*%
%TO.N,GND*%
X124828651Y-65236351D03*
X124828651Y-70316351D03*
X129908651Y-65236351D03*
X129908651Y-70316351D03*
%TD*%
D10*
%TO.P,J4,1,Pin_1*%
%TO.N,VDD_5V*%
X164298651Y-120203351D03*
%TD*%
D19*
%TO.N,VDD*%
X135200000Y-97010000D03*
X138410000Y-95930000D03*
%TO.N,GND*%
X124910000Y-84260000D03*
X121890000Y-70270000D03*
X118590000Y-100180000D03*
X139450000Y-103920000D03*
X132870000Y-65230000D03*
X141960000Y-101050000D03*
X138840000Y-101730000D03*
X132876351Y-70316351D03*
X124900000Y-77760000D03*
X134110000Y-92650000D03*
X132310000Y-99630000D03*
X138530000Y-113530000D03*
X130960000Y-106920000D03*
X130500000Y-88990000D03*
X143540000Y-110270000D03*
X134968649Y-101651351D03*
X123100000Y-94480000D03*
X133800000Y-115060000D03*
X121890000Y-65330000D03*
X136640000Y-97010000D03*
X129430000Y-77760000D03*
X138190000Y-92670000D03*
X129420000Y-84270000D03*
X143510000Y-107530000D03*
X123490000Y-97200000D03*
X119140000Y-96080000D03*
%TO.N,Net-(U1-PA5)*%
X122110000Y-104380000D03*
X131940000Y-110090000D03*
%TO.N,Net-(U1-PA9{slash}PA11)*%
X136800000Y-105680000D03*
X122130000Y-106910000D03*
%TO.N,MTR_CTRL_L*%
X121420000Y-109510000D03*
X148480000Y-105320000D03*
%TO.N,SPI_MOSI*%
X122110000Y-99970000D03*
X128000000Y-102073000D03*
%TO.N,SPI_NSS*%
X129960000Y-99297001D03*
X124540000Y-102700000D03*
%TO.N,SPI_SCLK*%
X123910000Y-101980000D03*
X125550000Y-104900000D03*
%TD*%
D20*
%TO.N,VDD*%
X135200000Y-97010000D02*
X136280000Y-95930000D01*
X136280000Y-95930000D02*
X138410000Y-95930000D01*
D21*
%TO.N,GND*%
X124900000Y-84250000D02*
X124910000Y-84260000D01*
X121983649Y-65236351D02*
X121890000Y-65330000D01*
X121936351Y-70316351D02*
X121890000Y-70270000D01*
X132880000Y-70320000D02*
X132876351Y-70316351D01*
X132863649Y-65236351D02*
X132870000Y-65230000D01*
D20*
%TO.N,Net-(U1-PA5)*%
X124423288Y-110090000D02*
X121503000Y-107169712D01*
X131940000Y-110090000D02*
X124423288Y-110090000D01*
X121503000Y-104987000D02*
X122110000Y-104380000D01*
X121503000Y-107169712D02*
X121503000Y-104987000D01*
%TO.N,Net-(U1-PA9{slash}PA11)*%
X123360000Y-105680000D02*
X122130000Y-106910000D01*
X136800000Y-105680000D02*
X123360000Y-105680000D01*
%TO.N,MTR_CTRL_L*%
X122627000Y-110717000D02*
X121420000Y-109510000D01*
X144787670Y-109012330D02*
X133904382Y-109012330D01*
X133904382Y-109012330D02*
X132199712Y-110717000D01*
X148480000Y-105320000D02*
X144787670Y-109012330D01*
X132199712Y-110717000D02*
X122627000Y-110717000D01*
%TO.N,SPI_MOSI*%
X123493000Y-101353000D02*
X122110000Y-99970000D01*
X127280000Y-101353000D02*
X123493000Y-101353000D01*
X128000000Y-102073000D02*
X127280000Y-101353000D01*
%TO.N,SPI_NSS*%
X124540000Y-102700000D02*
X129960000Y-102700000D01*
X129960000Y-102700000D02*
X129960000Y-99297001D01*
%TO.N,SPI_SCLK*%
X123913000Y-103263000D02*
X123913000Y-101983000D01*
X123913000Y-101983000D02*
X123910000Y-101980000D01*
X125550000Y-104900000D02*
X123913000Y-103263000D01*
%TD*%
%TA.AperFunction,Conductor*%
%TO.N,GND*%
G36*
X155738571Y-101975745D02*
G01*
X155685910Y-102066957D01*
X155658651Y-102168690D01*
X155658651Y-102274012D01*
X155685910Y-102375745D01*
X155738571Y-102466957D01*
X155742965Y-102471351D01*
X153834337Y-102471351D01*
X153838731Y-102466957D01*
X153891392Y-102375745D01*
X153918651Y-102274012D01*
X153918651Y-102168690D01*
X153891392Y-102066957D01*
X153838731Y-101975745D01*
X153834337Y-101971351D01*
X155742965Y-101971351D01*
X155738571Y-101975745D01*
G37*
%TD.AperFunction*%
%TA.AperFunction,Conductor*%
G36*
X122511190Y-63150185D02*
G01*
X122556945Y-63202989D01*
X122568151Y-63254500D01*
X122568151Y-63342242D01*
X122602259Y-63469538D01*
X122635205Y-63526601D01*
X122668151Y-63583665D01*
X122761337Y-63676851D01*
X122875465Y-63742743D01*
X123002759Y-63776851D01*
X123002761Y-63776851D01*
X123671342Y-63776851D01*
X123738381Y-63796536D01*
X123759023Y-63813170D01*
X124428089Y-64482236D01*
X124426025Y-64483091D01*
X124286807Y-64576113D01*
X124168413Y-64694507D01*
X124075391Y-64833725D01*
X124074536Y-64835788D01*
X123426525Y-64187778D01*
X123378679Y-64247776D01*
X123247534Y-64474924D01*
X123151709Y-64719080D01*
X123093344Y-64974800D01*
X123093343Y-64974805D01*
X123073744Y-65236346D01*
X123073744Y-65236355D01*
X123093343Y-65497896D01*
X123093344Y-65497901D01*
X123151709Y-65753621D01*
X123247534Y-65997777D01*
X123247533Y-65997777D01*
X123378678Y-66224924D01*
X123426525Y-66284922D01*
X124074535Y-65636912D01*
X124075391Y-65638977D01*
X124168413Y-65778195D01*
X124286807Y-65896589D01*
X124426025Y-65989611D01*
X124428088Y-65990465D01*
X123779481Y-66639071D01*
X123951197Y-66756144D01*
X123951201Y-66756146D01*
X124187505Y-66869945D01*
X124187509Y-66869946D01*
X124438145Y-66947258D01*
X124438151Y-66947260D01*
X124697499Y-66986350D01*
X124697508Y-66986351D01*
X124959794Y-66986351D01*
X124959802Y-66986350D01*
X125219150Y-66947260D01*
X125219156Y-66947258D01*
X125469791Y-66869947D01*
X125540349Y-66835968D01*
X125609290Y-66824616D01*
X125673425Y-66852338D01*
X125712391Y-66910333D01*
X125718151Y-66947688D01*
X125718151Y-68605013D01*
X125698466Y-68672052D01*
X125645662Y-68717807D01*
X125576504Y-68727751D01*
X125540350Y-68716733D01*
X125469793Y-68682755D01*
X125469795Y-68682755D01*
X125219156Y-68605443D01*
X125219150Y-68605441D01*
X124959802Y-68566351D01*
X124697499Y-68566351D01*
X124438151Y-68605441D01*
X124438145Y-68605443D01*
X124187509Y-68682755D01*
X124187505Y-68682756D01*
X123951198Y-68796556D01*
X123951190Y-68796561D01*
X123779481Y-68913628D01*
X124428089Y-69562236D01*
X124426025Y-69563091D01*
X124286807Y-69656113D01*
X124168413Y-69774507D01*
X124075391Y-69913725D01*
X124074536Y-69915788D01*
X123426525Y-69267778D01*
X123378679Y-69327776D01*
X123247534Y-69554924D01*
X123151709Y-69799080D01*
X123093344Y-70054800D01*
X123093343Y-70054805D01*
X123073744Y-70316346D01*
X123073744Y-70316355D01*
X123093343Y-70577896D01*
X123093344Y-70577901D01*
X123151709Y-70833621D01*
X123247534Y-71077777D01*
X123247533Y-71077777D01*
X123378678Y-71304924D01*
X123426525Y-71364922D01*
X124074535Y-70716912D01*
X124075391Y-70718977D01*
X124168413Y-70858195D01*
X124286807Y-70976589D01*
X124426025Y-71069611D01*
X124428088Y-71070465D01*
X123779481Y-71719071D01*
X123951197Y-71836144D01*
X123951201Y-71836146D01*
X124187505Y-71949945D01*
X124187509Y-71949946D01*
X124438145Y-72027258D01*
X124438151Y-72027260D01*
X124697499Y-72066350D01*
X124697508Y-72066351D01*
X124959794Y-72066351D01*
X124959802Y-72066350D01*
X125219150Y-72027260D01*
X125219156Y-72027258D01*
X125469794Y-71949946D01*
X125706096Y-71836149D01*
X125706098Y-71836148D01*
X125877819Y-71719071D01*
X125229213Y-71070465D01*
X125231277Y-71069611D01*
X125370495Y-70976589D01*
X125488889Y-70858195D01*
X125581911Y-70718977D01*
X125582765Y-70716912D01*
X126230776Y-71364923D01*
X126278622Y-71304924D01*
X126409767Y-71077777D01*
X126505592Y-70833621D01*
X126563957Y-70577901D01*
X126563958Y-70577896D01*
X126583558Y-70316355D01*
X126583558Y-70316346D01*
X126563958Y-70054805D01*
X126563957Y-70054800D01*
X126505592Y-69799080D01*
X126425949Y-69596153D01*
X126419780Y-69526556D01*
X126452218Y-69464673D01*
X126512963Y-69430150D01*
X126541377Y-69426851D01*
X128195925Y-69426851D01*
X128262964Y-69446536D01*
X128308719Y-69499340D01*
X128318663Y-69568498D01*
X128311353Y-69596153D01*
X128231709Y-69799080D01*
X128173344Y-70054800D01*
X128173343Y-70054805D01*
X128153744Y-70316346D01*
X128153744Y-70316355D01*
X128173343Y-70577896D01*
X128173344Y-70577901D01*
X128231709Y-70833621D01*
X128327534Y-71077777D01*
X128327533Y-71077777D01*
X128458678Y-71304924D01*
X128506525Y-71364922D01*
X129154535Y-70716912D01*
X129155391Y-70718977D01*
X129248413Y-70858195D01*
X129366807Y-70976589D01*
X129506025Y-71069611D01*
X129508088Y-71070465D01*
X128859481Y-71719071D01*
X129031197Y-71836144D01*
X129031201Y-71836146D01*
X129267505Y-71949945D01*
X129267509Y-71949946D01*
X129518145Y-72027258D01*
X129518151Y-72027260D01*
X129777499Y-72066350D01*
X129777508Y-72066351D01*
X130039794Y-72066351D01*
X130039802Y-72066350D01*
X130299150Y-72027260D01*
X130299156Y-72027258D01*
X130549794Y-71949946D01*
X130786096Y-71836149D01*
X130786098Y-71836148D01*
X130957819Y-71719071D01*
X130309213Y-71070465D01*
X130311277Y-71069611D01*
X130450495Y-70976589D01*
X130568889Y-70858195D01*
X130661911Y-70718977D01*
X130662765Y-70716912D01*
X131310776Y-71364923D01*
X131358622Y-71304924D01*
X131489767Y-71077777D01*
X131585592Y-70833621D01*
X131643957Y-70577901D01*
X131643958Y-70577896D01*
X131663558Y-70316355D01*
X131663558Y-70316346D01*
X131643958Y-70054805D01*
X131643957Y-70054800D01*
X131585592Y-69799080D01*
X131489767Y-69554924D01*
X131489768Y-69554924D01*
X131358623Y-69327777D01*
X131310775Y-69267778D01*
X130662765Y-69915788D01*
X130661911Y-69913725D01*
X130568889Y-69774507D01*
X130450495Y-69656113D01*
X130311277Y-69563091D01*
X130309212Y-69562235D01*
X130957819Y-68913629D01*
X130786105Y-68796557D01*
X130786096Y-68796552D01*
X130549793Y-68682755D01*
X130549795Y-68682755D01*
X130299156Y-68605443D01*
X130299150Y-68605441D01*
X130039802Y-68566351D01*
X129777499Y-68566351D01*
X129518151Y-68605441D01*
X129518145Y-68605443D01*
X129267509Y-68682755D01*
X129267505Y-68682756D01*
X129196953Y-68716733D01*
X129128011Y-68728085D01*
X129063877Y-68700363D01*
X129024911Y-68642368D01*
X129019151Y-68605013D01*
X129019151Y-66947689D01*
X129038836Y-66880650D01*
X129091640Y-66834895D01*
X129160798Y-66824951D01*
X129196953Y-66835969D01*
X129267505Y-66869945D01*
X129267509Y-66869946D01*
X129518145Y-66947258D01*
X129518151Y-66947260D01*
X129777499Y-66986350D01*
X129777508Y-66986351D01*
X130039794Y-66986351D01*
X130039802Y-66986350D01*
X130299150Y-66947260D01*
X130299156Y-66947258D01*
X130549794Y-66869946D01*
X130786096Y-66756149D01*
X130786098Y-66756148D01*
X130957819Y-66639071D01*
X130309213Y-65990465D01*
X130311277Y-65989611D01*
X130450495Y-65896589D01*
X130568889Y-65778195D01*
X130661911Y-65638977D01*
X130662765Y-65636912D01*
X131310776Y-66284923D01*
X131358622Y-66224924D01*
X131489767Y-65997777D01*
X131585592Y-65753621D01*
X131643957Y-65497901D01*
X131643958Y-65497896D01*
X131663558Y-65236355D01*
X131663558Y-65236346D01*
X131643958Y-64974805D01*
X131643957Y-64974800D01*
X131585592Y-64719080D01*
X131489767Y-64474924D01*
X131489768Y-64474924D01*
X131358623Y-64247777D01*
X131310775Y-64187778D01*
X130662765Y-64835788D01*
X130661911Y-64833725D01*
X130568889Y-64694507D01*
X130450495Y-64576113D01*
X130311277Y-64483091D01*
X130309213Y-64482236D01*
X130978278Y-63813170D01*
X131039601Y-63779685D01*
X131065959Y-63776851D01*
X131734541Y-63776851D01*
X131734543Y-63776851D01*
X131861837Y-63742743D01*
X131975965Y-63676851D01*
X132069151Y-63583665D01*
X132135043Y-63469537D01*
X132169151Y-63342243D01*
X132169151Y-63254500D01*
X132188836Y-63187461D01*
X132241640Y-63141706D01*
X132293151Y-63130500D01*
X168135500Y-63130500D01*
X168202539Y-63150185D01*
X168248294Y-63202989D01*
X168259500Y-63254500D01*
X168259500Y-124145500D01*
X168239815Y-124212539D01*
X168187011Y-124258294D01*
X168135500Y-124269500D01*
X116844500Y-124269500D01*
X116777461Y-124249815D01*
X116731706Y-124197011D01*
X116720500Y-124145500D01*
X116720500Y-119813345D01*
X151963415Y-119813345D01*
X151963415Y-119813356D01*
X151983124Y-120051220D01*
X151983126Y-120051232D01*
X152041721Y-120282618D01*
X152136702Y-120499151D01*
X152137604Y-120501207D01*
X152268157Y-120701033D01*
X152429819Y-120876646D01*
X152618182Y-121023254D01*
X152828106Y-121136860D01*
X153053867Y-121214363D01*
X153289304Y-121253651D01*
X153289305Y-121253651D01*
X153527997Y-121253651D01*
X153527998Y-121253651D01*
X153763435Y-121214363D01*
X153989196Y-121136860D01*
X154199120Y-121023254D01*
X154387483Y-120876646D01*
X154549145Y-120701033D01*
X154575140Y-120661243D01*
X154628284Y-120615889D01*
X154697515Y-120606464D01*
X154760851Y-120635964D01*
X154763670Y-120639218D01*
X154768706Y-120639740D01*
X155320208Y-120088238D01*
X155340903Y-120138199D01*
X155415956Y-120250523D01*
X155511479Y-120346046D01*
X155623803Y-120421099D01*
X155673761Y-120441792D01*
X155121491Y-120994063D01*
X155121491Y-120994064D01*
X155158453Y-121022833D01*
X155158458Y-121022836D01*
X155368301Y-121136397D01*
X155368311Y-121136402D01*
X155593986Y-121213876D01*
X155829347Y-121253151D01*
X156067955Y-121253151D01*
X156303315Y-121213876D01*
X156528990Y-121136402D01*
X156529000Y-121136397D01*
X156738840Y-121022838D01*
X156738843Y-121022836D01*
X156897258Y-120899536D01*
X156962252Y-120873893D01*
X157030792Y-120887459D01*
X157081117Y-120935927D01*
X157089602Y-120954055D01*
X157105051Y-120995474D01*
X157105057Y-120995486D01*
X157191303Y-121110695D01*
X157191306Y-121110698D01*
X157306515Y-121196944D01*
X157306522Y-121196948D01*
X157441368Y-121247242D01*
X157441367Y-121247242D01*
X157448295Y-121247986D01*
X157500978Y-121253651D01*
X159476323Y-121253650D01*
X159535934Y-121247242D01*
X159670782Y-121196947D01*
X159785997Y-121110697D01*
X159872247Y-120995482D01*
X159922542Y-120860634D01*
X159928951Y-120801024D01*
X159928950Y-119305486D01*
X162948151Y-119305486D01*
X162948151Y-121101221D01*
X162948152Y-121101227D01*
X162954559Y-121160834D01*
X163004853Y-121295679D01*
X163004857Y-121295686D01*
X163091103Y-121410895D01*
X163091106Y-121410898D01*
X163206315Y-121497144D01*
X163206322Y-121497148D01*
X163341168Y-121547442D01*
X163341167Y-121547442D01*
X163348095Y-121548186D01*
X163400778Y-121553851D01*
X165196523Y-121553850D01*
X165256134Y-121547442D01*
X165390982Y-121497147D01*
X165506197Y-121410897D01*
X165592447Y-121295682D01*
X165642742Y-121160834D01*
X165649151Y-121101224D01*
X165649150Y-119305479D01*
X165642742Y-119245868D01*
X165608442Y-119153906D01*
X165592448Y-119111022D01*
X165592444Y-119111015D01*
X165506198Y-118995806D01*
X165506195Y-118995803D01*
X165390986Y-118909557D01*
X165390979Y-118909553D01*
X165256133Y-118859259D01*
X165256134Y-118859259D01*
X165196534Y-118852852D01*
X165196532Y-118852851D01*
X165196524Y-118852851D01*
X165196515Y-118852851D01*
X163400780Y-118852851D01*
X163400774Y-118852852D01*
X163341167Y-118859259D01*
X163206322Y-118909553D01*
X163206315Y-118909557D01*
X163091106Y-118995803D01*
X163091103Y-118995806D01*
X163004857Y-119111015D01*
X163004853Y-119111022D01*
X162954559Y-119245868D01*
X162948152Y-119305467D01*
X162948152Y-119305474D01*
X162948151Y-119305486D01*
X159928950Y-119305486D01*
X159928950Y-118825679D01*
X159922542Y-118766068D01*
X159917666Y-118752996D01*
X159872248Y-118631222D01*
X159872244Y-118631215D01*
X159785998Y-118516006D01*
X159785995Y-118516003D01*
X159670786Y-118429757D01*
X159670779Y-118429753D01*
X159535933Y-118379459D01*
X159535934Y-118379459D01*
X159476334Y-118373052D01*
X159476332Y-118373051D01*
X159476324Y-118373051D01*
X159476315Y-118373051D01*
X157500980Y-118373051D01*
X157500974Y-118373052D01*
X157441367Y-118379459D01*
X157306522Y-118429753D01*
X157306515Y-118429757D01*
X157191306Y-118516003D01*
X157191303Y-118516006D01*
X157105057Y-118631215D01*
X157105052Y-118631225D01*
X157089602Y-118672647D01*
X157047730Y-118728580D01*
X156982265Y-118752996D01*
X156913993Y-118738143D01*
X156897259Y-118727165D01*
X156738849Y-118603869D01*
X156738840Y-118603863D01*
X156529000Y-118490304D01*
X156528990Y-118490299D01*
X156303315Y-118412825D01*
X156067955Y-118373551D01*
X155829347Y-118373551D01*
X155593986Y-118412825D01*
X155368311Y-118490299D01*
X155368306Y-118490301D01*
X155158455Y-118603867D01*
X155121490Y-118632637D01*
X155673762Y-119184909D01*
X155623803Y-119205603D01*
X155511479Y-119280656D01*
X155415956Y-119376179D01*
X155340903Y-119488503D01*
X155320209Y-119538462D01*
X154768707Y-118986960D01*
X154756015Y-118988276D01*
X154729609Y-119010813D01*
X154660378Y-119020236D01*
X154597043Y-118990733D01*
X154575139Y-118965456D01*
X154549144Y-118925668D01*
X154534309Y-118909553D01*
X154387483Y-118750056D01*
X154199120Y-118603448D01*
X154102803Y-118551323D01*
X153989197Y-118489842D01*
X153989192Y-118489840D01*
X153763437Y-118412339D01*
X153606477Y-118386147D01*
X153527998Y-118373051D01*
X153289304Y-118373051D01*
X153230444Y-118382873D01*
X153053864Y-118412339D01*
X152828109Y-118489840D01*
X152828104Y-118489842D01*
X152618180Y-118603449D01*
X152429820Y-118750055D01*
X152268157Y-118925668D01*
X152137602Y-119125498D01*
X152041721Y-119344083D01*
X151983126Y-119575469D01*
X151983124Y-119575481D01*
X151963415Y-119813345D01*
X116720500Y-119813345D01*
X116720500Y-113521350D01*
X121082992Y-113521350D01*
X121082992Y-113521351D01*
X121103587Y-113756754D01*
X121103589Y-113756764D01*
X121164745Y-113985006D01*
X121164747Y-113985010D01*
X121164748Y-113985014D01*
X121244452Y-114155939D01*
X121264616Y-114199181D01*
X121264618Y-114199185D01*
X121372932Y-114353872D01*
X121400155Y-114392751D01*
X121400157Y-114392753D01*
X121567248Y-114559844D01*
X121567254Y-114559849D01*
X121752809Y-114689776D01*
X121796434Y-114744353D01*
X121803628Y-114813851D01*
X121772105Y-114876206D01*
X121752809Y-114892926D01*
X121567248Y-115022856D01*
X121400156Y-115189948D01*
X121264616Y-115383520D01*
X121264615Y-115383522D01*
X121164749Y-115597686D01*
X121164745Y-115597695D01*
X121103589Y-115825937D01*
X121103587Y-115825947D01*
X121082992Y-116061350D01*
X121082992Y-116061351D01*
X121103587Y-116296754D01*
X121103589Y-116296764D01*
X121164745Y-116525006D01*
X121164747Y-116525010D01*
X121164748Y-116525014D01*
X121244452Y-116695939D01*
X121264616Y-116739181D01*
X121264618Y-116739185D01*
X121372932Y-116893872D01*
X121400156Y-116932752D01*
X121567250Y-117099846D01*
X121664035Y-117167616D01*
X121760816Y-117235383D01*
X121760818Y-117235384D01*
X121760821Y-117235386D01*
X121974988Y-117335254D01*
X122203243Y-117396414D01*
X122379685Y-117411851D01*
X122438650Y-117417010D01*
X122438651Y-117417010D01*
X122438652Y-117417010D01*
X122497617Y-117411851D01*
X122674059Y-117396414D01*
X122902314Y-117335254D01*
X123116481Y-117235386D01*
X123310052Y-117099846D01*
X123477146Y-116932752D01*
X123607381Y-116746756D01*
X123661958Y-116703132D01*
X123731456Y-116695938D01*
X123793811Y-116727461D01*
X123810530Y-116746756D01*
X123940541Y-116932429D01*
X124107568Y-117099456D01*
X124301072Y-117234951D01*
X124515158Y-117334780D01*
X124515167Y-117334784D01*
X124728651Y-117391985D01*
X124728651Y-116494363D01*
X124785658Y-116527276D01*
X124912825Y-116561351D01*
X125044477Y-116561351D01*
X125171644Y-116527276D01*
X125228651Y-116494363D01*
X125228651Y-117391984D01*
X125442134Y-117334784D01*
X125442143Y-117334780D01*
X125656229Y-117234951D01*
X125849733Y-117099456D01*
X126016756Y-116932433D01*
X126146770Y-116746756D01*
X126201347Y-116703132D01*
X126270846Y-116695939D01*
X126333200Y-116727461D01*
X126349920Y-116746756D01*
X126480156Y-116932752D01*
X126647250Y-117099846D01*
X126744035Y-117167616D01*
X126840816Y-117235383D01*
X126840818Y-117235384D01*
X126840821Y-117235386D01*
X127054988Y-117335254D01*
X127283243Y-117396414D01*
X127459685Y-117411851D01*
X127518650Y-117417010D01*
X127518651Y-117417010D01*
X127518652Y-117417010D01*
X127577617Y-117411851D01*
X127754059Y-117396414D01*
X127982314Y-117335254D01*
X128196481Y-117235386D01*
X128390052Y-117099846D01*
X128511980Y-116977917D01*
X128573299Y-116944435D01*
X128642991Y-116949419D01*
X128698925Y-116991290D01*
X128715840Y-117022268D01*
X128764853Y-117153679D01*
X128764857Y-117153686D01*
X128851103Y-117268895D01*
X128851106Y-117268898D01*
X128966315Y-117355144D01*
X128966322Y-117355148D01*
X129101168Y-117405442D01*
X129101167Y-117405442D01*
X129108095Y-117406186D01*
X129160778Y-117411851D01*
X130956523Y-117411850D01*
X131016134Y-117405442D01*
X131150982Y-117355147D01*
X131266197Y-117268897D01*
X131352447Y-117153682D01*
X131402742Y-117018834D01*
X131409151Y-116959224D01*
X131409150Y-115163479D01*
X131402742Y-115103868D01*
X131401461Y-115100434D01*
X131352448Y-114969022D01*
X131352444Y-114969015D01*
X131266198Y-114853806D01*
X131266195Y-114853803D01*
X131150986Y-114767557D01*
X131150979Y-114767553D01*
X131019568Y-114718540D01*
X130963634Y-114676669D01*
X130939217Y-114611204D01*
X130954069Y-114542931D01*
X130975214Y-114514683D01*
X131097146Y-114392752D01*
X131232686Y-114199181D01*
X131332554Y-113985014D01*
X131393714Y-113756759D01*
X131414310Y-113521351D01*
X131393714Y-113285943D01*
X131332554Y-113057688D01*
X131232686Y-112843522D01*
X131227382Y-112835946D01*
X131097145Y-112649948D01*
X130930053Y-112482857D01*
X130930046Y-112482852D01*
X130736485Y-112347318D01*
X130736481Y-112347316D01*
X130736479Y-112347315D01*
X130522314Y-112247448D01*
X130522310Y-112247447D01*
X130522306Y-112247445D01*
X130294064Y-112186289D01*
X130294054Y-112186287D01*
X130058652Y-112165692D01*
X130058650Y-112165692D01*
X129823247Y-112186287D01*
X129823237Y-112186289D01*
X129594995Y-112247445D01*
X129594986Y-112247449D01*
X129380822Y-112347315D01*
X129380820Y-112347316D01*
X129187248Y-112482856D01*
X129020159Y-112649945D01*
X128889920Y-112835946D01*
X128835343Y-112879570D01*
X128765844Y-112886763D01*
X128703490Y-112855241D01*
X128686770Y-112835945D01*
X128556764Y-112650277D01*
X128556759Y-112650271D01*
X128389733Y-112483245D01*
X128196229Y-112347750D01*
X127982143Y-112247921D01*
X127982137Y-112247918D01*
X127768651Y-112190715D01*
X127768651Y-113088339D01*
X127711644Y-113055426D01*
X127584477Y-113021351D01*
X127452825Y-113021351D01*
X127325658Y-113055426D01*
X127268651Y-113088339D01*
X127268651Y-112190715D01*
X127268650Y-112190715D01*
X127055164Y-112247918D01*
X127055158Y-112247921D01*
X126841073Y-112347750D01*
X126841071Y-112347751D01*
X126647577Y-112483237D01*
X126647571Y-112483242D01*
X126480542Y-112650271D01*
X126480541Y-112650273D01*
X126350531Y-112835946D01*
X126295954Y-112879570D01*
X126226455Y-112886763D01*
X126164101Y-112855241D01*
X126147381Y-112835945D01*
X126017145Y-112649948D01*
X125850053Y-112482857D01*
X125850046Y-112482852D01*
X125656485Y-112347318D01*
X125656481Y-112347316D01*
X125656479Y-112347315D01*
X125442314Y-112247448D01*
X125442310Y-112247447D01*
X125442306Y-112247445D01*
X125214064Y-112186289D01*
X125214054Y-112186287D01*
X124978652Y-112165692D01*
X124978650Y-112165692D01*
X124743247Y-112186287D01*
X124743237Y-112186289D01*
X124514995Y-112247445D01*
X124514986Y-112247449D01*
X124300822Y-112347315D01*
X124300820Y-112347316D01*
X124107248Y-112482856D01*
X123940156Y-112649948D01*
X123810226Y-112835509D01*
X123755649Y-112879134D01*
X123686151Y-112886328D01*
X123623796Y-112854805D01*
X123607076Y-112835509D01*
X123477145Y-112649948D01*
X123310053Y-112482857D01*
X123310046Y-112482852D01*
X123116485Y-112347318D01*
X123116481Y-112347316D01*
X123116479Y-112347315D01*
X122902314Y-112247448D01*
X122902310Y-112247447D01*
X122902306Y-112247445D01*
X122674064Y-112186289D01*
X122674054Y-112186287D01*
X122438652Y-112165692D01*
X122438650Y-112165692D01*
X122203247Y-112186287D01*
X122203237Y-112186289D01*
X121974995Y-112247445D01*
X121974986Y-112247449D01*
X121760822Y-112347315D01*
X121760820Y-112347316D01*
X121567248Y-112482856D01*
X121400156Y-112649948D01*
X121264616Y-112843520D01*
X121264615Y-112843522D01*
X121164749Y-113057686D01*
X121164745Y-113057695D01*
X121103589Y-113285937D01*
X121103587Y-113285947D01*
X121082992Y-113521350D01*
X116720500Y-113521350D01*
X116720500Y-109509996D01*
X120614435Y-109509996D01*
X120614435Y-109510003D01*
X120634630Y-109689249D01*
X120634631Y-109689254D01*
X120694211Y-109859523D01*
X120788030Y-110008834D01*
X120790184Y-110012262D01*
X120917738Y-110139816D01*
X121070478Y-110235789D01*
X121240745Y-110295368D01*
X121284635Y-110300313D01*
X121349048Y-110327378D01*
X121358433Y-110335852D01*
X122139589Y-111117008D01*
X122226992Y-111204411D01*
X122226994Y-111204413D01*
X122226996Y-111204414D01*
X122329756Y-111273076D01*
X122329758Y-111273077D01*
X122329767Y-111273083D01*
X122354772Y-111283440D01*
X122377071Y-111292677D01*
X122419254Y-111310149D01*
X122443966Y-111320386D01*
X122565192Y-111344499D01*
X122565196Y-111344500D01*
X122565197Y-111344500D01*
X132261516Y-111344500D01*
X132261517Y-111344499D01*
X132382747Y-111320386D01*
X132463496Y-111286937D01*
X132496945Y-111273083D01*
X132599720Y-111204411D01*
X132687123Y-111117008D01*
X134127982Y-109676149D01*
X134189305Y-109642664D01*
X134215663Y-109639830D01*
X144849474Y-109639830D01*
X144849475Y-109639829D01*
X144970705Y-109615716D01*
X145051454Y-109582267D01*
X145084903Y-109568413D01*
X145187678Y-109499741D01*
X145275081Y-109412338D01*
X145998933Y-108688486D01*
X152868151Y-108688486D01*
X152868151Y-110484221D01*
X152868152Y-110484227D01*
X152874559Y-110543834D01*
X152924853Y-110678679D01*
X152924857Y-110678686D01*
X153011103Y-110793895D01*
X153011106Y-110793898D01*
X153126315Y-110880144D01*
X153126322Y-110880148D01*
X153261168Y-110930442D01*
X153261167Y-110930442D01*
X153268095Y-110931186D01*
X153320778Y-110936851D01*
X155116523Y-110936850D01*
X155176134Y-110930442D01*
X155310982Y-110880147D01*
X155426197Y-110793897D01*
X155512447Y-110678682D01*
X155561461Y-110547267D01*
X155603332Y-110491335D01*
X155668796Y-110466917D01*
X155737069Y-110481768D01*
X155765324Y-110502920D01*
X155887250Y-110624846D01*
X155984035Y-110692616D01*
X156080816Y-110760383D01*
X156080818Y-110760384D01*
X156080821Y-110760386D01*
X156294988Y-110860254D01*
X156523243Y-110921414D01*
X156699685Y-110936851D01*
X156758650Y-110942010D01*
X156758651Y-110942010D01*
X156758652Y-110942010D01*
X156817617Y-110936851D01*
X156994059Y-110921414D01*
X157222314Y-110860254D01*
X157436481Y-110760386D01*
X157630052Y-110624846D01*
X157797146Y-110457752D01*
X157932686Y-110264181D01*
X158032554Y-110050014D01*
X158093714Y-109821759D01*
X158114310Y-109586351D01*
X158093714Y-109350943D01*
X158032554Y-109122688D01*
X157932686Y-108908522D01*
X157803926Y-108724632D01*
X157797145Y-108714948D01*
X157630053Y-108547857D01*
X157630046Y-108547852D01*
X157436485Y-108412318D01*
X157436481Y-108412316D01*
X157377537Y-108384830D01*
X157222314Y-108312448D01*
X157222310Y-108312447D01*
X157222306Y-108312445D01*
X156994064Y-108251289D01*
X156994054Y-108251287D01*
X156758652Y-108230692D01*
X156758650Y-108230692D01*
X156523247Y-108251287D01*
X156523237Y-108251289D01*
X156294995Y-108312445D01*
X156294986Y-108312449D01*
X156080822Y-108412315D01*
X156080820Y-108412316D01*
X155887251Y-108547854D01*
X155765324Y-108669781D01*
X155704001Y-108703265D01*
X155634309Y-108698281D01*
X155578376Y-108656409D01*
X155561461Y-108625432D01*
X155512448Y-108494022D01*
X155512444Y-108494015D01*
X155426198Y-108378806D01*
X155426195Y-108378803D01*
X155310986Y-108292557D01*
X155310979Y-108292553D01*
X155176133Y-108242259D01*
X155176134Y-108242259D01*
X155116534Y-108235852D01*
X155116532Y-108235851D01*
X155116524Y-108235851D01*
X155116515Y-108235851D01*
X153320780Y-108235851D01*
X153320774Y-108235852D01*
X153261167Y-108242259D01*
X153126322Y-108292553D01*
X153126315Y-108292557D01*
X153011106Y-108378803D01*
X153011103Y-108378806D01*
X152924857Y-108494015D01*
X152924853Y-108494022D01*
X152874559Y-108628868D01*
X152868152Y-108688467D01*
X152868151Y-108688486D01*
X145998933Y-108688486D01*
X148541567Y-106145850D01*
X148602888Y-106112367D01*
X148615345Y-106110315D01*
X148659255Y-106105368D01*
X148829522Y-106045789D01*
X148982262Y-105949816D01*
X149109816Y-105822262D01*
X149205789Y-105669522D01*
X149265368Y-105499255D01*
X149265369Y-105499249D01*
X149285565Y-105320003D01*
X149285565Y-105319996D01*
X149265369Y-105140750D01*
X149265368Y-105140745D01*
X149252623Y-105104323D01*
X149205789Y-104970478D01*
X149109816Y-104817738D01*
X148982262Y-104690184D01*
X148981581Y-104689756D01*
X148829523Y-104594211D01*
X148659254Y-104534631D01*
X148659249Y-104534630D01*
X148480004Y-104514435D01*
X148479996Y-104514435D01*
X148300750Y-104534630D01*
X148300745Y-104534631D01*
X148130476Y-104594211D01*
X147977737Y-104690184D01*
X147850184Y-104817737D01*
X147754210Y-104970478D01*
X147694632Y-105140745D01*
X147689686Y-105184637D01*
X147662618Y-105249051D01*
X147654147Y-105258432D01*
X144564070Y-108348511D01*
X144502747Y-108381996D01*
X144476389Y-108384830D01*
X133842576Y-108384830D01*
X133721352Y-108408943D01*
X133721342Y-108408946D01*
X133607155Y-108456243D01*
X133607142Y-108456250D01*
X133504374Y-108524918D01*
X133504370Y-108524921D01*
X132590084Y-109439207D01*
X132528761Y-109472692D01*
X132459069Y-109467708D01*
X132436431Y-109456520D01*
X132289523Y-109364211D01*
X132119254Y-109304631D01*
X132119249Y-109304630D01*
X131940004Y-109284435D01*
X131939996Y-109284435D01*
X131760750Y-109304630D01*
X131760745Y-109304631D01*
X131590476Y-109364211D01*
X131464300Y-109443494D01*
X131398328Y-109462500D01*
X124734569Y-109462500D01*
X124667530Y-109442815D01*
X124646888Y-109426181D01*
X122780792Y-107560085D01*
X122747307Y-107498762D01*
X122752291Y-107429070D01*
X122763479Y-107406432D01*
X122855788Y-107259523D01*
X122855789Y-107259522D01*
X122915368Y-107089255D01*
X122920313Y-107045361D01*
X122947378Y-106980951D01*
X122955842Y-106971575D01*
X123583600Y-106343819D01*
X123644923Y-106310334D01*
X123671281Y-106307500D01*
X136258328Y-106307500D01*
X136324299Y-106326505D01*
X136450478Y-106405789D01*
X136620745Y-106465368D01*
X136620750Y-106465369D01*
X136799996Y-106485565D01*
X136800000Y-106485565D01*
X136800004Y-106485565D01*
X136979249Y-106465369D01*
X136979252Y-106465368D01*
X136979255Y-106465368D01*
X137149522Y-106405789D01*
X137302262Y-106309816D01*
X137429816Y-106182262D01*
X137525789Y-106029522D01*
X137585368Y-105859255D01*
X137587100Y-105843884D01*
X137605565Y-105680003D01*
X137605565Y-105679996D01*
X137585369Y-105500750D01*
X137585368Y-105500745D01*
X137525788Y-105330476D01*
X137461242Y-105227752D01*
X137429816Y-105177738D01*
X137302262Y-105050184D01*
X137275700Y-105033494D01*
X137149523Y-104954211D01*
X136979254Y-104894631D01*
X136979249Y-104894630D01*
X136800004Y-104874435D01*
X136799996Y-104874435D01*
X136620750Y-104894630D01*
X136620745Y-104894631D01*
X136450476Y-104954211D01*
X136324300Y-105033494D01*
X136258328Y-105052500D01*
X126477138Y-105052500D01*
X126410099Y-105032815D01*
X126364344Y-104980011D01*
X126353918Y-104914614D01*
X126355324Y-104902142D01*
X126355565Y-104900000D01*
X126354960Y-104894632D01*
X126335369Y-104720750D01*
X126335368Y-104720745D01*
X126288567Y-104586996D01*
X126275789Y-104550478D01*
X126179816Y-104397738D01*
X126052262Y-104270184D01*
X125941751Y-104200745D01*
X125899521Y-104174210D01*
X125729249Y-104114630D01*
X125685361Y-104109685D01*
X125620947Y-104082617D01*
X125611565Y-104074146D01*
X125076600Y-103539181D01*
X125043115Y-103477858D01*
X125048099Y-103408166D01*
X125089971Y-103352233D01*
X125155435Y-103327816D01*
X125164281Y-103327500D01*
X130021805Y-103327500D01*
X130103361Y-103311276D01*
X130143035Y-103303385D01*
X130238887Y-103263682D01*
X130257226Y-103256086D01*
X130257226Y-103256085D01*
X130257233Y-103256083D01*
X130360008Y-103187411D01*
X130447411Y-103100008D01*
X130516083Y-102997233D01*
X130563385Y-102883035D01*
X130586924Y-102764699D01*
X130587500Y-102761805D01*
X130587500Y-101373486D01*
X144598151Y-101373486D01*
X144598151Y-103069221D01*
X144598152Y-103069227D01*
X144604559Y-103128834D01*
X144654853Y-103263679D01*
X144654857Y-103263686D01*
X144741103Y-103378895D01*
X144741106Y-103378898D01*
X144856315Y-103465144D01*
X144856322Y-103465148D01*
X144991168Y-103515442D01*
X144991167Y-103515442D01*
X144998095Y-103516186D01*
X145050778Y-103521851D01*
X146746523Y-103521850D01*
X146806134Y-103515442D01*
X146940982Y-103465147D01*
X147056197Y-103378897D01*
X147142447Y-103263682D01*
X147192742Y-103128834D01*
X147196513Y-103093752D01*
X147223250Y-103029206D01*
X147280641Y-102989357D01*
X147350467Y-102986862D01*
X147410556Y-103022514D01*
X147421377Y-103035887D01*
X147438607Y-103060494D01*
X147599509Y-103221396D01*
X147599512Y-103221398D01*
X147785917Y-103351919D01*
X147992155Y-103448090D01*
X148211959Y-103506986D01*
X148373881Y-103521152D01*
X148438649Y-103526819D01*
X148438651Y-103526819D01*
X148438653Y-103526819D01*
X148495458Y-103521849D01*
X148665343Y-103506986D01*
X148885147Y-103448090D01*
X149091385Y-103351919D01*
X149277790Y-103221398D01*
X149438698Y-103060490D01*
X149569219Y-102874085D01*
X149596269Y-102816075D01*
X149642441Y-102763636D01*
X149709634Y-102744484D01*
X149776516Y-102764699D01*
X149821033Y-102816076D01*
X149848080Y-102874079D01*
X149848083Y-102874085D01*
X149978605Y-103060492D01*
X150139509Y-103221396D01*
X150139512Y-103221398D01*
X150325917Y-103351919D01*
X150532155Y-103448090D01*
X150751959Y-103506986D01*
X150913881Y-103521152D01*
X150978649Y-103526819D01*
X150978651Y-103526819D01*
X150978653Y-103526819D01*
X151035458Y-103521849D01*
X151205343Y-103506986D01*
X151425147Y-103448090D01*
X151631385Y-103351919D01*
X151817790Y-103221398D01*
X151978698Y-103060490D01*
X152109219Y-102874085D01*
X152136546Y-102815480D01*
X152182715Y-102763046D01*
X152249908Y-102743893D01*
X152316790Y-102764108D01*
X152361308Y-102815484D01*
X152388516Y-102873833D01*
X152518993Y-103060171D01*
X152679830Y-103221008D01*
X152866168Y-103351485D01*
X153072324Y-103447616D01*
X153072333Y-103447620D01*
X153268650Y-103500223D01*
X153268651Y-103500222D01*
X153268651Y-102537037D01*
X153273045Y-102541431D01*
X153364257Y-102594092D01*
X153465990Y-102621351D01*
X153571312Y-102621351D01*
X153673045Y-102594092D01*
X153764257Y-102541431D01*
X153768651Y-102537037D01*
X153768651Y-103500223D01*
X153964968Y-103447620D01*
X153964977Y-103447616D01*
X154171133Y-103351485D01*
X154357471Y-103221008D01*
X154518308Y-103060171D01*
X154648785Y-102873832D01*
X154648786Y-102873830D01*
X154676269Y-102814894D01*
X154722441Y-102762454D01*
X154789634Y-102743302D01*
X154856515Y-102763517D01*
X154901033Y-102814894D01*
X154928515Y-102873830D01*
X154928516Y-102873832D01*
X155058993Y-103060171D01*
X155219830Y-103221008D01*
X155406168Y-103351485D01*
X155612324Y-103447616D01*
X155612333Y-103447620D01*
X155808650Y-103500223D01*
X155808651Y-103500222D01*
X155808651Y-102537037D01*
X155813045Y-102541431D01*
X155904257Y-102594092D01*
X156005990Y-102621351D01*
X156111312Y-102621351D01*
X156213045Y-102594092D01*
X156304257Y-102541431D01*
X156308651Y-102537037D01*
X156308651Y-103500223D01*
X156504968Y-103447620D01*
X156504977Y-103447616D01*
X156711133Y-103351485D01*
X156897471Y-103221008D01*
X157058308Y-103060171D01*
X157188783Y-102873835D01*
X157215992Y-102815485D01*
X157262164Y-102763046D01*
X157329358Y-102743893D01*
X157396239Y-102764108D01*
X157440757Y-102815484D01*
X157468082Y-102874083D01*
X157468083Y-102874085D01*
X157598605Y-103060492D01*
X157759509Y-103221396D01*
X157759512Y-103221398D01*
X157945917Y-103351919D01*
X158152155Y-103448090D01*
X158371959Y-103506986D01*
X158533881Y-103521152D01*
X158598649Y-103526819D01*
X158598651Y-103526819D01*
X158598653Y-103526819D01*
X158655458Y-103521849D01*
X158825343Y-103506986D01*
X159045147Y-103448090D01*
X159251385Y-103351919D01*
X159437790Y-103221398D01*
X159598698Y-103060490D01*
X159729219Y-102874085D01*
X159756269Y-102816075D01*
X159802441Y-102763636D01*
X159869634Y-102744484D01*
X159936516Y-102764699D01*
X159981033Y-102816076D01*
X160008080Y-102874079D01*
X160008083Y-102874085D01*
X160138605Y-103060492D01*
X160299509Y-103221396D01*
X160299512Y-103221398D01*
X160485917Y-103351919D01*
X160692155Y-103448090D01*
X160911959Y-103506986D01*
X161073881Y-103521152D01*
X161138649Y-103526819D01*
X161138651Y-103526819D01*
X161138653Y-103526819D01*
X161195458Y-103521849D01*
X161365343Y-103506986D01*
X161585147Y-103448090D01*
X161791385Y-103351919D01*
X161977790Y-103221398D01*
X162138698Y-103060490D01*
X162269219Y-102874085D01*
X162296269Y-102816075D01*
X162342441Y-102763636D01*
X162409634Y-102744484D01*
X162476516Y-102764699D01*
X162521033Y-102816076D01*
X162548080Y-102874079D01*
X162548083Y-102874085D01*
X162678605Y-103060492D01*
X162839509Y-103221396D01*
X162839512Y-103221398D01*
X163025917Y-103351919D01*
X163232155Y-103448090D01*
X163451959Y-103506986D01*
X163613881Y-103521152D01*
X163678649Y-103526819D01*
X163678651Y-103526819D01*
X163678653Y-103526819D01*
X163735458Y-103521849D01*
X163905343Y-103506986D01*
X164125147Y-103448090D01*
X164331385Y-103351919D01*
X164517790Y-103221398D01*
X164678698Y-103060490D01*
X164809219Y-102874085D01*
X164905390Y-102667847D01*
X164964286Y-102448043D01*
X164984119Y-102221351D01*
X164964286Y-101994659D01*
X164905390Y-101774855D01*
X164809219Y-101568617D01*
X164678698Y-101382212D01*
X164678696Y-101382209D01*
X164517792Y-101221305D01*
X164331385Y-101090783D01*
X164331383Y-101090782D01*
X164125148Y-100994612D01*
X164125139Y-100994609D01*
X163905348Y-100935717D01*
X163905344Y-100935716D01*
X163905343Y-100935716D01*
X163905342Y-100935715D01*
X163905337Y-100935715D01*
X163678653Y-100915883D01*
X163678649Y-100915883D01*
X163451964Y-100935715D01*
X163451953Y-100935717D01*
X163232162Y-100994609D01*
X163232153Y-100994612D01*
X163025918Y-101090782D01*
X163025916Y-101090783D01*
X162839509Y-101221305D01*
X162678605Y-101382209D01*
X162548083Y-101568616D01*
X162548082Y-101568618D01*
X162521033Y-101626626D01*
X162474860Y-101679065D01*
X162407667Y-101698217D01*
X162340786Y-101678001D01*
X162296269Y-101626626D01*
X162270208Y-101570738D01*
X162269219Y-101568617D01*
X162138698Y-101382212D01*
X162138696Y-101382209D01*
X161977792Y-101221305D01*
X161791385Y-101090783D01*
X161791383Y-101090782D01*
X161585148Y-100994612D01*
X161585139Y-100994609D01*
X161365348Y-100935717D01*
X161365344Y-100935716D01*
X161365343Y-100935716D01*
X161365342Y-100935715D01*
X161365337Y-100935715D01*
X161138653Y-100915883D01*
X161138649Y-100915883D01*
X160911964Y-100935715D01*
X160911953Y-100935717D01*
X160692162Y-100994609D01*
X160692153Y-100994612D01*
X160485918Y-101090782D01*
X160485916Y-101090783D01*
X160299509Y-101221305D01*
X160138605Y-101382209D01*
X160008083Y-101568616D01*
X160008082Y-101568618D01*
X159981033Y-101626626D01*
X159934860Y-101679065D01*
X159867667Y-101698217D01*
X159800786Y-101678001D01*
X159756269Y-101626626D01*
X159730208Y-101570738D01*
X159729219Y-101568617D01*
X159598698Y-101382212D01*
X159598696Y-101382209D01*
X159437792Y-101221305D01*
X159251385Y-101090783D01*
X159251383Y-101090782D01*
X159045148Y-100994612D01*
X159045139Y-100994609D01*
X158825348Y-100935717D01*
X158825344Y-100935716D01*
X158825343Y-100935716D01*
X158825342Y-100935715D01*
X158825337Y-100935715D01*
X158598653Y-100915883D01*
X158598649Y-100915883D01*
X158371964Y-100935715D01*
X158371953Y-100935717D01*
X158152162Y-100994609D01*
X158152153Y-100994612D01*
X157945918Y-101090782D01*
X157945916Y-101090783D01*
X157759509Y-101221305D01*
X157598605Y-101382209D01*
X157468084Y-101568615D01*
X157468083Y-101568617D01*
X157467966Y-101568869D01*
X157440757Y-101627218D01*
X157394584Y-101679657D01*
X157327390Y-101698808D01*
X157260509Y-101678592D01*
X157215993Y-101627216D01*
X157188786Y-101568871D01*
X157188785Y-101568869D01*
X157058308Y-101382530D01*
X156897471Y-101221693D01*
X156711133Y-101091216D01*
X156504979Y-100995085D01*
X156308651Y-100942478D01*
X156308651Y-101905665D01*
X156304257Y-101901271D01*
X156213045Y-101848610D01*
X156111312Y-101821351D01*
X156005990Y-101821351D01*
X155904257Y-101848610D01*
X155813045Y-101901271D01*
X155808651Y-101905665D01*
X155808651Y-100942478D01*
X155612322Y-100995085D01*
X155406168Y-101091216D01*
X155219830Y-101221693D01*
X155058993Y-101382530D01*
X154928516Y-101568868D01*
X154901033Y-101627808D01*
X154854861Y-101680247D01*
X154787667Y-101699399D01*
X154720786Y-101679183D01*
X154676269Y-101627808D01*
X154648785Y-101568868D01*
X154518308Y-101382530D01*
X154357471Y-101221693D01*
X154171133Y-101091216D01*
X153964979Y-100995085D01*
X153768651Y-100942478D01*
X153768651Y-101905665D01*
X153764257Y-101901271D01*
X153673045Y-101848610D01*
X153571312Y-101821351D01*
X153465990Y-101821351D01*
X153364257Y-101848610D01*
X153273045Y-101901271D01*
X153268651Y-101905665D01*
X153268651Y-100942478D01*
X153072322Y-100995085D01*
X152866168Y-101091216D01*
X152679830Y-101221693D01*
X152518993Y-101382530D01*
X152388518Y-101568866D01*
X152361308Y-101627218D01*
X152315135Y-101679657D01*
X152247941Y-101698808D01*
X152181060Y-101678592D01*
X152136544Y-101627216D01*
X152110207Y-101570737D01*
X152109219Y-101568617D01*
X151978698Y-101382212D01*
X151978696Y-101382209D01*
X151817792Y-101221305D01*
X151631385Y-101090783D01*
X151631383Y-101090782D01*
X151425148Y-100994612D01*
X151425139Y-100994609D01*
X151205348Y-100935717D01*
X151205344Y-100935716D01*
X151205343Y-100935716D01*
X151205342Y-100935715D01*
X151205337Y-100935715D01*
X150978653Y-100915883D01*
X150978649Y-100915883D01*
X150751964Y-100935715D01*
X150751953Y-100935717D01*
X150532162Y-100994609D01*
X150532153Y-100994612D01*
X150325918Y-101090782D01*
X150325916Y-101090783D01*
X150139509Y-101221305D01*
X149978605Y-101382209D01*
X149848083Y-101568616D01*
X149848082Y-101568618D01*
X149821033Y-101626626D01*
X149774860Y-101679065D01*
X149707667Y-101698217D01*
X149640786Y-101678001D01*
X149596269Y-101626626D01*
X149570208Y-101570738D01*
X149569219Y-101568617D01*
X149438698Y-101382212D01*
X149438696Y-101382209D01*
X149277792Y-101221305D01*
X149091385Y-101090783D01*
X149091383Y-101090782D01*
X148885148Y-100994612D01*
X148885139Y-100994609D01*
X148665348Y-100935717D01*
X148665344Y-100935716D01*
X148665343Y-100935716D01*
X148665342Y-100935715D01*
X148665337Y-100935715D01*
X148438653Y-100915883D01*
X148438649Y-100915883D01*
X148211964Y-100935715D01*
X148211953Y-100935717D01*
X147992162Y-100994609D01*
X147992153Y-100994612D01*
X147785918Y-101090782D01*
X147785916Y-101090783D01*
X147599509Y-101221305D01*
X147438605Y-101382209D01*
X147421376Y-101406815D01*
X147366798Y-101450439D01*
X147297299Y-101457631D01*
X147234945Y-101426108D01*
X147199533Y-101365877D01*
X147196512Y-101348942D01*
X147192742Y-101313867D01*
X147142448Y-101179022D01*
X147142444Y-101179015D01*
X147056198Y-101063806D01*
X147056195Y-101063803D01*
X146940986Y-100977557D01*
X146940979Y-100977553D01*
X146806133Y-100927259D01*
X146806134Y-100927259D01*
X146746534Y-100920852D01*
X146746532Y-100920851D01*
X146746524Y-100920851D01*
X146746515Y-100920851D01*
X145050780Y-100920851D01*
X145050774Y-100920852D01*
X144991167Y-100927259D01*
X144856322Y-100977553D01*
X144856315Y-100977557D01*
X144741106Y-101063803D01*
X144741103Y-101063806D01*
X144654857Y-101179015D01*
X144654853Y-101179022D01*
X144604559Y-101313868D01*
X144598152Y-101373467D01*
X144598151Y-101373486D01*
X130587500Y-101373486D01*
X130587500Y-99838672D01*
X130606507Y-99772699D01*
X130685788Y-99646525D01*
X130685789Y-99646523D01*
X130745368Y-99476256D01*
X130760457Y-99342336D01*
X130765565Y-99297004D01*
X130765565Y-99296997D01*
X130745369Y-99117751D01*
X130745368Y-99117746D01*
X130737916Y-99096449D01*
X130685789Y-98947479D01*
X130589816Y-98794739D01*
X130462262Y-98667185D01*
X130448524Y-98658553D01*
X130309523Y-98571212D01*
X130139254Y-98511632D01*
X130139249Y-98511631D01*
X129960004Y-98491436D01*
X129959996Y-98491436D01*
X129780750Y-98511631D01*
X129780745Y-98511632D01*
X129610476Y-98571212D01*
X129457737Y-98667185D01*
X129330184Y-98794738D01*
X129234211Y-98947477D01*
X129174631Y-99117746D01*
X129174630Y-99117751D01*
X129154435Y-99296997D01*
X129154435Y-99297004D01*
X129174630Y-99476250D01*
X129174631Y-99476255D01*
X129234211Y-99646525D01*
X129313493Y-99772699D01*
X129332500Y-99838672D01*
X129332500Y-101948500D01*
X129312815Y-102015539D01*
X129260011Y-102061294D01*
X129208500Y-102072500D01*
X128916322Y-102072500D01*
X128849283Y-102052815D01*
X128803528Y-102000011D01*
X128793102Y-101962383D01*
X128785369Y-101893750D01*
X128785368Y-101893748D01*
X128785368Y-101893745D01*
X128725789Y-101723478D01*
X128629816Y-101570738D01*
X128502262Y-101443184D01*
X128405221Y-101382209D01*
X128349521Y-101347210D01*
X128179249Y-101287630D01*
X128135361Y-101282685D01*
X128070948Y-101255617D01*
X128061566Y-101247146D01*
X127680011Y-100865591D01*
X127680007Y-100865588D01*
X127577239Y-100796920D01*
X127577226Y-100796913D01*
X127543785Y-100783062D01*
X127463035Y-100749614D01*
X127463027Y-100749612D01*
X127341807Y-100725500D01*
X127341803Y-100725500D01*
X123804281Y-100725500D01*
X123737242Y-100705815D01*
X123716600Y-100689181D01*
X123160717Y-100133298D01*
X125401505Y-100133298D01*
X125402029Y-100133627D01*
X125562415Y-100189749D01*
X125731246Y-100208772D01*
X125731254Y-100208772D01*
X125900084Y-100189749D01*
X126055295Y-100135439D01*
X126125074Y-100131878D01*
X126137205Y-100135439D01*
X126292415Y-100189749D01*
X126461246Y-100208772D01*
X126461254Y-100208772D01*
X126630084Y-100189749D01*
X126790475Y-100133626D01*
X126791147Y-100133303D01*
X126791624Y-100133224D01*
X126797041Y-100131329D01*
X126797372Y-100132277D01*
X126860088Y-100121949D01*
X126892781Y-100131549D01*
X126892859Y-100131329D01*
X126897181Y-100132841D01*
X126898753Y-100133303D01*
X126899424Y-100133626D01*
X127059815Y-100189749D01*
X127228646Y-100208772D01*
X127228654Y-100208772D01*
X127397486Y-100189749D01*
X127557865Y-100133630D01*
X127557871Y-100133628D01*
X127558394Y-100133299D01*
X127558394Y-100133298D01*
X126849835Y-99424739D01*
X127101650Y-99424739D01*
X127101650Y-99475263D01*
X127120985Y-99521941D01*
X127156710Y-99557666D01*
X127203388Y-99577001D01*
X127253912Y-99577001D01*
X127300590Y-99557666D01*
X127336315Y-99521941D01*
X127355650Y-99475263D01*
X127355650Y-99424739D01*
X127336315Y-99378061D01*
X127300590Y-99342336D01*
X127253912Y-99323001D01*
X127203388Y-99323001D01*
X127156710Y-99342336D01*
X127120985Y-99378061D01*
X127101650Y-99424739D01*
X126849835Y-99424739D01*
X126844950Y-99419854D01*
X126548931Y-99715873D01*
X126487608Y-99749358D01*
X126417916Y-99744374D01*
X126373569Y-99715873D01*
X126096250Y-99438554D01*
X125401505Y-100133298D01*
X123160717Y-100133298D01*
X122935852Y-99908433D01*
X122902367Y-99847110D01*
X122900314Y-99834648D01*
X122895368Y-99790745D01*
X122835789Y-99620478D01*
X122739816Y-99467738D01*
X122722075Y-99449997D01*
X124972479Y-99449997D01*
X124972479Y-99450004D01*
X124991501Y-99618837D01*
X125047621Y-99779220D01*
X125047950Y-99779745D01*
X125402957Y-99424739D01*
X125604250Y-99424739D01*
X125604250Y-99475263D01*
X125623585Y-99521941D01*
X125659310Y-99557666D01*
X125705988Y-99577001D01*
X125756512Y-99577001D01*
X125803190Y-99557666D01*
X125838915Y-99521941D01*
X125858250Y-99475263D01*
X125858250Y-99424739D01*
X126334250Y-99424739D01*
X126334250Y-99475263D01*
X126353585Y-99521941D01*
X126389310Y-99557666D01*
X126435988Y-99577001D01*
X126486512Y-99577001D01*
X126533190Y-99557666D01*
X126568915Y-99521941D01*
X126588250Y-99475263D01*
X126588250Y-99424739D01*
X126568915Y-99378061D01*
X126533190Y-99342336D01*
X126486512Y-99323001D01*
X126435988Y-99323001D01*
X126389310Y-99342336D01*
X126353585Y-99378061D01*
X126334250Y-99424739D01*
X125858250Y-99424739D01*
X125838915Y-99378061D01*
X125803190Y-99342336D01*
X125756512Y-99323001D01*
X125705988Y-99323001D01*
X125659310Y-99342336D01*
X125623585Y-99378061D01*
X125604250Y-99424739D01*
X125402957Y-99424739D01*
X125731248Y-99096449D01*
X125745933Y-99081761D01*
X125748825Y-99071911D01*
X127210290Y-99071911D01*
X127210290Y-99078088D01*
X127228650Y-99096448D01*
X127911948Y-99779745D01*
X127912277Y-99779222D01*
X127912279Y-99779216D01*
X127968398Y-99618837D01*
X127987421Y-99450004D01*
X127987421Y-99449997D01*
X127968398Y-99281165D01*
X127915410Y-99129732D01*
X127911849Y-99059954D01*
X127927459Y-99022804D01*
X127942279Y-98999217D01*
X127998398Y-98838837D01*
X128017421Y-98670004D01*
X128017421Y-98669997D01*
X127998398Y-98501164D01*
X127939979Y-98334209D01*
X127942014Y-98333496D01*
X127932342Y-98274795D01*
X127950424Y-98223949D01*
X127959678Y-98209221D01*
X128015798Y-98048837D01*
X128034821Y-97880004D01*
X128034821Y-97879997D01*
X128015798Y-97711166D01*
X127959676Y-97550780D01*
X127959347Y-97550256D01*
X127276051Y-98233552D01*
X127276050Y-98233554D01*
X127228990Y-98280612D01*
X127228990Y-98286787D01*
X127258650Y-98316447D01*
X127258650Y-98316448D01*
X127524521Y-98582319D01*
X127558006Y-98643642D01*
X127553022Y-98713334D01*
X127524521Y-98757681D01*
X127210290Y-99071911D01*
X125748825Y-99071911D01*
X125759663Y-99035000D01*
X126479803Y-99035000D01*
X126498161Y-99053359D01*
X126509608Y-99041913D01*
X126491250Y-99023554D01*
X126479803Y-99035000D01*
X125759663Y-99035000D01*
X125760909Y-99030756D01*
X125760909Y-99023212D01*
X125495378Y-98757681D01*
X125461893Y-98696358D01*
X125465585Y-98644739D01*
X125634250Y-98644739D01*
X125634250Y-98695263D01*
X125653585Y-98741941D01*
X125689310Y-98777666D01*
X125735988Y-98797001D01*
X125786512Y-98797001D01*
X125833190Y-98777666D01*
X125868915Y-98741941D01*
X125888250Y-98695263D01*
X125888250Y-98670001D01*
X126114802Y-98670001D01*
X126126249Y-98681447D01*
X126126251Y-98681447D01*
X126137696Y-98670002D01*
X126137696Y-98670000D01*
X126126250Y-98658553D01*
X126114802Y-98670001D01*
X125888250Y-98670001D01*
X125888250Y-98644739D01*
X126364250Y-98644739D01*
X126364250Y-98695263D01*
X126383585Y-98741941D01*
X126419310Y-98777666D01*
X126465988Y-98797001D01*
X126516512Y-98797001D01*
X126563190Y-98777666D01*
X126598915Y-98741941D01*
X126618250Y-98695263D01*
X126618250Y-98670000D01*
X126844803Y-98670000D01*
X126874950Y-98700147D01*
X126905096Y-98670002D01*
X126905096Y-98670001D01*
X126879835Y-98644739D01*
X127131650Y-98644739D01*
X127131650Y-98695263D01*
X127150985Y-98741941D01*
X127186710Y-98777666D01*
X127233388Y-98797001D01*
X127283912Y-98797001D01*
X127330590Y-98777666D01*
X127366315Y-98741941D01*
X127385650Y-98695263D01*
X127385650Y-98644739D01*
X127366315Y-98598061D01*
X127330590Y-98562336D01*
X127283912Y-98543001D01*
X127233388Y-98543001D01*
X127186710Y-98562336D01*
X127150985Y-98598061D01*
X127131650Y-98644739D01*
X126879835Y-98644739D01*
X126874950Y-98639854D01*
X126844803Y-98670000D01*
X126618250Y-98670000D01*
X126618250Y-98644739D01*
X126598915Y-98598061D01*
X126563190Y-98562336D01*
X126516512Y-98543001D01*
X126465988Y-98543001D01*
X126419310Y-98562336D01*
X126383585Y-98598061D01*
X126364250Y-98644739D01*
X125888250Y-98644739D01*
X125868915Y-98598061D01*
X125833190Y-98562336D01*
X125786512Y-98543001D01*
X125735988Y-98543001D01*
X125689310Y-98562336D01*
X125653585Y-98598061D01*
X125634250Y-98644739D01*
X125465585Y-98644739D01*
X125466877Y-98626666D01*
X125495378Y-98582319D01*
X125761248Y-98316449D01*
X125775933Y-98301761D01*
X125777974Y-98294810D01*
X126480289Y-98294810D01*
X126480290Y-98305488D01*
X126491249Y-98316447D01*
X126538309Y-98269387D01*
X126538309Y-98263213D01*
X126508649Y-98233553D01*
X126493966Y-98248235D01*
X126480289Y-98294810D01*
X125777974Y-98294810D01*
X125789609Y-98255184D01*
X125789609Y-98244512D01*
X125778651Y-98233555D01*
X125778650Y-98233554D01*
X125399834Y-97854739D01*
X125651650Y-97854739D01*
X125651650Y-97905263D01*
X125670985Y-97951941D01*
X125706710Y-97987666D01*
X125753388Y-98007001D01*
X125803912Y-98007001D01*
X125850590Y-97987666D01*
X125886315Y-97951941D01*
X125905650Y-97905263D01*
X125905650Y-97854739D01*
X125886315Y-97808061D01*
X125850590Y-97772336D01*
X125803912Y-97753001D01*
X125753388Y-97753001D01*
X125706710Y-97772336D01*
X125670985Y-97808061D01*
X125651650Y-97854739D01*
X125399834Y-97854739D01*
X125095351Y-97550256D01*
X125095022Y-97550781D01*
X125038901Y-97711166D01*
X125019879Y-97879997D01*
X125019879Y-97880004D01*
X125038901Y-98048837D01*
X125097321Y-98215793D01*
X125095288Y-98216504D01*
X125104955Y-98275221D01*
X125086881Y-98326044D01*
X125077620Y-98340783D01*
X125021501Y-98501164D01*
X125002479Y-98669997D01*
X125002479Y-98670004D01*
X125021501Y-98838837D01*
X125074489Y-98990269D01*
X125078050Y-99060048D01*
X125062443Y-99097191D01*
X125047621Y-99120781D01*
X124991501Y-99281164D01*
X124972479Y-99449997D01*
X122722075Y-99449997D01*
X122612262Y-99340184D01*
X122459523Y-99244211D01*
X122289254Y-99184631D01*
X122289249Y-99184630D01*
X122110004Y-99164435D01*
X122109996Y-99164435D01*
X121930750Y-99184630D01*
X121930745Y-99184631D01*
X121760476Y-99244211D01*
X121607737Y-99340184D01*
X121480184Y-99467737D01*
X121384211Y-99620476D01*
X121324631Y-99790745D01*
X121324630Y-99790750D01*
X121304435Y-99969996D01*
X121304435Y-99970003D01*
X121324630Y-100149249D01*
X121324631Y-100149254D01*
X121384211Y-100319523D01*
X121480184Y-100472262D01*
X121607738Y-100599816D01*
X121760478Y-100695789D01*
X121930745Y-100755368D01*
X121974635Y-100760313D01*
X122039048Y-100787378D01*
X122048433Y-100795852D01*
X123075186Y-101822605D01*
X123108671Y-101883928D01*
X123110725Y-101924169D01*
X123104435Y-101979996D01*
X123104435Y-101980003D01*
X123124630Y-102159249D01*
X123124631Y-102159254D01*
X123184211Y-102329522D01*
X123266494Y-102460474D01*
X123285500Y-102526446D01*
X123285500Y-103324807D01*
X123309612Y-103446027D01*
X123309614Y-103446035D01*
X123338364Y-103515443D01*
X123356915Y-103560230D01*
X123379901Y-103594631D01*
X123379903Y-103594633D01*
X123425587Y-103663006D01*
X123425591Y-103663011D01*
X124603400Y-104840819D01*
X124636885Y-104902142D01*
X124631901Y-104971834D01*
X124590029Y-105027767D01*
X124524565Y-105052184D01*
X124515719Y-105052500D01*
X123298192Y-105052500D01*
X123176973Y-105076611D01*
X123176973Y-105076612D01*
X123176970Y-105076613D01*
X123176966Y-105076614D01*
X123110070Y-105104323D01*
X123110068Y-105104323D01*
X123062770Y-105123915D01*
X123062760Y-105123920D01*
X122982218Y-105177738D01*
X122982217Y-105177739D01*
X122959989Y-105192590D01*
X122959988Y-105192591D01*
X122342181Y-105810399D01*
X122280858Y-105843884D01*
X122211166Y-105838900D01*
X122155233Y-105797028D01*
X122130816Y-105731564D01*
X122130500Y-105722718D01*
X122130500Y-105298281D01*
X122150185Y-105231242D01*
X122166819Y-105210600D01*
X122171567Y-105205852D01*
X122232890Y-105172367D01*
X122245352Y-105170314D01*
X122289255Y-105165368D01*
X122459522Y-105105789D01*
X122612262Y-105009816D01*
X122739816Y-104882262D01*
X122835789Y-104729522D01*
X122895368Y-104559255D01*
X122896357Y-104550476D01*
X122915565Y-104380003D01*
X122915565Y-104379996D01*
X122895369Y-104200750D01*
X122895368Y-104200745D01*
X122835788Y-104030476D01*
X122739815Y-103877737D01*
X122612262Y-103750184D01*
X122459523Y-103654211D01*
X122289254Y-103594631D01*
X122289249Y-103594630D01*
X122110004Y-103574435D01*
X122109996Y-103574435D01*
X121930750Y-103594630D01*
X121930745Y-103594631D01*
X121760476Y-103654211D01*
X121607737Y-103750184D01*
X121480184Y-103877737D01*
X121384210Y-104030478D01*
X121324632Y-104200745D01*
X121319686Y-104244637D01*
X121292618Y-104309051D01*
X121284148Y-104318432D01*
X121102992Y-104499589D01*
X121067951Y-104534630D01*
X121015586Y-104586994D01*
X121015585Y-104586996D01*
X120946923Y-104689756D01*
X120946914Y-104689773D01*
X120945784Y-104692499D01*
X120945785Y-104692500D01*
X120899614Y-104803965D01*
X120885597Y-104874435D01*
X120885597Y-104874436D01*
X120875500Y-104925195D01*
X120875500Y-107231519D01*
X120899612Y-107352739D01*
X120899614Y-107352747D01*
X120931228Y-107429070D01*
X120933062Y-107433496D01*
X120946917Y-107466945D01*
X120995608Y-107539816D01*
X121015589Y-107569720D01*
X121015590Y-107569721D01*
X121015593Y-107569725D01*
X123323688Y-109877819D01*
X123357173Y-109939142D01*
X123352189Y-110008834D01*
X123310317Y-110064767D01*
X123244853Y-110089184D01*
X123236007Y-110089500D01*
X122938281Y-110089500D01*
X122871242Y-110069815D01*
X122850600Y-110053181D01*
X122245852Y-109448433D01*
X122212367Y-109387110D01*
X122210314Y-109374648D01*
X122205368Y-109330745D01*
X122145789Y-109160478D01*
X122049816Y-109007738D01*
X121922262Y-108880184D01*
X121769523Y-108784211D01*
X121599254Y-108724631D01*
X121599249Y-108724630D01*
X121420004Y-108704435D01*
X121419996Y-108704435D01*
X121240750Y-108724630D01*
X121240745Y-108724631D01*
X121070476Y-108784211D01*
X120917737Y-108880184D01*
X120790184Y-109007737D01*
X120694211Y-109160476D01*
X120634631Y-109330745D01*
X120634630Y-109330750D01*
X120614435Y-109509996D01*
X116720500Y-109509996D01*
X116720500Y-97196702D01*
X125448905Y-97196702D01*
X125778650Y-97526448D01*
X126143649Y-97891446D01*
X126180356Y-97854739D01*
X126381650Y-97854739D01*
X126381650Y-97905263D01*
X126400985Y-97951941D01*
X126436710Y-97987666D01*
X126483388Y-98007001D01*
X126533912Y-98007001D01*
X126580590Y-97987666D01*
X126616315Y-97951941D01*
X126635650Y-97905263D01*
X126635650Y-97854739D01*
X126616315Y-97808061D01*
X126580590Y-97772336D01*
X126533912Y-97753001D01*
X126483388Y-97753001D01*
X126436710Y-97772336D01*
X126400985Y-97808061D01*
X126381650Y-97854739D01*
X126180356Y-97854739D01*
X126420968Y-97614128D01*
X126482291Y-97580643D01*
X126551982Y-97585627D01*
X126596330Y-97614128D01*
X126892349Y-97910147D01*
X126947757Y-97854739D01*
X127149050Y-97854739D01*
X127149050Y-97905263D01*
X127168385Y-97951941D01*
X127204110Y-97987666D01*
X127250788Y-98007001D01*
X127301312Y-98007001D01*
X127347990Y-97987666D01*
X127383715Y-97951941D01*
X127403050Y-97905263D01*
X127403050Y-97854739D01*
X127383715Y-97808061D01*
X127347990Y-97772336D01*
X127301312Y-97753001D01*
X127250788Y-97753001D01*
X127204110Y-97772336D01*
X127168385Y-97808061D01*
X127149050Y-97854739D01*
X126947757Y-97854739D01*
X127276050Y-97526448D01*
X127605794Y-97196701D01*
X127605269Y-97196372D01*
X127444886Y-97140252D01*
X127276054Y-97121230D01*
X127276046Y-97121230D01*
X127107213Y-97140252D01*
X126946825Y-97196374D01*
X126946147Y-97196701D01*
X126945665Y-97196780D01*
X126940259Y-97198672D01*
X126939927Y-97197724D01*
X126877205Y-97208051D01*
X126844517Y-97198452D01*
X126844441Y-97198672D01*
X126840139Y-97197166D01*
X126838553Y-97196701D01*
X126837874Y-97196374D01*
X126677486Y-97140252D01*
X126508654Y-97121230D01*
X126508646Y-97121230D01*
X126339813Y-97140252D01*
X126184604Y-97194562D01*
X126114825Y-97198123D01*
X126102696Y-97194562D01*
X125947486Y-97140252D01*
X125778654Y-97121230D01*
X125778646Y-97121230D01*
X125609815Y-97140252D01*
X125449430Y-97196373D01*
X125448905Y-97196702D01*
X116720500Y-97196702D01*
X116720500Y-97009996D01*
X134394435Y-97009996D01*
X134394435Y-97010003D01*
X134414630Y-97189249D01*
X134414631Y-97189254D01*
X134474211Y-97359523D01*
X134570184Y-97512262D01*
X134697738Y-97639816D01*
X134850478Y-97735789D01*
X135020745Y-97795368D01*
X135020750Y-97795369D01*
X135199996Y-97815565D01*
X135200000Y-97815565D01*
X135200004Y-97815565D01*
X135379249Y-97795369D01*
X135379252Y-97795368D01*
X135379255Y-97795368D01*
X135549522Y-97735789D01*
X135702262Y-97639816D01*
X135829816Y-97512262D01*
X135925789Y-97359522D01*
X135985368Y-97189255D01*
X135990313Y-97145361D01*
X136017378Y-97080951D01*
X136025842Y-97071575D01*
X136503600Y-96593819D01*
X136564923Y-96560334D01*
X136591281Y-96557500D01*
X137868328Y-96557500D01*
X137934299Y-96576505D01*
X138060478Y-96655789D01*
X138230745Y-96715368D01*
X138230750Y-96715369D01*
X138409996Y-96735565D01*
X138410000Y-96735565D01*
X138410004Y-96735565D01*
X138589249Y-96715369D01*
X138589252Y-96715368D01*
X138589255Y-96715368D01*
X138759522Y-96655789D01*
X138912262Y-96559816D01*
X139039816Y-96432262D01*
X139135789Y-96279522D01*
X139195368Y-96109255D01*
X139215565Y-95930000D01*
X139212953Y-95906819D01*
X139195369Y-95750750D01*
X139195368Y-95750745D01*
X139143109Y-95601398D01*
X139135789Y-95580478D01*
X139039816Y-95427738D01*
X138912262Y-95300184D01*
X138838893Y-95254083D01*
X138759523Y-95204211D01*
X138589254Y-95144631D01*
X138589249Y-95144630D01*
X138410004Y-95124435D01*
X138409996Y-95124435D01*
X138230750Y-95144630D01*
X138230745Y-95144631D01*
X138060476Y-95204211D01*
X137934300Y-95283494D01*
X137868328Y-95302500D01*
X136218192Y-95302500D01*
X136096973Y-95326611D01*
X136096973Y-95326612D01*
X136096970Y-95326613D01*
X136096966Y-95326614D01*
X136030070Y-95354323D01*
X136030069Y-95354323D01*
X135982773Y-95373913D01*
X135982765Y-95373917D01*
X135944682Y-95399364D01*
X135944682Y-95399365D01*
X135879989Y-95442590D01*
X135138432Y-96184147D01*
X135077109Y-96217632D01*
X135064637Y-96219686D01*
X135020745Y-96224632D01*
X134850478Y-96284210D01*
X134697737Y-96380184D01*
X134570184Y-96507737D01*
X134474211Y-96660476D01*
X134414631Y-96830745D01*
X134414630Y-96830750D01*
X134394435Y-97009996D01*
X116720500Y-97009996D01*
X116720500Y-94601349D01*
X144593183Y-94601349D01*
X144593183Y-94601352D01*
X144613015Y-94828037D01*
X144613017Y-94828048D01*
X144671909Y-95047839D01*
X144671912Y-95047848D01*
X144768082Y-95254083D01*
X144768083Y-95254085D01*
X144898605Y-95440492D01*
X145059509Y-95601396D01*
X145059512Y-95601398D01*
X145245917Y-95731919D01*
X145452155Y-95828090D01*
X145671959Y-95886986D01*
X145833881Y-95901152D01*
X145898649Y-95906819D01*
X145898651Y-95906819D01*
X145898653Y-95906819D01*
X145955324Y-95901860D01*
X146125343Y-95886986D01*
X146345147Y-95828090D01*
X146551385Y-95731919D01*
X146737790Y-95601398D01*
X146898698Y-95440490D01*
X147029219Y-95254085D01*
X147056269Y-95196075D01*
X147102441Y-95143636D01*
X147169634Y-95124484D01*
X147236516Y-95144699D01*
X147281033Y-95196076D01*
X147308080Y-95254079D01*
X147308083Y-95254085D01*
X147438605Y-95440492D01*
X147599509Y-95601396D01*
X147599512Y-95601398D01*
X147785917Y-95731919D01*
X147992155Y-95828090D01*
X148211959Y-95886986D01*
X148373881Y-95901152D01*
X148438649Y-95906819D01*
X148438651Y-95906819D01*
X148438653Y-95906819D01*
X148495324Y-95901860D01*
X148665343Y-95886986D01*
X148885147Y-95828090D01*
X149091385Y-95731919D01*
X149277790Y-95601398D01*
X149438698Y-95440490D01*
X149569219Y-95254085D01*
X149596269Y-95196075D01*
X149642441Y-95143636D01*
X149709634Y-95124484D01*
X149776516Y-95144699D01*
X149821033Y-95196076D01*
X149848080Y-95254079D01*
X149848083Y-95254085D01*
X149978605Y-95440492D01*
X150139509Y-95601396D01*
X150139512Y-95601398D01*
X150325917Y-95731919D01*
X150532155Y-95828090D01*
X150751959Y-95886986D01*
X150913881Y-95901152D01*
X150978649Y-95906819D01*
X150978651Y-95906819D01*
X150978653Y-95906819D01*
X151035324Y-95901860D01*
X151205343Y-95886986D01*
X151425147Y-95828090D01*
X151631385Y-95731919D01*
X151817790Y-95601398D01*
X151978698Y-95440490D01*
X152109219Y-95254085D01*
X152136269Y-95196075D01*
X152182441Y-95143636D01*
X152249634Y-95124484D01*
X152316516Y-95144699D01*
X152361033Y-95196076D01*
X152388080Y-95254079D01*
X152388083Y-95254085D01*
X152518605Y-95440492D01*
X152679509Y-95601396D01*
X152679512Y-95601398D01*
X152865917Y-95731919D01*
X153072155Y-95828090D01*
X153291959Y-95886986D01*
X153453881Y-95901152D01*
X153518649Y-95906819D01*
X153518651Y-95906819D01*
X153518653Y-95906819D01*
X153575324Y-95901860D01*
X153745343Y-95886986D01*
X153965147Y-95828090D01*
X154171385Y-95731919D01*
X154357790Y-95601398D01*
X154518698Y-95440490D01*
X154649219Y-95254085D01*
X154676269Y-95196075D01*
X154722441Y-95143636D01*
X154789634Y-95124484D01*
X154856516Y-95144699D01*
X154901033Y-95196076D01*
X154928080Y-95254079D01*
X154928083Y-95254085D01*
X155058605Y-95440492D01*
X155219509Y-95601396D01*
X155219512Y-95601398D01*
X155405917Y-95731919D01*
X155612155Y-95828090D01*
X155831959Y-95886986D01*
X155993881Y-95901152D01*
X156058649Y-95906819D01*
X156058651Y-95906819D01*
X156058653Y-95906819D01*
X156115324Y-95901860D01*
X156285343Y-95886986D01*
X156505147Y-95828090D01*
X156711385Y-95731919D01*
X156897790Y-95601398D01*
X157058698Y-95440490D01*
X157189219Y-95254085D01*
X157216269Y-95196075D01*
X157262441Y-95143636D01*
X157329634Y-95124484D01*
X157396516Y-95144699D01*
X157441033Y-95196076D01*
X157468080Y-95254079D01*
X157468083Y-95254085D01*
X157598605Y-95440492D01*
X157759509Y-95601396D01*
X157759512Y-95601398D01*
X157945917Y-95731919D01*
X158152155Y-95828090D01*
X158371959Y-95886986D01*
X158533881Y-95901152D01*
X158598649Y-95906819D01*
X158598651Y-95906819D01*
X158598653Y-95906819D01*
X158655324Y-95901860D01*
X158825343Y-95886986D01*
X159045147Y-95828090D01*
X159251385Y-95731919D01*
X159437790Y-95601398D01*
X159598698Y-95440490D01*
X159729219Y-95254085D01*
X159756269Y-95196075D01*
X159802441Y-95143636D01*
X159869634Y-95124484D01*
X159936516Y-95144699D01*
X159981033Y-95196076D01*
X160008080Y-95254079D01*
X160008083Y-95254085D01*
X160138605Y-95440492D01*
X160299509Y-95601396D01*
X160299512Y-95601398D01*
X160485917Y-95731919D01*
X160692155Y-95828090D01*
X160911959Y-95886986D01*
X161073881Y-95901152D01*
X161138649Y-95906819D01*
X161138651Y-95906819D01*
X161138653Y-95906819D01*
X161195324Y-95901860D01*
X161365343Y-95886986D01*
X161585147Y-95828090D01*
X161791385Y-95731919D01*
X161977790Y-95601398D01*
X162138698Y-95440490D01*
X162269219Y-95254085D01*
X162296269Y-95196075D01*
X162342441Y-95143636D01*
X162409634Y-95124484D01*
X162476516Y-95144699D01*
X162521033Y-95196076D01*
X162548080Y-95254079D01*
X162548083Y-95254085D01*
X162678605Y-95440492D01*
X162839509Y-95601396D01*
X162839512Y-95601398D01*
X163025917Y-95731919D01*
X163232155Y-95828090D01*
X163451959Y-95886986D01*
X163613881Y-95901152D01*
X163678649Y-95906819D01*
X163678651Y-95906819D01*
X163678653Y-95906819D01*
X163735324Y-95901860D01*
X163905343Y-95886986D01*
X164125147Y-95828090D01*
X164331385Y-95731919D01*
X164517790Y-95601398D01*
X164678698Y-95440490D01*
X164809219Y-95254085D01*
X164905390Y-95047847D01*
X164964286Y-94828043D01*
X164984119Y-94601351D01*
X164964286Y-94374659D01*
X164905390Y-94154855D01*
X164809219Y-93948617D01*
X164678698Y-93762212D01*
X164678696Y-93762209D01*
X164517792Y-93601305D01*
X164331385Y-93470783D01*
X164331383Y-93470782D01*
X164125148Y-93374612D01*
X164125139Y-93374609D01*
X163905348Y-93315717D01*
X163905344Y-93315716D01*
X163905343Y-93315716D01*
X163905342Y-93315715D01*
X163905337Y-93315715D01*
X163678653Y-93295883D01*
X163678649Y-93295883D01*
X163451964Y-93315715D01*
X163451953Y-93315717D01*
X163232162Y-93374609D01*
X163232153Y-93374612D01*
X163025918Y-93470782D01*
X163025916Y-93470783D01*
X162839509Y-93601305D01*
X162678605Y-93762209D01*
X162548083Y-93948616D01*
X162548082Y-93948618D01*
X162521033Y-94006626D01*
X162474860Y-94059065D01*
X162407667Y-94078217D01*
X162340786Y-94058001D01*
X162296269Y-94006626D01*
X162269219Y-93948618D01*
X162269218Y-93948616D01*
X162138696Y-93762209D01*
X161977792Y-93601305D01*
X161791385Y-93470783D01*
X161791383Y-93470782D01*
X161585148Y-93374612D01*
X161585139Y-93374609D01*
X161365348Y-93315717D01*
X161365344Y-93315716D01*
X161365343Y-93315716D01*
X161365342Y-93315715D01*
X161365337Y-93315715D01*
X161138653Y-93295883D01*
X161138649Y-93295883D01*
X160911964Y-93315715D01*
X160911953Y-93315717D01*
X160692162Y-93374609D01*
X160692153Y-93374612D01*
X160485918Y-93470782D01*
X160485916Y-93470783D01*
X160299509Y-93601305D01*
X160138605Y-93762209D01*
X160008083Y-93948616D01*
X160008082Y-93948618D01*
X159981033Y-94006626D01*
X159934860Y-94059065D01*
X159867667Y-94078217D01*
X159800786Y-94058001D01*
X159756269Y-94006626D01*
X159729219Y-93948618D01*
X159729218Y-93948616D01*
X159598696Y-93762209D01*
X159437792Y-93601305D01*
X159251385Y-93470783D01*
X159251383Y-93470782D01*
X159045148Y-93374612D01*
X159045139Y-93374609D01*
X158825348Y-93315717D01*
X158825344Y-93315716D01*
X158825343Y-93315716D01*
X158825342Y-93315715D01*
X158825337Y-93315715D01*
X158598653Y-93295883D01*
X158598649Y-93295883D01*
X158371964Y-93315715D01*
X158371953Y-93315717D01*
X158152162Y-93374609D01*
X158152153Y-93374612D01*
X157945918Y-93470782D01*
X157945916Y-93470783D01*
X157759509Y-93601305D01*
X157598605Y-93762209D01*
X157468083Y-93948616D01*
X157468082Y-93948618D01*
X157441033Y-94006626D01*
X157394860Y-94059065D01*
X157327667Y-94078217D01*
X157260786Y-94058001D01*
X157216269Y-94006626D01*
X157189219Y-93948618D01*
X157189218Y-93948616D01*
X157058696Y-93762209D01*
X156897792Y-93601305D01*
X156711385Y-93470783D01*
X156711383Y-93470782D01*
X156505148Y-93374612D01*
X156505139Y-93374609D01*
X156285348Y-93315717D01*
X156285344Y-93315716D01*
X156285343Y-93315716D01*
X156285342Y-93315715D01*
X156285337Y-93315715D01*
X156058653Y-93295883D01*
X156058649Y-93295883D01*
X155831964Y-93315715D01*
X155831953Y-93315717D01*
X155612162Y-93374609D01*
X155612153Y-93374612D01*
X155405918Y-93470782D01*
X155405916Y-93470783D01*
X155219509Y-93601305D01*
X155058605Y-93762209D01*
X154928083Y-93948616D01*
X154928082Y-93948618D01*
X154901033Y-94006626D01*
X154854860Y-94059065D01*
X154787667Y-94078217D01*
X154720786Y-94058001D01*
X154676269Y-94006626D01*
X154649219Y-93948618D01*
X154649218Y-93948616D01*
X154518696Y-93762209D01*
X154357792Y-93601305D01*
X154171385Y-93470783D01*
X154171383Y-93470782D01*
X153965148Y-93374612D01*
X153965139Y-93374609D01*
X153745348Y-93315717D01*
X153745344Y-93315716D01*
X153745343Y-93315716D01*
X153745342Y-93315715D01*
X153745337Y-93315715D01*
X153518653Y-93295883D01*
X153518649Y-93295883D01*
X153291964Y-93315715D01*
X153291953Y-93315717D01*
X153072162Y-93374609D01*
X153072153Y-93374612D01*
X152865918Y-93470782D01*
X152865916Y-93470783D01*
X152679509Y-93601305D01*
X152518605Y-93762209D01*
X152388083Y-93948616D01*
X152388082Y-93948618D01*
X152361033Y-94006626D01*
X152314860Y-94059065D01*
X152247667Y-94078217D01*
X152180786Y-94058001D01*
X152136269Y-94006626D01*
X152109219Y-93948618D01*
X152109218Y-93948616D01*
X151978696Y-93762209D01*
X151817792Y-93601305D01*
X151631385Y-93470783D01*
X151631383Y-93470782D01*
X151425148Y-93374612D01*
X151425139Y-93374609D01*
X151205348Y-93315717D01*
X151205344Y-93315716D01*
X151205343Y-93315716D01*
X151205342Y-93315715D01*
X151205337Y-93315715D01*
X150978653Y-93295883D01*
X150978649Y-93295883D01*
X150751964Y-93315715D01*
X150751953Y-93315717D01*
X150532162Y-93374609D01*
X150532153Y-93374612D01*
X150325918Y-93470782D01*
X150325916Y-93470783D01*
X150139509Y-93601305D01*
X149978605Y-93762209D01*
X149848083Y-93948616D01*
X149848082Y-93948618D01*
X149821033Y-94006626D01*
X149774860Y-94059065D01*
X149707667Y-94078217D01*
X149640786Y-94058001D01*
X149596269Y-94006626D01*
X149569219Y-93948618D01*
X149569218Y-93948616D01*
X149438696Y-93762209D01*
X149277792Y-93601305D01*
X149091385Y-93470783D01*
X149091383Y-93470782D01*
X148885148Y-93374612D01*
X148885139Y-93374609D01*
X148665348Y-93315717D01*
X148665344Y-93315716D01*
X148665343Y-93315716D01*
X148665342Y-93315715D01*
X148665337Y-93315715D01*
X148438653Y-93295883D01*
X148438649Y-93295883D01*
X148211964Y-93315715D01*
X148211953Y-93315717D01*
X147992162Y-93374609D01*
X147992153Y-93374612D01*
X147785918Y-93470782D01*
X147785916Y-93470783D01*
X147599509Y-93601305D01*
X147438605Y-93762209D01*
X147308083Y-93948616D01*
X147308082Y-93948618D01*
X147281033Y-94006626D01*
X147234860Y-94059065D01*
X147167667Y-94078217D01*
X147100786Y-94058001D01*
X147056269Y-94006626D01*
X147029219Y-93948618D01*
X147029218Y-93948616D01*
X146898696Y-93762209D01*
X146737792Y-93601305D01*
X146551385Y-93470783D01*
X146551383Y-93470782D01*
X146345148Y-93374612D01*
X146345139Y-93374609D01*
X146125348Y-93315717D01*
X146125344Y-93315716D01*
X146125343Y-93315716D01*
X146125342Y-93315715D01*
X146125337Y-93315715D01*
X145898653Y-93295883D01*
X145898649Y-93295883D01*
X145671964Y-93315715D01*
X145671953Y-93315717D01*
X145452162Y-93374609D01*
X145452153Y-93374612D01*
X145245918Y-93470782D01*
X145245916Y-93470783D01*
X145059509Y-93601305D01*
X144898605Y-93762209D01*
X144768083Y-93948616D01*
X144768082Y-93948618D01*
X144671912Y-94154853D01*
X144671909Y-94154862D01*
X144613017Y-94374653D01*
X144613015Y-94374664D01*
X144593183Y-94601349D01*
X116720500Y-94601349D01*
X116720500Y-63254500D01*
X116740185Y-63187461D01*
X116792989Y-63141706D01*
X116844500Y-63130500D01*
X122444151Y-63130500D01*
X122511190Y-63150185D01*
G37*
%TD.AperFunction*%
%TA.AperFunction,Conductor*%
G36*
X128818381Y-63796536D02*
G01*
X128839023Y-63813170D01*
X129508089Y-64482236D01*
X129506025Y-64483091D01*
X129366807Y-64576113D01*
X129248413Y-64694507D01*
X129155391Y-64833725D01*
X129154536Y-64835788D01*
X128506526Y-64187778D01*
X128506525Y-64187778D01*
X128458679Y-64247776D01*
X128327534Y-64474924D01*
X128231709Y-64719080D01*
X128173344Y-64974800D01*
X128173343Y-64974805D01*
X128153744Y-65236346D01*
X128153744Y-65236355D01*
X128173343Y-65497896D01*
X128173344Y-65497901D01*
X128231709Y-65753621D01*
X128311353Y-65956549D01*
X128317522Y-66026146D01*
X128285084Y-66088029D01*
X128224339Y-66122552D01*
X128195925Y-66125851D01*
X126541377Y-66125851D01*
X126474338Y-66106166D01*
X126428583Y-66053362D01*
X126418639Y-65984204D01*
X126425949Y-65956549D01*
X126505592Y-65753621D01*
X126563957Y-65497901D01*
X126563958Y-65497896D01*
X126583558Y-65236355D01*
X126583558Y-65236346D01*
X126563958Y-64974805D01*
X126563957Y-64974800D01*
X126505592Y-64719080D01*
X126409767Y-64474924D01*
X126409768Y-64474924D01*
X126278623Y-64247777D01*
X126230775Y-64187778D01*
X125582765Y-64835788D01*
X125581911Y-64833725D01*
X125488889Y-64694507D01*
X125370495Y-64576113D01*
X125231277Y-64483091D01*
X125229213Y-64482236D01*
X125898278Y-63813170D01*
X125959601Y-63779685D01*
X125985959Y-63776851D01*
X128751342Y-63776851D01*
X128818381Y-63796536D01*
G37*
%TD.AperFunction*%
%TD*%
M02*
