%TF.GenerationSoftware,KiCad,Pcbnew,8.0.4*%
%TF.CreationDate,2024-10-15T15:40:55-05:00*%
%TF.ProjectId,verification_unit,76657269-6669-4636-9174-696f6e5f756e,rev?*%
%TF.SameCoordinates,Original*%
%TF.FileFunction,Soldermask,Top*%
%TF.FilePolarity,Negative*%
%FSLAX46Y46*%
G04 Gerber Fmt 4.6, Leading zero omitted, Abs format (unit mm)*
G04 Created by KiCad (PCBNEW 8.0.4) date 2024-10-15 15:40:55*
%MOMM*%
%LPD*%
G01*
G04 APERTURE LIST*
G04 Aperture macros list*
%AMRoundRect*
0 Rectangle with rounded corners*
0 $1 Rounding radius*
0 $2 $3 $4 $5 $6 $7 $8 $9 X,Y pos of 4 corners*
0 Add a 4 corners polygon primitive as box body*
4,1,4,$2,$3,$4,$5,$6,$7,$8,$9,$2,$3,0*
0 Add four circle primitives for the rounded corners*
1,1,$1+$1,$2,$3*
1,1,$1+$1,$4,$5*
1,1,$1+$1,$6,$7*
1,1,$1+$1,$8,$9*
0 Add four rect primitives between the rounded corners*
20,1,$1+$1,$2,$3,$4,$5,0*
20,1,$1+$1,$4,$5,$6,$7,0*
20,1,$1+$1,$6,$7,$8,$9,0*
20,1,$1+$1,$8,$9,$2,$3,0*%
G04 Aperture macros list end*
%ADD10C,0.000000*%
%ADD11R,1.400000X1.200000*%
%ADD12RoundRect,0.243750X0.456250X-0.243750X0.456250X0.243750X-0.456250X0.243750X-0.456250X-0.243750X0*%
%ADD13RoundRect,0.250000X0.475000X-0.250000X0.475000X0.250000X-0.475000X0.250000X-0.475000X-0.250000X0*%
%ADD14R,1.700000X1.700000*%
%ADD15O,1.700000X1.700000*%
%ADD16RoundRect,0.100000X0.637500X0.100000X-0.637500X0.100000X-0.637500X-0.100000X0.637500X-0.100000X0*%
%ADD17R,0.304800X0.952500*%
%ADD18R,0.952500X0.304800*%
%ADD19C,0.508000*%
%ADD20RoundRect,0.250000X-0.250000X-0.475000X0.250000X-0.475000X0.250000X0.475000X-0.250000X0.475000X0*%
%ADD21R,1.600000X1.600000*%
%ADD22O,1.600000X1.600000*%
%ADD23RoundRect,0.250000X0.250000X0.475000X-0.250000X0.475000X-0.250000X-0.475000X0.250000X-0.475000X0*%
%ADD24RoundRect,0.250000X0.262500X0.450000X-0.262500X0.450000X-0.262500X-0.450000X0.262500X-0.450000X0*%
%ADD25R,1.879600X1.879600*%
%ADD26C,1.879600*%
%ADD27RoundRect,0.200100X-0.949900X-0.949900X0.949900X-0.949900X0.949900X0.949900X-0.949900X0.949900X0*%
%ADD28C,2.500000*%
%ADD29RoundRect,0.250000X-0.475000X0.250000X-0.475000X-0.250000X0.475000X-0.250000X0.475000X0.250000X0*%
%ADD30RoundRect,0.218750X0.381250X-0.218750X0.381250X0.218750X-0.381250X0.218750X-0.381250X-0.218750X0*%
%ADD31RoundRect,0.250000X0.450000X-0.262500X0.450000X0.262500X-0.450000X0.262500X-0.450000X-0.262500X0*%
%ADD32RoundRect,0.218750X0.218750X0.381250X-0.218750X0.381250X-0.218750X-0.381250X0.218750X-0.381250X0*%
%ADD33RoundRect,0.243750X0.243750X0.456250X-0.243750X0.456250X-0.243750X-0.456250X0.243750X-0.456250X0*%
G04 APERTURE END LIST*
D10*
%TO.C,U3*%
G36*
X127758650Y-97682601D02*
G01*
X125218650Y-97682601D01*
X125218650Y-97400001D01*
X127758650Y-97400001D01*
X127758650Y-97682601D01*
G37*
G36*
X127758650Y-98470001D02*
G01*
X125218650Y-98470001D01*
X125218650Y-98082601D01*
X127758650Y-98082601D01*
X127758650Y-98470001D01*
G37*
G36*
X127758650Y-99257401D02*
G01*
X125218650Y-99257401D01*
X125218650Y-98870001D01*
X127758650Y-98870001D01*
X127758650Y-99257401D01*
G37*
G36*
X125501250Y-99940001D02*
G01*
X125218650Y-99940001D01*
X125218650Y-97400001D01*
X125501250Y-97400001D01*
X125501250Y-99940001D01*
G37*
G36*
X127758650Y-99940001D02*
G01*
X125218650Y-99940001D01*
X125218650Y-99657401D01*
X127758650Y-99657401D01*
X127758650Y-99940001D01*
G37*
G36*
X126288650Y-99940001D02*
G01*
X125901250Y-99940001D01*
X125901250Y-97400001D01*
X126288650Y-97400001D01*
X126288650Y-99940001D01*
G37*
G36*
X127076050Y-99940001D02*
G01*
X126688650Y-99940001D01*
X126688650Y-97400001D01*
X127076050Y-97400001D01*
X127076050Y-99940001D01*
G37*
G36*
X127758650Y-99940001D02*
G01*
X127476050Y-99940001D01*
X127476050Y-97400001D01*
X127758650Y-97400001D01*
X127758650Y-99940001D01*
G37*
%TD*%
D11*
%TO.C,Y1*%
X136638651Y-99561351D03*
X138838651Y-99561351D03*
X138838651Y-97961351D03*
X136638651Y-97961351D03*
%TD*%
D12*
%TO.C,D11*%
X153518651Y-106633851D03*
X153518651Y-104758851D03*
%TD*%
D13*
%TO.C,C12*%
X127228651Y-75356351D03*
X127228651Y-73456351D03*
%TD*%
D12*
%TO.C,D13*%
X157708651Y-114383851D03*
X157708651Y-112508851D03*
%TD*%
D14*
%TO.C,J3*%
X154218651Y-109586351D03*
D15*
X156758651Y-109586351D03*
%TD*%
D16*
%TO.C,U1*%
X129433651Y-109501351D03*
X129433651Y-108851351D03*
X129433651Y-108201351D03*
X129433651Y-107551351D03*
X129433651Y-106901351D03*
X129433651Y-106251351D03*
X129433651Y-105601351D03*
X129433651Y-104951351D03*
X129433651Y-104301351D03*
X129433651Y-103651351D03*
X123708651Y-103651351D03*
X123708651Y-104301351D03*
X123708651Y-104951351D03*
X123708651Y-105601351D03*
X123708651Y-106251351D03*
X123708651Y-106901351D03*
X123708651Y-107551351D03*
X123708651Y-108201351D03*
X123708651Y-108851351D03*
X123708651Y-109501351D03*
%TD*%
D14*
%TO.C,J1*%
X130058651Y-116061351D03*
D15*
X130058651Y-113521351D03*
X127518651Y-116061351D03*
X127518651Y-113521351D03*
X124978651Y-116061351D03*
X124978651Y-113521351D03*
X122438651Y-116061351D03*
X122438651Y-113521351D03*
%TD*%
D17*
%TO.C,U3*%
X125488649Y-100568651D03*
X125988651Y-100568651D03*
X126488650Y-100568651D03*
X126988649Y-100568651D03*
X127488651Y-100568651D03*
D18*
X128387300Y-99670002D03*
X128387300Y-99170000D03*
X128387300Y-98670001D03*
X128387300Y-98170002D03*
X128387300Y-97670000D03*
D17*
X127488651Y-96771351D03*
X126988649Y-96771351D03*
X126488650Y-96771351D03*
X125988651Y-96771351D03*
X125488649Y-96771351D03*
D18*
X124590000Y-97670000D03*
X124590000Y-98170002D03*
X124590000Y-98670001D03*
X124590000Y-99170000D03*
X124590000Y-99670002D03*
D19*
X125731250Y-99450001D03*
X126461250Y-99450001D03*
X127228650Y-99450001D03*
X125761250Y-98670001D03*
X126491250Y-98670001D03*
X127258650Y-98670001D03*
X125778650Y-97880001D03*
X126508650Y-97880001D03*
X127276050Y-97880001D03*
%TD*%
D20*
%TO.C,C4*%
X136288651Y-94471351D03*
X138188651Y-94471351D03*
%TD*%
D21*
%TO.C,U2*%
X145898651Y-102221351D03*
D22*
X148438651Y-102221351D03*
X150978651Y-102221351D03*
X153518651Y-102221351D03*
X156058651Y-102221351D03*
X158598651Y-102221351D03*
X161138651Y-102221351D03*
X163678651Y-102221351D03*
X163678651Y-94601351D03*
X161138651Y-94601351D03*
X158598651Y-94601351D03*
X156058651Y-94601351D03*
X153518651Y-94601351D03*
X150978651Y-94601351D03*
X148438651Y-94601351D03*
X145898651Y-94601351D03*
%TD*%
D23*
%TO.C,C8*%
X134078651Y-94426351D03*
X132178651Y-94426351D03*
%TD*%
%TO.C,R1*%
X121048651Y-97761351D03*
X119148651Y-97761351D03*
%TD*%
D20*
%TO.C,C10*%
X126278651Y-84266351D03*
X128178651Y-84266351D03*
%TD*%
D23*
%TO.C,C7*%
X126448651Y-94496351D03*
X124548651Y-94496351D03*
%TD*%
D24*
%TO.C,R2*%
X134273651Y-103921351D03*
X132448651Y-103921351D03*
%TD*%
D20*
%TO.C,C2*%
X140118651Y-110271351D03*
X142018651Y-110271351D03*
%TD*%
D25*
%TO.C,U4*%
X158488651Y-119813351D03*
D26*
X155948651Y-119813351D03*
X153408651Y-119813351D03*
%TD*%
D27*
%TO.C,J2*%
X127368651Y-67776351D03*
D28*
X124828651Y-65236351D03*
X124828651Y-70316351D03*
X129908651Y-65236351D03*
X129908651Y-70316351D03*
%TD*%
D29*
%TO.C,C3*%
X133528651Y-97731351D03*
X133528651Y-99631351D03*
%TD*%
D12*
%TO.C,D2*%
X133768651Y-113561351D03*
X133768651Y-111686351D03*
%TD*%
D30*
%TO.C,L4*%
X127228651Y-81938851D03*
X127228651Y-79813851D03*
%TD*%
D20*
%TO.C,C11*%
X126278651Y-77766351D03*
X128178651Y-77766351D03*
%TD*%
%TO.C,C5*%
X132028651Y-101651351D03*
X133928651Y-101651351D03*
%TD*%
D30*
%TO.C,L2*%
X126208651Y-92298851D03*
X126208651Y-90173851D03*
%TD*%
%TO.C,L3*%
X127268651Y-88318851D03*
X127268651Y-86193851D03*
%TD*%
D12*
%TO.C,D14*%
X157558651Y-106563851D03*
X157558651Y-104688851D03*
%TD*%
D29*
%TO.C,C6*%
X141948651Y-97791351D03*
X141948651Y-99691351D03*
%TD*%
D31*
%TO.C,R3*%
X133968651Y-109206351D03*
X133968651Y-107381351D03*
%TD*%
%TO.C,R6*%
X136778651Y-109206351D03*
X136778651Y-107381351D03*
%TD*%
D29*
%TO.C,C9*%
X128588651Y-90256351D03*
X128588651Y-92156351D03*
%TD*%
D12*
%TO.C,D3*%
X136808651Y-113561351D03*
X136808651Y-111686351D03*
%TD*%
D32*
%TO.C,L1*%
X130301151Y-94366351D03*
X128176151Y-94366351D03*
%TD*%
D33*
%TO.C,D1*%
X137976151Y-103911351D03*
X136101151Y-103911351D03*
%TD*%
D20*
%TO.C,C1*%
X139968651Y-107521351D03*
X141868651Y-107521351D03*
%TD*%
D14*
%TO.C,J4*%
X164298651Y-120203351D03*
%TD*%
D12*
%TO.C,D12*%
X153468651Y-114333851D03*
X153468651Y-112458851D03*
%TD*%
M02*
