%TF.GenerationSoftware,KiCad,Pcbnew,8.0.4*%
%TF.CreationDate,2024-10-14T16:37:58-05:00*%
%TF.ProjectId,Fob_Design_Files,466f625f-4465-4736-9967-6e5f46696c65,rev?*%
%TF.SameCoordinates,Original*%
%TF.FileFunction,Paste,Top*%
%TF.FilePolarity,Positive*%
%FSLAX46Y46*%
G04 Gerber Fmt 4.6, Leading zero omitted, Abs format (unit mm)*
G04 Created by KiCad (PCBNEW 8.0.4) date 2024-10-14 16:37:58*
%MOMM*%
%LPD*%
G01*
G04 APERTURE LIST*
G04 Aperture macros list*
%AMRoundRect*
0 Rectangle with rounded corners*
0 $1 Rounding radius*
0 $2 $3 $4 $5 $6 $7 $8 $9 X,Y pos of 4 corners*
0 Add a 4 corners polygon primitive as box body*
4,1,4,$2,$3,$4,$5,$6,$7,$8,$9,$2,$3,0*
0 Add four circle primitives for the rounded corners*
1,1,$1+$1,$2,$3*
1,1,$1+$1,$4,$5*
1,1,$1+$1,$6,$7*
1,1,$1+$1,$8,$9*
0 Add four rect primitives between the rounded corners*
20,1,$1+$1,$2,$3,$4,$5,0*
20,1,$1+$1,$4,$5,$6,$7,0*
20,1,$1+$1,$6,$7,$8,$9,0*
20,1,$1+$1,$8,$9,$2,$3,0*%
G04 Aperture macros list end*
%ADD10C,0.000000*%
%ADD11RoundRect,0.225000X-0.250000X0.225000X-0.250000X-0.225000X0.250000X-0.225000X0.250000X0.225000X0*%
%ADD12RoundRect,0.225000X0.250000X-0.225000X0.250000X0.225000X-0.250000X0.225000X-0.250000X-0.225000X0*%
%ADD13RoundRect,0.225000X0.225000X0.250000X-0.225000X0.250000X-0.225000X-0.250000X0.225000X-0.250000X0*%
%ADD14RoundRect,0.100000X0.637500X0.100000X-0.637500X0.100000X-0.637500X-0.100000X0.637500X-0.100000X0*%
%ADD15RoundRect,0.218750X0.256250X-0.218750X0.256250X0.218750X-0.256250X0.218750X-0.256250X-0.218750X0*%
%ADD16RoundRect,0.225000X-0.225000X-0.250000X0.225000X-0.250000X0.225000X0.250000X-0.225000X0.250000X0*%
%ADD17RoundRect,0.100000X0.100000X-0.225000X0.100000X0.225000X-0.100000X0.225000X-0.100000X-0.225000X0*%
%ADD18RoundRect,0.137500X-0.482500X-0.137500X0.482500X-0.137500X0.482500X0.137500X-0.482500X0.137500X0*%
%ADD19R,4.200000X3.200000*%
%ADD20R,7.000000X11.000000*%
%ADD21R,3.810000X7.620000*%
%ADD22RoundRect,0.218750X0.218750X0.256250X-0.218750X0.256250X-0.218750X-0.256250X0.218750X-0.256250X0*%
%ADD23R,0.304800X0.952500*%
%ADD24R,0.952500X0.304800*%
%ADD25R,1.400000X1.200000*%
G04 APERTURE END LIST*
D10*
%TO.C,U2*%
G36*
X94356250Y-66162180D02*
G01*
X94214829Y-66303601D01*
X94112080Y-66303601D01*
X94112080Y-66059431D01*
X94356250Y-66059431D01*
X94356250Y-66162180D01*
G37*
G36*
X94356250Y-68219822D02*
G01*
X94356250Y-68322571D01*
X94112080Y-68322571D01*
X94112080Y-68078401D01*
X94214829Y-68078401D01*
X94356250Y-68219822D01*
G37*
G36*
X96375220Y-66303601D02*
G01*
X96272471Y-66303601D01*
X96131050Y-66162180D01*
X96131050Y-66059431D01*
X96375220Y-66059431D01*
X96375220Y-66303601D01*
G37*
G36*
X96375220Y-68322571D02*
G01*
X96131050Y-68322571D01*
X96131050Y-68219822D01*
X96272471Y-68078401D01*
X96375220Y-68078401D01*
X96375220Y-68322571D01*
G37*
G36*
X94356250Y-66645022D02*
G01*
X94356250Y-66949580D01*
X94214829Y-67091001D01*
X94112080Y-67091001D01*
X94112080Y-66503601D01*
X94214829Y-66503601D01*
X94356250Y-66645022D01*
G37*
G36*
X94356250Y-67432422D02*
G01*
X94356250Y-67736980D01*
X94214829Y-67878401D01*
X94112080Y-67878401D01*
X94112080Y-67291001D01*
X94214829Y-67291001D01*
X94356250Y-67432422D01*
G37*
G36*
X95143650Y-66162180D02*
G01*
X95002229Y-66303601D01*
X94697671Y-66303601D01*
X94556250Y-66162180D01*
X94556250Y-66059431D01*
X95143650Y-66059431D01*
X95143650Y-66162180D01*
G37*
G36*
X95143650Y-68219822D02*
G01*
X95143650Y-68322571D01*
X94556250Y-68322571D01*
X94556250Y-68219822D01*
X94697671Y-68078401D01*
X95002229Y-68078401D01*
X95143650Y-68219822D01*
G37*
G36*
X95931050Y-66162180D02*
G01*
X95789629Y-66303601D01*
X95485071Y-66303601D01*
X95343650Y-66162180D01*
X95343650Y-66059431D01*
X95931050Y-66059431D01*
X95931050Y-66162180D01*
G37*
G36*
X95931050Y-68219822D02*
G01*
X95931050Y-68322571D01*
X95343650Y-68322571D01*
X95343650Y-68219822D01*
X95485071Y-68078401D01*
X95789629Y-68078401D01*
X95931050Y-68219822D01*
G37*
G36*
X96375220Y-67091001D02*
G01*
X96272471Y-67091001D01*
X96131050Y-66949580D01*
X96131050Y-66645022D01*
X96272471Y-66503601D01*
X96375220Y-66503601D01*
X96375220Y-67091001D01*
G37*
G36*
X96375220Y-67878401D02*
G01*
X96272471Y-67878401D01*
X96131050Y-67736980D01*
X96131050Y-67432422D01*
X96272471Y-67291001D01*
X96375220Y-67291001D01*
X96375220Y-67878401D01*
G37*
G36*
X95143650Y-66645022D02*
G01*
X95143650Y-66949580D01*
X95002229Y-67091001D01*
X94697671Y-67091001D01*
X94556250Y-66949580D01*
X94556250Y-66645022D01*
X94697671Y-66503601D01*
X95002229Y-66503601D01*
X95143650Y-66645022D01*
G37*
G36*
X95143650Y-67432422D02*
G01*
X95143650Y-67736980D01*
X95002229Y-67878401D01*
X94697671Y-67878401D01*
X94556250Y-67736980D01*
X94556250Y-67432422D01*
X94697671Y-67291001D01*
X95002229Y-67291001D01*
X95143650Y-67432422D01*
G37*
G36*
X95931050Y-66645022D02*
G01*
X95931050Y-66949580D01*
X95789629Y-67091001D01*
X95485071Y-67091001D01*
X95343650Y-66949580D01*
X95343650Y-66645022D01*
X95485071Y-66503601D01*
X95789629Y-66503601D01*
X95931050Y-66645022D01*
G37*
G36*
X95931050Y-67432422D02*
G01*
X95931050Y-67736980D01*
X95789629Y-67878401D01*
X95485071Y-67878401D01*
X95343650Y-67736980D01*
X95343650Y-67432422D01*
X95485071Y-67291001D01*
X95789629Y-67291001D01*
X95931050Y-67432422D01*
G37*
%TD*%
D11*
%TO.C,C9*%
X110000000Y-76125000D03*
X110000000Y-77675000D03*
%TD*%
D12*
%TO.C,C10*%
X95422101Y-49523650D03*
X95422101Y-47973650D03*
%TD*%
D13*
%TO.C,C7*%
X104148000Y-63627000D03*
X102598000Y-63627000D03*
%TD*%
D14*
%TO.C,U4*%
X98844000Y-77328000D03*
X98844000Y-76678000D03*
X98844000Y-76028000D03*
X98844000Y-75378000D03*
X98844000Y-74728000D03*
X98844000Y-74078000D03*
X98844000Y-73428000D03*
X98844000Y-72778000D03*
X98844000Y-72128000D03*
X98844000Y-71478000D03*
X93119000Y-71478000D03*
X93119000Y-72128000D03*
X93119000Y-72778000D03*
X93119000Y-73428000D03*
X93119000Y-74078000D03*
X93119000Y-74728000D03*
X93119000Y-75378000D03*
X93119000Y-76028000D03*
X93119000Y-76678000D03*
X93119000Y-77328000D03*
%TD*%
D11*
%TO.C,C14*%
X96225500Y-60426000D03*
X96225500Y-61976000D03*
%TD*%
D13*
%TO.C,C12*%
X94714500Y-63627000D03*
X93164500Y-63627000D03*
%TD*%
D15*
%TO.C,R1*%
X91433650Y-65971901D03*
X91433650Y-64396901D03*
%TD*%
%TO.C,L4*%
X95422101Y-54095650D03*
X95422101Y-52520650D03*
%TD*%
D16*
%TO.C,C11*%
X93885101Y-51047650D03*
X95435101Y-51047650D03*
%TD*%
D17*
%TO.C,U5*%
X108682000Y-73909000D03*
X109332000Y-73909000D03*
X109982000Y-73909000D03*
X109982000Y-72009000D03*
X108682000Y-72009000D03*
%TD*%
D18*
%TO.C,U1*%
X105800000Y-75900000D03*
X105800000Y-76850000D03*
X105800000Y-77800000D03*
X108120000Y-77800000D03*
X108120000Y-76850000D03*
X108120000Y-75900000D03*
%TD*%
D19*
%TO.C,U3*%
X121920000Y-89625000D03*
X121920000Y-60325000D03*
D20*
X121920000Y-74975000D03*
%TD*%
D21*
%TO.C,E1*%
X92700000Y-43053000D03*
X130800000Y-43053000D03*
%TD*%
D16*
%TO.C,C6*%
X102725000Y-70104000D03*
X104275000Y-70104000D03*
%TD*%
D15*
%TO.C,L2*%
X95463500Y-58826500D03*
X95463500Y-57251500D03*
%TD*%
D16*
%TO.C,C2*%
X108559000Y-70231000D03*
X110109000Y-70231000D03*
%TD*%
D15*
%TO.C,L1*%
X94701500Y-62001500D03*
X94701500Y-60426500D03*
%TD*%
D22*
%TO.C,R2*%
X102587500Y-76813000D03*
X101012500Y-76813000D03*
%TD*%
D11*
%TO.C,C8*%
X91433650Y-67457401D03*
X91433650Y-69007401D03*
%TD*%
D23*
%TO.C,U2*%
X94243649Y-69089651D03*
X94743651Y-69089651D03*
X95243650Y-69089651D03*
X95743649Y-69089651D03*
X96243651Y-69089651D03*
D24*
X97142300Y-68191002D03*
X97142300Y-67691000D03*
X97142300Y-67191001D03*
X97142300Y-66691002D03*
X97142300Y-66191000D03*
D23*
X96243651Y-65292351D03*
X95743649Y-65292351D03*
X95243650Y-65292351D03*
X94743651Y-65292351D03*
X94243649Y-65292351D03*
D24*
X93345000Y-66191000D03*
X93345000Y-66691002D03*
X93345000Y-67191001D03*
X93345000Y-67691000D03*
X93345000Y-68191002D03*
%TD*%
D12*
%TO.C,C1*%
X106934000Y-73673000D03*
X106934000Y-72123000D03*
%TD*%
D22*
%TO.C,L3*%
X97775000Y-63627000D03*
X96200000Y-63627000D03*
%TD*%
D12*
%TO.C,C3*%
X102400000Y-75175000D03*
X102400000Y-73625000D03*
%TD*%
D16*
%TO.C,C5*%
X98725000Y-70100000D03*
X100275000Y-70100000D03*
%TD*%
D25*
%TO.C,Y1*%
X102189000Y-67691000D03*
X104389000Y-67691000D03*
X104389000Y-66091000D03*
X102189000Y-66091000D03*
%TD*%
D12*
%TO.C,C4*%
X100876000Y-75175000D03*
X100876000Y-73625000D03*
%TD*%
D13*
%TO.C,C13*%
X100810500Y-63627000D03*
X99260500Y-63627000D03*
%TD*%
D16*
%TO.C,C15*%
X93872101Y-55619650D03*
X95422101Y-55619650D03*
%TD*%
M02*
