M48
; DRILL file {KiCad 8.0.4} date 2024-10-14T16:37:56-0500
; FORMAT={-:-/ absolute / inch / decimal}
; #@! TF.CreationDate,2024-10-14T16:37:56-05:00
; #@! TF.GenerationSoftware,Kicad,Pcbnew,8.0.4
; #@! TF.FileFunction,Plated,1,2,PTH
FMAT,2
INCH
; #@! TA.AperFunction,Plated,PTH,ComponentDrill
T1C0.0100
; #@! TA.AperFunction,Plated,PTH,ViaDrill
T2C0.0118
; #@! TA.AperFunction,Plated,PTH,ComponentDrill
T3C0.0394
; #@! TA.AperFunction,Plated,PTH,ComponentDrill
T4C0.0433
%
G90
G05
T1
X3.7188Y-2.6763
X3.7202Y-2.6158
X3.7202Y-2.6453
X3.7497Y-2.6158
X3.7497Y-2.6453
X3.7497Y-2.6748
X3.7793Y-2.6158
X3.7793Y-2.6453
X3.7793Y-2.6748
T2
X3.5935Y-3.003
X3.5984Y-2.6535
X3.5984Y-2.7165
X3.6102Y-2.4961
X3.6457Y-2.5827
X3.6457Y-2.7087
X3.6614Y-2.7756
X3.6654Y-2.5039
X3.6693Y-2.5512
X3.6811Y-2.3819
X3.6811Y-2.4528
X3.6969Y-2.0079
X3.6969Y-2.189
X3.7087Y-1.874
X3.7087Y-1.9528
X3.7087Y-2.0669
X3.7087Y-2.1417
X3.7087Y-2.2402
X3.7087Y-2.3228
X3.7104Y-2.7598
X3.7323Y-3.126
X3.7953Y-3.0787
X3.8031Y-1.874
X3.8031Y-1.9528
X3.8031Y-2.0276
X3.8031Y-2.1024
X3.8031Y-2.1772
X3.8031Y-2.2559
X3.8031Y-2.3307
X3.8346Y-2.3937
X3.8346Y-2.4567
X3.8346Y-2.7805
X3.8501Y-2.5469
X3.874Y-2.6142
X3.8937Y-2.4567
X3.9055Y-2.685
X3.937Y-2.9331
X3.9409Y-2.7008
X3.9488Y-2.8031
X3.9507Y-2.8523
X3.9528Y-2.4567
X3.9685Y-2.5039
X3.9724Y-2.5984
X3.9921Y-2.7795
X3.9921Y-2.8543
X4.0118Y-2.4567
X4.0393Y-2.505
X4.0472Y-2.8543
X4.063Y-2.9961
X4.0709Y-2.4567
X4.1142Y-2.9882
X4.1142Y-3.0236
X4.1339Y-2.4567
X4.1457Y-2.5236
X4.1575Y-2.6772
X4.1575Y-2.748
X4.1654Y-2.8583
X4.2559Y-3.0276
X4.2913Y-2.9409
X4.3307Y-2.9449
X4.3465Y-2.7205
X4.3622Y-3.0866
X4.752Y-2.3425
X4.752Y-2.374
X4.752Y-2.4055
X4.7992Y-2.3425
X4.7992Y-2.4055
X4.8Y-2.375
X4.8504Y-2.3425
X4.8504Y-2.374
X4.8504Y-2.4055
T3
X3.6299Y-3.2331
X3.6299Y-3.3331
X3.6299Y-3.4331
X3.7299Y-3.2331
X3.7299Y-3.3331
X3.7299Y-3.4331
T4
X3.9881Y-3.27
X3.9881Y-3.4669
X4.185Y-3.27
X4.185Y-3.4669
M30
