%TF.GenerationSoftware,KiCad,Pcbnew,8.0.4*%
%TF.CreationDate,2024-10-14T16:37:58-05:00*%
%TF.ProjectId,Fob_Design_Files,466f625f-4465-4736-9967-6e5f46696c65,rev?*%
%TF.SameCoordinates,Original*%
%TF.FileFunction,Legend,Top*%
%TF.FilePolarity,Positive*%
%FSLAX46Y46*%
G04 Gerber Fmt 4.6, Leading zero omitted, Abs format (unit mm)*
G04 Created by KiCad (PCBNEW 8.0.4) date 2024-10-14 16:37:58*
%MOMM*%
%LPD*%
G01*
G04 APERTURE LIST*
%ADD10C,0.100000*%
%ADD11C,0.050000*%
%ADD12C,0.150000*%
%ADD13C,0.080000*%
%ADD14C,0.254000*%
%ADD15C,0.120000*%
%ADD16C,0.127000*%
%ADD17C,0.200000*%
%ADD18C,0.152400*%
%ADD19C,0.000000*%
G04 APERTURE END LIST*
D10*
X92000000Y-91095000D02*
X92659000Y-91095000D01*
X92000000Y-89995000D02*
X92700000Y-89995000D01*
X92700000Y-89595000D02*
X94051000Y-89595000D01*
X94051000Y-92600000D01*
X92700000Y-92600000D01*
X92700000Y-89595000D01*
X94041000Y-92200000D02*
X94700000Y-92200000D01*
X94041000Y-90000000D02*
X94700000Y-90000000D01*
X94041000Y-91100000D02*
X94700000Y-91100000D01*
X92000000Y-92195000D02*
X92700000Y-92195000D01*
D11*
X90870989Y-89748447D02*
X91004322Y-90148447D01*
X91004322Y-90148447D02*
X91137655Y-89748447D01*
X91270989Y-90148447D02*
X91270989Y-89748447D01*
X91270989Y-89748447D02*
X91366227Y-89748447D01*
X91366227Y-89748447D02*
X91423370Y-89767495D01*
X91423370Y-89767495D02*
X91461465Y-89805590D01*
X91461465Y-89805590D02*
X91480512Y-89843685D01*
X91480512Y-89843685D02*
X91499560Y-89919876D01*
X91499560Y-89919876D02*
X91499560Y-89977019D01*
X91499560Y-89977019D02*
X91480512Y-90053209D01*
X91480512Y-90053209D02*
X91461465Y-90091304D01*
X91461465Y-90091304D02*
X91423370Y-90129400D01*
X91423370Y-90129400D02*
X91366227Y-90148447D01*
X91366227Y-90148447D02*
X91270989Y-90148447D01*
X91670989Y-90148447D02*
X91670989Y-89748447D01*
X91670989Y-89748447D02*
X91766227Y-89748447D01*
X91766227Y-89748447D02*
X91823370Y-89767495D01*
X91823370Y-89767495D02*
X91861465Y-89805590D01*
X91861465Y-89805590D02*
X91880512Y-89843685D01*
X91880512Y-89843685D02*
X91899560Y-89919876D01*
X91899560Y-89919876D02*
X91899560Y-89977019D01*
X91899560Y-89977019D02*
X91880512Y-90053209D01*
X91880512Y-90053209D02*
X91861465Y-90091304D01*
X91861465Y-90091304D02*
X91823370Y-90129400D01*
X91823370Y-90129400D02*
X91766227Y-90148447D01*
X91766227Y-90148447D02*
X91670989Y-90148447D01*
D12*
X111189160Y-50792368D02*
X111332017Y-50839987D01*
X111332017Y-50839987D02*
X111570112Y-50839987D01*
X111570112Y-50839987D02*
X111665350Y-50792368D01*
X111665350Y-50792368D02*
X111712969Y-50744748D01*
X111712969Y-50744748D02*
X111760588Y-50649510D01*
X111760588Y-50649510D02*
X111760588Y-50554272D01*
X111760588Y-50554272D02*
X111712969Y-50459034D01*
X111712969Y-50459034D02*
X111665350Y-50411415D01*
X111665350Y-50411415D02*
X111570112Y-50363796D01*
X111570112Y-50363796D02*
X111379636Y-50316177D01*
X111379636Y-50316177D02*
X111284398Y-50268558D01*
X111284398Y-50268558D02*
X111236779Y-50220939D01*
X111236779Y-50220939D02*
X111189160Y-50125701D01*
X111189160Y-50125701D02*
X111189160Y-50030463D01*
X111189160Y-50030463D02*
X111236779Y-49935225D01*
X111236779Y-49935225D02*
X111284398Y-49887606D01*
X111284398Y-49887606D02*
X111379636Y-49839987D01*
X111379636Y-49839987D02*
X111617731Y-49839987D01*
X111617731Y-49839987D02*
X111760588Y-49887606D01*
X112617731Y-50792368D02*
X112522493Y-50839987D01*
X112522493Y-50839987D02*
X112332017Y-50839987D01*
X112332017Y-50839987D02*
X112236779Y-50792368D01*
X112236779Y-50792368D02*
X112189160Y-50744748D01*
X112189160Y-50744748D02*
X112141541Y-50649510D01*
X112141541Y-50649510D02*
X112141541Y-50363796D01*
X112141541Y-50363796D02*
X112189160Y-50268558D01*
X112189160Y-50268558D02*
X112236779Y-50220939D01*
X112236779Y-50220939D02*
X112332017Y-50173320D01*
X112332017Y-50173320D02*
X112522493Y-50173320D01*
X112522493Y-50173320D02*
X112617731Y-50220939D01*
X113046303Y-50839987D02*
X113046303Y-49839987D01*
X113474874Y-50839987D02*
X113474874Y-50316177D01*
X113474874Y-50316177D02*
X113427255Y-50220939D01*
X113427255Y-50220939D02*
X113332017Y-50173320D01*
X113332017Y-50173320D02*
X113189160Y-50173320D01*
X113189160Y-50173320D02*
X113093922Y-50220939D01*
X113093922Y-50220939D02*
X113046303Y-50268558D01*
X113951065Y-50173320D02*
X113951065Y-50839987D01*
X113951065Y-50268558D02*
X113998684Y-50220939D01*
X113998684Y-50220939D02*
X114093922Y-50173320D01*
X114093922Y-50173320D02*
X114236779Y-50173320D01*
X114236779Y-50173320D02*
X114332017Y-50220939D01*
X114332017Y-50220939D02*
X114379636Y-50316177D01*
X114379636Y-50316177D02*
X114379636Y-50839987D01*
X114998684Y-50839987D02*
X114903446Y-50792368D01*
X114903446Y-50792368D02*
X114855827Y-50744748D01*
X114855827Y-50744748D02*
X114808208Y-50649510D01*
X114808208Y-50649510D02*
X114808208Y-50363796D01*
X114808208Y-50363796D02*
X114855827Y-50268558D01*
X114855827Y-50268558D02*
X114903446Y-50220939D01*
X114903446Y-50220939D02*
X114998684Y-50173320D01*
X114998684Y-50173320D02*
X115141541Y-50173320D01*
X115141541Y-50173320D02*
X115236779Y-50220939D01*
X115236779Y-50220939D02*
X115284398Y-50268558D01*
X115284398Y-50268558D02*
X115332017Y-50363796D01*
X115332017Y-50363796D02*
X115332017Y-50649510D01*
X115332017Y-50649510D02*
X115284398Y-50744748D01*
X115284398Y-50744748D02*
X115236779Y-50792368D01*
X115236779Y-50792368D02*
X115141541Y-50839987D01*
X115141541Y-50839987D02*
X114998684Y-50839987D01*
X115760589Y-50839987D02*
X115760589Y-50173320D01*
X115760589Y-50363796D02*
X115808208Y-50268558D01*
X115808208Y-50268558D02*
X115855827Y-50220939D01*
X115855827Y-50220939D02*
X115951065Y-50173320D01*
X115951065Y-50173320D02*
X116046303Y-50173320D01*
X116379637Y-50839987D02*
X116379637Y-50173320D01*
X116379637Y-50363796D02*
X116427256Y-50268558D01*
X116427256Y-50268558D02*
X116474875Y-50220939D01*
X116474875Y-50220939D02*
X116570113Y-50173320D01*
X116570113Y-50173320D02*
X116665351Y-50173320D01*
X117760590Y-50839987D02*
X117760590Y-49839987D01*
X117760590Y-49839987D02*
X118141542Y-49839987D01*
X118141542Y-49839987D02*
X118236780Y-49887606D01*
X118236780Y-49887606D02*
X118284399Y-49935225D01*
X118284399Y-49935225D02*
X118332018Y-50030463D01*
X118332018Y-50030463D02*
X118332018Y-50173320D01*
X118332018Y-50173320D02*
X118284399Y-50268558D01*
X118284399Y-50268558D02*
X118236780Y-50316177D01*
X118236780Y-50316177D02*
X118141542Y-50363796D01*
X118141542Y-50363796D02*
X117760590Y-50363796D01*
X118760590Y-50839987D02*
X118760590Y-50173320D01*
X118760590Y-50363796D02*
X118808209Y-50268558D01*
X118808209Y-50268558D02*
X118855828Y-50220939D01*
X118855828Y-50220939D02*
X118951066Y-50173320D01*
X118951066Y-50173320D02*
X119046304Y-50173320D01*
X119522495Y-50839987D02*
X119427257Y-50792368D01*
X119427257Y-50792368D02*
X119379638Y-50744748D01*
X119379638Y-50744748D02*
X119332019Y-50649510D01*
X119332019Y-50649510D02*
X119332019Y-50363796D01*
X119332019Y-50363796D02*
X119379638Y-50268558D01*
X119379638Y-50268558D02*
X119427257Y-50220939D01*
X119427257Y-50220939D02*
X119522495Y-50173320D01*
X119522495Y-50173320D02*
X119665352Y-50173320D01*
X119665352Y-50173320D02*
X119760590Y-50220939D01*
X119760590Y-50220939D02*
X119808209Y-50268558D01*
X119808209Y-50268558D02*
X119855828Y-50363796D01*
X119855828Y-50363796D02*
X119855828Y-50649510D01*
X119855828Y-50649510D02*
X119808209Y-50744748D01*
X119808209Y-50744748D02*
X119760590Y-50792368D01*
X119760590Y-50792368D02*
X119665352Y-50839987D01*
X119665352Y-50839987D02*
X119522495Y-50839987D01*
X120141543Y-50173320D02*
X120522495Y-50173320D01*
X120284400Y-49839987D02*
X120284400Y-50697129D01*
X120284400Y-50697129D02*
X120332019Y-50792368D01*
X120332019Y-50792368D02*
X120427257Y-50839987D01*
X120427257Y-50839987D02*
X120522495Y-50839987D01*
X120998686Y-50839987D02*
X120903448Y-50792368D01*
X120903448Y-50792368D02*
X120855829Y-50744748D01*
X120855829Y-50744748D02*
X120808210Y-50649510D01*
X120808210Y-50649510D02*
X120808210Y-50363796D01*
X120808210Y-50363796D02*
X120855829Y-50268558D01*
X120855829Y-50268558D02*
X120903448Y-50220939D01*
X120903448Y-50220939D02*
X120998686Y-50173320D01*
X120998686Y-50173320D02*
X121141543Y-50173320D01*
X121141543Y-50173320D02*
X121236781Y-50220939D01*
X121236781Y-50220939D02*
X121284400Y-50268558D01*
X121284400Y-50268558D02*
X121332019Y-50363796D01*
X121332019Y-50363796D02*
X121332019Y-50649510D01*
X121332019Y-50649510D02*
X121284400Y-50744748D01*
X121284400Y-50744748D02*
X121236781Y-50792368D01*
X121236781Y-50792368D02*
X121141543Y-50839987D01*
X121141543Y-50839987D02*
X120998686Y-50839987D01*
X122189162Y-50792368D02*
X122093924Y-50839987D01*
X122093924Y-50839987D02*
X121903448Y-50839987D01*
X121903448Y-50839987D02*
X121808210Y-50792368D01*
X121808210Y-50792368D02*
X121760591Y-50744748D01*
X121760591Y-50744748D02*
X121712972Y-50649510D01*
X121712972Y-50649510D02*
X121712972Y-50363796D01*
X121712972Y-50363796D02*
X121760591Y-50268558D01*
X121760591Y-50268558D02*
X121808210Y-50220939D01*
X121808210Y-50220939D02*
X121903448Y-50173320D01*
X121903448Y-50173320D02*
X122093924Y-50173320D01*
X122093924Y-50173320D02*
X122189162Y-50220939D01*
X122760591Y-50839987D02*
X122665353Y-50792368D01*
X122665353Y-50792368D02*
X122617734Y-50744748D01*
X122617734Y-50744748D02*
X122570115Y-50649510D01*
X122570115Y-50649510D02*
X122570115Y-50363796D01*
X122570115Y-50363796D02*
X122617734Y-50268558D01*
X122617734Y-50268558D02*
X122665353Y-50220939D01*
X122665353Y-50220939D02*
X122760591Y-50173320D01*
X122760591Y-50173320D02*
X122903448Y-50173320D01*
X122903448Y-50173320D02*
X122998686Y-50220939D01*
X122998686Y-50220939D02*
X123046305Y-50268558D01*
X123046305Y-50268558D02*
X123093924Y-50363796D01*
X123093924Y-50363796D02*
X123093924Y-50649510D01*
X123093924Y-50649510D02*
X123046305Y-50744748D01*
X123046305Y-50744748D02*
X122998686Y-50792368D01*
X122998686Y-50792368D02*
X122903448Y-50839987D01*
X122903448Y-50839987D02*
X122760591Y-50839987D01*
X123665353Y-50839987D02*
X123570115Y-50792368D01*
X123570115Y-50792368D02*
X123522496Y-50697129D01*
X123522496Y-50697129D02*
X123522496Y-49839987D01*
X125141544Y-50316177D02*
X124808211Y-50316177D01*
X124808211Y-50839987D02*
X124808211Y-49839987D01*
X124808211Y-49839987D02*
X125284401Y-49839987D01*
X125808211Y-50839987D02*
X125712973Y-50792368D01*
X125712973Y-50792368D02*
X125665354Y-50744748D01*
X125665354Y-50744748D02*
X125617735Y-50649510D01*
X125617735Y-50649510D02*
X125617735Y-50363796D01*
X125617735Y-50363796D02*
X125665354Y-50268558D01*
X125665354Y-50268558D02*
X125712973Y-50220939D01*
X125712973Y-50220939D02*
X125808211Y-50173320D01*
X125808211Y-50173320D02*
X125951068Y-50173320D01*
X125951068Y-50173320D02*
X126046306Y-50220939D01*
X126046306Y-50220939D02*
X126093925Y-50268558D01*
X126093925Y-50268558D02*
X126141544Y-50363796D01*
X126141544Y-50363796D02*
X126141544Y-50649510D01*
X126141544Y-50649510D02*
X126093925Y-50744748D01*
X126093925Y-50744748D02*
X126046306Y-50792368D01*
X126046306Y-50792368D02*
X125951068Y-50839987D01*
X125951068Y-50839987D02*
X125808211Y-50839987D01*
X126570116Y-50839987D02*
X126570116Y-49839987D01*
X126570116Y-50220939D02*
X126665354Y-50173320D01*
X126665354Y-50173320D02*
X126855830Y-50173320D01*
X126855830Y-50173320D02*
X126951068Y-50220939D01*
X126951068Y-50220939D02*
X126998687Y-50268558D01*
X126998687Y-50268558D02*
X127046306Y-50363796D01*
X127046306Y-50363796D02*
X127046306Y-50649510D01*
X127046306Y-50649510D02*
X126998687Y-50744748D01*
X126998687Y-50744748D02*
X126951068Y-50792368D01*
X126951068Y-50792368D02*
X126855830Y-50839987D01*
X126855830Y-50839987D02*
X126665354Y-50839987D01*
X126665354Y-50839987D02*
X126570116Y-50792368D01*
X128093926Y-49839987D02*
X128427259Y-50839987D01*
X128427259Y-50839987D02*
X128760592Y-49839987D01*
X129617735Y-50839987D02*
X129046307Y-50839987D01*
X129332021Y-50839987D02*
X129332021Y-49839987D01*
X129332021Y-49839987D02*
X129236783Y-49982844D01*
X129236783Y-49982844D02*
X129141545Y-50078082D01*
X129141545Y-50078082D02*
X129046307Y-50125701D01*
X111236779Y-52449931D02*
X111236779Y-51449931D01*
X111236779Y-51449931D02*
X111570112Y-52164216D01*
X111570112Y-52164216D02*
X111903445Y-51449931D01*
X111903445Y-51449931D02*
X111903445Y-52449931D01*
X112379636Y-52449931D02*
X112379636Y-51783264D01*
X112379636Y-51449931D02*
X112332017Y-51497550D01*
X112332017Y-51497550D02*
X112379636Y-51545169D01*
X112379636Y-51545169D02*
X112427255Y-51497550D01*
X112427255Y-51497550D02*
X112379636Y-51449931D01*
X112379636Y-51449931D02*
X112379636Y-51545169D01*
X113284397Y-52402312D02*
X113189159Y-52449931D01*
X113189159Y-52449931D02*
X112998683Y-52449931D01*
X112998683Y-52449931D02*
X112903445Y-52402312D01*
X112903445Y-52402312D02*
X112855826Y-52354692D01*
X112855826Y-52354692D02*
X112808207Y-52259454D01*
X112808207Y-52259454D02*
X112808207Y-51973740D01*
X112808207Y-51973740D02*
X112855826Y-51878502D01*
X112855826Y-51878502D02*
X112903445Y-51830883D01*
X112903445Y-51830883D02*
X112998683Y-51783264D01*
X112998683Y-51783264D02*
X113189159Y-51783264D01*
X113189159Y-51783264D02*
X113284397Y-51830883D01*
X113712969Y-52449931D02*
X113712969Y-51449931D01*
X114141540Y-52449931D02*
X114141540Y-51926121D01*
X114141540Y-51926121D02*
X114093921Y-51830883D01*
X114093921Y-51830883D02*
X113998683Y-51783264D01*
X113998683Y-51783264D02*
X113855826Y-51783264D01*
X113855826Y-51783264D02*
X113760588Y-51830883D01*
X113760588Y-51830883D02*
X113712969Y-51878502D01*
X115046302Y-52449931D02*
X115046302Y-51926121D01*
X115046302Y-51926121D02*
X114998683Y-51830883D01*
X114998683Y-51830883D02*
X114903445Y-51783264D01*
X114903445Y-51783264D02*
X114712969Y-51783264D01*
X114712969Y-51783264D02*
X114617731Y-51830883D01*
X115046302Y-52402312D02*
X114951064Y-52449931D01*
X114951064Y-52449931D02*
X114712969Y-52449931D01*
X114712969Y-52449931D02*
X114617731Y-52402312D01*
X114617731Y-52402312D02*
X114570112Y-52307073D01*
X114570112Y-52307073D02*
X114570112Y-52211835D01*
X114570112Y-52211835D02*
X114617731Y-52116597D01*
X114617731Y-52116597D02*
X114712969Y-52068978D01*
X114712969Y-52068978D02*
X114951064Y-52068978D01*
X114951064Y-52068978D02*
X115046302Y-52021359D01*
X115903445Y-52402312D02*
X115808207Y-52449931D01*
X115808207Y-52449931D02*
X115617731Y-52449931D01*
X115617731Y-52449931D02*
X115522493Y-52402312D01*
X115522493Y-52402312D02*
X115474874Y-52307073D01*
X115474874Y-52307073D02*
X115474874Y-51926121D01*
X115474874Y-51926121D02*
X115522493Y-51830883D01*
X115522493Y-51830883D02*
X115617731Y-51783264D01*
X115617731Y-51783264D02*
X115808207Y-51783264D01*
X115808207Y-51783264D02*
X115903445Y-51830883D01*
X115903445Y-51830883D02*
X115951064Y-51926121D01*
X115951064Y-51926121D02*
X115951064Y-52021359D01*
X115951064Y-52021359D02*
X115474874Y-52116597D01*
X116522493Y-52449931D02*
X116427255Y-52402312D01*
X116427255Y-52402312D02*
X116379636Y-52307073D01*
X116379636Y-52307073D02*
X116379636Y-51449931D01*
X118189160Y-51497550D02*
X118093922Y-51449931D01*
X118093922Y-51449931D02*
X117951065Y-51449931D01*
X117951065Y-51449931D02*
X117808208Y-51497550D01*
X117808208Y-51497550D02*
X117712970Y-51592788D01*
X117712970Y-51592788D02*
X117665351Y-51688026D01*
X117665351Y-51688026D02*
X117617732Y-51878502D01*
X117617732Y-51878502D02*
X117617732Y-52021359D01*
X117617732Y-52021359D02*
X117665351Y-52211835D01*
X117665351Y-52211835D02*
X117712970Y-52307073D01*
X117712970Y-52307073D02*
X117808208Y-52402312D01*
X117808208Y-52402312D02*
X117951065Y-52449931D01*
X117951065Y-52449931D02*
X118046303Y-52449931D01*
X118046303Y-52449931D02*
X118189160Y-52402312D01*
X118189160Y-52402312D02*
X118236779Y-52354692D01*
X118236779Y-52354692D02*
X118236779Y-52021359D01*
X118236779Y-52021359D02*
X118046303Y-52021359D01*
X119093922Y-52449931D02*
X119093922Y-51926121D01*
X119093922Y-51926121D02*
X119046303Y-51830883D01*
X119046303Y-51830883D02*
X118951065Y-51783264D01*
X118951065Y-51783264D02*
X118760589Y-51783264D01*
X118760589Y-51783264D02*
X118665351Y-51830883D01*
X119093922Y-52402312D02*
X118998684Y-52449931D01*
X118998684Y-52449931D02*
X118760589Y-52449931D01*
X118760589Y-52449931D02*
X118665351Y-52402312D01*
X118665351Y-52402312D02*
X118617732Y-52307073D01*
X118617732Y-52307073D02*
X118617732Y-52211835D01*
X118617732Y-52211835D02*
X118665351Y-52116597D01*
X118665351Y-52116597D02*
X118760589Y-52068978D01*
X118760589Y-52068978D02*
X118998684Y-52068978D01*
X118998684Y-52068978D02*
X119093922Y-52021359D01*
X119570113Y-52449931D02*
X119570113Y-51783264D01*
X119570113Y-51878502D02*
X119617732Y-51830883D01*
X119617732Y-51830883D02*
X119712970Y-51783264D01*
X119712970Y-51783264D02*
X119855827Y-51783264D01*
X119855827Y-51783264D02*
X119951065Y-51830883D01*
X119951065Y-51830883D02*
X119998684Y-51926121D01*
X119998684Y-51926121D02*
X119998684Y-52449931D01*
X119998684Y-51926121D02*
X120046303Y-51830883D01*
X120046303Y-51830883D02*
X120141541Y-51783264D01*
X120141541Y-51783264D02*
X120284398Y-51783264D01*
X120284398Y-51783264D02*
X120379637Y-51830883D01*
X120379637Y-51830883D02*
X120427256Y-51926121D01*
X120427256Y-51926121D02*
X120427256Y-52449931D01*
X121046303Y-52449931D02*
X120951065Y-52402312D01*
X120951065Y-52402312D02*
X120903446Y-52354692D01*
X120903446Y-52354692D02*
X120855827Y-52259454D01*
X120855827Y-52259454D02*
X120855827Y-51973740D01*
X120855827Y-51973740D02*
X120903446Y-51878502D01*
X120903446Y-51878502D02*
X120951065Y-51830883D01*
X120951065Y-51830883D02*
X121046303Y-51783264D01*
X121046303Y-51783264D02*
X121189160Y-51783264D01*
X121189160Y-51783264D02*
X121284398Y-51830883D01*
X121284398Y-51830883D02*
X121332017Y-51878502D01*
X121332017Y-51878502D02*
X121379636Y-51973740D01*
X121379636Y-51973740D02*
X121379636Y-52259454D01*
X121379636Y-52259454D02*
X121332017Y-52354692D01*
X121332017Y-52354692D02*
X121284398Y-52402312D01*
X121284398Y-52402312D02*
X121189160Y-52449931D01*
X121189160Y-52449931D02*
X121046303Y-52449931D01*
X121665351Y-51783264D02*
X122046303Y-51783264D01*
X121808208Y-51449931D02*
X121808208Y-52307073D01*
X121808208Y-52307073D02*
X121855827Y-52402312D01*
X121855827Y-52402312D02*
X121951065Y-52449931D01*
X121951065Y-52449931D02*
X122046303Y-52449931D01*
X122808208Y-52449931D02*
X122808208Y-51926121D01*
X122808208Y-51926121D02*
X122760589Y-51830883D01*
X122760589Y-51830883D02*
X122665351Y-51783264D01*
X122665351Y-51783264D02*
X122474875Y-51783264D01*
X122474875Y-51783264D02*
X122379637Y-51830883D01*
X122808208Y-52402312D02*
X122712970Y-52449931D01*
X122712970Y-52449931D02*
X122474875Y-52449931D01*
X122474875Y-52449931D02*
X122379637Y-52402312D01*
X122379637Y-52402312D02*
X122332018Y-52307073D01*
X122332018Y-52307073D02*
X122332018Y-52211835D01*
X122332018Y-52211835D02*
X122379637Y-52116597D01*
X122379637Y-52116597D02*
X122474875Y-52068978D01*
X122474875Y-52068978D02*
X122712970Y-52068978D01*
X122712970Y-52068978D02*
X122808208Y-52021359D01*
X111760588Y-54059875D02*
X111189160Y-54059875D01*
X111474874Y-54059875D02*
X111474874Y-53059875D01*
X111474874Y-53059875D02*
X111379636Y-53202732D01*
X111379636Y-53202732D02*
X111284398Y-53297970D01*
X111284398Y-53297970D02*
X111189160Y-53345589D01*
X112379636Y-53059875D02*
X112474874Y-53059875D01*
X112474874Y-53059875D02*
X112570112Y-53107494D01*
X112570112Y-53107494D02*
X112617731Y-53155113D01*
X112617731Y-53155113D02*
X112665350Y-53250351D01*
X112665350Y-53250351D02*
X112712969Y-53440827D01*
X112712969Y-53440827D02*
X112712969Y-53678922D01*
X112712969Y-53678922D02*
X112665350Y-53869398D01*
X112665350Y-53869398D02*
X112617731Y-53964636D01*
X112617731Y-53964636D02*
X112570112Y-54012256D01*
X112570112Y-54012256D02*
X112474874Y-54059875D01*
X112474874Y-54059875D02*
X112379636Y-54059875D01*
X112379636Y-54059875D02*
X112284398Y-54012256D01*
X112284398Y-54012256D02*
X112236779Y-53964636D01*
X112236779Y-53964636D02*
X112189160Y-53869398D01*
X112189160Y-53869398D02*
X112141541Y-53678922D01*
X112141541Y-53678922D02*
X112141541Y-53440827D01*
X112141541Y-53440827D02*
X112189160Y-53250351D01*
X112189160Y-53250351D02*
X112236779Y-53155113D01*
X112236779Y-53155113D02*
X112284398Y-53107494D01*
X112284398Y-53107494D02*
X112379636Y-53059875D01*
X113141541Y-53678922D02*
X113903446Y-53678922D01*
X114522493Y-53488446D02*
X114427255Y-53440827D01*
X114427255Y-53440827D02*
X114379636Y-53393208D01*
X114379636Y-53393208D02*
X114332017Y-53297970D01*
X114332017Y-53297970D02*
X114332017Y-53250351D01*
X114332017Y-53250351D02*
X114379636Y-53155113D01*
X114379636Y-53155113D02*
X114427255Y-53107494D01*
X114427255Y-53107494D02*
X114522493Y-53059875D01*
X114522493Y-53059875D02*
X114712969Y-53059875D01*
X114712969Y-53059875D02*
X114808207Y-53107494D01*
X114808207Y-53107494D02*
X114855826Y-53155113D01*
X114855826Y-53155113D02*
X114903445Y-53250351D01*
X114903445Y-53250351D02*
X114903445Y-53297970D01*
X114903445Y-53297970D02*
X114855826Y-53393208D01*
X114855826Y-53393208D02*
X114808207Y-53440827D01*
X114808207Y-53440827D02*
X114712969Y-53488446D01*
X114712969Y-53488446D02*
X114522493Y-53488446D01*
X114522493Y-53488446D02*
X114427255Y-53536065D01*
X114427255Y-53536065D02*
X114379636Y-53583684D01*
X114379636Y-53583684D02*
X114332017Y-53678922D01*
X114332017Y-53678922D02*
X114332017Y-53869398D01*
X114332017Y-53869398D02*
X114379636Y-53964636D01*
X114379636Y-53964636D02*
X114427255Y-54012256D01*
X114427255Y-54012256D02*
X114522493Y-54059875D01*
X114522493Y-54059875D02*
X114712969Y-54059875D01*
X114712969Y-54059875D02*
X114808207Y-54012256D01*
X114808207Y-54012256D02*
X114855826Y-53964636D01*
X114855826Y-53964636D02*
X114903445Y-53869398D01*
X114903445Y-53869398D02*
X114903445Y-53678922D01*
X114903445Y-53678922D02*
X114855826Y-53583684D01*
X114855826Y-53583684D02*
X114808207Y-53536065D01*
X114808207Y-53536065D02*
X114712969Y-53488446D01*
X115332017Y-53678922D02*
X116093922Y-53678922D01*
X116522493Y-53155113D02*
X116570112Y-53107494D01*
X116570112Y-53107494D02*
X116665350Y-53059875D01*
X116665350Y-53059875D02*
X116903445Y-53059875D01*
X116903445Y-53059875D02*
X116998683Y-53107494D01*
X116998683Y-53107494D02*
X117046302Y-53155113D01*
X117046302Y-53155113D02*
X117093921Y-53250351D01*
X117093921Y-53250351D02*
X117093921Y-53345589D01*
X117093921Y-53345589D02*
X117046302Y-53488446D01*
X117046302Y-53488446D02*
X116474874Y-54059875D01*
X116474874Y-54059875D02*
X117093921Y-54059875D01*
X117712969Y-53059875D02*
X117808207Y-53059875D01*
X117808207Y-53059875D02*
X117903445Y-53107494D01*
X117903445Y-53107494D02*
X117951064Y-53155113D01*
X117951064Y-53155113D02*
X117998683Y-53250351D01*
X117998683Y-53250351D02*
X118046302Y-53440827D01*
X118046302Y-53440827D02*
X118046302Y-53678922D01*
X118046302Y-53678922D02*
X117998683Y-53869398D01*
X117998683Y-53869398D02*
X117951064Y-53964636D01*
X117951064Y-53964636D02*
X117903445Y-54012256D01*
X117903445Y-54012256D02*
X117808207Y-54059875D01*
X117808207Y-54059875D02*
X117712969Y-54059875D01*
X117712969Y-54059875D02*
X117617731Y-54012256D01*
X117617731Y-54012256D02*
X117570112Y-53964636D01*
X117570112Y-53964636D02*
X117522493Y-53869398D01*
X117522493Y-53869398D02*
X117474874Y-53678922D01*
X117474874Y-53678922D02*
X117474874Y-53440827D01*
X117474874Y-53440827D02*
X117522493Y-53250351D01*
X117522493Y-53250351D02*
X117570112Y-53155113D01*
X117570112Y-53155113D02*
X117617731Y-53107494D01*
X117617731Y-53107494D02*
X117712969Y-53059875D01*
X118427255Y-53155113D02*
X118474874Y-53107494D01*
X118474874Y-53107494D02*
X118570112Y-53059875D01*
X118570112Y-53059875D02*
X118808207Y-53059875D01*
X118808207Y-53059875D02*
X118903445Y-53107494D01*
X118903445Y-53107494D02*
X118951064Y-53155113D01*
X118951064Y-53155113D02*
X118998683Y-53250351D01*
X118998683Y-53250351D02*
X118998683Y-53345589D01*
X118998683Y-53345589D02*
X118951064Y-53488446D01*
X118951064Y-53488446D02*
X118379636Y-54059875D01*
X118379636Y-54059875D02*
X118998683Y-54059875D01*
X119855826Y-53393208D02*
X119855826Y-54059875D01*
X119617731Y-53012256D02*
X119379636Y-53726541D01*
X119379636Y-53726541D02*
X119998683Y-53726541D01*
X111236779Y-55146009D02*
X111570112Y-55146009D01*
X111712969Y-55669819D02*
X111236779Y-55669819D01*
X111236779Y-55669819D02*
X111236779Y-54669819D01*
X111236779Y-54669819D02*
X111712969Y-54669819D01*
X112712969Y-55574580D02*
X112665350Y-55622200D01*
X112665350Y-55622200D02*
X112522493Y-55669819D01*
X112522493Y-55669819D02*
X112427255Y-55669819D01*
X112427255Y-55669819D02*
X112284398Y-55622200D01*
X112284398Y-55622200D02*
X112189160Y-55526961D01*
X112189160Y-55526961D02*
X112141541Y-55431723D01*
X112141541Y-55431723D02*
X112093922Y-55241247D01*
X112093922Y-55241247D02*
X112093922Y-55098390D01*
X112093922Y-55098390D02*
X112141541Y-54907914D01*
X112141541Y-54907914D02*
X112189160Y-54812676D01*
X112189160Y-54812676D02*
X112284398Y-54717438D01*
X112284398Y-54717438D02*
X112427255Y-54669819D01*
X112427255Y-54669819D02*
X112522493Y-54669819D01*
X112522493Y-54669819D02*
X112665350Y-54717438D01*
X112665350Y-54717438D02*
X112712969Y-54765057D01*
X113141541Y-55146009D02*
X113474874Y-55146009D01*
X113617731Y-55669819D02*
X113141541Y-55669819D01*
X113141541Y-55669819D02*
X113141541Y-54669819D01*
X113141541Y-54669819D02*
X113617731Y-54669819D01*
X115236779Y-55003152D02*
X115236779Y-55669819D01*
X114998684Y-54622200D02*
X114760589Y-55336485D01*
X114760589Y-55336485D02*
X115379636Y-55336485D01*
X116189160Y-55003152D02*
X116189160Y-55669819D01*
X115951065Y-54622200D02*
X115712970Y-55336485D01*
X115712970Y-55336485D02*
X116332017Y-55336485D01*
X117189160Y-54669819D02*
X116712970Y-54669819D01*
X116712970Y-54669819D02*
X116665351Y-55146009D01*
X116665351Y-55146009D02*
X116712970Y-55098390D01*
X116712970Y-55098390D02*
X116808208Y-55050771D01*
X116808208Y-55050771D02*
X117046303Y-55050771D01*
X117046303Y-55050771D02*
X117141541Y-55098390D01*
X117141541Y-55098390D02*
X117189160Y-55146009D01*
X117189160Y-55146009D02*
X117236779Y-55241247D01*
X117236779Y-55241247D02*
X117236779Y-55479342D01*
X117236779Y-55479342D02*
X117189160Y-55574580D01*
X117189160Y-55574580D02*
X117141541Y-55622200D01*
X117141541Y-55622200D02*
X117046303Y-55669819D01*
X117046303Y-55669819D02*
X116808208Y-55669819D01*
X116808208Y-55669819D02*
X116712970Y-55622200D01*
X116712970Y-55622200D02*
X116665351Y-55574580D01*
D11*
X94909084Y-92324400D02*
X94966227Y-92343447D01*
X94966227Y-92343447D02*
X95061465Y-92343447D01*
X95061465Y-92343447D02*
X95099560Y-92324400D01*
X95099560Y-92324400D02*
X95118608Y-92305352D01*
X95118608Y-92305352D02*
X95137655Y-92267257D01*
X95137655Y-92267257D02*
X95137655Y-92229161D01*
X95137655Y-92229161D02*
X95118608Y-92191066D01*
X95118608Y-92191066D02*
X95099560Y-92172019D01*
X95099560Y-92172019D02*
X95061465Y-92152971D01*
X95061465Y-92152971D02*
X94985274Y-92133923D01*
X94985274Y-92133923D02*
X94947179Y-92114876D01*
X94947179Y-92114876D02*
X94928132Y-92095828D01*
X94928132Y-92095828D02*
X94909084Y-92057733D01*
X94909084Y-92057733D02*
X94909084Y-92019638D01*
X94909084Y-92019638D02*
X94928132Y-91981542D01*
X94928132Y-91981542D02*
X94947179Y-91962495D01*
X94947179Y-91962495D02*
X94985274Y-91943447D01*
X94985274Y-91943447D02*
X95080513Y-91943447D01*
X95080513Y-91943447D02*
X95137655Y-91962495D01*
X95270988Y-91943447D02*
X95366226Y-92343447D01*
X95366226Y-92343447D02*
X95442417Y-92057733D01*
X95442417Y-92057733D02*
X95518607Y-92343447D01*
X95518607Y-92343447D02*
X95613846Y-91943447D01*
X95994798Y-92305352D02*
X95975750Y-92324400D01*
X95975750Y-92324400D02*
X95918608Y-92343447D01*
X95918608Y-92343447D02*
X95880512Y-92343447D01*
X95880512Y-92343447D02*
X95823369Y-92324400D01*
X95823369Y-92324400D02*
X95785274Y-92286304D01*
X95785274Y-92286304D02*
X95766227Y-92248209D01*
X95766227Y-92248209D02*
X95747179Y-92172019D01*
X95747179Y-92172019D02*
X95747179Y-92114876D01*
X95747179Y-92114876D02*
X95766227Y-92038685D01*
X95766227Y-92038685D02*
X95785274Y-92000590D01*
X95785274Y-92000590D02*
X95823369Y-91962495D01*
X95823369Y-91962495D02*
X95880512Y-91943447D01*
X95880512Y-91943447D02*
X95918608Y-91943447D01*
X95918608Y-91943447D02*
X95975750Y-91962495D01*
X95975750Y-91962495D02*
X95994798Y-91981542D01*
X96356703Y-92343447D02*
X96166227Y-92343447D01*
X96166227Y-92343447D02*
X96166227Y-91943447D01*
X96490037Y-92343447D02*
X96490037Y-91943447D01*
X96718608Y-92343447D02*
X96547179Y-92114876D01*
X96718608Y-91943447D02*
X96490037Y-92172019D01*
X94909084Y-91224400D02*
X94966227Y-91243447D01*
X94966227Y-91243447D02*
X95061465Y-91243447D01*
X95061465Y-91243447D02*
X95099560Y-91224400D01*
X95099560Y-91224400D02*
X95118608Y-91205352D01*
X95118608Y-91205352D02*
X95137655Y-91167257D01*
X95137655Y-91167257D02*
X95137655Y-91129161D01*
X95137655Y-91129161D02*
X95118608Y-91091066D01*
X95118608Y-91091066D02*
X95099560Y-91072019D01*
X95099560Y-91072019D02*
X95061465Y-91052971D01*
X95061465Y-91052971D02*
X94985274Y-91033923D01*
X94985274Y-91033923D02*
X94947179Y-91014876D01*
X94947179Y-91014876D02*
X94928132Y-90995828D01*
X94928132Y-90995828D02*
X94909084Y-90957733D01*
X94909084Y-90957733D02*
X94909084Y-90919638D01*
X94909084Y-90919638D02*
X94928132Y-90881542D01*
X94928132Y-90881542D02*
X94947179Y-90862495D01*
X94947179Y-90862495D02*
X94985274Y-90843447D01*
X94985274Y-90843447D02*
X95080513Y-90843447D01*
X95080513Y-90843447D02*
X95137655Y-90862495D01*
X95270988Y-90843447D02*
X95366226Y-91243447D01*
X95366226Y-91243447D02*
X95442417Y-90957733D01*
X95442417Y-90957733D02*
X95518607Y-91243447D01*
X95518607Y-91243447D02*
X95613846Y-90843447D01*
X95766227Y-91243447D02*
X95766227Y-90843447D01*
X95766227Y-90843447D02*
X95861465Y-90843447D01*
X95861465Y-90843447D02*
X95918608Y-90862495D01*
X95918608Y-90862495D02*
X95956703Y-90900590D01*
X95956703Y-90900590D02*
X95975750Y-90938685D01*
X95975750Y-90938685D02*
X95994798Y-91014876D01*
X95994798Y-91014876D02*
X95994798Y-91072019D01*
X95994798Y-91072019D02*
X95975750Y-91148209D01*
X95975750Y-91148209D02*
X95956703Y-91186304D01*
X95956703Y-91186304D02*
X95918608Y-91224400D01*
X95918608Y-91224400D02*
X95861465Y-91243447D01*
X95861465Y-91243447D02*
X95766227Y-91243447D01*
X96166227Y-91243447D02*
X96166227Y-90843447D01*
X96432893Y-90843447D02*
X96509084Y-90843447D01*
X96509084Y-90843447D02*
X96547179Y-90862495D01*
X96547179Y-90862495D02*
X96585274Y-90900590D01*
X96585274Y-90900590D02*
X96604322Y-90976780D01*
X96604322Y-90976780D02*
X96604322Y-91110114D01*
X96604322Y-91110114D02*
X96585274Y-91186304D01*
X96585274Y-91186304D02*
X96547179Y-91224400D01*
X96547179Y-91224400D02*
X96509084Y-91243447D01*
X96509084Y-91243447D02*
X96432893Y-91243447D01*
X96432893Y-91243447D02*
X96394798Y-91224400D01*
X96394798Y-91224400D02*
X96356703Y-91186304D01*
X96356703Y-91186304D02*
X96337655Y-91110114D01*
X96337655Y-91110114D02*
X96337655Y-90976780D01*
X96337655Y-90976780D02*
X96356703Y-90900590D01*
X96356703Y-90900590D02*
X96394798Y-90862495D01*
X96394798Y-90862495D02*
X96432893Y-90843447D01*
X91370989Y-91948447D02*
X91599560Y-91948447D01*
X91485274Y-92348447D02*
X91485274Y-91948447D01*
X91694798Y-91948447D02*
X91961465Y-92348447D01*
X91961465Y-91948447D02*
X91694798Y-92348447D01*
X95137655Y-89762495D02*
X95099560Y-89743447D01*
X95099560Y-89743447D02*
X95042417Y-89743447D01*
X95042417Y-89743447D02*
X94985274Y-89762495D01*
X94985274Y-89762495D02*
X94947179Y-89800590D01*
X94947179Y-89800590D02*
X94928132Y-89838685D01*
X94928132Y-89838685D02*
X94909084Y-89914876D01*
X94909084Y-89914876D02*
X94909084Y-89972019D01*
X94909084Y-89972019D02*
X94928132Y-90048209D01*
X94928132Y-90048209D02*
X94947179Y-90086304D01*
X94947179Y-90086304D02*
X94985274Y-90124400D01*
X94985274Y-90124400D02*
X95042417Y-90143447D01*
X95042417Y-90143447D02*
X95080513Y-90143447D01*
X95080513Y-90143447D02*
X95137655Y-90124400D01*
X95137655Y-90124400D02*
X95156703Y-90105352D01*
X95156703Y-90105352D02*
X95156703Y-89972019D01*
X95156703Y-89972019D02*
X95080513Y-89972019D01*
X95328132Y-90143447D02*
X95328132Y-89743447D01*
X95328132Y-89743447D02*
X95556703Y-90143447D01*
X95556703Y-90143447D02*
X95556703Y-89743447D01*
X95747180Y-90143447D02*
X95747180Y-89743447D01*
X95747180Y-89743447D02*
X95842418Y-89743447D01*
X95842418Y-89743447D02*
X95899561Y-89762495D01*
X95899561Y-89762495D02*
X95937656Y-89800590D01*
X95937656Y-89800590D02*
X95956703Y-89838685D01*
X95956703Y-89838685D02*
X95975751Y-89914876D01*
X95975751Y-89914876D02*
X95975751Y-89972019D01*
X95975751Y-89972019D02*
X95956703Y-90048209D01*
X95956703Y-90048209D02*
X95937656Y-90086304D01*
X95937656Y-90086304D02*
X95899561Y-90124400D01*
X95899561Y-90124400D02*
X95842418Y-90143447D01*
X95842418Y-90143447D02*
X95747180Y-90143447D01*
X91556703Y-91248447D02*
X91423370Y-91057971D01*
X91328132Y-91248447D02*
X91328132Y-90848447D01*
X91328132Y-90848447D02*
X91480513Y-90848447D01*
X91480513Y-90848447D02*
X91518608Y-90867495D01*
X91518608Y-90867495D02*
X91537655Y-90886542D01*
X91537655Y-90886542D02*
X91556703Y-90924638D01*
X91556703Y-90924638D02*
X91556703Y-90981780D01*
X91556703Y-90981780D02*
X91537655Y-91019876D01*
X91537655Y-91019876D02*
X91518608Y-91038923D01*
X91518608Y-91038923D02*
X91480513Y-91057971D01*
X91480513Y-91057971D02*
X91328132Y-91057971D01*
X91690036Y-90848447D02*
X91956703Y-91248447D01*
X91956703Y-90848447D02*
X91690036Y-91248447D01*
D12*
X109733333Y-79459580D02*
X109685714Y-79507200D01*
X109685714Y-79507200D02*
X109542857Y-79554819D01*
X109542857Y-79554819D02*
X109447619Y-79554819D01*
X109447619Y-79554819D02*
X109304762Y-79507200D01*
X109304762Y-79507200D02*
X109209524Y-79411961D01*
X109209524Y-79411961D02*
X109161905Y-79316723D01*
X109161905Y-79316723D02*
X109114286Y-79126247D01*
X109114286Y-79126247D02*
X109114286Y-78983390D01*
X109114286Y-78983390D02*
X109161905Y-78792914D01*
X109161905Y-78792914D02*
X109209524Y-78697676D01*
X109209524Y-78697676D02*
X109304762Y-78602438D01*
X109304762Y-78602438D02*
X109447619Y-78554819D01*
X109447619Y-78554819D02*
X109542857Y-78554819D01*
X109542857Y-78554819D02*
X109685714Y-78602438D01*
X109685714Y-78602438D02*
X109733333Y-78650057D01*
X110209524Y-79554819D02*
X110400000Y-79554819D01*
X110400000Y-79554819D02*
X110495238Y-79507200D01*
X110495238Y-79507200D02*
X110542857Y-79459580D01*
X110542857Y-79459580D02*
X110638095Y-79316723D01*
X110638095Y-79316723D02*
X110685714Y-79126247D01*
X110685714Y-79126247D02*
X110685714Y-78745295D01*
X110685714Y-78745295D02*
X110638095Y-78650057D01*
X110638095Y-78650057D02*
X110590476Y-78602438D01*
X110590476Y-78602438D02*
X110495238Y-78554819D01*
X110495238Y-78554819D02*
X110304762Y-78554819D01*
X110304762Y-78554819D02*
X110209524Y-78602438D01*
X110209524Y-78602438D02*
X110161905Y-78650057D01*
X110161905Y-78650057D02*
X110114286Y-78745295D01*
X110114286Y-78745295D02*
X110114286Y-78983390D01*
X110114286Y-78983390D02*
X110161905Y-79078628D01*
X110161905Y-79078628D02*
X110209524Y-79126247D01*
X110209524Y-79126247D02*
X110304762Y-79173866D01*
X110304762Y-79173866D02*
X110495238Y-79173866D01*
X110495238Y-79173866D02*
X110590476Y-79126247D01*
X110590476Y-79126247D02*
X110638095Y-79078628D01*
X110638095Y-79078628D02*
X110685714Y-78983390D01*
X93559580Y-49391507D02*
X93607200Y-49439126D01*
X93607200Y-49439126D02*
X93654819Y-49581983D01*
X93654819Y-49581983D02*
X93654819Y-49677221D01*
X93654819Y-49677221D02*
X93607200Y-49820078D01*
X93607200Y-49820078D02*
X93511961Y-49915316D01*
X93511961Y-49915316D02*
X93416723Y-49962935D01*
X93416723Y-49962935D02*
X93226247Y-50010554D01*
X93226247Y-50010554D02*
X93083390Y-50010554D01*
X93083390Y-50010554D02*
X92892914Y-49962935D01*
X92892914Y-49962935D02*
X92797676Y-49915316D01*
X92797676Y-49915316D02*
X92702438Y-49820078D01*
X92702438Y-49820078D02*
X92654819Y-49677221D01*
X92654819Y-49677221D02*
X92654819Y-49581983D01*
X92654819Y-49581983D02*
X92702438Y-49439126D01*
X92702438Y-49439126D02*
X92750057Y-49391507D01*
X93654819Y-48439126D02*
X93654819Y-49010554D01*
X93654819Y-48724840D02*
X92654819Y-48724840D01*
X92654819Y-48724840D02*
X92797676Y-48820078D01*
X92797676Y-48820078D02*
X92892914Y-48915316D01*
X92892914Y-48915316D02*
X92940533Y-49010554D01*
X92654819Y-47820078D02*
X92654819Y-47724840D01*
X92654819Y-47724840D02*
X92702438Y-47629602D01*
X92702438Y-47629602D02*
X92750057Y-47581983D01*
X92750057Y-47581983D02*
X92845295Y-47534364D01*
X92845295Y-47534364D02*
X93035771Y-47486745D01*
X93035771Y-47486745D02*
X93273866Y-47486745D01*
X93273866Y-47486745D02*
X93464342Y-47534364D01*
X93464342Y-47534364D02*
X93559580Y-47581983D01*
X93559580Y-47581983D02*
X93607200Y-47629602D01*
X93607200Y-47629602D02*
X93654819Y-47724840D01*
X93654819Y-47724840D02*
X93654819Y-47820078D01*
X93654819Y-47820078D02*
X93607200Y-47915316D01*
X93607200Y-47915316D02*
X93559580Y-47962935D01*
X93559580Y-47962935D02*
X93464342Y-48010554D01*
X93464342Y-48010554D02*
X93273866Y-48058173D01*
X93273866Y-48058173D02*
X93035771Y-48058173D01*
X93035771Y-48058173D02*
X92845295Y-48010554D01*
X92845295Y-48010554D02*
X92750057Y-47962935D01*
X92750057Y-47962935D02*
X92702438Y-47915316D01*
X92702438Y-47915316D02*
X92654819Y-47820078D01*
X106033333Y-63559580D02*
X105985714Y-63607200D01*
X105985714Y-63607200D02*
X105842857Y-63654819D01*
X105842857Y-63654819D02*
X105747619Y-63654819D01*
X105747619Y-63654819D02*
X105604762Y-63607200D01*
X105604762Y-63607200D02*
X105509524Y-63511961D01*
X105509524Y-63511961D02*
X105461905Y-63416723D01*
X105461905Y-63416723D02*
X105414286Y-63226247D01*
X105414286Y-63226247D02*
X105414286Y-63083390D01*
X105414286Y-63083390D02*
X105461905Y-62892914D01*
X105461905Y-62892914D02*
X105509524Y-62797676D01*
X105509524Y-62797676D02*
X105604762Y-62702438D01*
X105604762Y-62702438D02*
X105747619Y-62654819D01*
X105747619Y-62654819D02*
X105842857Y-62654819D01*
X105842857Y-62654819D02*
X105985714Y-62702438D01*
X105985714Y-62702438D02*
X106033333Y-62750057D01*
X106366667Y-62654819D02*
X107033333Y-62654819D01*
X107033333Y-62654819D02*
X106604762Y-63654819D01*
X95161095Y-73980819D02*
X95161095Y-74790342D01*
X95161095Y-74790342D02*
X95208714Y-74885580D01*
X95208714Y-74885580D02*
X95256333Y-74933200D01*
X95256333Y-74933200D02*
X95351571Y-74980819D01*
X95351571Y-74980819D02*
X95542047Y-74980819D01*
X95542047Y-74980819D02*
X95637285Y-74933200D01*
X95637285Y-74933200D02*
X95684904Y-74885580D01*
X95684904Y-74885580D02*
X95732523Y-74790342D01*
X95732523Y-74790342D02*
X95732523Y-73980819D01*
X96637285Y-74314152D02*
X96637285Y-74980819D01*
X96399190Y-73933200D02*
X96161095Y-74647485D01*
X96161095Y-74647485D02*
X96780142Y-74647485D01*
X97868642Y-60303580D02*
X97821023Y-60351200D01*
X97821023Y-60351200D02*
X97678166Y-60398819D01*
X97678166Y-60398819D02*
X97582928Y-60398819D01*
X97582928Y-60398819D02*
X97440071Y-60351200D01*
X97440071Y-60351200D02*
X97344833Y-60255961D01*
X97344833Y-60255961D02*
X97297214Y-60160723D01*
X97297214Y-60160723D02*
X97249595Y-59970247D01*
X97249595Y-59970247D02*
X97249595Y-59827390D01*
X97249595Y-59827390D02*
X97297214Y-59636914D01*
X97297214Y-59636914D02*
X97344833Y-59541676D01*
X97344833Y-59541676D02*
X97440071Y-59446438D01*
X97440071Y-59446438D02*
X97582928Y-59398819D01*
X97582928Y-59398819D02*
X97678166Y-59398819D01*
X97678166Y-59398819D02*
X97821023Y-59446438D01*
X97821023Y-59446438D02*
X97868642Y-59494057D01*
X98821023Y-60398819D02*
X98249595Y-60398819D01*
X98535309Y-60398819D02*
X98535309Y-59398819D01*
X98535309Y-59398819D02*
X98440071Y-59541676D01*
X98440071Y-59541676D02*
X98344833Y-59636914D01*
X98344833Y-59636914D02*
X98249595Y-59684533D01*
X99678166Y-59732152D02*
X99678166Y-60398819D01*
X99440071Y-59351200D02*
X99201976Y-60065485D01*
X99201976Y-60065485D02*
X99821023Y-60065485D01*
X91257142Y-62559580D02*
X91209523Y-62607200D01*
X91209523Y-62607200D02*
X91066666Y-62654819D01*
X91066666Y-62654819D02*
X90971428Y-62654819D01*
X90971428Y-62654819D02*
X90828571Y-62607200D01*
X90828571Y-62607200D02*
X90733333Y-62511961D01*
X90733333Y-62511961D02*
X90685714Y-62416723D01*
X90685714Y-62416723D02*
X90638095Y-62226247D01*
X90638095Y-62226247D02*
X90638095Y-62083390D01*
X90638095Y-62083390D02*
X90685714Y-61892914D01*
X90685714Y-61892914D02*
X90733333Y-61797676D01*
X90733333Y-61797676D02*
X90828571Y-61702438D01*
X90828571Y-61702438D02*
X90971428Y-61654819D01*
X90971428Y-61654819D02*
X91066666Y-61654819D01*
X91066666Y-61654819D02*
X91209523Y-61702438D01*
X91209523Y-61702438D02*
X91257142Y-61750057D01*
X92209523Y-62654819D02*
X91638095Y-62654819D01*
X91923809Y-62654819D02*
X91923809Y-61654819D01*
X91923809Y-61654819D02*
X91828571Y-61797676D01*
X91828571Y-61797676D02*
X91733333Y-61892914D01*
X91733333Y-61892914D02*
X91638095Y-61940533D01*
X92590476Y-61750057D02*
X92638095Y-61702438D01*
X92638095Y-61702438D02*
X92733333Y-61654819D01*
X92733333Y-61654819D02*
X92971428Y-61654819D01*
X92971428Y-61654819D02*
X93066666Y-61702438D01*
X93066666Y-61702438D02*
X93114285Y-61750057D01*
X93114285Y-61750057D02*
X93161904Y-61845295D01*
X93161904Y-61845295D02*
X93161904Y-61940533D01*
X93161904Y-61940533D02*
X93114285Y-62083390D01*
X93114285Y-62083390D02*
X92542857Y-62654819D01*
X92542857Y-62654819D02*
X93161904Y-62654819D01*
D13*
X89883333Y-65519673D02*
X89650000Y-65186340D01*
X89483333Y-65519673D02*
X89483333Y-64819673D01*
X89483333Y-64819673D02*
X89750000Y-64819673D01*
X89750000Y-64819673D02*
X89816667Y-64853006D01*
X89816667Y-64853006D02*
X89850000Y-64886340D01*
X89850000Y-64886340D02*
X89883333Y-64953006D01*
X89883333Y-64953006D02*
X89883333Y-65053006D01*
X89883333Y-65053006D02*
X89850000Y-65119673D01*
X89850000Y-65119673D02*
X89816667Y-65153006D01*
X89816667Y-65153006D02*
X89750000Y-65186340D01*
X89750000Y-65186340D02*
X89483333Y-65186340D01*
X90550000Y-65519673D02*
X90150000Y-65519673D01*
X90350000Y-65519673D02*
X90350000Y-64819673D01*
X90350000Y-64819673D02*
X90283333Y-64919673D01*
X90283333Y-64919673D02*
X90216667Y-64986340D01*
X90216667Y-64986340D02*
X90150000Y-65019673D01*
D12*
X93554819Y-53566666D02*
X93554819Y-54042856D01*
X93554819Y-54042856D02*
X92554819Y-54042856D01*
X92888152Y-52804761D02*
X93554819Y-52804761D01*
X92507200Y-53042856D02*
X93221485Y-53280951D01*
X93221485Y-53280951D02*
X93221485Y-52661904D01*
X97557142Y-51407230D02*
X97509523Y-51454850D01*
X97509523Y-51454850D02*
X97366666Y-51502469D01*
X97366666Y-51502469D02*
X97271428Y-51502469D01*
X97271428Y-51502469D02*
X97128571Y-51454850D01*
X97128571Y-51454850D02*
X97033333Y-51359611D01*
X97033333Y-51359611D02*
X96985714Y-51264373D01*
X96985714Y-51264373D02*
X96938095Y-51073897D01*
X96938095Y-51073897D02*
X96938095Y-50931040D01*
X96938095Y-50931040D02*
X96985714Y-50740564D01*
X96985714Y-50740564D02*
X97033333Y-50645326D01*
X97033333Y-50645326D02*
X97128571Y-50550088D01*
X97128571Y-50550088D02*
X97271428Y-50502469D01*
X97271428Y-50502469D02*
X97366666Y-50502469D01*
X97366666Y-50502469D02*
X97509523Y-50550088D01*
X97509523Y-50550088D02*
X97557142Y-50597707D01*
X98509523Y-51502469D02*
X97938095Y-51502469D01*
X98223809Y-51502469D02*
X98223809Y-50502469D01*
X98223809Y-50502469D02*
X98128571Y-50645326D01*
X98128571Y-50645326D02*
X98033333Y-50740564D01*
X98033333Y-50740564D02*
X97938095Y-50788183D01*
X99461904Y-51502469D02*
X98890476Y-51502469D01*
X99176190Y-51502469D02*
X99176190Y-50502469D01*
X99176190Y-50502469D02*
X99080952Y-50645326D01*
X99080952Y-50645326D02*
X98985714Y-50740564D01*
X98985714Y-50740564D02*
X98890476Y-50788183D01*
X108737476Y-72587295D02*
X108737476Y-73234914D01*
X108737476Y-73234914D02*
X108775571Y-73311104D01*
X108775571Y-73311104D02*
X108813666Y-73349200D01*
X108813666Y-73349200D02*
X108889857Y-73387295D01*
X108889857Y-73387295D02*
X109042238Y-73387295D01*
X109042238Y-73387295D02*
X109118428Y-73349200D01*
X109118428Y-73349200D02*
X109156523Y-73311104D01*
X109156523Y-73311104D02*
X109194619Y-73234914D01*
X109194619Y-73234914D02*
X109194619Y-72587295D01*
X109956523Y-72587295D02*
X109575571Y-72587295D01*
X109575571Y-72587295D02*
X109537475Y-72968247D01*
X109537475Y-72968247D02*
X109575571Y-72930152D01*
X109575571Y-72930152D02*
X109651761Y-72892057D01*
X109651761Y-72892057D02*
X109842237Y-72892057D01*
X109842237Y-72892057D02*
X109918428Y-72930152D01*
X109918428Y-72930152D02*
X109956523Y-72968247D01*
X109956523Y-72968247D02*
X109994618Y-73044438D01*
X109994618Y-73044438D02*
X109994618Y-73234914D01*
X109994618Y-73234914D02*
X109956523Y-73311104D01*
X109956523Y-73311104D02*
X109918428Y-73349200D01*
X109918428Y-73349200D02*
X109842237Y-73387295D01*
X109842237Y-73387295D02*
X109651761Y-73387295D01*
X109651761Y-73387295D02*
X109575571Y-73349200D01*
X109575571Y-73349200D02*
X109537475Y-73311104D01*
X106489380Y-78748276D02*
X106489380Y-79266371D01*
X106489380Y-79266371D02*
X106519857Y-79327323D01*
X106519857Y-79327323D02*
X106550333Y-79357800D01*
X106550333Y-79357800D02*
X106611285Y-79388276D01*
X106611285Y-79388276D02*
X106733190Y-79388276D01*
X106733190Y-79388276D02*
X106794142Y-79357800D01*
X106794142Y-79357800D02*
X106824619Y-79327323D01*
X106824619Y-79327323D02*
X106855095Y-79266371D01*
X106855095Y-79266371D02*
X106855095Y-78748276D01*
X107495095Y-79388276D02*
X107129380Y-79388276D01*
X107312237Y-79388276D02*
X107312237Y-78748276D01*
X107312237Y-78748276D02*
X107251285Y-78839704D01*
X107251285Y-78839704D02*
X107190333Y-78900657D01*
X107190333Y-78900657D02*
X107129380Y-78931133D01*
D14*
X125704318Y-76067619D02*
X126732413Y-76067619D01*
X126732413Y-76067619D02*
X126853365Y-76007142D01*
X126853365Y-76007142D02*
X126913842Y-75946666D01*
X126913842Y-75946666D02*
X126974318Y-75825714D01*
X126974318Y-75825714D02*
X126974318Y-75583809D01*
X126974318Y-75583809D02*
X126913842Y-75462857D01*
X126913842Y-75462857D02*
X126853365Y-75402380D01*
X126853365Y-75402380D02*
X126732413Y-75341904D01*
X126732413Y-75341904D02*
X125704318Y-75341904D01*
X125704318Y-74858095D02*
X125704318Y-74071904D01*
X125704318Y-74071904D02*
X126188127Y-74495238D01*
X126188127Y-74495238D02*
X126188127Y-74313809D01*
X126188127Y-74313809D02*
X126248603Y-74192857D01*
X126248603Y-74192857D02*
X126309080Y-74132381D01*
X126309080Y-74132381D02*
X126430032Y-74071904D01*
X126430032Y-74071904D02*
X126732413Y-74071904D01*
X126732413Y-74071904D02*
X126853365Y-74132381D01*
X126853365Y-74132381D02*
X126913842Y-74192857D01*
X126913842Y-74192857D02*
X126974318Y-74313809D01*
X126974318Y-74313809D02*
X126974318Y-74676666D01*
X126974318Y-74676666D02*
X126913842Y-74797619D01*
X126913842Y-74797619D02*
X126853365Y-74858095D01*
D12*
X110951524Y-42930009D02*
X111284857Y-42930009D01*
X111427714Y-43453819D02*
X110951524Y-43453819D01*
X110951524Y-43453819D02*
X110951524Y-42453819D01*
X110951524Y-42453819D02*
X111427714Y-42453819D01*
X112380095Y-43453819D02*
X111808667Y-43453819D01*
X112094381Y-43453819D02*
X112094381Y-42453819D01*
X112094381Y-42453819D02*
X111999143Y-42596676D01*
X111999143Y-42596676D02*
X111903905Y-42691914D01*
X111903905Y-42691914D02*
X111808667Y-42739533D01*
X103733333Y-71859580D02*
X103685714Y-71907200D01*
X103685714Y-71907200D02*
X103542857Y-71954819D01*
X103542857Y-71954819D02*
X103447619Y-71954819D01*
X103447619Y-71954819D02*
X103304762Y-71907200D01*
X103304762Y-71907200D02*
X103209524Y-71811961D01*
X103209524Y-71811961D02*
X103161905Y-71716723D01*
X103161905Y-71716723D02*
X103114286Y-71526247D01*
X103114286Y-71526247D02*
X103114286Y-71383390D01*
X103114286Y-71383390D02*
X103161905Y-71192914D01*
X103161905Y-71192914D02*
X103209524Y-71097676D01*
X103209524Y-71097676D02*
X103304762Y-71002438D01*
X103304762Y-71002438D02*
X103447619Y-70954819D01*
X103447619Y-70954819D02*
X103542857Y-70954819D01*
X103542857Y-70954819D02*
X103685714Y-71002438D01*
X103685714Y-71002438D02*
X103733333Y-71050057D01*
X104590476Y-70954819D02*
X104400000Y-70954819D01*
X104400000Y-70954819D02*
X104304762Y-71002438D01*
X104304762Y-71002438D02*
X104257143Y-71050057D01*
X104257143Y-71050057D02*
X104161905Y-71192914D01*
X104161905Y-71192914D02*
X104114286Y-71383390D01*
X104114286Y-71383390D02*
X104114286Y-71764342D01*
X104114286Y-71764342D02*
X104161905Y-71859580D01*
X104161905Y-71859580D02*
X104209524Y-71907200D01*
X104209524Y-71907200D02*
X104304762Y-71954819D01*
X104304762Y-71954819D02*
X104495238Y-71954819D01*
X104495238Y-71954819D02*
X104590476Y-71907200D01*
X104590476Y-71907200D02*
X104638095Y-71859580D01*
X104638095Y-71859580D02*
X104685714Y-71764342D01*
X104685714Y-71764342D02*
X104685714Y-71526247D01*
X104685714Y-71526247D02*
X104638095Y-71431009D01*
X104638095Y-71431009D02*
X104590476Y-71383390D01*
X104590476Y-71383390D02*
X104495238Y-71335771D01*
X104495238Y-71335771D02*
X104304762Y-71335771D01*
X104304762Y-71335771D02*
X104209524Y-71383390D01*
X104209524Y-71383390D02*
X104161905Y-71431009D01*
X104161905Y-71431009D02*
X104114286Y-71526247D01*
X94488319Y-58205666D02*
X94488319Y-58681856D01*
X94488319Y-58681856D02*
X93488319Y-58681856D01*
X93583557Y-57919951D02*
X93535938Y-57872332D01*
X93535938Y-57872332D02*
X93488319Y-57777094D01*
X93488319Y-57777094D02*
X93488319Y-57538999D01*
X93488319Y-57538999D02*
X93535938Y-57443761D01*
X93535938Y-57443761D02*
X93583557Y-57396142D01*
X93583557Y-57396142D02*
X93678795Y-57348523D01*
X93678795Y-57348523D02*
X93774033Y-57348523D01*
X93774033Y-57348523D02*
X93916890Y-57396142D01*
X93916890Y-57396142D02*
X94488319Y-57967570D01*
X94488319Y-57967570D02*
X94488319Y-57348523D01*
X109167333Y-69160580D02*
X109119714Y-69208200D01*
X109119714Y-69208200D02*
X108976857Y-69255819D01*
X108976857Y-69255819D02*
X108881619Y-69255819D01*
X108881619Y-69255819D02*
X108738762Y-69208200D01*
X108738762Y-69208200D02*
X108643524Y-69112961D01*
X108643524Y-69112961D02*
X108595905Y-69017723D01*
X108595905Y-69017723D02*
X108548286Y-68827247D01*
X108548286Y-68827247D02*
X108548286Y-68684390D01*
X108548286Y-68684390D02*
X108595905Y-68493914D01*
X108595905Y-68493914D02*
X108643524Y-68398676D01*
X108643524Y-68398676D02*
X108738762Y-68303438D01*
X108738762Y-68303438D02*
X108881619Y-68255819D01*
X108881619Y-68255819D02*
X108976857Y-68255819D01*
X108976857Y-68255819D02*
X109119714Y-68303438D01*
X109119714Y-68303438D02*
X109167333Y-68351057D01*
X109548286Y-68351057D02*
X109595905Y-68303438D01*
X109595905Y-68303438D02*
X109691143Y-68255819D01*
X109691143Y-68255819D02*
X109929238Y-68255819D01*
X109929238Y-68255819D02*
X110024476Y-68303438D01*
X110024476Y-68303438D02*
X110072095Y-68351057D01*
X110072095Y-68351057D02*
X110119714Y-68446295D01*
X110119714Y-68446295D02*
X110119714Y-68541533D01*
X110119714Y-68541533D02*
X110072095Y-68684390D01*
X110072095Y-68684390D02*
X109500667Y-69255819D01*
X109500667Y-69255819D02*
X110119714Y-69255819D01*
D14*
X104312842Y-86525619D02*
X104373318Y-86344190D01*
X104373318Y-86344190D02*
X104373318Y-86041809D01*
X104373318Y-86041809D02*
X104312842Y-85920857D01*
X104312842Y-85920857D02*
X104252365Y-85860381D01*
X104252365Y-85860381D02*
X104131413Y-85799904D01*
X104131413Y-85799904D02*
X104010461Y-85799904D01*
X104010461Y-85799904D02*
X103889508Y-85860381D01*
X103889508Y-85860381D02*
X103829032Y-85920857D01*
X103829032Y-85920857D02*
X103768556Y-86041809D01*
X103768556Y-86041809D02*
X103708080Y-86283714D01*
X103708080Y-86283714D02*
X103647603Y-86404666D01*
X103647603Y-86404666D02*
X103587127Y-86465143D01*
X103587127Y-86465143D02*
X103466175Y-86525619D01*
X103466175Y-86525619D02*
X103345222Y-86525619D01*
X103345222Y-86525619D02*
X103224270Y-86465143D01*
X103224270Y-86465143D02*
X103163794Y-86404666D01*
X103163794Y-86404666D02*
X103103318Y-86283714D01*
X103103318Y-86283714D02*
X103103318Y-85981333D01*
X103103318Y-85981333D02*
X103163794Y-85799904D01*
X104373318Y-84590380D02*
X104373318Y-85316095D01*
X104373318Y-84953238D02*
X103103318Y-84953238D01*
X103103318Y-84953238D02*
X103284746Y-85074190D01*
X103284746Y-85074190D02*
X103405699Y-85195142D01*
X103405699Y-85195142D02*
X103466175Y-85316095D01*
D12*
X92133333Y-60654819D02*
X91657143Y-60654819D01*
X91657143Y-60654819D02*
X91657143Y-59654819D01*
X92990476Y-60654819D02*
X92419048Y-60654819D01*
X92704762Y-60654819D02*
X92704762Y-59654819D01*
X92704762Y-59654819D02*
X92609524Y-59797676D01*
X92609524Y-59797676D02*
X92514286Y-59892914D01*
X92514286Y-59892914D02*
X92419048Y-59940533D01*
X101533333Y-78654819D02*
X101200000Y-78178628D01*
X100961905Y-78654819D02*
X100961905Y-77654819D01*
X100961905Y-77654819D02*
X101342857Y-77654819D01*
X101342857Y-77654819D02*
X101438095Y-77702438D01*
X101438095Y-77702438D02*
X101485714Y-77750057D01*
X101485714Y-77750057D02*
X101533333Y-77845295D01*
X101533333Y-77845295D02*
X101533333Y-77988152D01*
X101533333Y-77988152D02*
X101485714Y-78083390D01*
X101485714Y-78083390D02*
X101438095Y-78131009D01*
X101438095Y-78131009D02*
X101342857Y-78178628D01*
X101342857Y-78178628D02*
X100961905Y-78178628D01*
X101914286Y-77750057D02*
X101961905Y-77702438D01*
X101961905Y-77702438D02*
X102057143Y-77654819D01*
X102057143Y-77654819D02*
X102295238Y-77654819D01*
X102295238Y-77654819D02*
X102390476Y-77702438D01*
X102390476Y-77702438D02*
X102438095Y-77750057D01*
X102438095Y-77750057D02*
X102485714Y-77845295D01*
X102485714Y-77845295D02*
X102485714Y-77940533D01*
X102485714Y-77940533D02*
X102438095Y-78083390D01*
X102438095Y-78083390D02*
X101866667Y-78654819D01*
X101866667Y-78654819D02*
X102485714Y-78654819D01*
D10*
X89683333Y-68451966D02*
X89650000Y-68485300D01*
X89650000Y-68485300D02*
X89550000Y-68518633D01*
X89550000Y-68518633D02*
X89483333Y-68518633D01*
X89483333Y-68518633D02*
X89383333Y-68485300D01*
X89383333Y-68485300D02*
X89316667Y-68418633D01*
X89316667Y-68418633D02*
X89283333Y-68351966D01*
X89283333Y-68351966D02*
X89250000Y-68218633D01*
X89250000Y-68218633D02*
X89250000Y-68118633D01*
X89250000Y-68118633D02*
X89283333Y-67985300D01*
X89283333Y-67985300D02*
X89316667Y-67918633D01*
X89316667Y-67918633D02*
X89383333Y-67851966D01*
X89383333Y-67851966D02*
X89483333Y-67818633D01*
X89483333Y-67818633D02*
X89550000Y-67818633D01*
X89550000Y-67818633D02*
X89650000Y-67851966D01*
X89650000Y-67851966D02*
X89683333Y-67885300D01*
X90083333Y-68118633D02*
X90016667Y-68085300D01*
X90016667Y-68085300D02*
X89983333Y-68051966D01*
X89983333Y-68051966D02*
X89950000Y-67985300D01*
X89950000Y-67985300D02*
X89950000Y-67951966D01*
X89950000Y-67951966D02*
X89983333Y-67885300D01*
X89983333Y-67885300D02*
X90016667Y-67851966D01*
X90016667Y-67851966D02*
X90083333Y-67818633D01*
X90083333Y-67818633D02*
X90216667Y-67818633D01*
X90216667Y-67818633D02*
X90283333Y-67851966D01*
X90283333Y-67851966D02*
X90316667Y-67885300D01*
X90316667Y-67885300D02*
X90350000Y-67951966D01*
X90350000Y-67951966D02*
X90350000Y-67985300D01*
X90350000Y-67985300D02*
X90316667Y-68051966D01*
X90316667Y-68051966D02*
X90283333Y-68085300D01*
X90283333Y-68085300D02*
X90216667Y-68118633D01*
X90216667Y-68118633D02*
X90083333Y-68118633D01*
X90083333Y-68118633D02*
X90016667Y-68151966D01*
X90016667Y-68151966D02*
X89983333Y-68185300D01*
X89983333Y-68185300D02*
X89950000Y-68251966D01*
X89950000Y-68251966D02*
X89950000Y-68385300D01*
X89950000Y-68385300D02*
X89983333Y-68451966D01*
X89983333Y-68451966D02*
X90016667Y-68485300D01*
X90016667Y-68485300D02*
X90083333Y-68518633D01*
X90083333Y-68518633D02*
X90216667Y-68518633D01*
X90216667Y-68518633D02*
X90283333Y-68485300D01*
X90283333Y-68485300D02*
X90316667Y-68451966D01*
X90316667Y-68451966D02*
X90350000Y-68385300D01*
X90350000Y-68385300D02*
X90350000Y-68251966D01*
X90350000Y-68251966D02*
X90316667Y-68185300D01*
X90316667Y-68185300D02*
X90283333Y-68151966D01*
X90283333Y-68151966D02*
X90216667Y-68118633D01*
D12*
X88838095Y-66254819D02*
X88838095Y-67064342D01*
X88838095Y-67064342D02*
X88885714Y-67159580D01*
X88885714Y-67159580D02*
X88933333Y-67207200D01*
X88933333Y-67207200D02*
X89028571Y-67254819D01*
X89028571Y-67254819D02*
X89219047Y-67254819D01*
X89219047Y-67254819D02*
X89314285Y-67207200D01*
X89314285Y-67207200D02*
X89361904Y-67159580D01*
X89361904Y-67159580D02*
X89409523Y-67064342D01*
X89409523Y-67064342D02*
X89409523Y-66254819D01*
X89838095Y-66350057D02*
X89885714Y-66302438D01*
X89885714Y-66302438D02*
X89980952Y-66254819D01*
X89980952Y-66254819D02*
X90219047Y-66254819D01*
X90219047Y-66254819D02*
X90314285Y-66302438D01*
X90314285Y-66302438D02*
X90361904Y-66350057D01*
X90361904Y-66350057D02*
X90409523Y-66445295D01*
X90409523Y-66445295D02*
X90409523Y-66540533D01*
X90409523Y-66540533D02*
X90361904Y-66683390D01*
X90361904Y-66683390D02*
X89790476Y-67254819D01*
X89790476Y-67254819D02*
X90409523Y-67254819D01*
X93354819Y-70299999D02*
X93592914Y-70299999D01*
X93497676Y-70538094D02*
X93592914Y-70299999D01*
X93592914Y-70299999D02*
X93497676Y-70061904D01*
X93783390Y-70442856D02*
X93592914Y-70299999D01*
X93592914Y-70299999D02*
X93783390Y-70157142D01*
X105769580Y-72302666D02*
X105817200Y-72350285D01*
X105817200Y-72350285D02*
X105864819Y-72493142D01*
X105864819Y-72493142D02*
X105864819Y-72588380D01*
X105864819Y-72588380D02*
X105817200Y-72731237D01*
X105817200Y-72731237D02*
X105721961Y-72826475D01*
X105721961Y-72826475D02*
X105626723Y-72874094D01*
X105626723Y-72874094D02*
X105436247Y-72921713D01*
X105436247Y-72921713D02*
X105293390Y-72921713D01*
X105293390Y-72921713D02*
X105102914Y-72874094D01*
X105102914Y-72874094D02*
X105007676Y-72826475D01*
X105007676Y-72826475D02*
X104912438Y-72731237D01*
X104912438Y-72731237D02*
X104864819Y-72588380D01*
X104864819Y-72588380D02*
X104864819Y-72493142D01*
X104864819Y-72493142D02*
X104912438Y-72350285D01*
X104912438Y-72350285D02*
X104960057Y-72302666D01*
X105864819Y-71350285D02*
X105864819Y-71921713D01*
X105864819Y-71635999D02*
X104864819Y-71635999D01*
X104864819Y-71635999D02*
X105007676Y-71731237D01*
X105007676Y-71731237D02*
X105102914Y-71826475D01*
X105102914Y-71826475D02*
X105150533Y-71921713D01*
X98533333Y-61854819D02*
X98057143Y-61854819D01*
X98057143Y-61854819D02*
X98057143Y-60854819D01*
X98771429Y-60854819D02*
X99390476Y-60854819D01*
X99390476Y-60854819D02*
X99057143Y-61235771D01*
X99057143Y-61235771D02*
X99200000Y-61235771D01*
X99200000Y-61235771D02*
X99295238Y-61283390D01*
X99295238Y-61283390D02*
X99342857Y-61331009D01*
X99342857Y-61331009D02*
X99390476Y-61426247D01*
X99390476Y-61426247D02*
X99390476Y-61664342D01*
X99390476Y-61664342D02*
X99342857Y-61759580D01*
X99342857Y-61759580D02*
X99295238Y-61807200D01*
X99295238Y-61807200D02*
X99200000Y-61854819D01*
X99200000Y-61854819D02*
X98914286Y-61854819D01*
X98914286Y-61854819D02*
X98819048Y-61807200D01*
X98819048Y-61807200D02*
X98771429Y-61759580D01*
X102759580Y-72026666D02*
X102807200Y-72074285D01*
X102807200Y-72074285D02*
X102854819Y-72217142D01*
X102854819Y-72217142D02*
X102854819Y-72312380D01*
X102854819Y-72312380D02*
X102807200Y-72455237D01*
X102807200Y-72455237D02*
X102711961Y-72550475D01*
X102711961Y-72550475D02*
X102616723Y-72598094D01*
X102616723Y-72598094D02*
X102426247Y-72645713D01*
X102426247Y-72645713D02*
X102283390Y-72645713D01*
X102283390Y-72645713D02*
X102092914Y-72598094D01*
X102092914Y-72598094D02*
X101997676Y-72550475D01*
X101997676Y-72550475D02*
X101902438Y-72455237D01*
X101902438Y-72455237D02*
X101854819Y-72312380D01*
X101854819Y-72312380D02*
X101854819Y-72217142D01*
X101854819Y-72217142D02*
X101902438Y-72074285D01*
X101902438Y-72074285D02*
X101950057Y-72026666D01*
X101854819Y-71693332D02*
X101854819Y-71074285D01*
X101854819Y-71074285D02*
X102235771Y-71407618D01*
X102235771Y-71407618D02*
X102235771Y-71264761D01*
X102235771Y-71264761D02*
X102283390Y-71169523D01*
X102283390Y-71169523D02*
X102331009Y-71121904D01*
X102331009Y-71121904D02*
X102426247Y-71074285D01*
X102426247Y-71074285D02*
X102664342Y-71074285D01*
X102664342Y-71074285D02*
X102759580Y-71121904D01*
X102759580Y-71121904D02*
X102807200Y-71169523D01*
X102807200Y-71169523D02*
X102854819Y-71264761D01*
X102854819Y-71264761D02*
X102854819Y-71550475D01*
X102854819Y-71550475D02*
X102807200Y-71645713D01*
X102807200Y-71645713D02*
X102759580Y-71693332D01*
X99133333Y-69059580D02*
X99085714Y-69107200D01*
X99085714Y-69107200D02*
X98942857Y-69154819D01*
X98942857Y-69154819D02*
X98847619Y-69154819D01*
X98847619Y-69154819D02*
X98704762Y-69107200D01*
X98704762Y-69107200D02*
X98609524Y-69011961D01*
X98609524Y-69011961D02*
X98561905Y-68916723D01*
X98561905Y-68916723D02*
X98514286Y-68726247D01*
X98514286Y-68726247D02*
X98514286Y-68583390D01*
X98514286Y-68583390D02*
X98561905Y-68392914D01*
X98561905Y-68392914D02*
X98609524Y-68297676D01*
X98609524Y-68297676D02*
X98704762Y-68202438D01*
X98704762Y-68202438D02*
X98847619Y-68154819D01*
X98847619Y-68154819D02*
X98942857Y-68154819D01*
X98942857Y-68154819D02*
X99085714Y-68202438D01*
X99085714Y-68202438D02*
X99133333Y-68250057D01*
X100038095Y-68154819D02*
X99561905Y-68154819D01*
X99561905Y-68154819D02*
X99514286Y-68631009D01*
X99514286Y-68631009D02*
X99561905Y-68583390D01*
X99561905Y-68583390D02*
X99657143Y-68535771D01*
X99657143Y-68535771D02*
X99895238Y-68535771D01*
X99895238Y-68535771D02*
X99990476Y-68583390D01*
X99990476Y-68583390D02*
X100038095Y-68631009D01*
X100038095Y-68631009D02*
X100085714Y-68726247D01*
X100085714Y-68726247D02*
X100085714Y-68964342D01*
X100085714Y-68964342D02*
X100038095Y-69059580D01*
X100038095Y-69059580D02*
X99990476Y-69107200D01*
X99990476Y-69107200D02*
X99895238Y-69154819D01*
X99895238Y-69154819D02*
X99657143Y-69154819D01*
X99657143Y-69154819D02*
X99561905Y-69107200D01*
X99561905Y-69107200D02*
X99514286Y-69059580D01*
D14*
X106795238Y-66860556D02*
X106795238Y-67465318D01*
X106371905Y-66195318D02*
X106795238Y-66860556D01*
X106795238Y-66860556D02*
X107218572Y-66195318D01*
X108307143Y-67465318D02*
X107581428Y-67465318D01*
X107944285Y-67465318D02*
X107944285Y-66195318D01*
X107944285Y-66195318D02*
X107823333Y-66376746D01*
X107823333Y-66376746D02*
X107702381Y-66497699D01*
X107702381Y-66497699D02*
X107581428Y-66558175D01*
D12*
X101235580Y-71899666D02*
X101283200Y-71947285D01*
X101283200Y-71947285D02*
X101330819Y-72090142D01*
X101330819Y-72090142D02*
X101330819Y-72185380D01*
X101330819Y-72185380D02*
X101283200Y-72328237D01*
X101283200Y-72328237D02*
X101187961Y-72423475D01*
X101187961Y-72423475D02*
X101092723Y-72471094D01*
X101092723Y-72471094D02*
X100902247Y-72518713D01*
X100902247Y-72518713D02*
X100759390Y-72518713D01*
X100759390Y-72518713D02*
X100568914Y-72471094D01*
X100568914Y-72471094D02*
X100473676Y-72423475D01*
X100473676Y-72423475D02*
X100378438Y-72328237D01*
X100378438Y-72328237D02*
X100330819Y-72185380D01*
X100330819Y-72185380D02*
X100330819Y-72090142D01*
X100330819Y-72090142D02*
X100378438Y-71947285D01*
X100378438Y-71947285D02*
X100426057Y-71899666D01*
X100664152Y-71042523D02*
X101330819Y-71042523D01*
X100283200Y-71280618D02*
X100997485Y-71518713D01*
X100997485Y-71518713D02*
X100997485Y-70899666D01*
X100457142Y-61759580D02*
X100409523Y-61807200D01*
X100409523Y-61807200D02*
X100266666Y-61854819D01*
X100266666Y-61854819D02*
X100171428Y-61854819D01*
X100171428Y-61854819D02*
X100028571Y-61807200D01*
X100028571Y-61807200D02*
X99933333Y-61711961D01*
X99933333Y-61711961D02*
X99885714Y-61616723D01*
X99885714Y-61616723D02*
X99838095Y-61426247D01*
X99838095Y-61426247D02*
X99838095Y-61283390D01*
X99838095Y-61283390D02*
X99885714Y-61092914D01*
X99885714Y-61092914D02*
X99933333Y-60997676D01*
X99933333Y-60997676D02*
X100028571Y-60902438D01*
X100028571Y-60902438D02*
X100171428Y-60854819D01*
X100171428Y-60854819D02*
X100266666Y-60854819D01*
X100266666Y-60854819D02*
X100409523Y-60902438D01*
X100409523Y-60902438D02*
X100457142Y-60950057D01*
X101409523Y-61854819D02*
X100838095Y-61854819D01*
X101123809Y-61854819D02*
X101123809Y-60854819D01*
X101123809Y-60854819D02*
X101028571Y-60997676D01*
X101028571Y-60997676D02*
X100933333Y-61092914D01*
X100933333Y-61092914D02*
X100838095Y-61140533D01*
X101742857Y-60854819D02*
X102361904Y-60854819D01*
X102361904Y-60854819D02*
X102028571Y-61235771D01*
X102028571Y-61235771D02*
X102171428Y-61235771D01*
X102171428Y-61235771D02*
X102266666Y-61283390D01*
X102266666Y-61283390D02*
X102314285Y-61331009D01*
X102314285Y-61331009D02*
X102361904Y-61426247D01*
X102361904Y-61426247D02*
X102361904Y-61664342D01*
X102361904Y-61664342D02*
X102314285Y-61759580D01*
X102314285Y-61759580D02*
X102266666Y-61807200D01*
X102266666Y-61807200D02*
X102171428Y-61854819D01*
X102171428Y-61854819D02*
X101885714Y-61854819D01*
X101885714Y-61854819D02*
X101790476Y-61807200D01*
X101790476Y-61807200D02*
X101742857Y-61759580D01*
X97757142Y-55959580D02*
X97709523Y-56007200D01*
X97709523Y-56007200D02*
X97566666Y-56054819D01*
X97566666Y-56054819D02*
X97471428Y-56054819D01*
X97471428Y-56054819D02*
X97328571Y-56007200D01*
X97328571Y-56007200D02*
X97233333Y-55911961D01*
X97233333Y-55911961D02*
X97185714Y-55816723D01*
X97185714Y-55816723D02*
X97138095Y-55626247D01*
X97138095Y-55626247D02*
X97138095Y-55483390D01*
X97138095Y-55483390D02*
X97185714Y-55292914D01*
X97185714Y-55292914D02*
X97233333Y-55197676D01*
X97233333Y-55197676D02*
X97328571Y-55102438D01*
X97328571Y-55102438D02*
X97471428Y-55054819D01*
X97471428Y-55054819D02*
X97566666Y-55054819D01*
X97566666Y-55054819D02*
X97709523Y-55102438D01*
X97709523Y-55102438D02*
X97757142Y-55150057D01*
X98709523Y-56054819D02*
X98138095Y-56054819D01*
X98423809Y-56054819D02*
X98423809Y-55054819D01*
X98423809Y-55054819D02*
X98328571Y-55197676D01*
X98328571Y-55197676D02*
X98233333Y-55292914D01*
X98233333Y-55292914D02*
X98138095Y-55340533D01*
X99614285Y-55054819D02*
X99138095Y-55054819D01*
X99138095Y-55054819D02*
X99090476Y-55531009D01*
X99090476Y-55531009D02*
X99138095Y-55483390D01*
X99138095Y-55483390D02*
X99233333Y-55435771D01*
X99233333Y-55435771D02*
X99471428Y-55435771D01*
X99471428Y-55435771D02*
X99566666Y-55483390D01*
X99566666Y-55483390D02*
X99614285Y-55531009D01*
X99614285Y-55531009D02*
X99661904Y-55626247D01*
X99661904Y-55626247D02*
X99661904Y-55864342D01*
X99661904Y-55864342D02*
X99614285Y-55959580D01*
X99614285Y-55959580D02*
X99566666Y-56007200D01*
X99566666Y-56007200D02*
X99471428Y-56054819D01*
X99471428Y-56054819D02*
X99233333Y-56054819D01*
X99233333Y-56054819D02*
X99138095Y-56007200D01*
X99138095Y-56007200D02*
X99090476Y-55959580D01*
X93136666Y-78804819D02*
X93136666Y-79519104D01*
X93136666Y-79519104D02*
X93089047Y-79661961D01*
X93089047Y-79661961D02*
X92993809Y-79757200D01*
X92993809Y-79757200D02*
X92850952Y-79804819D01*
X92850952Y-79804819D02*
X92755714Y-79804819D01*
X94136666Y-79804819D02*
X93565238Y-79804819D01*
X93850952Y-79804819D02*
X93850952Y-78804819D01*
X93850952Y-78804819D02*
X93755714Y-78947676D01*
X93755714Y-78947676D02*
X93660476Y-79042914D01*
X93660476Y-79042914D02*
X93565238Y-79090533D01*
D15*
%TO.C,C9*%
X109490000Y-76759420D02*
X109490000Y-77040580D01*
X110510000Y-76759420D02*
X110510000Y-77040580D01*
%TO.C,C10*%
X94912101Y-48889230D02*
X94912101Y-48608070D01*
X95932101Y-48889230D02*
X95932101Y-48608070D01*
%TO.C,C7*%
X103513580Y-63117000D02*
X103232420Y-63117000D01*
X103513580Y-64137000D02*
X103232420Y-64137000D01*
%TO.C,U4*%
X95981500Y-71018000D02*
X93781500Y-71018000D01*
X95981500Y-71018000D02*
X98181500Y-71018000D01*
X95981500Y-77788000D02*
X93781500Y-77788000D01*
X95981500Y-77788000D02*
X98181500Y-77788000D01*
X100171500Y-77568000D02*
X99841500Y-77328000D01*
X100171500Y-77088000D01*
X100171500Y-77568000D01*
G36*
X100171500Y-77568000D02*
G01*
X99841500Y-77328000D01*
X100171500Y-77088000D01*
X100171500Y-77568000D01*
G37*
%TO.C,C14*%
X95715500Y-61060420D02*
X95715500Y-61341580D01*
X96735500Y-61060420D02*
X96735500Y-61341580D01*
%TO.C,C12*%
X94080080Y-63117000D02*
X93798920Y-63117000D01*
X94080080Y-64137000D02*
X93798920Y-64137000D01*
%TO.C,R1*%
X90923650Y-65347180D02*
X90923650Y-65021622D01*
X91943650Y-65347180D02*
X91943650Y-65021622D01*
%TO.C,L4*%
X94912101Y-53470929D02*
X94912101Y-53145371D01*
X95932101Y-53470929D02*
X95932101Y-53145371D01*
%TO.C,C11*%
X94519521Y-50537650D02*
X94800681Y-50537650D01*
X94519521Y-51557650D02*
X94800681Y-51557650D01*
%TO.C,U5*%
X108172000Y-73669000D02*
X108172000Y-72259000D01*
X110492000Y-73659000D02*
X110492000Y-72259000D01*
X108222000Y-74039000D02*
X107892000Y-74279000D01*
X107892000Y-73799000D01*
X108222000Y-74039000D01*
G36*
X108222000Y-74039000D02*
G01*
X107892000Y-74279000D01*
X107892000Y-73799000D01*
X108222000Y-74039000D01*
G37*
D16*
%TO.C,U1*%
X106130000Y-75300000D02*
X107790000Y-75300000D01*
X106130000Y-78400000D02*
X107790000Y-78400000D01*
D17*
X104660000Y-75850000D02*
G75*
G02*
X104460000Y-75850000I-100000J0D01*
G01*
X104460000Y-75850000D02*
G75*
G02*
X104660000Y-75850000I100000J0D01*
G01*
%TO.C,U3*%
X111920000Y-60675000D02*
X111920000Y-65775000D01*
X111920000Y-65575000D02*
X111920000Y-80175000D01*
X111920000Y-65775000D02*
X111920000Y-65775000D01*
X111920000Y-80175000D02*
X111920000Y-89275000D01*
X111920000Y-89275000D02*
X111920000Y-89275000D01*
X111920000Y-89275000D02*
X119520000Y-89275000D01*
X119520000Y-60675000D02*
X111920000Y-60675000D01*
X124320000Y-89275000D02*
X131920000Y-89275000D01*
X131920000Y-60675000D02*
X124320000Y-60675000D01*
X131920000Y-60775000D02*
X131920000Y-60675000D01*
X131920000Y-62575000D02*
X131920000Y-60775000D01*
X131920000Y-75375000D02*
X131920000Y-62575000D01*
X131920000Y-89275000D02*
X131920000Y-75175000D01*
X131920000Y-89275000D02*
X131920000Y-89275000D01*
D16*
%TO.C,E1*%
X91550000Y-30753000D02*
X91550000Y-38923000D01*
X91550000Y-30753000D02*
X131950000Y-30753000D01*
X128575000Y-39853000D02*
X94925000Y-39853000D01*
X131950000Y-30753000D02*
X131950000Y-38923000D01*
D17*
X95100000Y-46303000D02*
G75*
G02*
X94900000Y-46303000I-100000J0D01*
G01*
X94900000Y-46303000D02*
G75*
G02*
X95100000Y-46303000I100000J0D01*
G01*
D15*
%TO.C,C6*%
X103359420Y-69594000D02*
X103640580Y-69594000D01*
X103359420Y-70614000D02*
X103640580Y-70614000D01*
%TO.C,L2*%
X94953500Y-58201779D02*
X94953500Y-57876221D01*
X95973500Y-58201779D02*
X95973500Y-57876221D01*
%TO.C,C2*%
X109193420Y-69721000D02*
X109474580Y-69721000D01*
X109193420Y-70741000D02*
X109474580Y-70741000D01*
D17*
%TO.C,S1*%
X97799000Y-79858000D02*
X109799000Y-79858000D01*
X97799000Y-91258000D02*
X97799000Y-79858000D01*
X106299000Y-91858000D02*
X106299000Y-91858000D01*
X106299000Y-91958000D02*
X106299000Y-91958000D01*
X106299000Y-91958000D02*
X106299000Y-91958000D01*
X109799000Y-79858000D02*
X109799000Y-91258000D01*
X109799000Y-91258000D02*
X97799000Y-91258000D01*
X106299000Y-91858000D02*
G75*
G02*
X106299000Y-91958000I0J-50000D01*
G01*
X106299000Y-91858000D02*
G75*
G02*
X106299000Y-91958000I0J-50000D01*
G01*
X106299000Y-91958000D02*
G75*
G02*
X106299000Y-91858000I0J50000D01*
G01*
D15*
%TO.C,L1*%
X94191500Y-61376779D02*
X94191500Y-61051221D01*
X95211500Y-61376779D02*
X95211500Y-61051221D01*
%TO.C,R2*%
X101962779Y-76303000D02*
X101637221Y-76303000D01*
X101962779Y-77323000D02*
X101637221Y-77323000D01*
%TO.C,C8*%
X90923650Y-68091821D02*
X90923650Y-68372981D01*
X91943650Y-68091821D02*
X91943650Y-68372981D01*
D18*
%TO.C,U2*%
X93173550Y-65120901D02*
X93173550Y-65705860D01*
X93173550Y-68676142D02*
X93173550Y-69261101D01*
X93173550Y-69261101D02*
X93758509Y-69261101D01*
X93758509Y-65120901D02*
X93173550Y-65120901D01*
X96728791Y-69261101D02*
X97313750Y-69261101D01*
X97313750Y-65120901D02*
X96728791Y-65120901D01*
X97313750Y-65705860D02*
X97313750Y-65120901D01*
X97313750Y-69261101D02*
X97313750Y-68676142D01*
D19*
G36*
X92614750Y-68381502D02*
G01*
X92360750Y-68381502D01*
X92360750Y-68000502D01*
X92614750Y-68000502D01*
X92614750Y-68381502D01*
G37*
G36*
X98126550Y-66381500D02*
G01*
X97872550Y-66381500D01*
X97872550Y-66000500D01*
X98126550Y-66000500D01*
X98126550Y-66381500D01*
G37*
D15*
%TO.C,C1*%
X106424000Y-73038580D02*
X106424000Y-72757420D01*
X107444000Y-73038580D02*
X107444000Y-72757420D01*
%TO.C,L3*%
X97150279Y-63117000D02*
X96824721Y-63117000D01*
X97150279Y-64137000D02*
X96824721Y-64137000D01*
%TO.C,C3*%
X101890000Y-74540580D02*
X101890000Y-74259420D01*
X102910000Y-74540580D02*
X102910000Y-74259420D01*
%TO.C,C5*%
X99359420Y-69590000D02*
X99640580Y-69590000D01*
X99359420Y-70610000D02*
X99640580Y-70610000D01*
D17*
%TO.C,Y1*%
X102089000Y-68791000D02*
X102089000Y-68791000D01*
X102289000Y-68791000D02*
X102289000Y-68791000D01*
X102089000Y-68791000D02*
G75*
G02*
X102289000Y-68791000I100000J0D01*
G01*
X102289000Y-68791000D02*
G75*
G02*
X102089000Y-68791000I-100000J0D01*
G01*
D15*
%TO.C,C4*%
X100366000Y-74540580D02*
X100366000Y-74259420D01*
X101386000Y-74540580D02*
X101386000Y-74259420D01*
%TO.C,C13*%
X100176080Y-63117000D02*
X99894920Y-63117000D01*
X100176080Y-64137000D02*
X99894920Y-64137000D01*
%TO.C,C15*%
X94506521Y-55109650D02*
X94787681Y-55109650D01*
X94506521Y-56129650D02*
X94787681Y-56129650D01*
%TO.C,J1*%
X90870000Y-80790000D02*
X90870000Y-88530000D01*
X90870000Y-80790000D02*
X93470000Y-80790000D01*
X90870000Y-88530000D02*
X96070000Y-88530000D01*
X93470000Y-80790000D02*
X93470000Y-83390000D01*
X93470000Y-83390000D02*
X96070000Y-83390000D01*
X94740000Y-80790000D02*
X96070000Y-80790000D01*
X96070000Y-80790000D02*
X96070000Y-82120000D01*
X96070000Y-83390000D02*
X96070000Y-88530000D01*
%TD*%
M02*
