%TF.GenerationSoftware,KiCad,Pcbnew,8.0.4*%
%TF.CreationDate,2024-10-29T17:12:26-05:00*%
%TF.ProjectId,smd_breadboard,736d645f-6272-4656-9164-626f6172642e,rev?*%
%TF.SameCoordinates,Original*%
%TF.FileFunction,Copper,L2,Bot*%
%TF.FilePolarity,Positive*%
%FSLAX46Y46*%
G04 Gerber Fmt 4.6, Leading zero omitted, Abs format (unit mm)*
G04 Created by KiCad (PCBNEW 8.0.4) date 2024-10-29 17:12:26*
%MOMM*%
%LPD*%
G01*
G04 APERTURE LIST*
%TA.AperFunction,ComponentPad*%
%ADD10R,1.700000X1.700000*%
%TD*%
%TA.AperFunction,ComponentPad*%
%ADD11O,1.700000X1.700000*%
%TD*%
%TA.AperFunction,ViaPad*%
%ADD12C,0.600000*%
%TD*%
%TA.AperFunction,Conductor*%
%ADD13C,0.200000*%
%TD*%
G04 APERTURE END LIST*
D10*
%TO.P,J2,1,Pin_1*%
%TO.N,VDD*%
X154200000Y-38880000D03*
D11*
%TO.P,J2,2,Pin_2*%
%TO.N,SPI_SCLK*%
X154200000Y-41420000D03*
%TO.P,J2,3,Pin_3*%
%TO.N,SPI_MISO*%
X154200000Y-43960000D03*
%TO.P,J2,4,Pin_4*%
%TO.N,SPI_MOSI*%
X154200000Y-46500000D03*
%TO.P,J2,5,Pin_5*%
%TO.N,SPI_NSS*%
X154200000Y-49040000D03*
%TO.P,J2,6,Pin_6*%
%TO.N,GDO0*%
X154200000Y-51580000D03*
%TO.P,J2,7,Pin_7*%
%TO.N,GDO2*%
X154200000Y-54120000D03*
%TO.P,J2,8,Pin_8*%
%TO.N,GND*%
X154200000Y-56660000D03*
%TO.P,J2,9,Pin_9*%
%TO.N,RF_P*%
X154200000Y-59200000D03*
%TO.P,J2,10,Pin_10*%
%TO.N,RF_N*%
X154200000Y-61740000D03*
%TO.P,J2,11,Pin_11*%
%TO.N,GND*%
X154200000Y-64280000D03*
%TO.P,J2,12,Pin_12*%
X154200000Y-66820000D03*
%TD*%
D12*
%TO.N,VDD*%
X152800000Y-58000000D03*
X156200000Y-59000000D03*
%TO.N,GND*%
X157600000Y-48600000D03*
X158000000Y-51000000D03*
%TO.N,VDD*%
X170400000Y-62000000D03*
X167600000Y-60800000D03*
X159400000Y-58200000D03*
X161200000Y-58000000D03*
%TO.N,SPI_SCLK*%
X168600000Y-58600000D03*
X168200000Y-56600000D03*
%TO.N,SPI_MISO*%
X167400000Y-59400000D03*
X167400000Y-57000000D03*
%TO.N,GND*%
X161800000Y-61600000D03*
X161000000Y-60800000D03*
X162600000Y-61600000D03*
X161000000Y-61600000D03*
X161800000Y-60800000D03*
X162600000Y-60800000D03*
X162600000Y-60000000D03*
X161800000Y-60000000D03*
X161000000Y-60000000D03*
%TO.N,GDO0*%
X166677972Y-59020607D03*
%TO.N,SPI_MOSI*%
X160600000Y-50400000D03*
X164200000Y-64200000D03*
%TO.N,GDO2*%
X164805510Y-60805510D03*
%TO.N,GND*%
X160800000Y-63600000D03*
X160000000Y-52800000D03*
X163400000Y-57000000D03*
X166200000Y-56800000D03*
X157400000Y-53400000D03*
X163000000Y-63800000D03*
X167000000Y-61800000D03*
X162600000Y-69600000D03*
X161000000Y-66200000D03*
%TD*%
D13*
%TO.N,VDD*%
X169200000Y-60800000D02*
X170400000Y-62000000D01*
X167600000Y-60800000D02*
X169200000Y-60800000D01*
%TO.N,SPI_SCLK*%
X168200000Y-58200000D02*
X168600000Y-58600000D01*
X168200000Y-56600000D02*
X168200000Y-58200000D01*
%TO.N,VDD*%
X159600000Y-58000000D02*
X159400000Y-58200000D01*
X161200000Y-58000000D02*
X159600000Y-58000000D01*
%TO.N,GDO0*%
X155980000Y-49800000D02*
X154200000Y-51580000D01*
X160848529Y-49800000D02*
X155980000Y-49800000D01*
X166800000Y-55751471D02*
X160848529Y-49800000D01*
X166800000Y-58898579D02*
X166800000Y-55751471D01*
X166677972Y-59020607D02*
X166800000Y-58898579D01*
%TO.N,SPI_MISO*%
X167400000Y-57600000D02*
X167400000Y-57000000D01*
X167400000Y-59400000D02*
X167400000Y-57600000D01*
%TO.N,SPI_MOSI*%
X165405510Y-55205510D02*
X165405510Y-62994490D01*
X165405510Y-62994490D02*
X164200000Y-64200000D01*
X160600000Y-50400000D02*
X165405510Y-55205510D01*
%TO.N,GDO2*%
X158880000Y-58800000D02*
X154200000Y-54120000D01*
X164800000Y-58800000D02*
X158880000Y-58800000D01*
X164805510Y-60805510D02*
X165000000Y-60611020D01*
X165000000Y-59000000D02*
X164800000Y-58800000D01*
X165000000Y-60611020D02*
X165000000Y-59000000D01*
%TD*%
%TA.AperFunction,Conductor*%
%TO.N,GND*%
G36*
X155656442Y-56429685D02*
G01*
X155677084Y-56446319D01*
X158395139Y-59164374D01*
X158395149Y-59164385D01*
X158399479Y-59168715D01*
X158399480Y-59168716D01*
X158511284Y-59280520D01*
X158511286Y-59280521D01*
X158511290Y-59280524D01*
X158630800Y-59349522D01*
X158648216Y-59359577D01*
X158744470Y-59385368D01*
X158800942Y-59400500D01*
X158800943Y-59400500D01*
X164275500Y-59400500D01*
X164342539Y-59420185D01*
X164388294Y-59472989D01*
X164399500Y-59524500D01*
X164399500Y-60046681D01*
X164379815Y-60113720D01*
X164341474Y-60151674D01*
X164303248Y-60175693D01*
X164175694Y-60303247D01*
X164079721Y-60455986D01*
X164020141Y-60626255D01*
X164020140Y-60626260D01*
X163999945Y-60805506D01*
X163999945Y-60805513D01*
X164020140Y-60984759D01*
X164020141Y-60984764D01*
X164079721Y-61155033D01*
X164154606Y-61274211D01*
X164175694Y-61307772D01*
X164303248Y-61435326D01*
X164393590Y-61492092D01*
X164413474Y-61504586D01*
X164455988Y-61531299D01*
X164626255Y-61590878D01*
X164694894Y-61598611D01*
X164759306Y-61625676D01*
X164798862Y-61683270D01*
X164805010Y-61721831D01*
X164805010Y-62694392D01*
X164785325Y-62761431D01*
X164768691Y-62782073D01*
X164181465Y-63369298D01*
X164120142Y-63402783D01*
X164107668Y-63404837D01*
X164020750Y-63414630D01*
X163850478Y-63474210D01*
X163697737Y-63570184D01*
X163570184Y-63697737D01*
X163474211Y-63850476D01*
X163414631Y-64020745D01*
X163414630Y-64020750D01*
X163394435Y-64199996D01*
X163394435Y-64200003D01*
X163414630Y-64379249D01*
X163414631Y-64379254D01*
X163474211Y-64549523D01*
X163497764Y-64587007D01*
X163570184Y-64702262D01*
X163697738Y-64829816D01*
X163850478Y-64925789D01*
X163941326Y-64957578D01*
X164020745Y-64985368D01*
X164020750Y-64985369D01*
X164199996Y-65005565D01*
X164200000Y-65005565D01*
X164200004Y-65005565D01*
X164379249Y-64985369D01*
X164379252Y-64985368D01*
X164379255Y-64985368D01*
X164549522Y-64925789D01*
X164702262Y-64829816D01*
X164829816Y-64702262D01*
X164925789Y-64549522D01*
X164985368Y-64379255D01*
X164995161Y-64292329D01*
X165022226Y-64227918D01*
X165030690Y-64218544D01*
X165886030Y-63363206D01*
X165965087Y-63226274D01*
X166006011Y-63073547D01*
X166006011Y-62915432D01*
X166006011Y-62907837D01*
X166006010Y-62907819D01*
X166006010Y-59768154D01*
X166025695Y-59701115D01*
X166078499Y-59655360D01*
X166147657Y-59645416D01*
X166195981Y-59663160D01*
X166235997Y-59688304D01*
X166328447Y-59746395D01*
X166498717Y-59805975D01*
X166498722Y-59805976D01*
X166666416Y-59824870D01*
X166730830Y-59851936D01*
X166757525Y-59882116D01*
X166770184Y-59902262D01*
X166897738Y-60029816D01*
X166975107Y-60078430D01*
X167021398Y-60130765D01*
X167032046Y-60199818D01*
X167003671Y-60263667D01*
X166996818Y-60271104D01*
X166970183Y-60297739D01*
X166874211Y-60450476D01*
X166814631Y-60620745D01*
X166814630Y-60620750D01*
X166794435Y-60799996D01*
X166794435Y-60800003D01*
X166814630Y-60979249D01*
X166814631Y-60979254D01*
X166874211Y-61149523D01*
X166915121Y-61214630D01*
X166970184Y-61302262D01*
X167097738Y-61429816D01*
X167188080Y-61486582D01*
X167216749Y-61504596D01*
X167250478Y-61525789D01*
X167266225Y-61531299D01*
X167420745Y-61585368D01*
X167420750Y-61585369D01*
X167599996Y-61605565D01*
X167600000Y-61605565D01*
X167600004Y-61605565D01*
X167779249Y-61585369D01*
X167779252Y-61585368D01*
X167779255Y-61585368D01*
X167949522Y-61525789D01*
X168102262Y-61429816D01*
X168102267Y-61429810D01*
X168105097Y-61427555D01*
X168107275Y-61426665D01*
X168108158Y-61426111D01*
X168108255Y-61426265D01*
X168169783Y-61401145D01*
X168182412Y-61400500D01*
X168899903Y-61400500D01*
X168966942Y-61420185D01*
X168987584Y-61436819D01*
X169569298Y-62018533D01*
X169602783Y-62079856D01*
X169604837Y-62092330D01*
X169614630Y-62179249D01*
X169674210Y-62349521D01*
X169700407Y-62391213D01*
X169770184Y-62502262D01*
X169897738Y-62629816D01*
X170050478Y-62725789D01*
X170107535Y-62745754D01*
X170220745Y-62785368D01*
X170220750Y-62785369D01*
X170399996Y-62805565D01*
X170400000Y-62805565D01*
X170400004Y-62805565D01*
X170579249Y-62785369D01*
X170579252Y-62785368D01*
X170579255Y-62785368D01*
X170749522Y-62725789D01*
X170902262Y-62629816D01*
X171029816Y-62502262D01*
X171070506Y-62437503D01*
X171122841Y-62391213D01*
X171191894Y-62380565D01*
X171255743Y-62408940D01*
X171294115Y-62467330D01*
X171299500Y-62503476D01*
X171299500Y-71175500D01*
X171279815Y-71242539D01*
X171227011Y-71288294D01*
X171175500Y-71299500D01*
X152024500Y-71299500D01*
X151957461Y-71279815D01*
X151911706Y-71227011D01*
X151900500Y-71175500D01*
X151900500Y-58503476D01*
X151920185Y-58436437D01*
X151972989Y-58390682D01*
X152042147Y-58380738D01*
X152105703Y-58409763D01*
X152129493Y-58437503D01*
X152170184Y-58502262D01*
X152297738Y-58629816D01*
X152450478Y-58725789D01*
X152603258Y-58779249D01*
X152620745Y-58785368D01*
X152620750Y-58785369D01*
X152761211Y-58801195D01*
X152825625Y-58828261D01*
X152865180Y-58885856D01*
X152867318Y-58955693D01*
X152867103Y-58956507D01*
X152864939Y-58964583D01*
X152864936Y-58964596D01*
X152844341Y-59199999D01*
X152844341Y-59200000D01*
X152864936Y-59435403D01*
X152864938Y-59435413D01*
X152926094Y-59663655D01*
X152926096Y-59663659D01*
X152926097Y-59663663D01*
X153013890Y-59851936D01*
X153025965Y-59877830D01*
X153025967Y-59877834D01*
X153161501Y-60071395D01*
X153161506Y-60071402D01*
X153328597Y-60238493D01*
X153328603Y-60238498D01*
X153514158Y-60368425D01*
X153557783Y-60423002D01*
X153564977Y-60492500D01*
X153533454Y-60554855D01*
X153514158Y-60571575D01*
X153328597Y-60701505D01*
X153161505Y-60868597D01*
X153025965Y-61062169D01*
X153025964Y-61062171D01*
X152926098Y-61276335D01*
X152926094Y-61276344D01*
X152864938Y-61504586D01*
X152864936Y-61504596D01*
X152844341Y-61739999D01*
X152844341Y-61740000D01*
X152864936Y-61975403D01*
X152864938Y-61975413D01*
X152926094Y-62203655D01*
X152926096Y-62203659D01*
X152926097Y-62203663D01*
X153008588Y-62380565D01*
X153025965Y-62417830D01*
X153025967Y-62417834D01*
X153161501Y-62611395D01*
X153161506Y-62611402D01*
X153328597Y-62778493D01*
X153328603Y-62778498D01*
X153338416Y-62785369D01*
X153513318Y-62907837D01*
X153514594Y-62908730D01*
X153558219Y-62963307D01*
X153565413Y-63032805D01*
X153533890Y-63095160D01*
X153514595Y-63111880D01*
X153328922Y-63241890D01*
X153328920Y-63241891D01*
X153161891Y-63408920D01*
X153161886Y-63408926D01*
X153026400Y-63602420D01*
X153026399Y-63602422D01*
X152926570Y-63816507D01*
X152926567Y-63816513D01*
X152869364Y-64029999D01*
X152869364Y-64030000D01*
X153766988Y-64030000D01*
X153734075Y-64087007D01*
X153700000Y-64214174D01*
X153700000Y-64345826D01*
X153734075Y-64472993D01*
X153766988Y-64530000D01*
X152869364Y-64530000D01*
X152926567Y-64743486D01*
X152926570Y-64743492D01*
X153026399Y-64957578D01*
X153161894Y-65151082D01*
X153328917Y-65318105D01*
X153515031Y-65448425D01*
X153558656Y-65503003D01*
X153565848Y-65572501D01*
X153534326Y-65634856D01*
X153515031Y-65651575D01*
X153328922Y-65781890D01*
X153328920Y-65781891D01*
X153161891Y-65948920D01*
X153161886Y-65948926D01*
X153026400Y-66142420D01*
X153026399Y-66142422D01*
X152926570Y-66356507D01*
X152926567Y-66356513D01*
X152869364Y-66569999D01*
X152869364Y-66570000D01*
X153766988Y-66570000D01*
X153734075Y-66627007D01*
X153700000Y-66754174D01*
X153700000Y-66885826D01*
X153734075Y-67012993D01*
X153766988Y-67070000D01*
X152869364Y-67070000D01*
X152926567Y-67283486D01*
X152926570Y-67283492D01*
X153026399Y-67497578D01*
X153161894Y-67691082D01*
X153328917Y-67858105D01*
X153522421Y-67993600D01*
X153736507Y-68093429D01*
X153736516Y-68093433D01*
X153950000Y-68150634D01*
X153950000Y-67253012D01*
X154007007Y-67285925D01*
X154134174Y-67320000D01*
X154265826Y-67320000D01*
X154392993Y-67285925D01*
X154450000Y-67253012D01*
X154450000Y-68150633D01*
X154663483Y-68093433D01*
X154663492Y-68093429D01*
X154877578Y-67993600D01*
X155071082Y-67858105D01*
X155238105Y-67691082D01*
X155373600Y-67497578D01*
X155473429Y-67283492D01*
X155473432Y-67283486D01*
X155530636Y-67070000D01*
X154633012Y-67070000D01*
X154665925Y-67012993D01*
X154700000Y-66885826D01*
X154700000Y-66754174D01*
X154665925Y-66627007D01*
X154633012Y-66570000D01*
X155530636Y-66570000D01*
X155530635Y-66569999D01*
X155473432Y-66356513D01*
X155473429Y-66356507D01*
X155373600Y-66142422D01*
X155373599Y-66142420D01*
X155238113Y-65948926D01*
X155238108Y-65948920D01*
X155071082Y-65781894D01*
X154884968Y-65651575D01*
X154841344Y-65596998D01*
X154834151Y-65527499D01*
X154865673Y-65465145D01*
X154884968Y-65448425D01*
X155071082Y-65318105D01*
X155238105Y-65151082D01*
X155373600Y-64957578D01*
X155473429Y-64743492D01*
X155473432Y-64743486D01*
X155530636Y-64530000D01*
X154633012Y-64530000D01*
X154665925Y-64472993D01*
X154700000Y-64345826D01*
X154700000Y-64214174D01*
X154665925Y-64087007D01*
X154633012Y-64030000D01*
X155530636Y-64030000D01*
X155530635Y-64029999D01*
X155473432Y-63816513D01*
X155473429Y-63816507D01*
X155373600Y-63602422D01*
X155373599Y-63602420D01*
X155238113Y-63408926D01*
X155238108Y-63408920D01*
X155071078Y-63241890D01*
X154885405Y-63111879D01*
X154841780Y-63057302D01*
X154834588Y-62987804D01*
X154866110Y-62925449D01*
X154885406Y-62908730D01*
X155071401Y-62778495D01*
X155238495Y-62611401D01*
X155374035Y-62417830D01*
X155473903Y-62203663D01*
X155535063Y-61975408D01*
X155555659Y-61740000D01*
X155535063Y-61504592D01*
X155482326Y-61307772D01*
X155473905Y-61276344D01*
X155473904Y-61276343D01*
X155473903Y-61276337D01*
X155374035Y-61062171D01*
X155319835Y-60984764D01*
X155238494Y-60868597D01*
X155071402Y-60701506D01*
X155071396Y-60701501D01*
X154885842Y-60571575D01*
X154842217Y-60516998D01*
X154835023Y-60447500D01*
X154866546Y-60385145D01*
X154885842Y-60368425D01*
X154955741Y-60319481D01*
X155071401Y-60238495D01*
X155238495Y-60071401D01*
X155374035Y-59877830D01*
X155473903Y-59663663D01*
X155473907Y-59663646D01*
X155475757Y-59658569D01*
X155477968Y-59659373D01*
X155509117Y-59608248D01*
X155571957Y-59577706D01*
X155641335Y-59585987D01*
X155680226Y-59612304D01*
X155697738Y-59629816D01*
X155751605Y-59663663D01*
X155811209Y-59701115D01*
X155850478Y-59725789D01*
X155918306Y-59749523D01*
X156020745Y-59785368D01*
X156020750Y-59785369D01*
X156199996Y-59805565D01*
X156200000Y-59805565D01*
X156200004Y-59805565D01*
X156379249Y-59785369D01*
X156379252Y-59785368D01*
X156379255Y-59785368D01*
X156549522Y-59725789D01*
X156702262Y-59629816D01*
X156829816Y-59502262D01*
X156925789Y-59349522D01*
X156985368Y-59179255D01*
X156985369Y-59179249D01*
X157005565Y-59000003D01*
X157005565Y-58999996D01*
X156985369Y-58820750D01*
X156985368Y-58820745D01*
X156952141Y-58725788D01*
X156925789Y-58650478D01*
X156829816Y-58497738D01*
X156702262Y-58370184D01*
X156636077Y-58328597D01*
X156549523Y-58274211D01*
X156379254Y-58214631D01*
X156379249Y-58214630D01*
X156200004Y-58194435D01*
X156199996Y-58194435D01*
X156020750Y-58214630D01*
X156020745Y-58214631D01*
X155850476Y-58274211D01*
X155697737Y-58370184D01*
X155570184Y-58497737D01*
X155570180Y-58497742D01*
X155568719Y-58500068D01*
X155567385Y-58501247D01*
X155565841Y-58503184D01*
X155565501Y-58502913D01*
X155516380Y-58546353D01*
X155447325Y-58556995D01*
X155383480Y-58528613D01*
X155362157Y-58505208D01*
X155360944Y-58503476D01*
X155267613Y-58370184D01*
X155238494Y-58328597D01*
X155071402Y-58161506D01*
X155071401Y-58161505D01*
X154885405Y-58031269D01*
X154841781Y-57976692D01*
X154834588Y-57907193D01*
X154866110Y-57844839D01*
X154885405Y-57828119D01*
X155071082Y-57698105D01*
X155238105Y-57531082D01*
X155373600Y-57337578D01*
X155473429Y-57123492D01*
X155473432Y-57123486D01*
X155530636Y-56910000D01*
X154633012Y-56910000D01*
X154665925Y-56852993D01*
X154700000Y-56725826D01*
X154700000Y-56594174D01*
X154665925Y-56467007D01*
X154633012Y-56410000D01*
X155589403Y-56410000D01*
X155656442Y-56429685D01*
G37*
%TD.AperFunction*%
%TA.AperFunction,Conductor*%
G36*
X154450000Y-66386988D02*
G01*
X154392993Y-66354075D01*
X154265826Y-66320000D01*
X154134174Y-66320000D01*
X154007007Y-66354075D01*
X153950000Y-66386988D01*
X153950000Y-64713012D01*
X154007007Y-64745925D01*
X154134174Y-64780000D01*
X154265826Y-64780000D01*
X154392993Y-64745925D01*
X154450000Y-64713012D01*
X154450000Y-66386988D01*
G37*
%TD.AperFunction*%
%TA.AperFunction,Conductor*%
G36*
X171242539Y-33520185D02*
G01*
X171288294Y-33572989D01*
X171299500Y-33624500D01*
X171299500Y-61496523D01*
X171279815Y-61563562D01*
X171227011Y-61609317D01*
X171157853Y-61619261D01*
X171094297Y-61590236D01*
X171070507Y-61562496D01*
X171029817Y-61497739D01*
X170902262Y-61370184D01*
X170749521Y-61274210D01*
X170579249Y-61214630D01*
X170492330Y-61204837D01*
X170427916Y-61177770D01*
X170418533Y-61169298D01*
X169687590Y-60438355D01*
X169687588Y-60438352D01*
X169568717Y-60319481D01*
X169568709Y-60319475D01*
X169466936Y-60260717D01*
X169466934Y-60260716D01*
X169431790Y-60240425D01*
X169431789Y-60240424D01*
X169419263Y-60237067D01*
X169279057Y-60199499D01*
X169120943Y-60199499D01*
X169113347Y-60199499D01*
X169113331Y-60199500D01*
X168182412Y-60199500D01*
X168115373Y-60179815D01*
X168105097Y-60172445D01*
X168102263Y-60170185D01*
X168102262Y-60170184D01*
X168024892Y-60121569D01*
X167978601Y-60069234D01*
X167967953Y-60000180D01*
X167996328Y-59936332D01*
X168003160Y-59928917D01*
X168029816Y-59902262D01*
X168125789Y-59749522D01*
X168185368Y-59579255D01*
X168185543Y-59577706D01*
X168197904Y-59467998D01*
X168224970Y-59403584D01*
X168282565Y-59364029D01*
X168352402Y-59361891D01*
X168362074Y-59364838D01*
X168375793Y-59369638D01*
X168420740Y-59385367D01*
X168420750Y-59385369D01*
X168599996Y-59405565D01*
X168600000Y-59405565D01*
X168600004Y-59405565D01*
X168779249Y-59385369D01*
X168779252Y-59385368D01*
X168779255Y-59385368D01*
X168949522Y-59325789D01*
X169102262Y-59229816D01*
X169229816Y-59102262D01*
X169325789Y-58949522D01*
X169385368Y-58779255D01*
X169391392Y-58725789D01*
X169405565Y-58600003D01*
X169405565Y-58599996D01*
X169385369Y-58420750D01*
X169385368Y-58420745D01*
X169374887Y-58390791D01*
X169325789Y-58250478D01*
X169303265Y-58214632D01*
X169269884Y-58161506D01*
X169229816Y-58097738D01*
X169102262Y-57970184D01*
X169032098Y-57926097D01*
X168949524Y-57874212D01*
X168949523Y-57874211D01*
X168883544Y-57851124D01*
X168826769Y-57810402D01*
X168801022Y-57745449D01*
X168800500Y-57734083D01*
X168800500Y-57182412D01*
X168820185Y-57115373D01*
X168827555Y-57105097D01*
X168829810Y-57102267D01*
X168829816Y-57102262D01*
X168925789Y-56949522D01*
X168985368Y-56779255D01*
X169005565Y-56600000D01*
X168990580Y-56467007D01*
X168985369Y-56420750D01*
X168985368Y-56420745D01*
X168981608Y-56409999D01*
X168925789Y-56250478D01*
X168829816Y-56097738D01*
X168702262Y-55970184D01*
X168698882Y-55968060D01*
X168549523Y-55874211D01*
X168379254Y-55814631D01*
X168379249Y-55814630D01*
X168200004Y-55794435D01*
X168199996Y-55794435D01*
X168020750Y-55814630D01*
X168020745Y-55814631D01*
X167850476Y-55874211D01*
X167697737Y-55970184D01*
X167612181Y-56055741D01*
X167550858Y-56089226D01*
X167481166Y-56084242D01*
X167425233Y-56042370D01*
X167400816Y-55976906D01*
X167400500Y-55968060D01*
X167400500Y-55840530D01*
X167400501Y-55840517D01*
X167400501Y-55672416D01*
X167400501Y-55672414D01*
X167359577Y-55519686D01*
X167330639Y-55469566D01*
X167280520Y-55382755D01*
X167168716Y-55270951D01*
X167168715Y-55270950D01*
X167164385Y-55266620D01*
X167164374Y-55266610D01*
X161336119Y-49438355D01*
X161336117Y-49438352D01*
X161217246Y-49319481D01*
X161217245Y-49319480D01*
X161130433Y-49269360D01*
X161130433Y-49269359D01*
X161130429Y-49269358D01*
X161080314Y-49240423D01*
X160927586Y-49199499D01*
X160769472Y-49199499D01*
X160761876Y-49199499D01*
X160761860Y-49199500D01*
X156059057Y-49199500D01*
X155900943Y-49199500D01*
X155748215Y-49240423D01*
X155748214Y-49240423D01*
X155748212Y-49240424D01*
X155748209Y-49240425D01*
X155733234Y-49249071D01*
X155665334Y-49265542D01*
X155599307Y-49242689D01*
X155556118Y-49187767D01*
X155547708Y-49130875D01*
X155555659Y-49040000D01*
X155555659Y-49039999D01*
X155535063Y-48804596D01*
X155535063Y-48804592D01*
X155473903Y-48576337D01*
X155374035Y-48362171D01*
X155238495Y-48168599D01*
X155238494Y-48168597D01*
X155071402Y-48001506D01*
X155071396Y-48001501D01*
X154885842Y-47871575D01*
X154842217Y-47816998D01*
X154835023Y-47747500D01*
X154866546Y-47685145D01*
X154885842Y-47668425D01*
X154908026Y-47652891D01*
X155071401Y-47538495D01*
X155238495Y-47371401D01*
X155374035Y-47177830D01*
X155473903Y-46963663D01*
X155535063Y-46735408D01*
X155555659Y-46500000D01*
X155535063Y-46264592D01*
X155473903Y-46036337D01*
X155374035Y-45822171D01*
X155238495Y-45628599D01*
X155238494Y-45628597D01*
X155071402Y-45461506D01*
X155071396Y-45461501D01*
X154885842Y-45331575D01*
X154842217Y-45276998D01*
X154835023Y-45207500D01*
X154866546Y-45145145D01*
X154885842Y-45128425D01*
X154908026Y-45112891D01*
X155071401Y-44998495D01*
X155238495Y-44831401D01*
X155374035Y-44637830D01*
X155473903Y-44423663D01*
X155535063Y-44195408D01*
X155555659Y-43960000D01*
X155535063Y-43724592D01*
X155473903Y-43496337D01*
X155374035Y-43282171D01*
X155238495Y-43088599D01*
X155238494Y-43088597D01*
X155071402Y-42921506D01*
X155071396Y-42921501D01*
X154885842Y-42791575D01*
X154842217Y-42736998D01*
X154835023Y-42667500D01*
X154866546Y-42605145D01*
X154885842Y-42588425D01*
X154908026Y-42572891D01*
X155071401Y-42458495D01*
X155238495Y-42291401D01*
X155374035Y-42097830D01*
X155473903Y-41883663D01*
X155535063Y-41655408D01*
X155555659Y-41420000D01*
X155535063Y-41184592D01*
X155473903Y-40956337D01*
X155374035Y-40742171D01*
X155238495Y-40548599D01*
X155116567Y-40426671D01*
X155083084Y-40365351D01*
X155088068Y-40295659D01*
X155129939Y-40239725D01*
X155160915Y-40222810D01*
X155292331Y-40173796D01*
X155407546Y-40087546D01*
X155493796Y-39972331D01*
X155544091Y-39837483D01*
X155550500Y-39777873D01*
X155550499Y-37982128D01*
X155544091Y-37922517D01*
X155493796Y-37787669D01*
X155493795Y-37787668D01*
X155493793Y-37787664D01*
X155407547Y-37672455D01*
X155407544Y-37672452D01*
X155292335Y-37586206D01*
X155292328Y-37586202D01*
X155157482Y-37535908D01*
X155157483Y-37535908D01*
X155097883Y-37529501D01*
X155097881Y-37529500D01*
X155097873Y-37529500D01*
X155097864Y-37529500D01*
X153302129Y-37529500D01*
X153302123Y-37529501D01*
X153242516Y-37535908D01*
X153107671Y-37586202D01*
X153107664Y-37586206D01*
X152992455Y-37672452D01*
X152992452Y-37672455D01*
X152906206Y-37787664D01*
X152906202Y-37787671D01*
X152855908Y-37922517D01*
X152849501Y-37982116D01*
X152849501Y-37982123D01*
X152849500Y-37982135D01*
X152849500Y-39777870D01*
X152849501Y-39777876D01*
X152855908Y-39837483D01*
X152906202Y-39972328D01*
X152906206Y-39972335D01*
X152992452Y-40087544D01*
X152992455Y-40087547D01*
X153107664Y-40173793D01*
X153107671Y-40173797D01*
X153239081Y-40222810D01*
X153295015Y-40264681D01*
X153319432Y-40330145D01*
X153304580Y-40398418D01*
X153283430Y-40426673D01*
X153161503Y-40548600D01*
X153025965Y-40742169D01*
X153025964Y-40742171D01*
X152926098Y-40956335D01*
X152926094Y-40956344D01*
X152864938Y-41184586D01*
X152864936Y-41184596D01*
X152844341Y-41419999D01*
X152844341Y-41420000D01*
X152864936Y-41655403D01*
X152864938Y-41655413D01*
X152926094Y-41883655D01*
X152926096Y-41883659D01*
X152926097Y-41883663D01*
X153025965Y-42097830D01*
X153025967Y-42097834D01*
X153161501Y-42291395D01*
X153161506Y-42291402D01*
X153328597Y-42458493D01*
X153328603Y-42458498D01*
X153514158Y-42588425D01*
X153557783Y-42643002D01*
X153564977Y-42712500D01*
X153533454Y-42774855D01*
X153514158Y-42791575D01*
X153328597Y-42921505D01*
X153161505Y-43088597D01*
X153025965Y-43282169D01*
X153025964Y-43282171D01*
X152926098Y-43496335D01*
X152926094Y-43496344D01*
X152864938Y-43724586D01*
X152864936Y-43724596D01*
X152844341Y-43959999D01*
X152844341Y-43960000D01*
X152864936Y-44195403D01*
X152864938Y-44195413D01*
X152926094Y-44423655D01*
X152926096Y-44423659D01*
X152926097Y-44423663D01*
X153025965Y-44637830D01*
X153025967Y-44637834D01*
X153161501Y-44831395D01*
X153161506Y-44831402D01*
X153328597Y-44998493D01*
X153328603Y-44998498D01*
X153514158Y-45128425D01*
X153557783Y-45183002D01*
X153564977Y-45252500D01*
X153533454Y-45314855D01*
X153514158Y-45331575D01*
X153328597Y-45461505D01*
X153161505Y-45628597D01*
X153025965Y-45822169D01*
X153025964Y-45822171D01*
X152926098Y-46036335D01*
X152926094Y-46036344D01*
X152864938Y-46264586D01*
X152864936Y-46264596D01*
X152844341Y-46499999D01*
X152844341Y-46500000D01*
X152864936Y-46735403D01*
X152864938Y-46735413D01*
X152926094Y-46963655D01*
X152926096Y-46963659D01*
X152926097Y-46963663D01*
X153025965Y-47177830D01*
X153025967Y-47177834D01*
X153161501Y-47371395D01*
X153161506Y-47371402D01*
X153328597Y-47538493D01*
X153328603Y-47538498D01*
X153514158Y-47668425D01*
X153557783Y-47723002D01*
X153564977Y-47792500D01*
X153533454Y-47854855D01*
X153514158Y-47871575D01*
X153328597Y-48001505D01*
X153161505Y-48168597D01*
X153025965Y-48362169D01*
X153025964Y-48362171D01*
X152926098Y-48576335D01*
X152926094Y-48576344D01*
X152864938Y-48804586D01*
X152864936Y-48804596D01*
X152844341Y-49039999D01*
X152844341Y-49040000D01*
X152864936Y-49275403D01*
X152864938Y-49275413D01*
X152926094Y-49503655D01*
X152926096Y-49503659D01*
X152926097Y-49503663D01*
X153025965Y-49717830D01*
X153025967Y-49717834D01*
X153161501Y-49911395D01*
X153161506Y-49911402D01*
X153328597Y-50078493D01*
X153328603Y-50078498D01*
X153514158Y-50208425D01*
X153557783Y-50263002D01*
X153564977Y-50332500D01*
X153533454Y-50394855D01*
X153514158Y-50411575D01*
X153328597Y-50541505D01*
X153161505Y-50708597D01*
X153025965Y-50902169D01*
X153025964Y-50902171D01*
X152926098Y-51116335D01*
X152926094Y-51116344D01*
X152864938Y-51344586D01*
X152864936Y-51344596D01*
X152844341Y-51579999D01*
X152844341Y-51580000D01*
X152864936Y-51815403D01*
X152864938Y-51815413D01*
X152926094Y-52043655D01*
X152926096Y-52043659D01*
X152926097Y-52043663D01*
X153025965Y-52257830D01*
X153025967Y-52257834D01*
X153161501Y-52451395D01*
X153161506Y-52451402D01*
X153328597Y-52618493D01*
X153328603Y-52618498D01*
X153514158Y-52748425D01*
X153557783Y-52803002D01*
X153564977Y-52872500D01*
X153533454Y-52934855D01*
X153514158Y-52951575D01*
X153328597Y-53081505D01*
X153161505Y-53248597D01*
X153025965Y-53442169D01*
X153025964Y-53442171D01*
X152926098Y-53656335D01*
X152926094Y-53656344D01*
X152864938Y-53884586D01*
X152864936Y-53884596D01*
X152844341Y-54119999D01*
X152844341Y-54120000D01*
X152864936Y-54355403D01*
X152864938Y-54355413D01*
X152926094Y-54583655D01*
X152926096Y-54583659D01*
X152926097Y-54583663D01*
X152935362Y-54603531D01*
X153025965Y-54797830D01*
X153025967Y-54797834D01*
X153134281Y-54952521D01*
X153161505Y-54991401D01*
X153328599Y-55158495D01*
X153483017Y-55266620D01*
X153514594Y-55288730D01*
X153558219Y-55343307D01*
X153565413Y-55412805D01*
X153533890Y-55475160D01*
X153514595Y-55491880D01*
X153328922Y-55621890D01*
X153328920Y-55621891D01*
X153161891Y-55788920D01*
X153161886Y-55788926D01*
X153026400Y-55982420D01*
X153026399Y-55982422D01*
X152926570Y-56196507D01*
X152926567Y-56196513D01*
X152869364Y-56409999D01*
X152869364Y-56410000D01*
X153766988Y-56410000D01*
X153734075Y-56467007D01*
X153700000Y-56594174D01*
X153700000Y-56725826D01*
X153734075Y-56852993D01*
X153766988Y-56910000D01*
X152869364Y-56910000D01*
X152904018Y-57039331D01*
X152902355Y-57109181D01*
X152863193Y-57167044D01*
X152798964Y-57194548D01*
X152798127Y-57194645D01*
X152620749Y-57214630D01*
X152620745Y-57214631D01*
X152450476Y-57274211D01*
X152297737Y-57370184D01*
X152170182Y-57497739D01*
X152129493Y-57562496D01*
X152077158Y-57608787D01*
X152008105Y-57619434D01*
X151944257Y-57591059D01*
X151905885Y-57532669D01*
X151900500Y-57496523D01*
X151900500Y-33624500D01*
X151920185Y-33557461D01*
X151972989Y-33511706D01*
X152024500Y-33500500D01*
X171175500Y-33500500D01*
X171242539Y-33520185D01*
G37*
%TD.AperFunction*%
%TA.AperFunction,Conductor*%
G36*
X159750717Y-50420185D02*
G01*
X159796472Y-50472989D01*
X159806898Y-50510617D01*
X159814630Y-50579249D01*
X159874210Y-50749521D01*
X159874211Y-50749522D01*
X159970184Y-50902262D01*
X160097738Y-51029816D01*
X160250478Y-51125789D01*
X160420745Y-51185368D01*
X160507669Y-51195161D01*
X160572080Y-51222226D01*
X160581465Y-51230700D01*
X164768691Y-55417926D01*
X164802176Y-55479249D01*
X164805010Y-55505607D01*
X164805010Y-58075500D01*
X164785325Y-58142539D01*
X164732521Y-58188294D01*
X164681010Y-58199500D01*
X162121843Y-58199500D01*
X162054804Y-58179815D01*
X162009049Y-58127011D01*
X161998623Y-58061617D01*
X162005565Y-58000003D01*
X162005565Y-57999996D01*
X161985369Y-57820750D01*
X161985368Y-57820745D01*
X161955044Y-57734083D01*
X161925789Y-57650478D01*
X161829816Y-57497738D01*
X161702262Y-57370184D01*
X161650370Y-57337578D01*
X161549523Y-57274211D01*
X161379254Y-57214631D01*
X161379249Y-57214630D01*
X161200004Y-57194435D01*
X161199996Y-57194435D01*
X161020750Y-57214630D01*
X161020745Y-57214631D01*
X160850476Y-57274211D01*
X160697736Y-57370185D01*
X160694903Y-57372445D01*
X160692724Y-57373334D01*
X160691842Y-57373889D01*
X160691744Y-57373734D01*
X160630217Y-57398855D01*
X160617588Y-57399500D01*
X159686670Y-57399500D01*
X159686654Y-57399499D01*
X159679058Y-57399499D01*
X159520943Y-57399499D01*
X159520941Y-57399499D01*
X159512887Y-57400560D01*
X159512823Y-57400076D01*
X159475130Y-57402900D01*
X159400003Y-57394435D01*
X159399996Y-57394435D01*
X159220750Y-57414630D01*
X159220745Y-57414631D01*
X159050476Y-57474211D01*
X158897739Y-57570183D01*
X158786259Y-57681663D01*
X158724936Y-57715147D01*
X158655244Y-57710163D01*
X158610897Y-57681662D01*
X155532766Y-54603531D01*
X155499281Y-54542208D01*
X155500672Y-54483757D01*
X155501863Y-54479309D01*
X155535063Y-54355408D01*
X155555659Y-54120000D01*
X155535063Y-53884592D01*
X155473903Y-53656337D01*
X155374035Y-53442171D01*
X155238495Y-53248599D01*
X155238494Y-53248597D01*
X155071402Y-53081506D01*
X155071396Y-53081501D01*
X154885842Y-52951575D01*
X154842217Y-52896998D01*
X154835023Y-52827500D01*
X154866546Y-52765145D01*
X154885842Y-52748425D01*
X154908026Y-52732891D01*
X155071401Y-52618495D01*
X155238495Y-52451401D01*
X155374035Y-52257830D01*
X155473903Y-52043663D01*
X155535063Y-51815408D01*
X155555659Y-51580000D01*
X155535063Y-51344592D01*
X155500671Y-51216239D01*
X155502334Y-51146393D01*
X155532763Y-51096470D01*
X156192416Y-50436819D01*
X156253739Y-50403334D01*
X156280097Y-50400500D01*
X159683678Y-50400500D01*
X159750717Y-50420185D01*
G37*
%TD.AperFunction*%
%TD*%
M02*
