%TF.GenerationSoftware,KiCad,Pcbnew,8.0.4*%
%TF.CreationDate,2024-10-29T17:12:26-05:00*%
%TF.ProjectId,smd_breadboard,736d645f-6272-4656-9164-626f6172642e,rev?*%
%TF.SameCoordinates,Original*%
%TF.FileFunction,Soldermask,Top*%
%TF.FilePolarity,Negative*%
%FSLAX46Y46*%
G04 Gerber Fmt 4.6, Leading zero omitted, Abs format (unit mm)*
G04 Created by KiCad (PCBNEW 8.0.4) date 2024-10-29 17:12:26*
%MOMM*%
%LPD*%
G01*
G04 APERTURE LIST*
G04 Aperture macros list*
%AMRoundRect*
0 Rectangle with rounded corners*
0 $1 Rounding radius*
0 $2 $3 $4 $5 $6 $7 $8 $9 X,Y pos of 4 corners*
0 Add a 4 corners polygon primitive as box body*
4,1,4,$2,$3,$4,$5,$6,$7,$8,$9,$2,$3,0*
0 Add four circle primitives for the rounded corners*
1,1,$1+$1,$2,$3*
1,1,$1+$1,$4,$5*
1,1,$1+$1,$6,$7*
1,1,$1+$1,$8,$9*
0 Add four rect primitives between the rounded corners*
20,1,$1+$1,$2,$3,$4,$5,0*
20,1,$1+$1,$4,$5,$6,$7,0*
20,1,$1+$1,$6,$7,$8,$9,0*
20,1,$1+$1,$8,$9,$2,$3,0*%
G04 Aperture macros list end*
%ADD10R,1.700000X1.700000*%
%ADD11O,1.700000X1.700000*%
%ADD12RoundRect,0.062500X0.425000X0.062500X-0.425000X0.062500X-0.425000X-0.062500X0.425000X-0.062500X0*%
%ADD13RoundRect,0.062500X0.062500X0.425000X-0.062500X0.425000X-0.062500X-0.425000X0.062500X-0.425000X0*%
%ADD14R,2.400000X2.400000*%
%ADD15R,1.400000X1.200000*%
%ADD16RoundRect,0.218750X-0.256250X0.218750X-0.256250X-0.218750X0.256250X-0.218750X0.256250X0.218750X0*%
%ADD17RoundRect,0.225000X-0.250000X0.225000X-0.250000X-0.225000X0.250000X-0.225000X0.250000X0.225000X0*%
%ADD18RoundRect,0.225000X0.250000X-0.225000X0.250000X0.225000X-0.250000X0.225000X-0.250000X-0.225000X0*%
G04 APERTURE END LIST*
D10*
%TO.C,J2*%
X154200000Y-38880000D03*
D11*
X154200000Y-41420000D03*
X154200000Y-43960000D03*
X154200000Y-46500000D03*
X154200000Y-49040000D03*
X154200000Y-51580000D03*
X154200000Y-54120000D03*
X154200000Y-56660000D03*
X154200000Y-59200000D03*
X154200000Y-61740000D03*
X154200000Y-64280000D03*
X154200000Y-66820000D03*
%TD*%
D12*
%TO.C,U2*%
X163687500Y-61800000D03*
X163687500Y-61300000D03*
X163687500Y-60800000D03*
X163687500Y-60300000D03*
X163687500Y-59800000D03*
D13*
X162800000Y-58912500D03*
X162300000Y-58912500D03*
X161800000Y-58912500D03*
X161300000Y-58912500D03*
X160800000Y-58912500D03*
D12*
X159912500Y-59800000D03*
X159912500Y-60300000D03*
X159912500Y-60800000D03*
X159912500Y-61300000D03*
X159912500Y-61800000D03*
D13*
X160800000Y-62687500D03*
X161300000Y-62687500D03*
X161800000Y-62687500D03*
X162300000Y-62687500D03*
X162800000Y-62687500D03*
D14*
X161800000Y-60800000D03*
%TD*%
D15*
%TO.C,Y1*%
X162400000Y-54512500D03*
X160200000Y-54512500D03*
X160200000Y-56112500D03*
X162400000Y-56112500D03*
%TD*%
D16*
%TO.C,R1*%
X161400000Y-67525000D03*
X161400000Y-69100000D03*
%TD*%
D17*
%TO.C,C8*%
X159800000Y-64337500D03*
X159800000Y-65887500D03*
%TD*%
D18*
%TO.C,C7*%
X157600000Y-56087500D03*
X157600000Y-54537500D03*
%TD*%
D17*
%TO.C,C6*%
X165000000Y-54737500D03*
X165000000Y-56287500D03*
%TD*%
%TO.C,C5*%
X166200000Y-59937500D03*
X166200000Y-61487500D03*
%TD*%
M02*
