M48
; DRILL file {KiCad 8.0.4} date 2024-10-29T17:12:24-0500
; FORMAT={-:-/ absolute / inch / decimal}
; #@! TF.CreationDate,2024-10-29T17:12:24-05:00
; #@! TF.GenerationSoftware,Kicad,Pcbnew,8.0.4
; #@! TF.FileFunction,Plated,1,2,PTH
FMAT,2
INCH
; #@! TA.AperFunction,Plated,PTH,ViaDrill
T1C0.0118
; #@! TA.AperFunction,Plated,PTH,ComponentDrill
T2C0.0394
%
G90
G05
T1
X6.0157Y-2.2835
X6.1496Y-2.3228
X6.1969Y-2.1024
X6.2047Y-1.9134
X6.2205Y-2.0079
X6.2756Y-2.2913
X6.2992Y-2.0787
X6.3228Y-1.9843
X6.3307Y-2.5039
X6.3386Y-2.3622
X6.3386Y-2.3937
X6.3386Y-2.4252
X6.3386Y-2.6063
X6.3465Y-2.2835
X6.3701Y-2.3622
X6.3701Y-2.3937
X6.3701Y-2.4252
X6.4016Y-2.3622
X6.4016Y-2.3937
X6.4016Y-2.4252
X6.4016Y-2.7402
X6.4173Y-2.5118
X6.4331Y-2.2441
X6.4646Y-2.5276
X6.4884Y-2.3939
X6.5433Y-2.2362
X6.5621Y-2.3236
X6.5748Y-2.4331
X6.5906Y-2.2441
X6.5906Y-2.3386
X6.5984Y-2.3937
X6.622Y-2.2283
X6.6378Y-2.3071
X6.7087Y-2.4409
T2
X6.0709Y-1.5307
X6.0709Y-1.6307
X6.0709Y-1.7307
X6.0709Y-1.8307
X6.0709Y-1.9307
X6.0709Y-2.0307
X6.0709Y-2.1307
X6.0709Y-2.2307
X6.0709Y-2.3307
X6.0709Y-2.4307
X6.0709Y-2.5307
X6.0709Y-2.6307
M30
