%TF.GenerationSoftware,KiCad,Pcbnew,8.0.4*%
%TF.CreationDate,2024-10-29T17:12:26-05:00*%
%TF.ProjectId,smd_breadboard,736d645f-6272-4656-9164-626f6172642e,rev?*%
%TF.SameCoordinates,Original*%
%TF.FileFunction,Legend,Top*%
%TF.FilePolarity,Positive*%
%FSLAX46Y46*%
G04 Gerber Fmt 4.6, Leading zero omitted, Abs format (unit mm)*
G04 Created by KiCad (PCBNEW 8.0.4) date 2024-10-29 17:12:26*
%MOMM*%
%LPD*%
G01*
G04 APERTURE LIST*
%ADD10C,0.150000*%
%ADD11C,0.254000*%
%ADD12C,0.120000*%
%ADD13C,0.200000*%
G04 APERTURE END LIST*
D10*
X149486666Y-35564819D02*
X149486666Y-36279104D01*
X149486666Y-36279104D02*
X149439047Y-36421961D01*
X149439047Y-36421961D02*
X149343809Y-36517200D01*
X149343809Y-36517200D02*
X149200952Y-36564819D01*
X149200952Y-36564819D02*
X149105714Y-36564819D01*
X149915238Y-35660057D02*
X149962857Y-35612438D01*
X149962857Y-35612438D02*
X150058095Y-35564819D01*
X150058095Y-35564819D02*
X150296190Y-35564819D01*
X150296190Y-35564819D02*
X150391428Y-35612438D01*
X150391428Y-35612438D02*
X150439047Y-35660057D01*
X150439047Y-35660057D02*
X150486666Y-35755295D01*
X150486666Y-35755295D02*
X150486666Y-35850533D01*
X150486666Y-35850533D02*
X150439047Y-35993390D01*
X150439047Y-35993390D02*
X149867619Y-36564819D01*
X149867619Y-36564819D02*
X150486666Y-36564819D01*
X161038095Y-63584819D02*
X161038095Y-64394342D01*
X161038095Y-64394342D02*
X161085714Y-64489580D01*
X161085714Y-64489580D02*
X161133333Y-64537200D01*
X161133333Y-64537200D02*
X161228571Y-64584819D01*
X161228571Y-64584819D02*
X161419047Y-64584819D01*
X161419047Y-64584819D02*
X161514285Y-64537200D01*
X161514285Y-64537200D02*
X161561904Y-64489580D01*
X161561904Y-64489580D02*
X161609523Y-64394342D01*
X161609523Y-64394342D02*
X161609523Y-63584819D01*
X162038095Y-63680057D02*
X162085714Y-63632438D01*
X162085714Y-63632438D02*
X162180952Y-63584819D01*
X162180952Y-63584819D02*
X162419047Y-63584819D01*
X162419047Y-63584819D02*
X162514285Y-63632438D01*
X162514285Y-63632438D02*
X162561904Y-63680057D01*
X162561904Y-63680057D02*
X162609523Y-63775295D01*
X162609523Y-63775295D02*
X162609523Y-63870533D01*
X162609523Y-63870533D02*
X162561904Y-64013390D01*
X162561904Y-64013390D02*
X161990476Y-64584819D01*
X161990476Y-64584819D02*
X162609523Y-64584819D01*
D11*
X160695238Y-55282056D02*
X160695238Y-55886818D01*
X160271905Y-54616818D02*
X160695238Y-55282056D01*
X160695238Y-55282056D02*
X161118572Y-54616818D01*
X162207143Y-55886818D02*
X161481428Y-55886818D01*
X161844285Y-55886818D02*
X161844285Y-54616818D01*
X161844285Y-54616818D02*
X161723333Y-54798246D01*
X161723333Y-54798246D02*
X161602381Y-54919199D01*
X161602381Y-54919199D02*
X161481428Y-54979675D01*
D10*
X163284819Y-68479166D02*
X162808628Y-68812499D01*
X163284819Y-69050594D02*
X162284819Y-69050594D01*
X162284819Y-69050594D02*
X162284819Y-68669642D01*
X162284819Y-68669642D02*
X162332438Y-68574404D01*
X162332438Y-68574404D02*
X162380057Y-68526785D01*
X162380057Y-68526785D02*
X162475295Y-68479166D01*
X162475295Y-68479166D02*
X162618152Y-68479166D01*
X162618152Y-68479166D02*
X162713390Y-68526785D01*
X162713390Y-68526785D02*
X162761009Y-68574404D01*
X162761009Y-68574404D02*
X162808628Y-68669642D01*
X162808628Y-68669642D02*
X162808628Y-69050594D01*
X163284819Y-67526785D02*
X163284819Y-68098213D01*
X163284819Y-67812499D02*
X162284819Y-67812499D01*
X162284819Y-67812499D02*
X162427676Y-67907737D01*
X162427676Y-67907737D02*
X162522914Y-68002975D01*
X162522914Y-68002975D02*
X162570533Y-68098213D01*
X158759580Y-65279166D02*
X158807200Y-65326785D01*
X158807200Y-65326785D02*
X158854819Y-65469642D01*
X158854819Y-65469642D02*
X158854819Y-65564880D01*
X158854819Y-65564880D02*
X158807200Y-65707737D01*
X158807200Y-65707737D02*
X158711961Y-65802975D01*
X158711961Y-65802975D02*
X158616723Y-65850594D01*
X158616723Y-65850594D02*
X158426247Y-65898213D01*
X158426247Y-65898213D02*
X158283390Y-65898213D01*
X158283390Y-65898213D02*
X158092914Y-65850594D01*
X158092914Y-65850594D02*
X157997676Y-65802975D01*
X157997676Y-65802975D02*
X157902438Y-65707737D01*
X157902438Y-65707737D02*
X157854819Y-65564880D01*
X157854819Y-65564880D02*
X157854819Y-65469642D01*
X157854819Y-65469642D02*
X157902438Y-65326785D01*
X157902438Y-65326785D02*
X157950057Y-65279166D01*
X158283390Y-64707737D02*
X158235771Y-64802975D01*
X158235771Y-64802975D02*
X158188152Y-64850594D01*
X158188152Y-64850594D02*
X158092914Y-64898213D01*
X158092914Y-64898213D02*
X158045295Y-64898213D01*
X158045295Y-64898213D02*
X157950057Y-64850594D01*
X157950057Y-64850594D02*
X157902438Y-64802975D01*
X157902438Y-64802975D02*
X157854819Y-64707737D01*
X157854819Y-64707737D02*
X157854819Y-64517261D01*
X157854819Y-64517261D02*
X157902438Y-64422023D01*
X157902438Y-64422023D02*
X157950057Y-64374404D01*
X157950057Y-64374404D02*
X158045295Y-64326785D01*
X158045295Y-64326785D02*
X158092914Y-64326785D01*
X158092914Y-64326785D02*
X158188152Y-64374404D01*
X158188152Y-64374404D02*
X158235771Y-64422023D01*
X158235771Y-64422023D02*
X158283390Y-64517261D01*
X158283390Y-64517261D02*
X158283390Y-64707737D01*
X158283390Y-64707737D02*
X158331009Y-64802975D01*
X158331009Y-64802975D02*
X158378628Y-64850594D01*
X158378628Y-64850594D02*
X158473866Y-64898213D01*
X158473866Y-64898213D02*
X158664342Y-64898213D01*
X158664342Y-64898213D02*
X158759580Y-64850594D01*
X158759580Y-64850594D02*
X158807200Y-64802975D01*
X158807200Y-64802975D02*
X158854819Y-64707737D01*
X158854819Y-64707737D02*
X158854819Y-64517261D01*
X158854819Y-64517261D02*
X158807200Y-64422023D01*
X158807200Y-64422023D02*
X158759580Y-64374404D01*
X158759580Y-64374404D02*
X158664342Y-64326785D01*
X158664342Y-64326785D02*
X158473866Y-64326785D01*
X158473866Y-64326785D02*
X158378628Y-64374404D01*
X158378628Y-64374404D02*
X158331009Y-64422023D01*
X158331009Y-64422023D02*
X158283390Y-64517261D01*
X156529580Y-55479166D02*
X156577200Y-55526785D01*
X156577200Y-55526785D02*
X156624819Y-55669642D01*
X156624819Y-55669642D02*
X156624819Y-55764880D01*
X156624819Y-55764880D02*
X156577200Y-55907737D01*
X156577200Y-55907737D02*
X156481961Y-56002975D01*
X156481961Y-56002975D02*
X156386723Y-56050594D01*
X156386723Y-56050594D02*
X156196247Y-56098213D01*
X156196247Y-56098213D02*
X156053390Y-56098213D01*
X156053390Y-56098213D02*
X155862914Y-56050594D01*
X155862914Y-56050594D02*
X155767676Y-56002975D01*
X155767676Y-56002975D02*
X155672438Y-55907737D01*
X155672438Y-55907737D02*
X155624819Y-55764880D01*
X155624819Y-55764880D02*
X155624819Y-55669642D01*
X155624819Y-55669642D02*
X155672438Y-55526785D01*
X155672438Y-55526785D02*
X155720057Y-55479166D01*
X155624819Y-55145832D02*
X155624819Y-54479166D01*
X155624819Y-54479166D02*
X156624819Y-54907737D01*
X166789580Y-55679166D02*
X166837200Y-55726785D01*
X166837200Y-55726785D02*
X166884819Y-55869642D01*
X166884819Y-55869642D02*
X166884819Y-55964880D01*
X166884819Y-55964880D02*
X166837200Y-56107737D01*
X166837200Y-56107737D02*
X166741961Y-56202975D01*
X166741961Y-56202975D02*
X166646723Y-56250594D01*
X166646723Y-56250594D02*
X166456247Y-56298213D01*
X166456247Y-56298213D02*
X166313390Y-56298213D01*
X166313390Y-56298213D02*
X166122914Y-56250594D01*
X166122914Y-56250594D02*
X166027676Y-56202975D01*
X166027676Y-56202975D02*
X165932438Y-56107737D01*
X165932438Y-56107737D02*
X165884819Y-55964880D01*
X165884819Y-55964880D02*
X165884819Y-55869642D01*
X165884819Y-55869642D02*
X165932438Y-55726785D01*
X165932438Y-55726785D02*
X165980057Y-55679166D01*
X165884819Y-54822023D02*
X165884819Y-55012499D01*
X165884819Y-55012499D02*
X165932438Y-55107737D01*
X165932438Y-55107737D02*
X165980057Y-55155356D01*
X165980057Y-55155356D02*
X166122914Y-55250594D01*
X166122914Y-55250594D02*
X166313390Y-55298213D01*
X166313390Y-55298213D02*
X166694342Y-55298213D01*
X166694342Y-55298213D02*
X166789580Y-55250594D01*
X166789580Y-55250594D02*
X166837200Y-55202975D01*
X166837200Y-55202975D02*
X166884819Y-55107737D01*
X166884819Y-55107737D02*
X166884819Y-54917261D01*
X166884819Y-54917261D02*
X166837200Y-54822023D01*
X166837200Y-54822023D02*
X166789580Y-54774404D01*
X166789580Y-54774404D02*
X166694342Y-54726785D01*
X166694342Y-54726785D02*
X166456247Y-54726785D01*
X166456247Y-54726785D02*
X166361009Y-54774404D01*
X166361009Y-54774404D02*
X166313390Y-54822023D01*
X166313390Y-54822023D02*
X166265771Y-54917261D01*
X166265771Y-54917261D02*
X166265771Y-55107737D01*
X166265771Y-55107737D02*
X166313390Y-55202975D01*
X166313390Y-55202975D02*
X166361009Y-55250594D01*
X166361009Y-55250594D02*
X166456247Y-55298213D01*
X167989580Y-60879166D02*
X168037200Y-60926785D01*
X168037200Y-60926785D02*
X168084819Y-61069642D01*
X168084819Y-61069642D02*
X168084819Y-61164880D01*
X168084819Y-61164880D02*
X168037200Y-61307737D01*
X168037200Y-61307737D02*
X167941961Y-61402975D01*
X167941961Y-61402975D02*
X167846723Y-61450594D01*
X167846723Y-61450594D02*
X167656247Y-61498213D01*
X167656247Y-61498213D02*
X167513390Y-61498213D01*
X167513390Y-61498213D02*
X167322914Y-61450594D01*
X167322914Y-61450594D02*
X167227676Y-61402975D01*
X167227676Y-61402975D02*
X167132438Y-61307737D01*
X167132438Y-61307737D02*
X167084819Y-61164880D01*
X167084819Y-61164880D02*
X167084819Y-61069642D01*
X167084819Y-61069642D02*
X167132438Y-60926785D01*
X167132438Y-60926785D02*
X167180057Y-60879166D01*
X167084819Y-59974404D02*
X167084819Y-60450594D01*
X167084819Y-60450594D02*
X167561009Y-60498213D01*
X167561009Y-60498213D02*
X167513390Y-60450594D01*
X167513390Y-60450594D02*
X167465771Y-60355356D01*
X167465771Y-60355356D02*
X167465771Y-60117261D01*
X167465771Y-60117261D02*
X167513390Y-60022023D01*
X167513390Y-60022023D02*
X167561009Y-59974404D01*
X167561009Y-59974404D02*
X167656247Y-59926785D01*
X167656247Y-59926785D02*
X167894342Y-59926785D01*
X167894342Y-59926785D02*
X167989580Y-59974404D01*
X167989580Y-59974404D02*
X168037200Y-60022023D01*
X168037200Y-60022023D02*
X168084819Y-60117261D01*
X168084819Y-60117261D02*
X168084819Y-60355356D01*
X168084819Y-60355356D02*
X168037200Y-60450594D01*
X168037200Y-60450594D02*
X167989580Y-60498213D01*
D12*
%TO.C,J2*%
X144110000Y-37550000D02*
X144110000Y-68150000D01*
X144110000Y-37550000D02*
X152740000Y-37550000D01*
X144110000Y-37670000D02*
X152740000Y-37670000D01*
X144110000Y-37788095D02*
X152740000Y-37788095D01*
X144110000Y-37906190D02*
X152740000Y-37906190D01*
X144110000Y-38024285D02*
X152740000Y-38024285D01*
X144110000Y-38142380D02*
X152740000Y-38142380D01*
X144110000Y-38260475D02*
X152740000Y-38260475D01*
X144110000Y-38378570D02*
X152740000Y-38378570D01*
X144110000Y-38496665D02*
X152740000Y-38496665D01*
X144110000Y-38614760D02*
X152740000Y-38614760D01*
X144110000Y-38732855D02*
X152740000Y-38732855D01*
X144110000Y-38850950D02*
X152740000Y-38850950D01*
X144110000Y-38969045D02*
X152740000Y-38969045D01*
X144110000Y-39087140D02*
X152740000Y-39087140D01*
X144110000Y-39205235D02*
X152740000Y-39205235D01*
X144110000Y-39323330D02*
X152740000Y-39323330D01*
X144110000Y-39441425D02*
X152740000Y-39441425D01*
X144110000Y-39559520D02*
X152740000Y-39559520D01*
X144110000Y-39677615D02*
X152740000Y-39677615D01*
X144110000Y-39795710D02*
X152740000Y-39795710D01*
X144110000Y-39913805D02*
X152740000Y-39913805D01*
X144110000Y-40031900D02*
X152740000Y-40031900D01*
X144110000Y-40150000D02*
X152740000Y-40150000D01*
X144110000Y-42690000D02*
X152740000Y-42690000D01*
X144110000Y-45230000D02*
X152740000Y-45230000D01*
X144110000Y-47770000D02*
X152740000Y-47770000D01*
X144110000Y-50310000D02*
X152740000Y-50310000D01*
X144110000Y-52850000D02*
X152740000Y-52850000D01*
X144110000Y-55390000D02*
X152740000Y-55390000D01*
X144110000Y-57930000D02*
X152740000Y-57930000D01*
X144110000Y-60470000D02*
X152740000Y-60470000D01*
X144110000Y-63010000D02*
X152740000Y-63010000D01*
X144110000Y-65550000D02*
X152740000Y-65550000D01*
X144110000Y-68150000D02*
X152740000Y-68150000D01*
X152740000Y-37550000D02*
X152740000Y-68150000D01*
X152740000Y-38520000D02*
X153090000Y-38520000D01*
X152740000Y-39240000D02*
X153090000Y-39240000D01*
X152740000Y-41060000D02*
X153150000Y-41060000D01*
X152740000Y-41780000D02*
X153150000Y-41780000D01*
X152740000Y-43600000D02*
X153150000Y-43600000D01*
X152740000Y-44320000D02*
X153150000Y-44320000D01*
X152740000Y-46140000D02*
X153150000Y-46140000D01*
X152740000Y-46860000D02*
X153150000Y-46860000D01*
X152740000Y-48680000D02*
X153150000Y-48680000D01*
X152740000Y-49400000D02*
X153150000Y-49400000D01*
X152740000Y-51220000D02*
X153150000Y-51220000D01*
X152740000Y-51940000D02*
X153150000Y-51940000D01*
X152740000Y-53760000D02*
X153150000Y-53760000D01*
X152740000Y-54480000D02*
X153150000Y-54480000D01*
X152740000Y-56300000D02*
X153150000Y-56300000D01*
X152740000Y-57020000D02*
X153150000Y-57020000D01*
X152740000Y-58840000D02*
X153150000Y-58840000D01*
X152740000Y-59560000D02*
X153150000Y-59560000D01*
X152740000Y-61380000D02*
X153150000Y-61380000D01*
X152740000Y-62100000D02*
X153150000Y-62100000D01*
X152740000Y-63920000D02*
X153150000Y-63920000D01*
X152740000Y-64640000D02*
X153150000Y-64640000D01*
X152740000Y-66460000D02*
X153150000Y-66460000D01*
X152740000Y-67180000D02*
X153150000Y-67180000D01*
X154200000Y-37550000D02*
X155310000Y-37550000D01*
X155310000Y-37550000D02*
X155310000Y-38880000D01*
%TO.C,U2*%
X163910000Y-62185000D02*
X163910000Y-62670000D01*
X163910000Y-58690000D02*
X163910000Y-59415000D01*
X163185000Y-62910000D02*
X163610000Y-62910000D01*
X163185000Y-58690000D02*
X163910000Y-58690000D01*
X160415000Y-62910000D02*
X159690000Y-62910000D01*
X160415000Y-58690000D02*
X159690000Y-58690000D01*
X159690000Y-62910000D02*
X159690000Y-62185000D01*
X159690000Y-58690000D02*
X159690000Y-59415000D01*
X164150000Y-63240000D02*
X163670000Y-63240000D01*
X163910000Y-62910000D01*
X164150000Y-63240000D01*
G36*
X164150000Y-63240000D02*
G01*
X163670000Y-63240000D01*
X163910000Y-62910000D01*
X164150000Y-63240000D01*
G37*
D13*
%TO.C,Y1*%
X162500000Y-53412500D02*
X162500000Y-53412500D01*
X162300000Y-53412500D02*
X162300000Y-53412500D01*
X162300000Y-53412500D02*
G75*
G02*
X162500000Y-53412500I100000J0D01*
G01*
X162500000Y-53412500D02*
G75*
G02*
X162300000Y-53412500I-100000J0D01*
G01*
D12*
%TO.C,R1*%
X161910000Y-68149721D02*
X161910000Y-68475279D01*
X160890000Y-68149721D02*
X160890000Y-68475279D01*
%TO.C,C8*%
X160310000Y-64971920D02*
X160310000Y-65253080D01*
X159290000Y-64971920D02*
X159290000Y-65253080D01*
%TO.C,C7*%
X157090000Y-55453080D02*
X157090000Y-55171920D01*
X158110000Y-55453080D02*
X158110000Y-55171920D01*
%TO.C,C6*%
X165510000Y-55371920D02*
X165510000Y-55653080D01*
X164490000Y-55371920D02*
X164490000Y-55653080D01*
%TO.C,C5*%
X166710000Y-60571920D02*
X166710000Y-60853080D01*
X165690000Y-60571920D02*
X165690000Y-60853080D01*
%TD*%
M02*
